<svg width="942" height="281" viewBox="0 0 942 281" fill="none" xmlns="http://www.w3.org/2000/svg">
<path d="M45.302 0L45.552 -0.00312848L45.052 -0.00314159L45.302 0ZM25.033 20.294L25.0282 20.044V20.5439L25.033 20.294ZM45.302 40.5889L45.052 40.592L45.552 40.5889H45.302ZM65.7117 20.2944L65.7148 20.5444V20.0445L65.7117 20.2944ZM95.368 0L95.618 -0.00312848L95.1181 -0.00314159L95.368 0ZM75.0991 20.294L75.0943 20.044V20.5439L75.0991 20.294ZM95.368 40.5889L95.1181 40.592L95.618 40.5889H95.368ZM115.778 20.2944L115.781 20.5444V20.0445L115.778 20.2944ZM145.434 0L145.684 -0.00312848L145.184 -0.00314159L145.434 0ZM125.165 20.294L125.16 20.044V20.5439L125.165 20.294ZM145.434 40.5889L145.184 40.592L145.684 40.5889H145.434ZM165.844 20.2944L165.847 20.5444V20.0445L165.844 20.2944ZM195.5 0L195.75 -0.00312848L195.25 -0.00314159L195.5 0ZM175.231 20.294L175.226 20.044V20.5439L175.231 20.294ZM195.5 40.5889L195.25 40.592L195.75 40.5889H195.5ZM215.91 20.2944L215.913 20.5444V20.0445L215.91 20.2944ZM245.566 0L245.816 -0.00312848L245.316 -0.00314159L245.566 0ZM225.297 20.294L225.292 20.044V20.5439L225.297 20.294ZM245.566 40.5889L245.316 40.592L245.816 40.5889H245.566ZM265.976 20.2944L265.979 20.5444V20.0445L265.976 20.2944ZM295.632 0L295.882 -0.00312848L295.382 -0.00314159L295.632 0ZM275.363 20.294L275.359 20.044V20.5439L275.363 20.294ZM295.632 40.5889L295.382 40.592L295.882 40.5889H295.632ZM316.042 20.2944L316.045 20.5444V20.0445L316.042 20.2944ZM345.698 0L345.948 -0.00312848L345.448 -0.00314159L345.698 0ZM325.429 20.294L325.425 20.044V20.5439L325.429 20.294ZM345.698 40.5889L345.448 40.592L345.948 40.5889H345.698ZM366.108 20.2944L366.111 20.5444V20.0445L366.108 20.2944ZM395.764 0L396.014 -0.00312848L395.514 -0.00314159L395.764 0ZM375.495 20.294L375.491 20.044V20.5439L375.495 20.294ZM395.764 40.5889L395.514 40.592L396.014 40.5889H395.764ZM416.174 20.2944L416.177 20.5444V20.0445L416.174 20.2944ZM445.831 0L446.08 -0.00312848L445.581 -0.00314159L445.831 0ZM425.562 20.294L425.557 20.044V20.5439L425.562 20.294ZM445.831 40.5889L445.581 40.592L446.081 40.5889H445.831ZM466.24 20.2944L466.243 20.5444V20.0445L466.24 20.2944ZM495.897 0L496.147 -0.00312848L495.647 -0.00314159L495.897 0ZM475.628 20.294L475.623 20.044V20.5439L475.628 20.294ZM495.897 40.5889L495.647 40.592L496.147 40.5889H495.897ZM516.306 20.2944L516.309 20.5444V20.0445L516.306 20.2944ZM545.963 0L546.213 -0.00312848L545.713 -0.00314159L545.963 0ZM525.694 20.294L525.689 20.044V20.5439L525.694 20.294ZM545.963 40.5889L545.713 40.592L546.213 40.5889H545.963ZM566.372 20.2944L566.375 20.5444V20.0445L566.372 20.2944ZM596.029 0L596.279 -0.00312848L595.779 -0.00314159L596.029 0ZM575.76 20.294L575.755 20.044V20.5439L575.76 20.294ZM596.029 40.5889L595.779 40.592L596.279 40.5889H596.029ZM616.438 20.2944L616.442 20.5444V20.0445L616.438 20.2944ZM646.095 0L646.345 -0.00312848L645.845 -0.00314159L646.095 0ZM625.826 20.294L625.821 20.044V20.5439L625.826 20.294ZM646.095 40.5889L645.845 40.592L646.345 40.5889H646.095ZM666.505 20.2944L666.508 20.5444V20.0445L666.505 20.2944ZM696.161 0L696.411 -0.00312848L695.911 -0.00314159L696.161 0ZM675.892 20.294L675.887 20.044V20.5439L675.892 20.294ZM696.161 40.5889L695.911 40.592L696.411 40.5889H696.161ZM716.571 20.2944L716.574 20.5444V20.0445L716.571 20.2944ZM746.227 0L746.477 -0.00312848L745.977 -0.00314159L746.227 0ZM725.958 20.294L725.953 20.044V20.5439L725.958 20.294ZM746.227 40.5889L745.977 40.592L746.477 40.5889H746.227ZM766.637 20.2944L766.64 20.5444V20.0445L766.637 20.2944ZM796.293 0L796.543 -0.00312848L796.043 -0.00314159L796.293 0ZM776.024 20.294L776.019 20.044V20.5439L776.024 20.294ZM796.293 40.5889L796.043 40.592L796.543 40.5889H796.293ZM816.703 20.2944L816.706 20.5444V20.0445L816.703 20.2944ZM846.359 0L846.609 -0.00312848L846.109 -0.00314159L846.359 0ZM826.09 20.294L826.085 20.044V20.5439L826.09 20.294ZM846.359 40.5889L846.109 40.592L846.609 40.5889H846.359ZM866.769 20.2944L866.772 20.5444V20.0445L866.769 20.2944ZM896.425 0L896.675 -0.00312848L896.175 -0.00314159L896.425 0ZM876.156 20.294L876.151 20.044V20.5439L876.156 20.294ZM896.425 40.5889L896.175 40.592L896.675 40.5889H896.425ZM916.835 20.2944L916.838 20.5444V20.0445L916.835 20.2944ZM20.269 34.3444L20.5189 34.3413L20.019 34.3413L20.269 34.3444ZM0 54.6384L-0.00480008 54.3885L-0.0048001 54.8884L0 54.6384ZM20.269 74.9333L20.019 74.9365L20.519 74.9333H20.269ZM40.6787 54.6389L40.6818 54.8889V54.3889L40.6787 54.6389ZM70.335 34.3444L70.585 34.3413L70.0851 34.3413L70.335 34.3444ZM50.0661 54.6384L50.0613 54.3885V54.8884L50.0661 54.6384ZM70.335 74.9333L70.0851 74.9365L70.585 74.9333H70.335ZM90.7448 54.6389L90.7479 54.8889V54.3889L90.7448 54.6389ZM120.401 34.3444L120.651 34.3413L120.151 34.3413L120.401 34.3444ZM100.132 54.6384L100.127 54.3885V54.8884L100.132 54.6384ZM120.401 74.9333L120.151 74.9365L120.651 74.9333H120.401ZM140.811 54.6389L140.814 54.8889V54.3889L140.811 54.6389ZM170.467 34.3444L170.717 34.3413L170.217 34.3413L170.467 34.3444ZM150.198 54.6384L150.193 54.3885V54.8884L150.198 54.6384ZM170.467 74.9333L170.217 74.9365L170.717 74.9333H170.467ZM190.877 54.6389L190.88 54.8889V54.3889L190.877 54.6389ZM220.533 34.3444L220.783 34.3413L220.283 34.3413L220.533 34.3444ZM200.264 54.6384L200.259 54.3885V54.8884L200.264 54.6384ZM220.533 74.9333L220.283 74.9365L220.783 74.9333H220.533ZM240.943 54.6389L240.946 54.8889V54.3889L240.943 54.6389ZM270.599 34.3444L270.849 34.3413L270.349 34.3413L270.599 34.3444ZM250.33 54.6384L250.326 54.3885V54.8884L250.33 54.6384ZM270.599 74.9333L270.349 74.9365L270.849 74.9333H270.599ZM291.009 54.6389L291.012 54.8889V54.3889L291.009 54.6389ZM320.665 34.3444L320.915 34.3413L320.415 34.3413L320.665 34.3444ZM300.396 54.6384L300.392 54.3885V54.8884L300.396 54.6384ZM320.665 74.9333L320.415 74.9365L320.915 74.9333H320.665ZM341.075 54.6389L341.078 54.8889V54.3889L341.075 54.6389ZM370.731 34.3444L370.981 34.3413L370.481 34.3413L370.731 34.3444ZM350.462 54.6384L350.458 54.3885V54.8884L350.462 54.6384ZM370.731 74.9333L370.481 74.9365L370.981 74.9333H370.731ZM391.141 54.6389L391.144 54.8889V54.3889L391.141 54.6389ZM420.797 34.3444L421.047 34.3413L420.548 34.3413L420.797 34.3444ZM400.529 54.6384L400.524 54.3885V54.8884L400.529 54.6384ZM420.797 74.9333L420.548 74.9365L421.047 74.9333H420.797ZM441.207 54.6389L441.21 54.8889V54.3889L441.207 54.6389ZM470.864 34.3444L471.114 34.3413L470.614 34.3413L470.864 34.3444ZM450.595 54.6384L450.59 54.3885V54.8884L450.595 54.6384ZM470.864 74.9333L470.614 74.9365L471.114 74.9333H470.864ZM491.273 54.6389L491.276 54.8889V54.3889L491.273 54.6389ZM520.93 34.3444L521.18 34.3413L520.68 34.3413L520.93 34.3444ZM500.661 54.6384L500.656 54.3885V54.8884L500.661 54.6384ZM520.93 74.9333L520.68 74.9365L521.18 74.9333H520.93ZM541.339 54.6389L541.342 54.8889V54.3889L541.339 54.6389ZM570.996 34.3444L571.246 34.3413L570.746 34.3413L570.996 34.3444ZM550.727 54.6384L550.722 54.3885V54.8884L550.727 54.6384ZM570.996 74.9333L570.746 74.9365L571.246 74.9333H570.996ZM591.405 54.6389L591.409 54.8889V54.3889L591.405 54.6389ZM621.062 34.3444L621.312 34.3413L620.812 34.3413L621.062 34.3444ZM600.793 54.6384L600.788 54.3885V54.8884L600.793 54.6384ZM621.062 74.9333L620.812 74.9365L621.312 74.9333H621.062ZM641.471 54.6389L641.475 54.8889V54.3889L641.471 54.6389ZM671.128 34.3444L671.378 34.3413L670.878 34.3413L671.128 34.3444ZM650.859 54.6384L650.854 54.3885V54.8884L650.859 54.6384ZM671.128 74.9333L670.878 74.9365L671.378 74.9333H671.128ZM691.538 54.6389L691.541 54.8889V54.3889L691.538 54.6389ZM721.194 34.3444L721.444 34.3413L720.944 34.3413L721.194 34.3444ZM700.925 54.6384L700.92 54.3885V54.8884L700.925 54.6384ZM721.194 74.9333L720.944 74.9365L721.444 74.9333H721.194ZM741.604 54.6389L741.607 54.8889V54.3889L741.604 54.6389ZM771.26 34.3444L771.51 34.3413L771.01 34.3413L771.26 34.3444ZM750.991 54.6384L750.986 54.3885V54.8884L750.991 54.6384ZM771.26 74.9333L771.01 74.9365L771.51 74.9333H771.26ZM791.67 54.6389L791.673 54.8889V54.3889L791.67 54.6389ZM821.326 34.3444L821.576 34.3413L821.076 34.3413L821.326 34.3444ZM801.057 54.6384L801.052 54.3885V54.8884L801.057 54.6384ZM821.326 74.9333L821.076 74.9365L821.576 74.9333H821.326ZM841.736 54.6389L841.739 54.8889V54.3889L841.736 54.6389ZM871.392 34.3444L871.642 34.3413L871.142 34.3413L871.392 34.3444ZM851.123 54.6384L851.118 54.3885V54.8884L851.123 54.6384ZM871.392 74.9333L871.142 74.9365L871.642 74.9333H871.392ZM891.802 54.6389L891.805 54.8889V54.3889L891.802 54.6389ZM921.458 34.3444L921.708 34.3413L921.208 34.3413L921.458 34.3444ZM901.189 54.6384L901.184 54.3885V54.8884L901.189 54.6384ZM921.458 74.9333L921.208 74.9365L921.708 74.9333H921.458ZM941.868 54.6389L941.871 54.8889V54.3889L941.868 54.6389ZM195.5 68.6889L195.75 68.6858L195.25 68.6857L195.5 68.6889ZM175.231 88.9829L175.226 88.7329V89.2328L175.231 88.9829ZM195.5 109.278L195.25 109.281L195.75 109.278H195.5ZM215.91 88.9833L215.913 89.2333V88.7334L215.91 88.9833ZM245.566 68.6889L245.816 68.6858L245.316 68.6857L245.566 68.6889ZM225.297 88.9829L225.292 88.7329V89.2328L225.297 88.9829ZM245.566 109.278L245.316 109.281L245.816 109.278H245.566ZM265.976 88.9833L265.979 89.2333V88.7334L265.976 88.9833ZM295.632 68.6889L295.882 68.6858L295.382 68.6857L295.632 68.6889ZM275.363 88.9829L275.359 88.7329V89.2328L275.363 88.9829ZM295.632 109.278L295.382 109.281L295.882 109.278H295.632ZM316.042 88.9833L316.045 89.2333V88.7334L316.042 88.9833ZM345.698 68.6889L345.948 68.6858L345.448 68.6857L345.698 68.6889ZM325.429 88.9829L325.425 88.7329V89.2328L325.429 88.9829ZM345.698 109.278L345.448 109.281L345.948 109.278H345.698ZM366.108 88.9833L366.111 89.2333V88.7334L366.108 88.9833ZM395.764 68.6889L396.014 68.6858L395.514 68.6857L395.764 68.6889ZM375.495 88.9829L375.491 88.7329V89.2328L375.495 88.9829ZM395.764 109.278L395.514 109.281L396.014 109.278H395.764ZM416.174 88.9833L416.177 89.2333V88.7334L416.174 88.9833ZM445.831 68.6889L446.08 68.6858L445.581 68.6857L445.831 68.6889ZM425.562 88.9829L425.557 88.7329V89.2328L425.562 88.9829ZM445.831 109.278L445.581 109.281L446.081 109.278H445.831ZM466.24 88.9833L466.243 89.2333V88.7334L466.24 88.9833ZM495.897 68.6889L496.147 68.6858L495.647 68.6857L495.897 68.6889ZM475.628 88.9829L475.623 88.7329V89.2328L475.628 88.9829ZM495.897 109.278L495.647 109.281L496.147 109.278H495.897ZM516.306 88.9833L516.309 89.2333V88.7334L516.306 88.9833ZM545.963 68.6889L546.213 68.6858L545.713 68.6857L545.963 68.6889ZM525.694 88.9829L525.689 88.7329V89.2328L525.694 88.9829ZM545.963 109.278L545.713 109.281L546.213 109.278H545.963ZM566.372 88.9833L566.375 89.2333V88.7334L566.372 88.9833ZM596.029 68.6889L596.279 68.6858L595.779 68.6857L596.029 68.6889ZM575.76 88.9829L575.755 88.7329V89.2328L575.76 88.9829ZM596.029 109.278L595.779 109.281L596.279 109.278H596.029ZM616.438 88.9833L616.442 89.2333V88.7334L616.438 88.9833ZM646.095 68.6889L646.345 68.6858L645.845 68.6857L646.095 68.6889ZM625.826 88.9829L625.821 88.7329V89.2328L625.826 88.9829ZM646.095 109.278L645.845 109.281L646.345 109.278H646.095ZM666.505 88.9833L666.508 89.2333V88.7334L666.505 88.9833ZM696.161 68.6889L696.411 68.6858L695.911 68.6857L696.161 68.6889ZM675.892 88.9829L675.887 88.7329V89.2328L675.892 88.9829ZM696.161 109.278L695.911 109.281L696.411 109.278H696.161ZM716.571 88.9833L716.574 89.2333V88.7334L716.571 88.9833ZM746.227 68.6889L746.477 68.6858L745.977 68.6857L746.227 68.6889ZM725.958 88.9829L725.953 88.7329V89.2328L725.958 88.9829ZM746.227 109.278L745.977 109.281L746.477 109.278H746.227ZM766.637 88.9833L766.64 89.2333V88.7334L766.637 88.9833ZM796.293 68.6889L796.543 68.6858L796.043 68.6857L796.293 68.6889ZM776.024 88.9829L776.019 88.7329V89.2328L776.024 88.9829ZM796.293 109.278L796.043 109.281L796.543 109.278H796.293ZM816.703 88.9833L816.706 89.2333V88.7334L816.703 88.9833ZM846.359 68.6889L846.609 68.6858L846.109 68.6857L846.359 68.6889ZM826.09 88.9829L826.085 88.7329V89.2328L826.09 88.9829ZM846.359 109.278L846.109 109.281L846.609 109.278H846.359ZM866.769 88.9833L866.772 89.2333V88.7334L866.769 88.9833ZM896.425 68.6889L896.675 68.6858L896.175 68.6857L896.425 68.6889ZM876.156 88.9829L876.151 88.7329V89.2328L876.156 88.9829ZM896.425 109.278L896.175 109.281L896.675 109.278H896.425ZM916.835 88.9833L916.838 89.2333V88.7334L916.835 88.9833ZM170.467 103.033L170.717 103.03L170.217 103.03L170.467 103.033ZM150.198 123.327L150.193 123.077V123.577L150.198 123.327ZM170.467 143.622L170.217 143.625L170.717 143.622H170.467ZM190.877 123.328L190.88 123.578V123.078L190.877 123.328ZM220.533 103.033L220.783 103.03L220.283 103.03L220.533 103.033ZM200.264 123.327L200.259 123.077V123.577L200.264 123.327ZM220.533 143.622L220.283 143.625L220.783 143.622H220.533ZM240.943 123.328L240.946 123.578V123.078L240.943 123.328ZM270.599 103.033L270.849 103.03L270.349 103.03L270.599 103.033ZM250.33 123.327L250.326 123.077V123.577L250.33 123.327ZM270.599 143.622L270.349 143.625L270.849 143.622H270.599ZM291.009 123.328L291.012 123.578V123.078L291.009 123.328ZM320.665 103.033L320.915 103.03L320.415 103.03L320.665 103.033ZM300.396 123.327L300.392 123.077V123.577L300.396 123.327ZM320.665 143.622L320.415 143.625L320.915 143.622H320.665ZM341.075 123.328L341.078 123.578V123.078L341.075 123.328ZM370.731 103.033L370.981 103.03L370.481 103.03L370.731 103.033ZM350.462 123.327L350.458 123.077V123.577L350.462 123.327ZM370.731 143.622L370.481 143.625L370.981 143.622H370.731ZM391.141 123.328L391.144 123.578V123.078L391.141 123.328ZM420.797 103.033L421.047 103.03L420.548 103.03L420.797 103.033ZM400.529 123.327L400.524 123.077V123.577L400.529 123.327ZM420.797 143.622L420.548 143.625L421.047 143.622H420.797ZM441.207 123.328L441.21 123.578V123.078L441.207 123.328ZM470.864 103.033L471.114 103.03L470.614 103.03L470.864 103.033ZM450.595 123.327L450.59 123.077V123.577L450.595 123.327ZM470.864 143.622L470.614 143.625L471.114 143.622H470.864ZM491.273 123.328L491.276 123.578V123.078L491.273 123.328ZM520.93 103.033L521.18 103.03L520.68 103.03L520.93 103.033ZM500.661 123.327L500.656 123.077V123.577L500.661 123.327ZM520.93 143.622L520.68 143.625L521.18 143.622H520.93ZM541.339 123.328L541.342 123.578V123.078L541.339 123.328ZM570.996 103.033L571.246 103.03L570.746 103.03L570.996 103.033ZM550.727 123.327L550.722 123.077V123.577L550.727 123.327ZM570.996 143.622L570.746 143.625L571.246 143.622H570.996ZM591.405 123.328L591.409 123.578V123.078L591.405 123.328ZM621.062 103.033L621.312 103.03L620.812 103.03L621.062 103.033ZM600.793 123.327L600.788 123.077V123.577L600.793 123.327ZM621.062 143.622L620.812 143.625L621.312 143.622H621.062ZM641.471 123.328L641.475 123.578V123.078L641.471 123.328ZM671.128 103.033L671.378 103.03L670.878 103.03L671.128 103.033ZM650.859 123.327L650.854 123.077V123.577L650.859 123.327ZM671.128 143.622L670.878 143.625L671.378 143.622H671.128ZM691.538 123.328L691.541 123.578V123.078L691.538 123.328ZM721.194 103.033L721.444 103.03L720.944 103.03L721.194 103.033ZM700.925 123.327L700.92 123.077V123.577L700.925 123.327ZM721.194 143.622L720.944 143.625L721.444 143.622H721.194ZM741.604 123.328L741.607 123.578V123.078L741.604 123.328ZM771.26 103.033L771.51 103.03L771.01 103.03L771.26 103.033ZM750.991 123.327L750.986 123.077V123.577L750.991 123.327ZM771.26 143.622L771.01 143.625L771.51 143.622H771.26ZM791.67 123.328L791.673 123.578V123.078L791.67 123.328ZM821.326 103.033L821.576 103.03L821.076 103.03L821.326 103.033ZM801.057 123.327L801.052 123.077V123.577L801.057 123.327ZM821.326 143.622L821.076 143.625L821.576 143.622H821.326ZM841.736 123.328L841.739 123.578V123.078L841.736 123.328ZM871.392 103.033L871.642 103.03L871.142 103.03L871.392 103.033ZM851.123 123.327L851.118 123.077V123.577L851.123 123.327ZM871.392 143.622L871.142 143.625L871.642 143.622H871.392ZM891.802 123.328L891.805 123.578V123.078L891.802 123.328ZM921.458 103.033L921.708 103.03L921.208 103.03L921.458 103.033ZM901.189 123.327L901.184 123.077V123.577L901.189 123.327ZM921.458 143.622L921.208 143.625L921.708 143.622H921.458ZM941.868 123.328L941.871 123.578V123.078L941.868 123.328ZM295.632 137.378L295.882 137.375L295.382 137.375L295.632 137.378ZM275.363 157.672L275.359 157.422V157.922L275.363 157.672ZM295.632 177.967L295.382 177.97L295.882 177.967H295.632ZM316.042 157.672L316.045 157.922V157.422L316.042 157.672ZM345.698 137.378L345.948 137.375L345.448 137.375L345.698 137.378ZM325.429 157.672L325.425 157.422V157.922L325.429 157.672ZM345.698 177.967L345.448 177.97L345.948 177.967H345.698ZM366.108 157.672L366.111 157.922V157.422L366.108 157.672ZM395.764 137.378L396.014 137.375L395.514 137.375L395.764 137.378ZM375.495 157.672L375.491 157.422V157.922L375.495 157.672ZM395.764 177.967L395.514 177.97L396.014 177.967H395.764ZM416.174 157.672L416.177 157.922V157.422L416.174 157.672ZM445.831 137.378L446.08 137.375L445.581 137.375L445.831 137.378ZM425.562 157.672L425.557 157.422V157.922L425.562 157.672ZM445.831 177.967L445.581 177.97L446.081 177.967H445.831ZM466.24 157.672L466.243 157.922V157.422L466.24 157.672ZM495.897 137.378L496.147 137.375L495.647 137.375L495.897 137.378ZM475.628 157.672L475.623 157.422V157.922L475.628 157.672ZM495.897 177.967L495.647 177.97L496.147 177.967H495.897ZM516.306 157.672L516.309 157.922V157.422L516.306 157.672ZM545.963 137.378L546.213 137.375L545.713 137.375L545.963 137.378ZM525.694 157.672L525.689 157.422V157.922L525.694 157.672ZM545.963 177.967L545.713 177.97L546.213 177.967H545.963ZM566.372 157.672L566.375 157.922V157.422L566.372 157.672ZM596.029 137.378L596.279 137.375L595.779 137.375L596.029 137.378ZM575.76 157.672L575.755 157.422V157.922L575.76 157.672ZM596.029 177.967L595.779 177.97L596.279 177.967H596.029ZM616.438 157.672L616.442 157.922V157.422L616.438 157.672ZM646.095 137.378L646.345 137.375L645.845 137.375L646.095 137.378ZM625.826 157.672L625.821 157.422V157.922L625.826 157.672ZM646.095 177.967L645.845 177.97L646.345 177.967H646.095ZM666.505 157.672L666.508 157.922V157.422L666.505 157.672ZM696.161 137.378L696.411 137.375L695.911 137.375L696.161 137.378ZM675.892 157.672L675.887 157.422V157.922L675.892 157.672ZM696.161 177.967L695.911 177.97L696.411 177.967H696.161ZM716.571 157.672L716.574 157.922V157.422L716.571 157.672ZM746.227 137.378L746.477 137.375L745.977 137.375L746.227 137.378ZM725.958 157.672L725.953 157.422V157.922L725.958 157.672ZM746.227 177.967L745.977 177.97L746.477 177.967H746.227ZM766.637 157.672L766.64 157.922V157.422L766.637 157.672ZM796.293 137.378L796.543 137.375L796.043 137.375L796.293 137.378ZM776.024 157.672L776.019 157.422V157.922L776.024 157.672ZM796.293 177.967L796.043 177.97L796.543 177.967H796.293ZM816.703 157.672L816.706 157.922V157.422L816.703 157.672ZM846.359 137.378L846.609 137.375L846.109 137.375L846.359 137.378ZM826.09 157.672L826.085 157.422V157.922L826.09 157.672ZM846.359 177.967L846.109 177.97L846.609 177.967H846.359ZM866.769 157.672L866.772 157.922V157.422L866.769 157.672ZM896.425 137.378L896.675 137.375L896.175 137.375L896.425 137.378ZM876.156 157.672L876.151 157.422V157.922L876.156 157.672ZM896.425 177.967L896.175 177.97L896.675 177.967H896.425ZM916.835 157.672L916.838 157.922V157.422L916.835 157.672ZM270.599 171.722L270.849 171.719L270.349 171.719L270.599 171.722ZM250.33 192.016L250.326 191.766V192.266L250.33 192.016ZM270.599 212.311L270.349 212.314L270.849 212.311H270.599ZM291.009 192.017L291.012 192.267V191.767L291.009 192.017ZM320.665 171.722L320.915 171.719L320.415 171.719L320.665 171.722ZM300.396 192.016L300.392 191.766V192.266L300.396 192.016ZM320.665 212.311L320.415 212.314L320.915 212.311H320.665ZM341.075 192.017L341.078 192.267V191.767L341.075 192.017ZM370.731 171.722L370.981 171.719L370.481 171.719L370.731 171.722ZM350.462 192.016L350.458 191.766V192.266L350.462 192.016ZM370.731 212.311L370.481 212.314L370.981 212.311H370.731ZM391.141 192.017L391.144 192.267V191.767L391.141 192.017ZM420.797 171.722L421.047 171.719L420.548 171.719L420.797 171.722ZM400.529 192.016L400.524 191.766V192.266L400.529 192.016ZM420.797 212.311L420.548 212.314L421.047 212.311H420.797ZM441.207 192.017L441.21 192.267V191.767L441.207 192.017ZM470.864 171.722L471.114 171.719L470.614 171.719L470.864 171.722ZM450.595 192.016L450.59 191.766V192.266L450.595 192.016ZM470.864 212.311L470.614 212.314L471.114 212.311H470.864ZM491.273 192.017L491.276 192.267V191.767L491.273 192.017ZM520.93 171.722L521.18 171.719L520.68 171.719L520.93 171.722ZM500.661 192.016L500.656 191.766V192.266L500.661 192.016ZM520.93 212.311L520.68 212.314L521.18 212.311H520.93ZM541.339 192.017L541.342 192.267V191.767L541.339 192.017ZM570.996 171.722L571.246 171.719L570.746 171.719L570.996 171.722ZM550.727 192.016L550.722 191.766V192.266L550.727 192.016ZM570.996 212.311L570.746 212.314L571.246 212.311H570.996ZM591.405 192.017L591.409 192.267V191.767L591.405 192.017ZM621.062 171.722L621.312 171.719L620.812 171.719L621.062 171.722ZM600.793 192.016L600.788 191.766V192.266L600.793 192.016ZM621.062 212.311L620.812 212.314L621.312 212.311H621.062ZM641.471 192.017L641.475 192.267V191.767L641.471 192.017ZM671.128 171.722L671.378 171.719L670.878 171.719L671.128 171.722ZM650.859 192.016L650.854 191.766V192.266L650.859 192.016ZM671.128 212.311L670.878 212.314L671.378 212.311H671.128ZM691.538 192.017L691.541 192.267V191.767L691.538 192.017ZM721.194 171.722L721.444 171.719L720.944 171.719L721.194 171.722ZM700.925 192.016L700.92 191.766V192.266L700.925 192.016ZM721.194 212.311L720.944 212.314L721.444 212.311H721.194ZM741.604 192.017L741.607 192.267V191.767L741.604 192.017ZM771.26 171.722L771.51 171.719L771.01 171.719L771.26 171.722ZM750.991 192.016L750.986 191.766V192.266L750.991 192.016ZM771.26 212.311L771.01 212.314L771.51 212.311H771.26ZM791.67 192.017L791.673 192.267V191.767L791.67 192.017ZM821.326 171.722L821.576 171.719L821.076 171.719L821.326 171.722ZM801.057 192.016L801.052 191.766V192.266L801.057 192.016ZM821.326 212.311L821.076 212.314L821.576 212.311H821.326ZM841.736 192.017L841.739 192.267V191.767L841.736 192.017ZM871.392 171.722L871.642 171.719L871.142 171.719L871.392 171.722ZM851.123 192.016L851.118 191.766V192.266L851.123 192.016ZM871.392 212.311L871.142 212.314L871.642 212.311H871.392ZM891.802 192.017L891.805 192.267V191.767L891.802 192.017ZM921.458 171.722L921.708 171.719L921.208 171.719L921.458 171.722ZM901.189 192.016L901.184 191.766V192.266L901.189 192.016ZM921.458 212.311L921.208 212.314L921.708 212.311H921.458ZM941.868 192.017L941.871 192.267V191.767L941.868 192.017ZM345.698 206.067L345.948 206.064L345.448 206.064L345.698 206.067ZM325.429 226.361L325.425 226.111V226.611L325.429 226.361ZM345.698 246.656L345.448 246.659L345.948 246.656H345.698ZM366.108 226.361L366.111 226.611V226.111L366.108 226.361ZM395.764 206.067L396.014 206.064L395.514 206.064L395.764 206.067ZM375.495 226.361L375.491 226.111V226.611L375.495 226.361ZM395.764 246.656L395.514 246.659L396.014 246.656H395.764ZM416.174 226.361L416.177 226.611V226.111L416.174 226.361ZM445.831 206.067L446.08 206.064L445.581 206.064L445.831 206.067ZM425.562 226.361L425.557 226.111V226.611L425.562 226.361ZM445.831 246.656L445.581 246.659L446.081 246.656H445.831ZM466.24 226.361L466.243 226.611V226.111L466.24 226.361ZM495.897 206.067L496.147 206.064L495.647 206.064L495.897 206.067ZM475.628 226.361L475.623 226.111V226.611L475.628 226.361ZM495.897 246.656L495.647 246.659L496.147 246.656H495.897ZM516.306 226.361L516.309 226.611V226.111L516.306 226.361ZM545.963 206.067L546.213 206.064L545.713 206.064L545.963 206.067ZM525.694 226.361L525.689 226.111V226.611L525.694 226.361ZM545.963 246.656L545.713 246.659L546.213 246.656H545.963ZM566.372 226.361L566.375 226.611V226.111L566.372 226.361ZM596.029 206.067L596.279 206.064L595.779 206.064L596.029 206.067ZM575.76 226.361L575.755 226.111V226.611L575.76 226.361ZM596.029 246.656L595.779 246.659L596.279 246.656H596.029ZM616.438 226.361L616.442 226.611V226.111L616.438 226.361ZM646.095 206.067L646.345 206.064L645.845 206.064L646.095 206.067ZM625.826 226.361L625.821 226.111V226.611L625.826 226.361ZM646.095 246.656L645.845 246.659L646.345 246.656H646.095ZM666.505 226.361L666.508 226.611V226.111L666.505 226.361ZM696.161 206.067L696.411 206.064L695.911 206.064L696.161 206.067ZM675.892 226.361L675.887 226.111V226.611L675.892 226.361ZM696.161 246.656L695.911 246.659L696.411 246.656H696.161ZM716.571 226.361L716.574 226.611V226.111L716.571 226.361ZM746.227 206.067L746.477 206.064L745.977 206.064L746.227 206.067ZM725.958 226.361L725.953 226.111V226.611L725.958 226.361ZM746.227 246.656L745.977 246.659L746.477 246.656H746.227ZM766.637 226.361L766.64 226.611V226.111L766.637 226.361ZM796.293 206.067L796.543 206.064L796.043 206.064L796.293 206.067ZM776.024 226.361L776.019 226.111V226.611L776.024 226.361ZM796.293 246.656L796.043 246.659L796.543 246.656H796.293ZM816.703 226.361L816.706 226.611V226.111L816.703 226.361ZM846.359 206.067L846.609 206.064L846.109 206.064L846.359 206.067ZM826.09 226.361L826.085 226.111V226.611L826.09 226.361ZM846.359 246.656L846.109 246.659L846.609 246.656H846.359ZM866.769 226.361L866.772 226.611V226.111L866.769 226.361ZM896.425 206.067L896.675 206.064L896.175 206.064L896.425 206.067ZM876.156 226.361L876.151 226.111V226.611L876.156 226.361ZM896.425 246.656L896.175 246.659L896.675 246.656H896.425ZM916.835 226.361L916.838 226.611V226.111L916.835 226.361ZM520.93 240.411L521.18 240.408L520.68 240.408L520.93 240.411ZM500.661 260.705L500.656 260.455V260.955L500.661 260.705ZM520.93 281L520.68 281.003L521.18 281H520.93ZM541.339 260.706L541.342 260.956V260.456L541.339 260.706ZM570.996 240.411L571.246 240.408L570.746 240.408L570.996 240.411ZM550.727 260.705L550.722 260.455V260.955L550.727 260.705ZM570.996 281L570.746 281.003L571.246 281H570.996ZM591.405 260.706L591.409 260.956V260.456L591.405 260.706ZM621.062 240.411L621.312 240.408L620.812 240.408L621.062 240.411ZM600.793 260.705L600.788 260.455V260.955L600.793 260.705ZM621.062 281L620.812 281.003L621.312 281H621.062ZM641.471 260.706L641.475 260.956V260.456L641.471 260.706ZM671.128 240.411L671.378 240.408L670.878 240.408L671.128 240.411ZM650.859 260.705L650.854 260.455V260.955L650.859 260.705ZM671.128 281L670.878 281.003L671.378 281H671.128ZM691.538 260.706L691.541 260.956V260.456L691.538 260.706ZM721.194 240.411L721.444 240.408L720.944 240.408L721.194 240.411ZM700.925 260.705L700.92 260.455V260.955L700.925 260.705ZM721.194 281L720.944 281.003L721.444 281H721.194ZM741.604 260.706L741.607 260.956V260.456L741.604 260.706ZM771.26 240.411L771.51 240.408L771.01 240.408L771.26 240.411ZM750.991 260.705L750.986 260.455V260.955L750.991 260.705ZM771.26 281L771.01 281.003L771.51 281H771.26ZM791.67 260.706L791.673 260.956V260.456L791.67 260.706ZM821.326 240.411L821.576 240.408L821.076 240.408L821.326 240.411ZM801.057 260.705L801.052 260.455V260.955L801.057 260.705ZM821.326 281L821.076 281.003L821.576 281H821.326ZM841.736 260.706L841.739 260.956V260.456L841.736 260.706ZM871.392 240.411L871.642 240.408L871.142 240.408L871.392 240.411ZM851.123 260.705L851.118 260.455V260.955L851.123 260.705ZM871.392 281L871.142 281.003L871.642 281H871.392ZM891.802 260.706L891.805 260.956V260.456L891.802 260.706ZM921.458 240.411L921.708 240.408L921.208 240.408L921.458 240.411ZM901.189 260.705L901.184 260.455V260.955L901.189 260.705ZM921.458 281L921.208 281.003L921.708 281H921.458ZM941.868 260.706L941.871 260.956V260.456L941.868 260.706ZM25.0378 20.5439C36.3786 20.3261 45.41 11.3011 45.552 0.00314159L45.052 -0.00314159C44.9134 11.0221 36.1019 19.8314 25.0282 20.044L25.0378 20.5439ZM45.552 40.5857C45.41 29.2878 36.3786 20.2618 25.0378 20.044L25.0282 20.5439C36.1018 20.7566 44.9134 29.5667 45.052 40.592L45.552 40.5857ZM65.7086 20.0445C54.3052 20.1861 45.052 29.2384 45.052 40.5889H45.552C45.552 29.5228 54.5743 20.6828 65.7148 20.5444L65.7086 20.0445ZM45.052 0.00312848C45.194 11.3484 54.3023 20.4028 65.7086 20.5444L65.7148 20.0445C54.5772 19.9062 45.6905 11.0683 45.552 -0.00312848L45.052 0.00312848ZM75.1039 20.5439C86.4447 20.3261 95.476 11.3011 95.618 0.00314159L95.1181 -0.00314159C94.9795 11.0221 86.1679 19.8314 75.0943 20.044L75.1039 20.5439ZM95.618 40.5857C95.476 29.2878 86.4447 20.2618 75.1039 20.044L75.0943 20.5439C86.1679 20.7566 94.9795 29.5667 95.1181 40.592L95.618 40.5857ZM115.775 20.0445C104.371 20.1861 95.118 29.2384 95.118 40.5889H95.618C95.618 29.5228 104.64 20.6828 115.781 20.5444L115.775 20.0445ZM95.1181 0.00312848C95.2601 11.3484 104.368 20.4028 115.775 20.5444L115.781 20.0445C104.643 19.9062 95.7566 11.0683 95.618 -0.00312848L95.1181 0.00312848ZM125.17 20.5439C136.511 20.3261 145.542 11.3011 145.684 0.00314159L145.184 -0.00314159C145.046 11.0221 136.234 19.8314 125.16 20.044L125.17 20.5439ZM145.684 40.5857C145.542 29.2878 136.511 20.2618 125.17 20.044L125.16 20.5439C136.234 20.7566 145.046 29.5667 145.184 40.592L145.684 40.5857ZM165.841 20.0445C154.437 20.1861 145.184 29.2384 145.184 40.5889H145.684C145.684 29.5228 154.706 20.6828 165.847 20.5444L165.841 20.0445ZM145.184 0.00312848C145.326 11.3484 154.434 20.4028 165.841 20.5444L165.847 20.0445C154.709 19.9062 145.823 11.0683 145.684 -0.00312848L145.184 0.00312848ZM175.236 20.5439C186.577 20.3261 195.608 11.3011 195.75 0.00314159L195.25 -0.00314159C195.112 11.0221 186.3 19.8314 175.226 20.044L175.236 20.5439ZM195.75 40.5857C195.608 29.2878 186.577 20.2618 175.236 20.044L175.226 20.5439C186.3 20.7566 195.112 29.5667 195.25 40.592L195.75 40.5857ZM215.907 20.0445C204.503 20.1861 195.25 29.2384 195.25 40.5889H195.75C195.75 29.5228 204.772 20.6828 215.913 20.5444L215.907 20.0445ZM195.25 0.00312848C195.392 11.3484 204.5 20.4028 215.907 20.5444L215.913 20.0445C204.775 19.9062 195.889 11.0683 195.75 -0.00312848L195.25 0.00312848ZM225.302 20.5439C236.643 20.3261 245.674 11.3011 245.816 0.00314159L245.316 -0.00314159C245.178 11.0221 236.366 19.8314 225.292 20.044L225.302 20.5439ZM245.816 40.5857C245.674 29.2878 236.643 20.2618 225.302 20.044L225.292 20.5439C236.366 20.7566 245.178 29.5667 245.316 40.592L245.816 40.5857ZM265.973 20.0445C254.569 20.1861 245.316 29.2384 245.316 40.5889H245.816C245.816 29.5228 254.839 20.6828 265.979 20.5444L265.973 20.0445ZM245.316 0.00312848C245.458 11.3484 254.567 20.4028 265.973 20.5444L265.979 20.0445C254.841 19.9062 245.955 11.0683 245.816 -0.00312848L245.316 0.00312848ZM275.368 20.5439C286.709 20.3261 295.74 11.3011 295.882 0.00314159L295.382 -0.00314159C295.244 11.0221 286.432 19.8314 275.359 20.044L275.368 20.5439ZM295.882 40.5857C295.74 29.2878 286.709 20.2618 275.368 20.044L275.359 20.5439C286.432 20.7566 295.244 29.5667 295.382 40.592L295.882 40.5857ZM316.039 20.0445C304.635 20.1861 295.382 29.2384 295.382 40.5889H295.882C295.882 29.5228 304.905 20.6828 316.045 20.5444L316.039 20.0445ZM295.382 0.00312848C295.524 11.3484 304.633 20.4028 316.039 20.5444L316.045 20.0445C304.907 19.9062 296.021 11.0683 295.882 -0.00312848L295.382 0.00312848ZM325.434 20.5439C336.775 20.3261 345.806 11.3011 345.948 0.00314159L345.448 -0.00314159C345.31 11.0221 336.498 19.8314 325.425 20.044L325.434 20.5439ZM345.948 40.5857C345.806 29.2878 336.775 20.2618 325.434 20.044L325.425 20.5439C336.498 20.7566 345.31 29.5667 345.448 40.592L345.948 40.5857ZM366.105 20.0445C354.702 20.1861 345.448 29.2384 345.448 40.5889H345.948C345.948 29.5228 354.971 20.6828 366.111 20.5444L366.105 20.0445ZM345.448 0.00312848C345.59 11.3484 354.699 20.4028 366.105 20.5444L366.111 20.0445C354.974 19.9062 346.087 11.0683 345.948 -0.00312848L345.448 0.00312848ZM375.5 20.5439C386.841 20.3261 395.872 11.3011 396.014 0.00314159L395.514 -0.00314159C395.376 11.0221 386.564 19.8314 375.491 20.044L375.5 20.5439ZM396.014 40.5857C395.872 29.2878 386.841 20.2618 375.5 20.044L375.491 20.5439C386.564 20.7566 395.376 29.5667 395.514 40.592L396.014 40.5857ZM416.171 20.0445C404.768 20.1861 395.514 29.2384 395.514 40.5889H396.014C396.014 29.5228 405.037 20.6828 416.177 20.5444L416.171 20.0445ZM395.514 0.00312848C395.656 11.3484 404.765 20.4028 416.171 20.5444L416.177 20.0445C405.04 19.9062 396.153 11.0683 396.014 -0.00312848L395.514 0.00312848ZM425.566 20.5439C436.907 20.3261 445.939 11.3011 446.08 0.00314159L445.581 -0.00314159C445.442 11.0221 436.63 19.8314 425.557 20.044L425.566 20.5439ZM446.08 40.5857C445.939 29.2878 436.907 20.2618 425.566 20.044L425.557 20.5439C436.63 20.7566 445.442 29.5667 445.581 40.592L446.08 40.5857ZM466.237 20.0445C454.834 20.1861 445.581 29.2384 445.581 40.5889H446.081C446.081 29.5228 455.103 20.6828 466.243 20.5444L466.237 20.0445ZM445.581 0.00312848C445.723 11.3484 454.831 20.4028 466.237 20.5444L466.243 20.0445C455.106 19.9062 446.219 11.0683 446.08 -0.00312848L445.581 0.00312848ZM475.632 20.5439C486.973 20.3261 496.005 11.3011 496.147 0.00314159L495.647 -0.00314159C495.508 11.0221 486.696 19.8314 475.623 20.044L475.632 20.5439ZM496.147 40.5857C496.005 29.2878 486.973 20.2618 475.632 20.044L475.623 20.5439C486.696 20.7566 495.508 29.5667 495.647 40.592L496.147 40.5857ZM516.303 20.0445C504.9 20.1861 495.647 29.2384 495.647 40.5889H496.147C496.147 29.5228 505.169 20.6828 516.309 20.5444L516.303 20.0445ZM495.647 0.00312848C495.789 11.3484 504.897 20.4028 516.303 20.5444L516.309 20.0445C505.172 19.9062 496.285 11.0683 496.147 -0.00312848L495.647 0.00312848ZM525.699 20.5439C537.039 20.3261 546.071 11.3011 546.213 0.00314159L545.713 -0.00314159C545.574 11.0221 536.763 19.8314 525.689 20.044L525.699 20.5439ZM546.213 40.5857C546.071 29.2878 537.039 20.2618 525.699 20.044L525.689 20.5439C536.763 20.7566 545.574 29.5667 545.713 40.592L546.213 40.5857ZM566.369 20.0445C554.966 20.1861 545.713 29.2384 545.713 40.5889H546.213C546.213 29.5228 555.235 20.6828 566.375 20.5444L566.369 20.0445ZM545.713 0.00312848C545.855 11.3484 554.963 20.4028 566.369 20.5444L566.375 20.0445C555.238 19.9062 546.351 11.0683 546.213 -0.00312848L545.713 0.00312848ZM575.765 20.5439C587.105 20.3261 596.137 11.3011 596.279 0.00314159L595.779 -0.00314159C595.64 11.0221 586.829 19.8314 575.755 20.044L575.765 20.5439ZM596.279 40.5857C596.137 29.2878 587.105 20.2618 575.765 20.044L575.755 20.5439C586.829 20.7566 595.64 29.5667 595.779 40.592L596.279 40.5857ZM616.435 20.0445C605.032 20.1861 595.779 29.2384 595.779 40.5889H596.279C596.279 29.5228 605.301 20.6828 616.442 20.5444L616.435 20.0445ZM595.779 0.00312848C595.921 11.3484 605.029 20.4028 616.435 20.5444L616.442 20.0445C605.304 19.9062 596.417 11.0683 596.279 -0.00312848L595.779 0.00312848ZM625.831 20.5439C637.171 20.3261 646.203 11.3011 646.345 0.00314159L645.845 -0.00314159C645.706 11.0221 636.895 19.8314 625.821 20.044L625.831 20.5439ZM646.345 40.5857C646.203 29.2878 637.171 20.2618 625.831 20.044L625.821 20.5439C636.895 20.7566 645.706 29.5667 645.845 40.592L646.345 40.5857ZM666.501 20.0445C655.098 20.1861 645.845 29.2384 645.845 40.5889H646.345C646.345 29.5228 655.367 20.6828 666.508 20.5444L666.501 20.0445ZM645.845 0.00312848C645.987 11.3484 655.095 20.4028 666.501 20.5444L666.508 20.0445C655.37 19.9062 646.483 11.0683 646.345 -0.00312848L645.845 0.00312848ZM675.897 20.5439C687.237 20.3261 696.269 11.3011 696.411 0.00314159L695.911 -0.00314159C695.772 11.0221 686.961 19.8314 675.887 20.044L675.897 20.5439ZM696.411 40.5857C696.269 29.2878 687.237 20.2618 675.897 20.044L675.887 20.5439C686.961 20.7566 695.772 29.5667 695.911 40.592L696.411 40.5857ZM716.568 20.0445C705.164 20.1861 695.911 29.2384 695.911 40.5889H696.411C696.411 29.5228 705.433 20.6828 716.574 20.5444L716.568 20.0445ZM695.911 0.00312848C696.053 11.3484 705.161 20.4028 716.568 20.5444L716.574 20.0445C705.436 19.9062 696.549 11.0683 696.411 -0.00312848L695.911 0.00312848ZM725.963 20.5439C737.304 20.3261 746.335 11.3011 746.477 0.00314159L745.977 -0.00314159C745.838 11.0221 737.027 19.8314 725.953 20.044L725.963 20.5439ZM746.477 40.5857C746.335 29.2878 737.304 20.2618 725.963 20.044L725.953 20.5439C737.027 20.7566 745.838 29.5667 745.977 40.592L746.477 40.5857ZM766.634 20.0445C755.23 20.1861 745.977 29.2384 745.977 40.5889H746.477C746.477 29.5228 755.499 20.6828 766.64 20.5444L766.634 20.0445ZM745.977 0.00312848C746.119 11.3484 755.227 20.4028 766.634 20.5444L766.64 20.0445C755.502 19.9062 746.616 11.0683 746.477 -0.00312848L745.977 0.00312848ZM776.029 20.5439C787.37 20.3261 796.401 11.3011 796.543 0.00314159L796.043 -0.00314159C795.904 11.0221 787.093 19.8314 776.019 20.044L776.029 20.5439ZM796.543 40.5857C796.401 29.2878 787.37 20.2618 776.029 20.044L776.019 20.5439C787.093 20.7566 795.904 29.5667 796.043 40.592L796.543 40.5857ZM816.7 20.0445C805.296 20.1861 796.043 29.2384 796.043 40.5889H796.543C796.543 29.5228 805.565 20.6828 816.706 20.5444L816.7 20.0445ZM796.043 0.00312848C796.185 11.3484 805.293 20.4028 816.7 20.5444L816.706 20.0445C805.568 19.9062 796.682 11.0683 796.543 -0.00312848L796.043 0.00312848ZM826.095 20.5439C837.436 20.3261 846.467 11.3011 846.609 0.00314159L846.109 -0.00314159C845.971 11.0221 837.159 19.8314 826.085 20.044L826.095 20.5439ZM846.609 40.5857C846.467 29.2878 837.436 20.2618 826.095 20.044L826.085 20.5439C837.159 20.7566 845.971 29.5667 846.109 40.592L846.609 40.5857ZM866.766 20.0445C855.362 20.1861 846.109 29.2384 846.109 40.5889H846.609C846.609 29.5228 855.631 20.6828 866.772 20.5444L866.766 20.0445ZM846.109 0.00312848C846.251 11.3484 855.359 20.4028 866.766 20.5444L866.772 20.0445C855.634 19.9062 846.748 11.0683 846.609 -0.00312848L846.109 0.00312848ZM876.161 20.5439C887.502 20.3261 896.533 11.3011 896.675 0.00314159L896.175 -0.00314159C896.037 11.0221 887.225 19.8314 876.151 20.044L876.161 20.5439ZM896.675 40.5857C896.533 29.2878 887.502 20.2618 876.161 20.044L876.151 20.5439C887.225 20.7566 896.037 29.5667 896.175 40.592L896.675 40.5857ZM916.832 20.0445C905.428 20.1861 896.175 29.2384 896.175 40.5889H896.675C896.675 29.5228 905.697 20.6828 916.838 20.5444L916.832 20.0445ZM896.175 0.00312848C896.317 11.3484 905.425 20.4028 916.832 20.5444L916.838 20.0445C905.7 19.9062 896.814 11.0683 896.675 -0.00312848L896.175 0.00312848ZM0.00480008 54.8884C11.3456 54.6706 20.377 45.6455 20.5189 34.3476L20.019 34.3413C19.8804 45.3666 11.0688 54.1758 -0.00480008 54.3885L0.00480008 54.8884ZM20.5189 74.9302C20.377 63.6322 11.3456 54.6062 0.0048001 54.3885L-0.0048001 54.8884C11.0688 55.101 19.8804 63.9112 20.019 74.9365L20.5189 74.9302ZM40.6756 54.3889C29.2721 54.5305 20.019 63.5828 20.019 74.9333H20.519C20.519 63.8672 29.5413 55.0272 40.6818 54.8889L40.6756 54.3889ZM20.019 34.3476C20.161 45.6928 29.2693 54.7472 40.6756 54.8889L40.6818 54.3889C29.5441 54.2506 20.6575 45.4127 20.5189 34.3413L20.019 34.3476ZM50.0709 54.8884C61.4116 54.6706 70.443 45.6455 70.585 34.3476L70.0851 34.3413C69.9465 45.3666 61.1349 54.1758 50.0613 54.3885L50.0709 54.8884ZM70.585 74.9302C70.443 63.6322 61.4117 54.6062 50.0709 54.3885L50.0613 54.8884C61.1349 55.101 69.9465 63.9112 70.0851 74.9365L70.585 74.9302ZM90.7417 54.3889C79.3382 54.5305 70.085 63.5828 70.085 74.9333H70.585C70.585 63.8672 79.6074 55.0272 90.7479 54.8889L90.7417 54.3889ZM70.0851 34.3476C70.227 45.6928 79.3354 54.7472 90.7417 54.8889L90.7479 54.3889C79.6102 54.2506 70.7236 45.4127 70.585 34.3413L70.0851 34.3476ZM100.137 54.8884C111.478 54.6706 120.509 45.6455 120.651 34.3476L120.151 34.3413C120.013 45.3666 111.201 54.1758 100.127 54.3885L100.137 54.8884ZM120.651 74.9302C120.509 63.6322 111.478 54.6062 100.137 54.3885L100.127 54.8884C111.201 55.101 120.013 63.9112 120.151 74.9365L120.651 74.9302ZM140.808 54.3889C129.404 54.5305 120.151 63.5828 120.151 74.9333H120.651C120.651 63.8672 129.673 55.0272 140.814 54.8889L140.808 54.3889ZM120.151 34.3476C120.293 45.6928 129.401 54.7472 140.808 54.8889L140.814 54.3889C129.676 54.2506 120.79 45.4127 120.651 34.3413L120.151 34.3476ZM150.203 54.8884C161.544 54.6706 170.575 45.6455 170.717 34.3476L170.217 34.3413C170.079 45.3666 161.267 54.1758 150.193 54.3885L150.203 54.8884ZM170.717 74.9302C170.575 63.6322 161.544 54.6062 150.203 54.3885L150.193 54.8884C161.267 55.101 170.079 63.9112 170.217 74.9365L170.717 74.9302ZM190.874 54.3889C179.47 54.5305 170.217 63.5828 170.217 74.9333H170.717C170.717 63.8672 179.739 55.0272 190.88 54.8889L190.874 54.3889ZM170.217 34.3476C170.359 45.6928 179.467 54.7472 190.874 54.8889L190.88 54.3889C179.742 54.2506 170.856 45.4127 170.717 34.3413L170.217 34.3476ZM200.269 54.8884C211.61 54.6706 220.641 45.6455 220.783 34.3476L220.283 34.3413C220.145 45.3666 211.333 54.1758 200.259 54.3885L200.269 54.8884ZM220.783 74.9302C220.641 63.6322 211.61 54.6062 200.269 54.3885L200.259 54.8884C211.333 55.101 220.145 63.9112 220.283 74.9365L220.783 74.9302ZM240.94 54.3889C229.536 54.5305 220.283 63.5828 220.283 74.9333H220.783C220.783 63.8672 229.805 55.0272 240.946 54.8889L240.94 54.3889ZM220.283 34.3476C220.425 45.6928 229.533 54.7472 240.94 54.8889L240.946 54.3889C229.808 54.2506 220.922 45.4127 220.783 34.3413L220.283 34.3476ZM250.335 54.8884C261.676 54.6706 270.707 45.6455 270.849 34.3476L270.349 34.3413C270.211 45.3666 261.399 54.1758 250.326 54.3885L250.335 54.8884ZM270.849 74.9302C270.707 63.6322 261.676 54.6062 250.335 54.3885L250.326 54.8884C261.399 55.101 270.211 63.9112 270.349 74.9365L270.849 74.9302ZM291.006 54.3889C279.602 54.5305 270.349 63.5828 270.349 74.9333H270.849C270.849 63.8672 279.872 55.0272 291.012 54.8889L291.006 54.3889ZM270.349 34.3476C270.491 45.6928 279.6 54.7472 291.006 54.8889L291.012 54.3889C279.874 54.2506 270.988 45.4127 270.849 34.3413L270.349 34.3476ZM300.401 54.8884C311.742 54.6706 320.773 45.6455 320.915 34.3476L320.415 34.3413C320.277 45.3666 311.465 54.1758 300.392 54.3885L300.401 54.8884ZM320.915 74.9302C320.773 63.6322 311.742 54.6062 300.401 54.3885L300.392 54.8884C311.465 55.101 320.277 63.9112 320.415 74.9365L320.915 74.9302ZM341.072 54.3889C329.668 54.5305 320.415 63.5828 320.415 74.9333H320.915C320.915 63.8672 329.938 55.0272 341.078 54.8889L341.072 54.3889ZM320.415 34.3476C320.557 45.6928 329.666 54.7472 341.072 54.8889L341.078 54.3889C329.94 54.2506 321.054 45.4127 320.915 34.3413L320.415 34.3476ZM350.467 54.8884C361.808 54.6706 370.839 45.6455 370.981 34.3476L370.481 34.3413C370.343 45.3666 361.531 54.1758 350.458 54.3885L350.467 54.8884ZM370.981 74.9302C370.839 63.6322 361.808 54.6062 350.467 54.3885L350.458 54.8884C361.531 55.101 370.343 63.9112 370.481 74.9365L370.981 74.9302ZM391.138 54.3889C379.735 54.5305 370.481 63.5828 370.481 74.9333H370.981C370.981 63.8672 380.004 55.0272 391.144 54.8889L391.138 54.3889ZM370.481 34.3476C370.623 45.6928 379.732 54.7472 391.138 54.8889L391.144 54.3889C380.007 54.2506 371.12 45.4127 370.981 34.3413L370.481 34.3476ZM400.533 54.8884C411.874 54.6706 420.905 45.6455 421.047 34.3476L420.548 34.3413C420.409 45.3666 411.597 54.1758 400.524 54.3885L400.533 54.8884ZM421.047 74.9302C420.905 63.6322 411.874 54.6062 400.533 54.3885L400.524 54.8884C411.597 55.101 420.409 63.9112 420.548 74.9365L421.047 74.9302ZM441.204 54.3889C429.801 54.5305 420.547 63.5828 420.547 74.9333H421.047C421.047 63.8672 430.07 55.0272 441.21 54.8889L441.204 54.3889ZM420.548 34.3476C420.689 45.6928 429.798 54.7472 441.204 54.8889L441.21 54.3889C430.073 54.2506 421.186 45.4127 421.047 34.3413L420.548 34.3476ZM450.599 54.8884C461.94 54.6706 470.972 45.6455 471.114 34.3476L470.614 34.3413C470.475 45.3666 461.663 54.1758 450.59 54.3885L450.599 54.8884ZM471.114 74.9302C470.972 63.6322 461.94 54.6062 450.599 54.3885L450.59 54.8884C461.663 55.101 470.475 63.9112 470.614 74.9365L471.114 74.9302ZM491.27 54.3889C479.867 54.5305 470.614 63.5828 470.614 74.9333H471.114C471.114 63.8672 480.136 55.0272 491.276 54.8889L491.27 54.3889ZM470.614 34.3476C470.756 45.6928 479.864 54.7472 491.27 54.8889L491.276 54.3889C480.139 54.2506 471.252 45.4127 471.114 34.3413L470.614 34.3476ZM500.665 54.8884C512.006 54.6706 521.038 45.6455 521.18 34.3476L520.68 34.3413C520.541 45.3666 511.729 54.1758 500.656 54.3885L500.665 54.8884ZM521.18 74.9302C521.038 63.6322 512.006 54.6062 500.665 54.3885L500.656 54.8884C511.729 55.101 520.541 63.9112 520.68 74.9365L521.18 74.9302ZM541.336 54.3889C529.933 54.5305 520.68 63.5828 520.68 74.9333H521.18C521.18 63.8672 530.202 55.0272 541.342 54.8889L541.336 54.3889ZM520.68 34.3476C520.822 45.6928 529.93 54.7472 541.336 54.8889L541.342 54.3889C530.205 54.2506 521.318 45.4127 521.18 34.3413L520.68 34.3476ZM550.732 54.8884C562.072 54.6706 571.104 45.6455 571.246 34.3476L570.746 34.3413C570.607 45.3666 561.796 54.1758 550.722 54.3885L550.732 54.8884ZM571.246 74.9302C571.104 63.6322 562.072 54.6062 550.732 54.3885L550.722 54.8884C561.796 55.101 570.607 63.9112 570.746 74.9365L571.246 74.9302ZM591.402 54.3889C579.999 54.5305 570.746 63.5828 570.746 74.9333H571.246C571.246 63.8672 580.268 55.0272 591.409 54.8889L591.402 54.3889ZM570.746 34.3476C570.888 45.6928 579.996 54.7472 591.402 54.8889L591.409 54.3889C580.271 54.2506 571.384 45.4127 571.246 34.3413L570.746 34.3476ZM600.798 54.8884C612.138 54.6706 621.17 45.6455 621.312 34.3476L620.812 34.3413C620.673 45.3666 611.862 54.1758 600.788 54.3885L600.798 54.8884ZM621.312 74.9302C621.17 63.6322 612.138 54.6062 600.798 54.3885L600.788 54.8884C611.862 55.101 620.673 63.9112 620.812 74.9365L621.312 74.9302ZM641.468 54.3889C630.065 54.5305 620.812 63.5828 620.812 74.9333H621.312C621.312 63.8672 630.334 55.0272 641.475 54.8889L641.468 54.3889ZM620.812 34.3476C620.954 45.6928 630.062 54.7472 641.468 54.8889L641.475 54.3889C630.337 54.2506 621.45 45.4127 621.312 34.3413L620.812 34.3476ZM650.864 54.8884C662.204 54.6706 671.236 45.6455 671.378 34.3476L670.878 34.3413C670.739 45.3666 661.928 54.1758 650.854 54.3885L650.864 54.8884ZM671.378 74.9302C671.236 63.6322 662.204 54.6062 650.864 54.3885L650.854 54.8884C661.928 55.101 670.739 63.9112 670.878 74.9365L671.378 74.9302ZM691.534 54.3889C680.131 54.5305 670.878 63.5828 670.878 74.9333H671.378C671.378 63.8672 680.4 55.0272 691.541 54.8889L691.534 54.3889ZM670.878 34.3476C671.02 45.6928 680.128 54.7472 691.534 54.8889L691.541 54.3889C680.403 54.2506 671.516 45.4127 671.378 34.3413L670.878 34.3476ZM700.93 54.8884C712.271 54.6706 721.302 45.6455 721.444 34.3476L720.944 34.3413C720.805 45.3666 711.994 54.1758 700.92 54.3885L700.93 54.8884ZM721.444 74.9302C721.302 63.6322 712.271 54.6062 700.93 54.3885L700.92 54.8884C711.994 55.101 720.805 63.9112 720.944 74.9365L721.444 74.9302ZM741.601 54.3889C730.197 54.5305 720.944 63.5828 720.944 74.9333H721.444C721.444 63.8672 730.466 55.0272 741.607 54.8889L741.601 54.3889ZM720.944 34.3476C721.086 45.6928 730.194 54.7472 741.601 54.8889L741.607 54.3889C730.469 54.2506 721.583 45.4127 721.444 34.3413L720.944 34.3476ZM750.996 54.8884C762.337 54.6706 771.368 45.6455 771.51 34.3476L771.01 34.3413C770.871 45.3666 762.06 54.1758 750.986 54.3885L750.996 54.8884ZM771.51 74.9302C771.368 63.6322 762.337 54.6062 750.996 54.3885L750.986 54.8884C762.06 55.101 770.871 63.9112 771.01 74.9365L771.51 74.9302ZM791.667 54.3889C780.263 54.5305 771.01 63.5828 771.01 74.9333H771.51C771.51 63.8672 780.532 55.0272 791.673 54.8889L791.667 54.3889ZM771.01 34.3476C771.152 45.6928 780.26 54.7472 791.667 54.8889L791.673 54.3889C780.535 54.2506 771.649 45.4127 771.51 34.3413L771.01 34.3476ZM801.062 54.8884C812.403 54.6706 821.434 45.6455 821.576 34.3476L821.076 34.3413C820.938 45.3666 812.126 54.1758 801.052 54.3885L801.062 54.8884ZM821.576 74.9302C821.434 63.6322 812.403 54.6062 801.062 54.3885L801.052 54.8884C812.126 55.101 820.938 63.9112 821.076 74.9365L821.576 74.9302ZM841.733 54.3889C830.329 54.5305 821.076 63.5828 821.076 74.9333H821.576C821.576 63.8672 830.598 55.0272 841.739 54.8889L841.733 54.3889ZM821.076 34.3476C821.218 45.6928 830.326 54.7472 841.733 54.8889L841.739 54.3889C830.601 54.2506 821.715 45.4127 821.576 34.3413L821.076 34.3476ZM851.128 54.8884C862.469 54.6706 871.5 45.6455 871.642 34.3476L871.142 34.3413C871.004 45.3666 862.192 54.1758 851.118 54.3885L851.128 54.8884ZM871.642 74.9302C871.5 63.6322 862.469 54.6062 851.128 54.3885L851.118 54.8884C862.192 55.101 871.004 63.9112 871.142 74.9365L871.642 74.9302ZM891.799 54.3889C880.395 54.5305 871.142 63.5828 871.142 74.9333H871.642C871.642 63.8672 880.664 55.0272 891.805 54.8889L891.799 54.3889ZM871.142 34.3476C871.284 45.6928 880.392 54.7472 891.799 54.8889L891.805 54.3889C880.667 54.2506 871.781 45.4127 871.642 34.3413L871.142 34.3476ZM901.194 54.8884C912.535 54.6706 921.566 45.6455 921.708 34.3476L921.208 34.3413C921.07 45.3666 912.258 54.1758 901.184 54.3885L901.194 54.8884ZM921.708 74.9302C921.566 63.6322 912.535 54.6062 901.194 54.3885L901.184 54.8884C912.258 55.101 921.07 63.9112 921.208 74.9365L921.708 74.9302ZM941.865 54.3889C930.461 54.5305 921.208 63.5828 921.208 74.9333H921.708C921.708 63.8672 930.731 55.0272 941.871 54.8889L941.865 54.3889ZM921.208 34.3476C921.35 45.6928 930.458 54.7472 941.865 54.8889L941.871 54.3889C930.733 54.2506 921.847 45.4127 921.708 34.3413L921.208 34.3476ZM175.236 89.2328C186.577 89.015 195.608 79.99 195.75 68.692L195.25 68.6857C195.112 79.711 186.3 88.5202 175.226 88.7329L175.236 89.2328ZM195.75 109.275C195.608 97.9767 186.577 88.9507 175.236 88.7329L175.226 89.2328C186.3 89.4455 195.112 98.2556 195.25 109.281L195.75 109.275ZM215.907 88.7334C204.503 88.8749 195.25 97.9273 195.25 109.278H195.75C195.75 98.2116 204.772 89.3716 215.913 89.2333L215.907 88.7334ZM195.25 68.692C195.392 80.0373 204.5 89.0917 215.907 89.2333L215.913 88.7334C204.775 88.5951 195.889 79.7571 195.75 68.6858L195.25 68.692ZM225.302 89.2328C236.643 89.015 245.674 79.99 245.816 68.692L245.316 68.6857C245.178 79.711 236.366 88.5202 225.292 88.7329L225.302 89.2328ZM245.816 109.275C245.674 97.9767 236.643 88.9507 225.302 88.7329L225.292 89.2328C236.366 89.4455 245.178 98.2556 245.316 109.281L245.816 109.275ZM265.973 88.7334C254.569 88.8749 245.316 97.9273 245.316 109.278H245.816C245.816 98.2116 254.839 89.3716 265.979 89.2333L265.973 88.7334ZM245.316 68.692C245.458 80.0373 254.567 89.0917 265.973 89.2333L265.979 88.7334C254.841 88.5951 245.955 79.7571 245.816 68.6858L245.316 68.692ZM275.368 89.2328C286.709 89.015 295.74 79.99 295.882 68.692L295.382 68.6857C295.244 79.711 286.432 88.5202 275.359 88.7329L275.368 89.2328ZM295.882 109.275C295.74 97.9767 286.709 88.9507 275.368 88.7329L275.359 89.2328C286.432 89.4455 295.244 98.2556 295.382 109.281L295.882 109.275ZM316.039 88.7334C304.635 88.8749 295.382 97.9273 295.382 109.278H295.882C295.882 98.2116 304.905 89.3716 316.045 89.2333L316.039 88.7334ZM295.382 68.692C295.524 80.0373 304.633 89.0917 316.039 89.2333L316.045 88.7334C304.907 88.5951 296.021 79.7571 295.882 68.6858L295.382 68.692ZM325.434 89.2328C336.775 89.015 345.806 79.99 345.948 68.692L345.448 68.6857C345.31 79.711 336.498 88.5202 325.425 88.7329L325.434 89.2328ZM345.948 109.275C345.806 97.9767 336.775 88.9507 325.434 88.7329L325.425 89.2328C336.498 89.4455 345.31 98.2556 345.448 109.281L345.948 109.275ZM366.105 88.7334C354.702 88.8749 345.448 97.9273 345.448 109.278H345.948C345.948 98.2116 354.971 89.3716 366.111 89.2333L366.105 88.7334ZM345.448 68.692C345.59 80.0373 354.699 89.0917 366.105 89.2333L366.111 88.7334C354.974 88.5951 346.087 79.7571 345.948 68.6858L345.448 68.692ZM375.5 89.2328C386.841 89.015 395.872 79.99 396.014 68.692L395.514 68.6857C395.376 79.711 386.564 88.5202 375.491 88.7329L375.5 89.2328ZM396.014 109.275C395.872 97.9767 386.841 88.9507 375.5 88.7329L375.491 89.2328C386.564 89.4455 395.376 98.2556 395.514 109.281L396.014 109.275ZM416.171 88.7334C404.768 88.8749 395.514 97.9273 395.514 109.278H396.014C396.014 98.2116 405.037 89.3716 416.177 89.2333L416.171 88.7334ZM395.514 68.692C395.656 80.0373 404.765 89.0917 416.171 89.2333L416.177 88.7334C405.04 88.5951 396.153 79.7571 396.014 68.6858L395.514 68.692ZM425.566 89.2328C436.907 89.015 445.939 79.99 446.08 68.692L445.581 68.6857C445.442 79.711 436.63 88.5202 425.557 88.7329L425.566 89.2328ZM446.08 109.275C445.939 97.9767 436.907 88.9507 425.566 88.7329L425.557 89.2328C436.63 89.4455 445.442 98.2556 445.581 109.281L446.08 109.275ZM466.237 88.7334C454.834 88.8749 445.581 97.9273 445.581 109.278H446.081C446.081 98.2116 455.103 89.3716 466.243 89.2333L466.237 88.7334ZM445.581 68.692C445.723 80.0373 454.831 89.0917 466.237 89.2333L466.243 88.7334C455.106 88.5951 446.219 79.7571 446.08 68.6858L445.581 68.692ZM475.632 89.2328C486.973 89.015 496.005 79.99 496.147 68.692L495.647 68.6857C495.508 79.711 486.696 88.5202 475.623 88.7329L475.632 89.2328ZM496.147 109.275C496.005 97.9767 486.973 88.9507 475.632 88.7329L475.623 89.2328C486.696 89.4455 495.508 98.2556 495.647 109.281L496.147 109.275ZM516.303 88.7334C504.9 88.8749 495.647 97.9273 495.647 109.278H496.147C496.147 98.2116 505.169 89.3716 516.309 89.2333L516.303 88.7334ZM495.647 68.692C495.789 80.0373 504.897 89.0917 516.303 89.2333L516.309 88.7334C505.172 88.5951 496.285 79.7571 496.147 68.6858L495.647 68.692ZM525.699 89.2328C537.039 89.015 546.071 79.99 546.213 68.692L545.713 68.6857C545.574 79.711 536.763 88.5202 525.689 88.7329L525.699 89.2328ZM546.213 109.275C546.071 97.9767 537.039 88.9507 525.699 88.7329L525.689 89.2328C536.763 89.4455 545.574 98.2556 545.713 109.281L546.213 109.275ZM566.369 88.7334C554.966 88.8749 545.713 97.9273 545.713 109.278H546.213C546.213 98.2116 555.235 89.3716 566.375 89.2333L566.369 88.7334ZM545.713 68.692C545.855 80.0373 554.963 89.0917 566.369 89.2333L566.375 88.7334C555.238 88.5951 546.351 79.7571 546.213 68.6858L545.713 68.692ZM575.765 89.2328C587.105 89.015 596.137 79.99 596.279 68.692L595.779 68.6857C595.64 79.711 586.829 88.5202 575.755 88.7329L575.765 89.2328ZM596.279 109.275C596.137 97.9767 587.105 88.9507 575.765 88.7329L575.755 89.2328C586.829 89.4455 595.64 98.2556 595.779 109.281L596.279 109.275ZM616.435 88.7334C605.032 88.8749 595.779 97.9273 595.779 109.278H596.279C596.279 98.2116 605.301 89.3716 616.442 89.2333L616.435 88.7334ZM595.779 68.692C595.921 80.0373 605.029 89.0917 616.435 89.2333L616.442 88.7334C605.304 88.5951 596.417 79.7571 596.279 68.6858L595.779 68.692ZM625.831 89.2328C637.171 89.015 646.203 79.99 646.345 68.692L645.845 68.6857C645.706 79.711 636.895 88.5202 625.821 88.7329L625.831 89.2328ZM646.345 109.275C646.203 97.9767 637.171 88.9507 625.831 88.7329L625.821 89.2328C636.895 89.4455 645.706 98.2556 645.845 109.281L646.345 109.275ZM666.501 88.7334C655.098 88.8749 645.845 97.9273 645.845 109.278H646.345C646.345 98.2116 655.367 89.3716 666.508 89.2333L666.501 88.7334ZM645.845 68.692C645.987 80.0373 655.095 89.0917 666.501 89.2333L666.508 88.7334C655.37 88.5951 646.483 79.7571 646.345 68.6858L645.845 68.692ZM675.897 89.2328C687.237 89.015 696.269 79.99 696.411 68.692L695.911 68.6857C695.772 79.711 686.961 88.5202 675.887 88.7329L675.897 89.2328ZM696.411 109.275C696.269 97.9767 687.237 88.9507 675.897 88.7329L675.887 89.2328C686.961 89.4455 695.772 98.2556 695.911 109.281L696.411 109.275ZM716.568 88.7334C705.164 88.8749 695.911 97.9273 695.911 109.278H696.411C696.411 98.2116 705.433 89.3716 716.574 89.2333L716.568 88.7334ZM695.911 68.692C696.053 80.0373 705.161 89.0917 716.568 89.2333L716.574 88.7334C705.436 88.5951 696.549 79.7571 696.411 68.6858L695.911 68.692ZM725.963 89.2328C737.304 89.015 746.335 79.99 746.477 68.692L745.977 68.6857C745.838 79.711 737.027 88.5202 725.953 88.7329L725.963 89.2328ZM746.477 109.275C746.335 97.9767 737.304 88.9507 725.963 88.7329L725.953 89.2328C737.027 89.4455 745.838 98.2556 745.977 109.281L746.477 109.275ZM766.634 88.7334C755.23 88.8749 745.977 97.9273 745.977 109.278H746.477C746.477 98.2116 755.499 89.3716 766.64 89.2333L766.634 88.7334ZM745.977 68.692C746.119 80.0373 755.227 89.0917 766.634 89.2333L766.64 88.7334C755.502 88.5951 746.616 79.7571 746.477 68.6858L745.977 68.692ZM776.029 89.2328C787.37 89.015 796.401 79.99 796.543 68.692L796.043 68.6857C795.904 79.711 787.093 88.5202 776.019 88.7329L776.029 89.2328ZM796.543 109.275C796.401 97.9767 787.37 88.9507 776.029 88.7329L776.019 89.2328C787.093 89.4455 795.904 98.2556 796.043 109.281L796.543 109.275ZM816.7 88.7334C805.296 88.8749 796.043 97.9273 796.043 109.278H796.543C796.543 98.2116 805.565 89.3716 816.706 89.2333L816.7 88.7334ZM796.043 68.692C796.185 80.0373 805.293 89.0917 816.7 89.2333L816.706 88.7334C805.568 88.5951 796.682 79.7571 796.543 68.6858L796.043 68.692ZM826.095 89.2328C837.436 89.015 846.467 79.99 846.609 68.692L846.109 68.6857C845.971 79.711 837.159 88.5202 826.085 88.7329L826.095 89.2328ZM846.609 109.275C846.467 97.9767 837.436 88.9507 826.095 88.7329L826.085 89.2328C837.159 89.4455 845.971 98.2556 846.109 109.281L846.609 109.275ZM866.766 88.7334C855.362 88.8749 846.109 97.9273 846.109 109.278H846.609C846.609 98.2116 855.631 89.3716 866.772 89.2333L866.766 88.7334ZM846.109 68.692C846.251 80.0373 855.359 89.0917 866.766 89.2333L866.772 88.7334C855.634 88.5951 846.748 79.7571 846.609 68.6858L846.109 68.692ZM876.161 89.2328C887.502 89.015 896.533 79.99 896.675 68.692L896.175 68.6857C896.037 79.711 887.225 88.5202 876.151 88.7329L876.161 89.2328ZM896.675 109.275C896.533 97.9767 887.502 88.9507 876.161 88.7329L876.151 89.2328C887.225 89.4455 896.037 98.2556 896.175 109.281L896.675 109.275ZM916.832 88.7334C905.428 88.8749 896.175 97.9273 896.175 109.278H896.675C896.675 98.2116 905.697 89.3716 916.838 89.2333L916.832 88.7334ZM896.175 68.692C896.317 80.0373 905.425 89.0917 916.832 89.2333L916.838 88.7334C905.7 88.5951 896.814 79.7571 896.675 68.6858L896.175 68.692ZM150.203 123.577C161.544 123.359 170.575 114.334 170.717 103.036L170.217 103.03C170.079 114.055 161.267 122.865 150.193 123.077L150.203 123.577ZM170.717 143.619C170.575 132.321 161.544 123.295 150.203 123.077L150.193 123.577C161.267 123.79 170.079 132.6 170.217 143.625L170.717 143.619ZM190.874 123.078C179.47 123.219 170.217 132.272 170.217 143.622H170.717C170.717 132.556 179.739 123.716 190.88 123.578L190.874 123.078ZM170.217 103.036C170.359 114.382 179.467 123.436 190.874 123.578L190.88 123.078C179.742 122.939 170.856 114.102 170.717 103.03L170.217 103.036ZM200.269 123.577C211.61 123.359 220.641 114.334 220.783 103.036L220.283 103.03C220.145 114.055 211.333 122.865 200.259 123.077L200.269 123.577ZM220.783 143.619C220.641 132.321 211.61 123.295 200.269 123.077L200.259 123.577C211.333 123.79 220.145 132.6 220.283 143.625L220.783 143.619ZM240.94 123.078C229.536 123.219 220.283 132.272 220.283 143.622H220.783C220.783 132.556 229.805 123.716 240.946 123.578L240.94 123.078ZM220.283 103.036C220.425 114.382 229.533 123.436 240.94 123.578L240.946 123.078C229.808 122.939 220.922 114.102 220.783 103.03L220.283 103.036ZM250.335 123.577C261.676 123.359 270.707 114.334 270.849 103.036L270.349 103.03C270.211 114.055 261.399 122.865 250.326 123.077L250.335 123.577ZM270.849 143.619C270.707 132.321 261.676 123.295 250.335 123.077L250.326 123.577C261.399 123.79 270.211 132.6 270.349 143.625L270.849 143.619ZM291.006 123.078C279.602 123.219 270.349 132.272 270.349 143.622H270.849C270.849 132.556 279.872 123.716 291.012 123.578L291.006 123.078ZM270.349 103.036C270.491 114.382 279.6 123.436 291.006 123.578L291.012 123.078C279.874 122.939 270.988 114.102 270.849 103.03L270.349 103.036ZM300.401 123.577C311.742 123.359 320.773 114.334 320.915 103.036L320.415 103.03C320.277 114.055 311.465 122.865 300.392 123.077L300.401 123.577ZM320.915 143.619C320.773 132.321 311.742 123.295 300.401 123.077L300.392 123.577C311.465 123.79 320.277 132.6 320.415 143.625L320.915 143.619ZM341.072 123.078C329.668 123.219 320.415 132.272 320.415 143.622H320.915C320.915 132.556 329.938 123.716 341.078 123.578L341.072 123.078ZM320.415 103.036C320.557 114.382 329.666 123.436 341.072 123.578L341.078 123.078C329.94 122.939 321.054 114.102 320.915 103.03L320.415 103.036ZM350.467 123.577C361.808 123.359 370.839 114.334 370.981 103.036L370.481 103.03C370.343 114.055 361.531 122.865 350.458 123.077L350.467 123.577ZM370.981 143.619C370.839 132.321 361.808 123.295 350.467 123.077L350.458 123.577C361.531 123.79 370.343 132.6 370.481 143.625L370.981 143.619ZM391.138 123.078C379.735 123.219 370.481 132.272 370.481 143.622H370.981C370.981 132.556 380.004 123.716 391.144 123.578L391.138 123.078ZM370.481 103.036C370.623 114.382 379.732 123.436 391.138 123.578L391.144 123.078C380.007 122.939 371.12 114.102 370.981 103.03L370.481 103.036ZM400.533 123.577C411.874 123.359 420.905 114.334 421.047 103.036L420.548 103.03C420.409 114.055 411.597 122.865 400.524 123.077L400.533 123.577ZM421.047 143.619C420.905 132.321 411.874 123.295 400.533 123.077L400.524 123.577C411.597 123.79 420.409 132.6 420.548 143.625L421.047 143.619ZM441.204 123.078C429.801 123.219 420.547 132.272 420.547 143.622H421.047C421.047 132.556 430.07 123.716 441.21 123.578L441.204 123.078ZM420.548 103.036C420.689 114.382 429.798 123.436 441.204 123.578L441.21 123.078C430.073 122.939 421.186 114.102 421.047 103.03L420.548 103.036ZM450.599 123.577C461.94 123.359 470.972 114.334 471.114 103.036L470.614 103.03C470.475 114.055 461.663 122.865 450.59 123.077L450.599 123.577ZM471.114 143.619C470.972 132.321 461.94 123.295 450.599 123.077L450.59 123.577C461.663 123.79 470.475 132.6 470.614 143.625L471.114 143.619ZM491.27 123.078C479.867 123.219 470.614 132.272 470.614 143.622H471.114C471.114 132.556 480.136 123.716 491.276 123.578L491.27 123.078ZM470.614 103.036C470.756 114.382 479.864 123.436 491.27 123.578L491.276 123.078C480.139 122.939 471.252 114.102 471.114 103.03L470.614 103.036ZM500.665 123.577C512.006 123.359 521.038 114.334 521.18 103.036L520.68 103.03C520.541 114.055 511.729 122.865 500.656 123.077L500.665 123.577ZM521.18 143.619C521.038 132.321 512.006 123.295 500.665 123.077L500.656 123.577C511.729 123.79 520.541 132.6 520.68 143.625L521.18 143.619ZM541.336 123.078C529.933 123.219 520.68 132.272 520.68 143.622H521.18C521.18 132.556 530.202 123.716 541.342 123.578L541.336 123.078ZM520.68 103.036C520.822 114.382 529.93 123.436 541.336 123.578L541.342 123.078C530.205 122.939 521.318 114.102 521.18 103.03L520.68 103.036ZM550.732 123.577C562.072 123.359 571.104 114.334 571.246 103.036L570.746 103.03C570.607 114.055 561.796 122.865 550.722 123.077L550.732 123.577ZM571.246 143.619C571.104 132.321 562.072 123.295 550.732 123.077L550.722 123.577C561.796 123.79 570.607 132.6 570.746 143.625L571.246 143.619ZM591.402 123.078C579.999 123.219 570.746 132.272 570.746 143.622H571.246C571.246 132.556 580.268 123.716 591.409 123.578L591.402 123.078ZM570.746 103.036C570.888 114.382 579.996 123.436 591.402 123.578L591.409 123.078C580.271 122.939 571.384 114.102 571.246 103.03L570.746 103.036ZM600.798 123.577C612.138 123.359 621.17 114.334 621.312 103.036L620.812 103.03C620.673 114.055 611.862 122.865 600.788 123.077L600.798 123.577ZM621.312 143.619C621.17 132.321 612.138 123.295 600.798 123.077L600.788 123.577C611.862 123.79 620.673 132.6 620.812 143.625L621.312 143.619ZM641.468 123.078C630.065 123.219 620.812 132.272 620.812 143.622H621.312C621.312 132.556 630.334 123.716 641.475 123.578L641.468 123.078ZM620.812 103.036C620.954 114.382 630.062 123.436 641.468 123.578L641.475 123.078C630.337 122.939 621.45 114.102 621.312 103.03L620.812 103.036ZM650.864 123.577C662.204 123.359 671.236 114.334 671.378 103.036L670.878 103.03C670.739 114.055 661.928 122.865 650.854 123.077L650.864 123.577ZM671.378 143.619C671.236 132.321 662.204 123.295 650.864 123.077L650.854 123.577C661.928 123.79 670.739 132.6 670.878 143.625L671.378 143.619ZM691.534 123.078C680.131 123.219 670.878 132.272 670.878 143.622H671.378C671.378 132.556 680.4 123.716 691.541 123.578L691.534 123.078ZM670.878 103.036C671.02 114.382 680.128 123.436 691.534 123.578L691.541 123.078C680.403 122.939 671.516 114.102 671.378 103.03L670.878 103.036ZM700.93 123.577C712.271 123.359 721.302 114.334 721.444 103.036L720.944 103.03C720.805 114.055 711.994 122.865 700.92 123.077L700.93 123.577ZM721.444 143.619C721.302 132.321 712.271 123.295 700.93 123.077L700.92 123.577C711.994 123.79 720.805 132.6 720.944 143.625L721.444 143.619ZM741.601 123.078C730.197 123.219 720.944 132.272 720.944 143.622H721.444C721.444 132.556 730.466 123.716 741.607 123.578L741.601 123.078ZM720.944 103.036C721.086 114.382 730.194 123.436 741.601 123.578L741.607 123.078C730.469 122.939 721.583 114.102 721.444 103.03L720.944 103.036ZM750.996 123.577C762.337 123.359 771.368 114.334 771.51 103.036L771.01 103.03C770.871 114.055 762.06 122.865 750.986 123.077L750.996 123.577ZM771.51 143.619C771.368 132.321 762.337 123.295 750.996 123.077L750.986 123.577C762.06 123.79 770.871 132.6 771.01 143.625L771.51 143.619ZM791.667 123.078C780.263 123.219 771.01 132.272 771.01 143.622H771.51C771.51 132.556 780.532 123.716 791.673 123.578L791.667 123.078ZM771.01 103.036C771.152 114.382 780.26 123.436 791.667 123.578L791.673 123.078C780.535 122.939 771.649 114.102 771.51 103.03L771.01 103.036ZM801.062 123.577C812.403 123.359 821.434 114.334 821.576 103.036L821.076 103.03C820.938 114.055 812.126 122.865 801.052 123.077L801.062 123.577ZM821.576 143.619C821.434 132.321 812.403 123.295 801.062 123.077L801.052 123.577C812.126 123.79 820.938 132.6 821.076 143.625L821.576 143.619ZM841.733 123.078C830.329 123.219 821.076 132.272 821.076 143.622H821.576C821.576 132.556 830.598 123.716 841.739 123.578L841.733 123.078ZM821.076 103.036C821.218 114.382 830.326 123.436 841.733 123.578L841.739 123.078C830.601 122.939 821.715 114.102 821.576 103.03L821.076 103.036ZM851.128 123.577C862.469 123.359 871.5 114.334 871.642 103.036L871.142 103.03C871.004 114.055 862.192 122.865 851.118 123.077L851.128 123.577ZM871.642 143.619C871.5 132.321 862.469 123.295 851.128 123.077L851.118 123.577C862.192 123.79 871.004 132.6 871.142 143.625L871.642 143.619ZM891.799 123.078C880.395 123.219 871.142 132.272 871.142 143.622H871.642C871.642 132.556 880.664 123.716 891.805 123.578L891.799 123.078ZM871.142 103.036C871.284 114.382 880.392 123.436 891.799 123.578L891.805 123.078C880.667 122.939 871.781 114.102 871.642 103.03L871.142 103.036ZM901.194 123.577C912.535 123.359 921.566 114.334 921.708 103.036L921.208 103.03C921.07 114.055 912.258 122.865 901.184 123.077L901.194 123.577ZM921.708 143.619C921.566 132.321 912.535 123.295 901.194 123.077L901.184 123.577C912.258 123.79 921.07 132.6 921.208 143.625L921.708 143.619ZM941.865 123.078C930.461 123.219 921.208 132.272 921.208 143.622H921.708C921.708 132.556 930.731 123.716 941.871 123.578L941.865 123.078ZM921.208 103.036C921.35 114.382 930.458 123.436 941.865 123.578L941.871 123.078C930.733 122.939 921.847 114.102 921.708 103.03L921.208 103.036ZM275.368 157.922C286.709 157.704 295.74 148.679 295.882 137.381L295.382 137.375C295.244 148.4 286.432 157.209 275.359 157.422L275.368 157.922ZM295.882 177.964C295.74 166.666 286.709 157.64 275.368 157.422L275.359 157.922C286.432 158.134 295.244 166.945 295.382 177.97L295.882 177.964ZM316.039 157.422C304.635 157.564 295.382 166.616 295.382 177.967H295.882C295.882 166.901 304.905 158.061 316.045 157.922L316.039 157.422ZM295.382 137.381C295.524 148.726 304.633 157.781 316.039 157.922L316.045 157.422C304.907 157.284 296.021 148.446 295.882 137.375L295.382 137.381ZM325.434 157.922C336.775 157.704 345.806 148.679 345.948 137.381L345.448 137.375C345.31 148.4 336.498 157.209 325.425 157.422L325.434 157.922ZM345.948 177.964C345.806 166.666 336.775 157.64 325.434 157.422L325.425 157.922C336.498 158.134 345.31 166.945 345.448 177.97L345.948 177.964ZM366.105 157.422C354.702 157.564 345.448 166.616 345.448 177.967H345.948C345.948 166.901 354.971 158.061 366.111 157.922L366.105 157.422ZM345.448 137.381C345.59 148.726 354.699 157.781 366.105 157.922L366.111 157.422C354.974 157.284 346.087 148.446 345.948 137.375L345.448 137.381ZM375.5 157.922C386.841 157.704 395.872 148.679 396.014 137.381L395.514 137.375C395.376 148.4 386.564 157.209 375.491 157.422L375.5 157.922ZM396.014 177.964C395.872 166.666 386.841 157.64 375.5 157.422L375.491 157.922C386.564 158.134 395.376 166.945 395.514 177.97L396.014 177.964ZM416.171 157.422C404.768 157.564 395.514 166.616 395.514 177.967H396.014C396.014 166.901 405.037 158.061 416.177 157.922L416.171 157.422ZM395.514 137.381C395.656 148.726 404.765 157.781 416.171 157.922L416.177 157.422C405.04 157.284 396.153 148.446 396.014 137.375L395.514 137.381ZM425.566 157.922C436.907 157.704 445.939 148.679 446.08 137.381L445.581 137.375C445.442 148.4 436.63 157.209 425.557 157.422L425.566 157.922ZM446.08 177.964C445.939 166.666 436.907 157.64 425.566 157.422L425.557 157.922C436.63 158.134 445.442 166.945 445.581 177.97L446.08 177.964ZM466.237 157.422C454.834 157.564 445.581 166.616 445.581 177.967H446.081C446.081 166.901 455.103 158.061 466.243 157.922L466.237 157.422ZM445.581 137.381C445.723 148.726 454.831 157.781 466.237 157.922L466.243 157.422C455.106 157.284 446.219 148.446 446.08 137.375L445.581 137.381ZM475.632 157.922C486.973 157.704 496.005 148.679 496.147 137.381L495.647 137.375C495.508 148.4 486.696 157.209 475.623 157.422L475.632 157.922ZM496.147 177.964C496.005 166.666 486.973 157.64 475.632 157.422L475.623 157.922C486.696 158.134 495.508 166.945 495.647 177.97L496.147 177.964ZM516.303 157.422C504.9 157.564 495.647 166.616 495.647 177.967H496.147C496.147 166.901 505.169 158.061 516.309 157.922L516.303 157.422ZM495.647 137.381C495.789 148.726 504.897 157.781 516.303 157.922L516.309 157.422C505.172 157.284 496.285 148.446 496.147 137.375L495.647 137.381ZM525.699 157.922C537.039 157.704 546.071 148.679 546.213 137.381L545.713 137.375C545.574 148.4 536.763 157.209 525.689 157.422L525.699 157.922ZM546.213 177.964C546.071 166.666 537.039 157.64 525.699 157.422L525.689 157.922C536.763 158.134 545.574 166.945 545.713 177.97L546.213 177.964ZM566.369 157.422C554.966 157.564 545.713 166.616 545.713 177.967H546.213C546.213 166.901 555.235 158.061 566.375 157.922L566.369 157.422ZM545.713 137.381C545.855 148.726 554.963 157.781 566.369 157.922L566.375 157.422C555.238 157.284 546.351 148.446 546.213 137.375L545.713 137.381ZM575.765 157.922C587.105 157.704 596.137 148.679 596.279 137.381L595.779 137.375C595.64 148.4 586.829 157.209 575.755 157.422L575.765 157.922ZM596.279 177.964C596.137 166.666 587.105 157.64 575.765 157.422L575.755 157.922C586.829 158.134 595.64 166.945 595.779 177.97L596.279 177.964ZM616.435 157.422C605.032 157.564 595.779 166.616 595.779 177.967H596.279C596.279 166.901 605.301 158.061 616.442 157.922L616.435 157.422ZM595.779 137.381C595.921 148.726 605.029 157.781 616.435 157.922L616.442 157.422C605.304 157.284 596.417 148.446 596.279 137.375L595.779 137.381ZM625.831 157.922C637.171 157.704 646.203 148.679 646.345 137.381L645.845 137.375C645.706 148.4 636.895 157.209 625.821 157.422L625.831 157.922ZM646.345 177.964C646.203 166.666 637.171 157.64 625.831 157.422L625.821 157.922C636.895 158.134 645.706 166.945 645.845 177.97L646.345 177.964ZM666.501 157.422C655.098 157.564 645.845 166.616 645.845 177.967H646.345C646.345 166.901 655.367 158.061 666.508 157.922L666.501 157.422ZM645.845 137.381C645.987 148.726 655.095 157.781 666.501 157.922L666.508 157.422C655.37 157.284 646.483 148.446 646.345 137.375L645.845 137.381ZM675.897 157.922C687.237 157.704 696.269 148.679 696.411 137.381L695.911 137.375C695.772 148.4 686.961 157.209 675.887 157.422L675.897 157.922ZM696.411 177.964C696.269 166.666 687.237 157.64 675.897 157.422L675.887 157.922C686.961 158.134 695.772 166.945 695.911 177.97L696.411 177.964ZM716.568 157.422C705.164 157.564 695.911 166.616 695.911 177.967H696.411C696.411 166.901 705.433 158.061 716.574 157.922L716.568 157.422ZM695.911 137.381C696.053 148.726 705.161 157.781 716.568 157.922L716.574 157.422C705.436 157.284 696.549 148.446 696.411 137.375L695.911 137.381ZM725.963 157.922C737.304 157.704 746.335 148.679 746.477 137.381L745.977 137.375C745.838 148.4 737.027 157.209 725.953 157.422L725.963 157.922ZM746.477 177.964C746.335 166.666 737.304 157.64 725.963 157.422L725.953 157.922C737.027 158.134 745.838 166.945 745.977 177.97L746.477 177.964ZM766.634 157.422C755.23 157.564 745.977 166.616 745.977 177.967H746.477C746.477 166.901 755.499 158.061 766.64 157.922L766.634 157.422ZM745.977 137.381C746.119 148.726 755.227 157.781 766.634 157.922L766.64 157.422C755.502 157.284 746.616 148.446 746.477 137.375L745.977 137.381ZM776.029 157.922C787.37 157.704 796.401 148.679 796.543 137.381L796.043 137.375C795.904 148.4 787.093 157.209 776.019 157.422L776.029 157.922ZM796.543 177.964C796.401 166.666 787.37 157.64 776.029 157.422L776.019 157.922C787.093 158.134 795.904 166.945 796.043 177.97L796.543 177.964ZM816.7 157.422C805.296 157.564 796.043 166.616 796.043 177.967H796.543C796.543 166.901 805.565 158.061 816.706 157.922L816.7 157.422ZM796.043 137.381C796.185 148.726 805.293 157.781 816.7 157.922L816.706 157.422C805.568 157.284 796.682 148.446 796.543 137.375L796.043 137.381ZM826.095 157.922C837.436 157.704 846.467 148.679 846.609 137.381L846.109 137.375C845.971 148.4 837.159 157.209 826.085 157.422L826.095 157.922ZM846.609 177.964C846.467 166.666 837.436 157.64 826.095 157.422L826.085 157.922C837.159 158.134 845.971 166.945 846.109 177.97L846.609 177.964ZM866.766 157.422C855.362 157.564 846.109 166.616 846.109 177.967H846.609C846.609 166.901 855.631 158.061 866.772 157.922L866.766 157.422ZM846.109 137.381C846.251 148.726 855.359 157.781 866.766 157.922L866.772 157.422C855.634 157.284 846.748 148.446 846.609 137.375L846.109 137.381ZM876.161 157.922C887.502 157.704 896.533 148.679 896.675 137.381L896.175 137.375C896.037 148.4 887.225 157.209 876.151 157.422L876.161 157.922ZM896.675 177.964C896.533 166.666 887.502 157.64 876.161 157.422L876.151 157.922C887.225 158.134 896.037 166.945 896.175 177.97L896.675 177.964ZM916.832 157.422C905.428 157.564 896.175 166.616 896.175 177.967H896.675C896.675 166.901 905.697 158.061 916.838 157.922L916.832 157.422ZM896.175 137.381C896.317 148.726 905.425 157.781 916.832 157.922L916.838 157.422C905.7 157.284 896.814 148.446 896.675 137.375L896.175 137.381ZM250.335 192.266C261.676 192.048 270.707 183.023 270.849 171.725L270.349 171.719C270.211 182.744 261.399 191.554 250.326 191.766L250.335 192.266ZM270.849 212.308C270.707 201.01 261.676 191.984 250.335 191.766L250.326 192.266C261.399 192.479 270.211 201.289 270.349 212.314L270.849 212.308ZM291.006 191.767C279.602 191.908 270.349 200.961 270.349 212.311H270.849C270.849 201.245 279.872 192.405 291.012 192.267L291.006 191.767ZM270.349 171.725C270.491 183.071 279.6 192.125 291.006 192.267L291.012 191.767C279.874 191.628 270.988 182.79 270.849 171.719L270.349 171.725ZM300.401 192.266C311.742 192.048 320.773 183.023 320.915 171.725L320.415 171.719C320.277 182.744 311.465 191.554 300.392 191.766L300.401 192.266ZM320.915 212.308C320.773 201.01 311.742 191.984 300.401 191.766L300.392 192.266C311.465 192.479 320.277 201.289 320.415 212.314L320.915 212.308ZM341.072 191.767C329.668 191.908 320.415 200.961 320.415 212.311H320.915C320.915 201.245 329.938 192.405 341.078 192.267L341.072 191.767ZM320.415 171.725C320.557 183.071 329.666 192.125 341.072 192.267L341.078 191.767C329.94 191.628 321.054 182.79 320.915 171.719L320.415 171.725ZM350.467 192.266C361.808 192.048 370.839 183.023 370.981 171.725L370.481 171.719C370.343 182.744 361.531 191.554 350.458 191.766L350.467 192.266ZM370.981 212.308C370.839 201.01 361.808 191.984 350.467 191.766L350.458 192.266C361.531 192.479 370.343 201.289 370.481 212.314L370.981 212.308ZM391.138 191.767C379.735 191.908 370.481 200.961 370.481 212.311H370.981C370.981 201.245 380.004 192.405 391.144 192.267L391.138 191.767ZM370.481 171.725C370.623 183.071 379.732 192.125 391.138 192.267L391.144 191.767C380.007 191.628 371.12 182.79 370.981 171.719L370.481 171.725ZM400.533 192.266C411.874 192.048 420.905 183.023 421.047 171.725L420.548 171.719C420.409 182.744 411.597 191.554 400.524 191.766L400.533 192.266ZM421.047 212.308C420.905 201.01 411.874 191.984 400.533 191.766L400.524 192.266C411.597 192.479 420.409 201.289 420.548 212.314L421.047 212.308ZM441.204 191.767C429.801 191.908 420.547 200.961 420.547 212.311H421.047C421.047 201.245 430.07 192.405 441.21 192.267L441.204 191.767ZM420.548 171.725C420.689 183.071 429.798 192.125 441.204 192.267L441.21 191.767C430.073 191.628 421.186 182.79 421.047 171.719L420.548 171.725ZM450.599 192.266C461.94 192.048 470.972 183.023 471.114 171.725L470.614 171.719C470.475 182.744 461.663 191.554 450.59 191.766L450.599 192.266ZM471.114 212.308C470.972 201.01 461.94 191.984 450.599 191.766L450.59 192.266C461.663 192.479 470.475 201.289 470.614 212.314L471.114 212.308ZM491.27 191.767C479.867 191.908 470.614 200.961 470.614 212.311H471.114C471.114 201.245 480.136 192.405 491.276 192.267L491.27 191.767ZM470.614 171.725C470.756 183.071 479.864 192.125 491.27 192.267L491.276 191.767C480.139 191.628 471.252 182.79 471.114 171.719L470.614 171.725ZM500.665 192.266C512.006 192.048 521.038 183.023 521.18 171.725L520.68 171.719C520.541 182.744 511.729 191.554 500.656 191.766L500.665 192.266ZM521.18 212.308C521.038 201.01 512.006 191.984 500.665 191.766L500.656 192.266C511.729 192.479 520.541 201.289 520.68 212.314L521.18 212.308ZM541.336 191.767C529.933 191.908 520.68 200.961 520.68 212.311H521.18C521.18 201.245 530.202 192.405 541.342 192.267L541.336 191.767ZM520.68 171.725C520.822 183.071 529.93 192.125 541.336 192.267L541.342 191.767C530.205 191.628 521.318 182.79 521.18 171.719L520.68 171.725ZM550.732 192.266C562.072 192.048 571.104 183.023 571.246 171.725L570.746 171.719C570.607 182.744 561.796 191.554 550.722 191.766L550.732 192.266ZM571.246 212.308C571.104 201.01 562.072 191.984 550.732 191.766L550.722 192.266C561.796 192.479 570.607 201.289 570.746 212.314L571.246 212.308ZM591.402 191.767C579.999 191.908 570.746 200.961 570.746 212.311H571.246C571.246 201.245 580.268 192.405 591.409 192.267L591.402 191.767ZM570.746 171.725C570.888 183.071 579.996 192.125 591.402 192.267L591.409 191.767C580.271 191.628 571.384 182.79 571.246 171.719L570.746 171.725ZM600.798 192.266C612.138 192.048 621.17 183.023 621.312 171.725L620.812 171.719C620.673 182.744 611.862 191.554 600.788 191.766L600.798 192.266ZM621.312 212.308C621.17 201.01 612.138 191.984 600.798 191.766L600.788 192.266C611.862 192.479 620.673 201.289 620.812 212.314L621.312 212.308ZM641.468 191.767C630.065 191.908 620.812 200.961 620.812 212.311H621.312C621.312 201.245 630.334 192.405 641.475 192.267L641.468 191.767ZM620.812 171.725C620.954 183.071 630.062 192.125 641.468 192.267L641.475 191.767C630.337 191.628 621.45 182.79 621.312 171.719L620.812 171.725ZM650.864 192.266C662.204 192.048 671.236 183.023 671.378 171.725L670.878 171.719C670.739 182.744 661.928 191.554 650.854 191.766L650.864 192.266ZM671.378 212.308C671.236 201.01 662.204 191.984 650.864 191.766L650.854 192.266C661.928 192.479 670.739 201.289 670.878 212.314L671.378 212.308ZM691.534 191.767C680.131 191.908 670.878 200.961 670.878 212.311H671.378C671.378 201.245 680.4 192.405 691.541 192.267L691.534 191.767ZM670.878 171.725C671.02 183.071 680.128 192.125 691.534 192.267L691.541 191.767C680.403 191.628 671.516 182.79 671.378 171.719L670.878 171.725ZM700.93 192.266C712.271 192.048 721.302 183.023 721.444 171.725L720.944 171.719C720.805 182.744 711.994 191.554 700.92 191.766L700.93 192.266ZM721.444 212.308C721.302 201.01 712.271 191.984 700.93 191.766L700.92 192.266C711.994 192.479 720.805 201.289 720.944 212.314L721.444 212.308ZM741.601 191.767C730.197 191.908 720.944 200.961 720.944 212.311H721.444C721.444 201.245 730.466 192.405 741.607 192.267L741.601 191.767ZM720.944 171.725C721.086 183.071 730.194 192.125 741.601 192.267L741.607 191.767C730.469 191.628 721.583 182.79 721.444 171.719L720.944 171.725ZM750.996 192.266C762.337 192.048 771.368 183.023 771.51 171.725L771.01 171.719C770.871 182.744 762.06 191.554 750.986 191.766L750.996 192.266ZM771.51 212.308C771.368 201.01 762.337 191.984 750.996 191.766L750.986 192.266C762.06 192.479 770.871 201.289 771.01 212.314L771.51 212.308ZM791.667 191.767C780.263 191.908 771.01 200.961 771.01 212.311H771.51C771.51 201.245 780.532 192.405 791.673 192.267L791.667 191.767ZM771.01 171.725C771.152 183.071 780.26 192.125 791.667 192.267L791.673 191.767C780.535 191.628 771.649 182.79 771.51 171.719L771.01 171.725ZM801.062 192.266C812.403 192.048 821.434 183.023 821.576 171.725L821.076 171.719C820.938 182.744 812.126 191.554 801.052 191.766L801.062 192.266ZM821.576 212.308C821.434 201.01 812.403 191.984 801.062 191.766L801.052 192.266C812.126 192.479 820.938 201.289 821.076 212.314L821.576 212.308ZM841.733 191.767C830.329 191.908 821.076 200.961 821.076 212.311H821.576C821.576 201.245 830.598 192.405 841.739 192.267L841.733 191.767ZM821.076 171.725C821.218 183.071 830.326 192.125 841.733 192.267L841.739 191.767C830.601 191.628 821.715 182.79 821.576 171.719L821.076 171.725ZM851.128 192.266C862.469 192.048 871.5 183.023 871.642 171.725L871.142 171.719C871.004 182.744 862.192 191.554 851.118 191.766L851.128 192.266ZM871.642 212.308C871.5 201.01 862.469 191.984 851.128 191.766L851.118 192.266C862.192 192.479 871.004 201.289 871.142 212.314L871.642 212.308ZM891.799 191.767C880.395 191.908 871.142 200.961 871.142 212.311H871.642C871.642 201.245 880.664 192.405 891.805 192.267L891.799 191.767ZM871.142 171.725C871.284 183.071 880.392 192.125 891.799 192.267L891.805 191.767C880.667 191.628 871.781 182.79 871.642 171.719L871.142 171.725ZM901.194 192.266C912.535 192.048 921.566 183.023 921.708 171.725L921.208 171.719C921.07 182.744 912.258 191.554 901.184 191.766L901.194 192.266ZM921.708 212.308C921.566 201.01 912.535 191.984 901.194 191.766L901.184 192.266C912.258 192.479 921.07 201.289 921.208 212.314L921.708 212.308ZM941.865 191.767C930.461 191.908 921.208 200.961 921.208 212.311H921.708C921.708 201.245 930.731 192.405 941.871 192.267L941.865 191.767ZM921.208 171.725C921.35 183.071 930.458 192.125 941.865 192.267L941.871 191.767C930.733 191.628 921.847 182.79 921.708 171.719L921.208 171.725ZM325.434 226.611C336.775 226.393 345.806 217.368 345.948 206.07L345.448 206.064C345.31 217.089 336.498 225.898 325.425 226.111L325.434 226.611ZM345.948 246.652C345.806 235.354 336.775 226.328 325.434 226.111L325.425 226.611C336.498 226.823 345.31 235.633 345.448 246.659L345.948 246.652ZM366.105 226.111C354.702 226.253 345.448 235.305 345.448 246.656H345.948C345.948 235.589 354.971 226.749 366.111 226.611L366.105 226.111ZM345.448 206.07C345.59 217.415 354.699 226.469 366.105 226.611L366.111 226.111C354.974 225.973 346.087 217.135 345.948 206.064L345.448 206.07ZM375.5 226.611C386.841 226.393 395.872 217.368 396.014 206.07L395.514 206.064C395.376 217.089 386.564 225.898 375.491 226.111L375.5 226.611ZM396.014 246.652C395.872 235.354 386.841 226.328 375.5 226.111L375.491 226.611C386.564 226.823 395.376 235.633 395.514 246.659L396.014 246.652ZM416.171 226.111C404.768 226.253 395.514 235.305 395.514 246.656H396.014C396.014 235.589 405.037 226.749 416.177 226.611L416.171 226.111ZM395.514 206.07C395.656 217.415 404.765 226.469 416.171 226.611L416.177 226.111C405.04 225.973 396.153 217.135 396.014 206.064L395.514 206.07ZM425.566 226.611C436.907 226.393 445.939 217.368 446.08 206.07L445.581 206.064C445.442 217.089 436.63 225.898 425.557 226.111L425.566 226.611ZM446.08 246.652C445.939 235.354 436.907 226.328 425.566 226.111L425.557 226.611C436.63 226.823 445.442 235.633 445.581 246.659L446.08 246.652ZM466.237 226.111C454.834 226.253 445.581 235.305 445.581 246.656H446.081C446.081 235.589 455.103 226.749 466.243 226.611L466.237 226.111ZM445.581 206.07C445.723 217.415 454.831 226.469 466.237 226.611L466.243 226.111C455.106 225.973 446.219 217.135 446.08 206.064L445.581 206.07ZM475.632 226.611C486.973 226.393 496.005 217.368 496.147 206.07L495.647 206.064C495.508 217.089 486.696 225.898 475.623 226.111L475.632 226.611ZM496.147 246.652C496.005 235.354 486.973 226.328 475.632 226.111L475.623 226.611C486.696 226.823 495.508 235.633 495.647 246.659L496.147 246.652ZM516.303 226.111C504.9 226.253 495.647 235.305 495.647 246.656H496.147C496.147 235.589 505.169 226.749 516.309 226.611L516.303 226.111ZM495.647 206.07C495.789 217.415 504.897 226.469 516.303 226.611L516.309 226.111C505.172 225.973 496.285 217.135 496.147 206.064L495.647 206.07ZM525.699 226.611C537.039 226.393 546.071 217.368 546.213 206.07L545.713 206.064C545.574 217.089 536.763 225.898 525.689 226.111L525.699 226.611ZM546.213 246.652C546.071 235.354 537.039 226.328 525.699 226.111L525.689 226.611C536.763 226.823 545.574 235.633 545.713 246.659L546.213 246.652ZM566.369 226.111C554.966 226.253 545.713 235.305 545.713 246.656H546.213C546.213 235.589 555.235 226.749 566.375 226.611L566.369 226.111ZM545.713 206.07C545.855 217.415 554.963 226.469 566.369 226.611L566.375 226.111C555.238 225.973 546.351 217.135 546.213 206.064L545.713 206.07ZM575.765 226.611C587.105 226.393 596.137 217.368 596.279 206.07L595.779 206.064C595.64 217.089 586.829 225.898 575.755 226.111L575.765 226.611ZM596.279 246.652C596.137 235.354 587.105 226.328 575.765 226.111L575.755 226.611C586.829 226.823 595.64 235.633 595.779 246.659L596.279 246.652ZM616.435 226.111C605.032 226.253 595.779 235.305 595.779 246.656H596.279C596.279 235.589 605.301 226.749 616.442 226.611L616.435 226.111ZM595.779 206.07C595.921 217.415 605.029 226.469 616.435 226.611L616.442 226.111C605.304 225.973 596.417 217.135 596.279 206.064L595.779 206.07ZM625.831 226.611C637.171 226.393 646.203 217.368 646.345 206.07L645.845 206.064C645.706 217.089 636.895 225.898 625.821 226.111L625.831 226.611ZM646.345 246.652C646.203 235.354 637.171 226.328 625.831 226.111L625.821 226.611C636.895 226.823 645.706 235.633 645.845 246.659L646.345 246.652ZM666.501 226.111C655.098 226.253 645.845 235.305 645.845 246.656H646.345C646.345 235.589 655.367 226.749 666.508 226.611L666.501 226.111ZM645.845 206.07C645.987 217.415 655.095 226.469 666.501 226.611L666.508 226.111C655.37 225.973 646.483 217.135 646.345 206.064L645.845 206.07ZM675.897 226.611C687.237 226.393 696.269 217.368 696.411 206.07L695.911 206.064C695.772 217.089 686.961 225.898 675.887 226.111L675.897 226.611ZM696.411 246.652C696.269 235.354 687.237 226.328 675.897 226.111L675.887 226.611C686.961 226.823 695.772 235.633 695.911 246.659L696.411 246.652ZM716.568 226.111C705.164 226.253 695.911 235.305 695.911 246.656H696.411C696.411 235.589 705.433 226.749 716.574 226.611L716.568 226.111ZM695.911 206.07C696.053 217.415 705.161 226.469 716.568 226.611L716.574 226.111C705.436 225.973 696.549 217.135 696.411 206.064L695.911 206.07ZM725.963 226.611C737.304 226.393 746.335 217.368 746.477 206.07L745.977 206.064C745.838 217.089 737.027 225.898 725.953 226.111L725.963 226.611ZM746.477 246.652C746.335 235.354 737.304 226.328 725.963 226.111L725.953 226.611C737.027 226.823 745.838 235.633 745.977 246.659L746.477 246.652ZM766.634 226.111C755.23 226.253 745.977 235.305 745.977 246.656H746.477C746.477 235.589 755.499 226.749 766.64 226.611L766.634 226.111ZM745.977 206.07C746.119 217.415 755.227 226.469 766.634 226.611L766.64 226.111C755.502 225.973 746.616 217.135 746.477 206.064L745.977 206.07ZM776.029 226.611C787.37 226.393 796.401 217.368 796.543 206.07L796.043 206.064C795.904 217.089 787.093 225.898 776.019 226.111L776.029 226.611ZM796.543 246.652C796.401 235.354 787.37 226.328 776.029 226.111L776.019 226.611C787.093 226.823 795.904 235.633 796.043 246.659L796.543 246.652ZM816.7 226.111C805.296 226.253 796.043 235.305 796.043 246.656H796.543C796.543 235.589 805.565 226.749 816.706 226.611L816.7 226.111ZM796.043 206.07C796.185 217.415 805.293 226.469 816.7 226.611L816.706 226.111C805.568 225.973 796.682 217.135 796.543 206.064L796.043 206.07ZM826.095 226.611C837.436 226.393 846.467 217.368 846.609 206.07L846.109 206.064C845.971 217.089 837.159 225.898 826.085 226.111L826.095 226.611ZM846.609 246.652C846.467 235.354 837.436 226.328 826.095 226.111L826.085 226.611C837.159 226.823 845.971 235.633 846.109 246.659L846.609 246.652ZM866.766 226.111C855.362 226.253 846.109 235.305 846.109 246.656H846.609C846.609 235.589 855.631 226.749 866.772 226.611L866.766 226.111ZM846.109 206.07C846.251 217.415 855.359 226.469 866.766 226.611L866.772 226.111C855.634 225.973 846.748 217.135 846.609 206.064L846.109 206.07ZM876.161 226.611C887.502 226.393 896.533 217.368 896.675 206.07L896.175 206.064C896.037 217.089 887.225 225.898 876.151 226.111L876.161 226.611ZM896.675 246.652C896.533 235.354 887.502 226.328 876.161 226.111L876.151 226.611C887.225 226.823 896.037 235.633 896.175 246.659L896.675 246.652ZM916.832 226.111C905.428 226.253 896.175 235.305 896.175 246.656H896.675C896.675 235.589 905.697 226.749 916.838 226.611L916.832 226.111ZM896.175 206.07C896.317 217.415 905.425 226.469 916.832 226.611L916.838 226.111C905.7 225.973 896.814 217.135 896.675 206.064L896.175 206.07ZM500.665 260.955C512.006 260.737 521.038 251.712 521.18 240.414L520.68 240.408C520.541 251.433 511.729 260.242 500.656 260.455L500.665 260.955ZM521.18 280.997C521.038 269.699 512.006 260.673 500.665 260.455L500.656 260.955C511.729 261.168 520.541 269.978 520.68 281.003L521.18 280.997ZM541.336 260.456C529.933 260.597 520.68 269.65 520.68 281H521.18C521.18 269.934 530.202 261.094 541.342 260.956L541.336 260.456ZM520.68 240.414C520.822 251.759 529.93 260.814 541.336 260.956L541.342 260.456C530.205 260.317 521.318 251.479 521.18 240.408L520.68 240.414ZM550.732 260.955C562.072 260.737 571.104 251.712 571.246 240.414L570.746 240.408C570.607 251.433 561.796 260.242 550.722 260.455L550.732 260.955ZM571.246 280.997C571.104 269.699 562.072 260.673 550.732 260.455L550.722 260.955C561.796 261.168 570.607 269.978 570.746 281.003L571.246 280.997ZM591.402 260.456C579.999 260.597 570.746 269.65 570.746 281H571.246C571.246 269.934 580.268 261.094 591.409 260.956L591.402 260.456ZM570.746 240.414C570.888 251.759 579.996 260.814 591.402 260.956L591.409 260.456C580.271 260.317 571.384 251.479 571.246 240.408L570.746 240.414ZM600.798 260.955C612.138 260.737 621.17 251.712 621.312 240.414L620.812 240.408C620.673 251.433 611.862 260.242 600.788 260.455L600.798 260.955ZM621.312 280.997C621.17 269.699 612.138 260.673 600.798 260.455L600.788 260.955C611.862 261.168 620.673 269.978 620.812 281.003L621.312 280.997ZM641.468 260.456C630.065 260.597 620.812 269.65 620.812 281H621.312C621.312 269.934 630.334 261.094 641.475 260.956L641.468 260.456ZM620.812 240.414C620.954 251.759 630.062 260.814 641.468 260.956L641.475 260.456C630.337 260.317 621.45 251.479 621.312 240.408L620.812 240.414ZM650.864 260.955C662.204 260.737 671.236 251.712 671.378 240.414L670.878 240.408C670.739 251.433 661.928 260.242 650.854 260.455L650.864 260.955ZM671.378 280.997C671.236 269.699 662.204 260.673 650.864 260.455L650.854 260.955C661.928 261.168 670.739 269.978 670.878 281.003L671.378 280.997ZM691.534 260.456C680.131 260.597 670.878 269.65 670.878 281H671.378C671.378 269.934 680.4 261.094 691.541 260.956L691.534 260.456ZM670.878 240.414C671.02 251.759 680.128 260.814 691.534 260.956L691.541 260.456C680.403 260.317 671.516 251.479 671.378 240.408L670.878 240.414ZM700.93 260.955C712.271 260.737 721.302 251.712 721.444 240.414L720.944 240.408C720.805 251.433 711.994 260.242 700.92 260.455L700.93 260.955ZM721.444 280.997C721.302 269.699 712.271 260.673 700.93 260.455L700.92 260.955C711.994 261.168 720.805 269.978 720.944 281.003L721.444 280.997ZM741.601 260.456C730.197 260.597 720.944 269.65 720.944 281H721.444C721.444 269.934 730.466 261.094 741.607 260.956L741.601 260.456ZM720.944 240.414C721.086 251.759 730.194 260.814 741.601 260.956L741.607 260.456C730.469 260.317 721.583 251.479 721.444 240.408L720.944 240.414ZM750.996 260.955C762.337 260.737 771.368 251.712 771.51 240.414L771.01 240.408C770.871 251.433 762.06 260.242 750.986 260.455L750.996 260.955ZM771.51 280.997C771.368 269.699 762.337 260.673 750.996 260.455L750.986 260.955C762.06 261.168 770.871 269.978 771.01 281.003L771.51 280.997ZM791.667 260.456C780.263 260.597 771.01 269.65 771.01 281H771.51C771.51 269.934 780.532 261.094 791.673 260.956L791.667 260.456ZM771.01 240.414C771.152 251.759 780.26 260.814 791.667 260.956L791.673 260.456C780.535 260.317 771.649 251.479 771.51 240.408L771.01 240.414ZM801.062 260.955C812.403 260.737 821.434 251.712 821.576 240.414L821.076 240.408C820.938 251.433 812.126 260.242 801.052 260.455L801.062 260.955ZM821.576 280.997C821.434 269.699 812.403 260.673 801.062 260.455L801.052 260.955C812.126 261.168 820.938 269.978 821.076 281.003L821.576 280.997ZM841.733 260.456C830.329 260.597 821.076 269.65 821.076 281H821.576C821.576 269.934 830.598 261.094 841.739 260.956L841.733 260.456ZM821.076 240.414C821.218 251.759 830.326 260.814 841.733 260.956L841.739 260.456C830.601 260.317 821.715 251.479 821.576 240.408L821.076 240.414ZM851.128 260.955C862.469 260.737 871.5 251.712 871.642 240.414L871.142 240.408C871.004 251.433 862.192 260.242 851.118 260.455L851.128 260.955ZM871.642 280.997C871.5 269.699 862.469 260.673 851.128 260.455L851.118 260.955C862.192 261.168 871.004 269.978 871.142 281.003L871.642 280.997ZM891.799 260.456C880.395 260.597 871.142 269.65 871.142 281H871.642C871.642 269.934 880.664 261.094 891.805 260.956L891.799 260.456ZM871.142 240.414C871.284 251.759 880.392 260.814 891.799 260.956L891.805 260.456C880.667 260.317 871.781 251.479 871.642 240.408L871.142 240.414ZM901.194 260.955C912.535 260.737 921.566 251.712 921.708 240.414L921.208 240.408C921.07 251.433 912.258 260.242 901.184 260.455L901.194 260.955ZM921.708 280.997C921.566 269.699 912.535 260.673 901.194 260.455L901.184 260.955C912.258 261.168 921.07 269.978 921.208 281.003L921.708 280.997ZM941.865 260.456C930.461 260.597 921.208 269.65 921.208 281H921.708C921.708 269.934 930.731 261.094 941.871 260.956L941.865 260.456ZM921.208 240.414C921.35 251.759 930.458 260.814 941.865 260.956L941.871 260.456C930.733 260.317 921.847 251.479 921.708 240.408L921.208 240.414Z" fill="#B0D6CE"/>
</svg>
