<svg width="14" height="15" viewBox="0 0 14 15" fill="none" xmlns="http://www.w3.org/2000/svg">
<path d="M13.9132 7.58598H13.8846C10.1376 7.60031 7.08558 10.6668 7.08558 14.414C7.08558 14.4642 7.04259 14.5 6.99961 14.5C6.94946 14.5 6.91363 14.457 6.91363 14.414V14.3854C6.89931 10.6382 3.83295 7.58598 0.0859726 7.58598C0.0358219 7.58598 0 7.54299 0 7.5C0 7.44985 0.0429862 7.41402 0.0859726 7.41402H0.11463C3.86161 7.39969 6.91363 4.33316 6.91363 0.585977C6.91363 0.535824 6.95662 0.5 6.99961 0.5C7.04976 0.5 7.08558 0.542988 7.08558 0.585977C7.08558 4.34749 10.1448 7.41402 13.9132 7.41402C13.9634 7.41402 13.9992 7.45701 13.9992 7.5C14.0064 7.55015 13.9634 7.58598 13.9132 7.58598Z" fill="#475653"/>
</svg>
