<svg xmlns="http://www.w3.org/2000/svg" width="48" height="48" viewBox="0 0 48 48" fill="none">
	<path opacity="0.2"
		d="M24 48C37.2548 48 48 37.2548 48 24C48 10.7452 37.2548 0 24 0C10.7452 0 0 10.7452 0 24C0 37.2548 10.7452 48 24 48Z"
		fill="url(#paint0_linear_125_447)" />
	<path
		d="M15.6483 26.0823C15.0474 26.0823 14.5067 25.7217 14.2663 25.1809H10C10.2404 26.9235 11.5022 28.3656 13.1847 28.7863C12.6439 30.9494 13.7856 32.9324 15.5282 33.8337C15.5882 36.2372 17.5111 38.1 19.9146 38.1C21.537 38.1 22.9792 37.1987 23.7603 35.8166V28.6661H20.6357V30.5288C21.1765 30.7692 21.537 31.31 21.537 31.9109C21.537 32.7521 20.8761 33.4131 20.0348 33.4131C19.1936 33.4131 18.5326 32.7521 18.5326 31.9109C18.5326 31.31 18.8931 30.7692 19.4339 30.5288V27.4643H23.8204V22.1164H20.3353V19.6528H18.8931C18.6528 20.1936 18.112 20.5541 17.5111 20.5541C16.6698 20.5541 16.0089 19.8931 16.0089 19.0519C16.0089 18.2106 16.6698 17.5497 17.5111 17.5497C18.112 17.5497 18.6528 17.9102 18.8931 18.451H21.537V20.9146H23.8204V13.2834C23.0392 11.9013 21.6572 11 19.9747 11C17.6313 11 15.6483 12.8627 15.5882 15.2663C13.7856 16.1075 12.704 18.2106 13.2448 20.3137C11.5623 20.7945 10.3004 22.1765 10.0601 23.9191H14.3264C14.5667 23.3783 15.1075 23.0177 15.7084 23.0177C16.5497 23.0177 17.2106 23.6787 17.2106 24.52C17.2106 25.3612 16.4896 26.0823 15.6483 26.0823Z"
		fill="#3F71F1" />
	<path
		d="M35.1147 20.1858L34.9898 20.6578L35.4587 20.7939C37.1175 21.2755 38.3429 22.8295 38.3429 24.58C38.3429 25.3441 38.1172 26.0755 37.7205 26.6635V25.0007V24.5007H37.2205H32.7331V23.4917C33.2836 23.1256 33.6344 22.5016 33.6344 21.816C33.6344 20.6986 32.7496 19.8137 31.6322 19.8137C30.5148 19.8137 29.63 20.6986 29.63 21.816C29.63 22.5016 29.9809 23.1256 30.5313 23.4917V26.2024V26.7024H31.0313H35.5788V28.2612C35.5329 28.2792 35.489 28.2956 35.44 28.3119L35.0007 28.4583L35.113 28.9075C35.5946 30.8339 34.6331 32.6386 33.0432 33.3806L32.7627 33.5115L32.7548 33.8209C32.7016 35.8963 30.9976 37.6 28.8681 37.6C27.4252 37.6 26.2315 36.8557 25.5225 35.6814V33.9131H28.5076H29.0076V33.4131V31.0889H29.7762C30.1423 31.6394 30.7663 31.9902 31.452 31.9902C32.5693 31.9902 33.4542 31.1054 33.4542 29.988C33.4542 28.8706 32.5693 27.9858 31.452 27.9858C30.7663 27.9858 30.1423 28.3367 29.7762 28.8871H27.3058H26.8058V29.3871V31.7113H25.5225V18.29H27.7332C28.0993 18.8405 28.7233 19.1914 29.4089 19.1914C30.5263 19.1914 31.4112 18.3065 31.4112 17.1891C31.4112 16.0718 30.5263 15.1869 29.4089 15.1869C28.7233 15.1869 28.0993 15.5378 27.7332 16.0882H25.5225V13.4189C26.233 12.2476 27.4798 11.5 28.8681 11.5C30.9466 11.5 32.7016 13.1527 32.7548 15.2788L32.7623 15.5791L33.031 15.7135C34.6393 16.5177 35.59 18.3903 35.1147 20.1858Z"
		stroke="#3F71F1" />
	<defs>
		<linearGradient id="paint0_linear_125_447" x1="48" y1="3.552" x2="1.44285e-08" y2="3.312"
			gradientUnits="userSpaceOnUse">
			<stop stop-color="#3F71F1" />
			<stop offset="1" stop-color="#3F71F1" stop-opacity="0" />
		</linearGradient>
	</defs>
</svg>