<svg height="70" viewBox="0 0 70.001 70" width="70.001" xmlns="http://www.w3.org/2000/svg"><g transform="translate(-138.971)"><g fill="#198cca"><path d="m184.772 35.262a6.768 6.768 0 0 0 4.485-.437 5.468 5.468 0 0 0 5.409.05 6.392 6.392 0 0 0 4.392.511v-2.63a3.4 3.4 0 0 1 -3.03.154 8.564 8.564 0 0 1 -.845-.44 1 1 0 0 0 -1.208.072 2.967 2.967 0 0 1 -3.147.4 6.486 6.486 0 0 1 -.866-.462 1.222 1.222 0 0 0 -1.34.045 4.019 4.019 0 0 1 -3.853.351" transform="translate(0 -.009)"/><path d="m184.772 40.294a6.768 6.768 0 0 0 4.485-.437 5.468 5.468 0 0 0 5.409.05 6.392 6.392 0 0 0 4.392.511v-2.63a3.4 3.4 0 0 1 -3.03.154 8.157 8.157 0 0 1 -.845-.44 1 1 0 0 0 -1.208.072 2.967 2.967 0 0 1 -3.147.4 6.493 6.493 0 0 1 -.866-.463 1.222 1.222 0 0 0 -1.34.045 4.019 4.019 0 0 1 -3.853.351" transform="translate(0 -.011)"/><path d="m184.772 45.326a6.768 6.768 0 0 0 4.485-.437 5.468 5.468 0 0 0 5.409.05 6.392 6.392 0 0 0 4.392.511v-2.63a3.4 3.4 0 0 1 -3.03.154 8.157 8.157 0 0 1 -.845-.44 1 1 0 0 0 -1.208.072 2.967 2.967 0 0 1 -3.147.4 6.493 6.493 0 0 1 -.866-.463 1.224 1.224 0 0 0 -1.34.045 4.019 4.019 0 0 1 -3.853.351" transform="translate(0 -.012)"/><path d="m184.772 50.358a6.762 6.762 0 0 0 4.485-.437 5.463 5.463 0 0 0 5.409.05 6.392 6.392 0 0 0 4.392.512v-2.633a3.4 3.4 0 0 1 -3.03.153 8.157 8.157 0 0 1 -.845-.44 1 1 0 0 0 -1.208.072 2.967 2.967 0 0 1 -3.147.4 6.6 6.6 0 0 1 -.866-.462 1.22 1.22 0 0 0 -1.34.045 4.019 4.019 0 0 1 -3.853.35" transform="translate(0 -.014)"/><path d="m184.772 55.39a6.768 6.768 0 0 0 4.485-.437 5.466 5.466 0 0 0 5.409.049 6.386 6.386 0 0 0 4.392.512v-2.63a3.4 3.4 0 0 1 -3.03.154 8.565 8.565 0 0 1 -.845-.44 1 1 0 0 0 -1.208.071 2.967 2.967 0 0 1 -3.147.4 6.6 6.6 0 0 1 -.866-.462 1.22 1.22 0 0 0 -1.34.045 4.017 4.017 0 0 1 -3.853.35" transform="translate(0 -.015)"/><path d="m184.772 60.423a6.768 6.768 0 0 0 4.485-.437 5.468 5.468 0 0 0 5.409.05 6.392 6.392 0 0 0 4.392.511v-2.63a3.4 3.4 0 0 1 -3.03.154 8.564 8.564 0 0 1 -.845-.44 1 1 0 0 0 -1.208.072 2.967 2.967 0 0 1 -3.147.4 6.486 6.486 0 0 1 -.866-.462 1.222 1.222 0 0 0 -1.34.045 4.019 4.019 0 0 1 -3.853.351" transform="translate(0 -.016)"/><path d="m184.772 65.455a6.768 6.768 0 0 0 4.485-.437 5.468 5.468 0 0 0 5.409.05 6.392 6.392 0 0 0 4.392.511v-2.63a3.4 3.4 0 0 1 -3.03.154 8.155 8.155 0 0 1 -.845-.44 1 1 0 0 0 -1.208.072 2.967 2.967 0 0 1 -3.147.4 6.609 6.609 0 0 1 -.866-.463 1.222 1.222 0 0 0 -1.34.045 4.019 4.019 0 0 1 -3.853.351" transform="translate(0 -.018)"/><path d="m158.48 31.878v.987l-.014.014a.933.933 0 0 1 -1.318.041c-.059-.04-.106-.086-.159-.129-.989-.807-1.183-.8-2.125.075a.845.845 0 0 1 -.081.088.8.8 0 0 1 -1.13-.035c-1.175-.84-1.172-.835-2.366-.073a1.09 1.09 0 0 1 -1.4-.053l.005 2.364a3.682 3.682 0 0 0 2.517-.457 2.967 2.967 0 0 0 3.512.114 3.862 3.862 0 0 0 2.558.485v.108h.008z" transform="translate(0 -.009)"/><path d="m158.48 36.936v.987l-.014.014a.932.932 0 0 1 -1.318.041c-.059-.04-.106-.086-.159-.129-.989-.806-1.183-.8-2.125.075a.755.755 0 0 1 -.081.088.8.8 0 0 1 -1.13-.034c-1.175-.841-1.172-.836-2.366-.074a1.09 1.09 0 0 1 -1.4-.053l.005 2.365a3.688 3.688 0 0 0 2.517-.458 2.967 2.967 0 0 0 3.512.114 3.856 3.856 0 0 0 2.558.485v.108h.008z" transform="translate(0 -.011)"/><path d="m158.48 41.994v.987l-.014.014a.932.932 0 0 1 -1.318.041c-.059-.04-.106-.086-.159-.129-.989-.806-1.183-.8-2.125.076a.835.835 0 0 1 -.081.087.8.8 0 0 1 -1.13-.034c-1.175-.84-1.172-.836-2.366-.073a1.092 1.092 0 0 1 -1.4-.054l.005 2.365a3.682 3.682 0 0 0 2.517-.457 2.968 2.968 0 0 0 3.512.113 3.85 3.85 0 0 0 2.558.485v.108h.008z" transform="translate(0 -.012)"/><path d="m158.48 47.052v.987l-.014.015a.933.933 0 0 1 -1.318.041c-.059-.04-.106-.086-.159-.129-.989-.807-1.183-.8-2.125.075a.834.834 0 0 1 -.081.087.8.8 0 0 1 -1.13-.034c-1.175-.84-1.172-.835-2.366-.073a1.092 1.092 0 0 1 -1.4-.054l.005 2.365a3.682 3.682 0 0 0 2.517-.457 2.967 2.967 0 0 0 3.512.114 3.856 3.856 0 0 0 2.558.484v.109h.008z" transform="translate(0 -.013)"/><path d="m158.48 52.111v.989l-.014.014a.933.933 0 0 1 -1.318.041c-.059-.04-.106-.086-.159-.129-.989-.807-1.183-.8-2.125.075a.845.845 0 0 1 -.081.088.8.8 0 0 1 -1.13-.035c-1.175-.84-1.172-.835-2.366-.073a1.09 1.09 0 0 1 -1.4-.053l.005 2.364a3.682 3.682 0 0 0 2.517-.457 2.967 2.967 0 0 0 3.512.114 3.862 3.862 0 0 0 2.558.485v.108h.008z" transform="translate(0 -.015)"/><path d="m158.48 57.169v.987l-.014.014a.932.932 0 0 1 -1.318.041c-.059-.04-.106-.086-.159-.129-.989-.806-1.183-.8-2.125.075a.755.755 0 0 1 -.081.088.8.8 0 0 1 -1.13-.034c-1.175-.841-1.172-.836-2.366-.074a1.09 1.09 0 0 1 -1.4-.053l.005 2.365a3.688 3.688 0 0 0 2.517-.458 2.967 2.967 0 0 0 3.512.114 3.856 3.856 0 0 0 2.558.485v.11h.008z" transform="translate(0 -.016)"/><path d="m158.48 62.227v.987l-.014.014a.932.932 0 0 1 -1.318.041c-.059-.04-.106-.086-.159-.129-.989-.806-1.183-.8-2.125.076a.834.834 0 0 1 -.081.087.8.8 0 0 1 -1.13-.034c-1.175-.841-1.172-.836-2.366-.073a1.092 1.092 0 0 1 -1.4-.054l.005 2.365a3.693 3.693 0 0 0 2.517-.457 2.968 2.968 0 0 0 3.512.113 3.856 3.856 0 0 0 2.558.485v.108h.008z" transform="translate(0 -.018)"/></g><path d="m207.682 45.687c-.043-.351-1.2-11.093-1.715-15.9-.1-.963-.627-1.306-1.557-1.035-.83.241-1.657.5-2.486.741-.17.049-.346.079-.558.126a2.375 2.375 0 0 0 -2.7-1.578c-.022-.225-.055-.4-.055-.571q-.013-8.185.006-16.37a9.166 9.166 0 0 1 .182-1.352 5.013 5.013 0 0 0 -.188-2.433 3.448 3.448 0 0 0 -3.3-2.4c-.3 0-.588-.016-.888 0a1.388 1.388 0 0 1 -1.4-.889 11.135 11.135 0 0 0 -1.044-1.675 3.834 3.834 0 0 0 -1.055-.96 8.747 8.747 0 0 0 -6.042-1.1 2.958 2.958 0 0 0 -2.063 1.61c-1.014-.215-1.96-.408-2.9-.628a4.859 4.859 0 0 1 -.619-.291 13.015 13.015 0 0 0 -2.031-.748 2.846 2.846 0 0 0 -2.869 1.191c-.244.3-.437.638-.623.914l-2.808.542.011.11a.577.577 0 0 1 -.169-.1 8.706 8.706 0 0 0 -4.211-2.891h-2.05a9.351 9.351 0 0 0 -4.436 2.784c-.912 0-1.711-.067-2.495.012a6.7 6.7 0 0 0 -5.019 3.178 1.859 1.859 0 0 1 -.471.565c-1.69 1.042-2.025 2.642-1.874 4.456.073.9.2 1.809.2 2.714.015 4.431 0 8.858 0 13.288v.695a2.451 2.451 0 0 0 -2.4.977c-.508-.067-1.008-.1-1.493-.2a1.239 1.239 0 0 0 -.973.158c-.582.357-1.172.707-1.772 1.029a1.614 1.614 0 0 0 -.855 1.17q-.887 4.359-1.754 8.721a3.839 3.839 0 0 0 -.041.75c0 2.374-.012 4.749.007 7.123a1.932 1.932 0 0 1 -.371 1.275 3.916 3.916 0 0 0 -.793 2.332c-.159 3.4-.393 6.786-.6 10.185-.136 2.234-.223 4.471-.423 6.7-.135 1.532.747 2.03 1.937 1.468a9.186 9.186 0 0 1 1.157-.38c.511 1.067 1.461.978 2.411.978q31.356-.014 62.713 0a1.991 1.991 0 0 0 1.767-.646v-22.606zm-60 22.09h-3.628c-.435-.378-.789-.878-1.258-1.04a4.226 4.226 0 0 0 -1.571.116c.026-.364.837-14.271.954-15.818a1.755 1.755 0 0 1 .321-.876 4.948 4.948 0 0 0 .916-3.336c-.075-1.55.014-3.105-.033-4.656a18.213 18.213 0 0 1 .451-4.477c.418-1.914.787-3.843 1.18-5.762.045-.221.1-.44.133-.568a1.988 1.988 0 0 1 2.535-.152zm5.518-59.145a1.4 1.4 0 0 0 .83-.759 6.029 6.029 0 0 1 .49-.821 4.215 4.215 0 0 1 4.9-1.76 1.558 1.558 0 0 0 1.9-.588 6.759 6.759 0 0 1 2.686-2.058 3.147 3.147 0 0 1 3.3.335 22.238 22.238 0 0 1 1.969 1.877c.145.143.244.331.382.482a1.079 1.079 0 0 0 .115.138 1.2 1.2 0 0 0 1.7.027 2.873 2.873 0 0 1 2.368-.593c1.144.172 1.289.078 1.689-1.043.54-1.5 1.3-1.757 2.556-.8a2.177 2.177 0 0 0 1.721.578 2.835 2.835 0 0 1 2.172.836c.172.15.326.323.508.457a1.111 1.111 0 0 0 1.776-.726c.061-.331.161-.654.25-.981 0-.017.007-.034.011-.051a1.112 1.112 0 0 1 1.344-.815 19.954 19.954 0 0 1 3.171.735 3.114 3.114 0 0 1 1.736 1.926 3.225 3.225 0 0 0 2.458 2.058 6.622 6.622 0 0 0 1.428.053c1.318-.037 1.918.706 1.618 2.113-.955-.179-1.927-.3-2.865-.554a7.5 7.5 0 0 0 -3.573-.018c-.934.195-1.878.359-2.825.48a4.929 4.929 0 0 1 -1.475-.028c-2.26-.413-4.513-.863-6.767-1.306a1.646 1.646 0 0 0 -1.253.149 3.318 3.318 0 0 1 -3.231.188 5.364 5.364 0 0 1 -1.735-.9 1.458 1.458 0 0 0 -1.7-.25c-1.277.543-2.57 1.044-3.87 1.535a2.791 2.791 0 0 1 -.99.173c-1.32-.016-2.646 0-3.958-.122a16.049 16.049 0 0 1 -3.073-.592 3.462 3.462 0 0 0 -2.977.349c-.987.6-2.061 1.059-3.1 1.576-.176.087-.359.158-.611.267.032-.756.217-1.328.925-1.567zm43.006 2.789v16.471h-8.5v-16.57c.913-.168 1.833-.3 2.733-.515a5.672 5.672 0 0 1 2.755.014c.988.241 1.996.4 3.013.6zm-30.624-.589v17.475l-2.76-.464v-17.011zm-7.1 56.95h-8.591v-37.441h8.591zm1.979-39.1-.128.124c-.612-1.07-1.6-1.013-2.584-1-1.5.013-4.943-.022-5.209-.036v-15.139c.186-.1.395-.234.612-.345 1.335-.686 2.676-1.358 4.006-2.058a1.167 1.167 0 0 1 .9-.121c.786.207 1.586.364 2.406.547zm.293 39.1v-36.722c.775-.272 1.586-.559 2.4-.833a.671.671 0 0 1 .333 0c1.336.263 2.672.532 4.08.815l.005 36.734zm14.11 0h-4.853v-37.441h4.853zm2.193-38.784c-.676-1.082-1.716-1.09-2.784-1.074q-2.118.03-4.234 0a2.9 2.9 0 0 0 -2.2.755v-18.154l3.6-1.491c1.263 1.135 2.911 1.155 4.388 1.627.341.109.785-.1 1.234-.177zm5.365 38.785h-5.293v-36.475h5.293zm.193-38.685h-3.406v-18.959l6.051 1.165v16.696c-1.002.065-2.139-.083-2.647 1.092zm16.445 38.678h-14.29v-37.435h14.29zm7.765 0h-5.444v-35.857l2.5-.732c.1.823 1.2 11.143 1.653 15.546a1.081 1.081 0 0 0 .781 1.009c.169.058.331.136.513.212z" fill="#546285"/><path d="m174.862 32.955a.922.922 0 0 1 -1.211-.035 1.9 1.9 0 0 1 -.159-.129c-.989-.807-1.183-.8-2.125.075a.845.845 0 0 1 -.081.088.8.8 0 0 1 -1.13-.035l-.147-.1v2.416a2.957 2.957 0 0 0 2.416-.418 3.846 3.846 0 0 0 2.437.493z" fill="#198cca" transform="translate(0 -.009)"/><path d="m174.862 38.025a.922.922 0 0 1 -1.211-.035 1.9 1.9 0 0 1 -.159-.129c-.989-.807-1.183-.8-2.125.075a.835.835 0 0 1 -.081.087.8.8 0 0 1 -1.13-.034l-.147-.1v2.411a2.961 2.961 0 0 0 2.416-.418 3.846 3.846 0 0 0 2.437.493z" fill="#198cca" transform="translate(0 -.011)"/><path d="m174.862 43.095a.921.921 0 0 1 -1.211-.036 1.9 1.9 0 0 1 -.159-.129c-.989-.806-1.183-.8-2.125.076a.834.834 0 0 1 -.081.087.8.8 0 0 1 -1.13-.034l-.147-.1v2.417a2.961 2.961 0 0 0 2.416-.419 3.84 3.84 0 0 0 2.437.494z" fill="#198cca" transform="translate(0 -.012)"/><path d="m174.862 48.164a.922.922 0 0 1 -1.211-.035 1.9 1.9 0 0 1 -.159-.129c-.989-.807-1.183-.8-2.125.075a.845.845 0 0 1 -.081.088.8.8 0 0 1 -1.13-.035l-.147-.1v2.416a2.957 2.957 0 0 0 2.416-.418 3.846 3.846 0 0 0 2.437.493z" fill="#198cca" transform="translate(0 -.014)"/><path d="m174.862 53.234a.922.922 0 0 1 -1.211-.035 1.9 1.9 0 0 1 -.159-.129c-.989-.807-1.183-.8-2.125.075a.834.834 0 0 1 -.081.087.8.8 0 0 1 -1.13-.034l-.147-.1v2.417a2.961 2.961 0 0 0 2.416-.418 3.846 3.846 0 0 0 2.437.493z" fill="#198cca" transform="translate(0 -.015)"/><path d="m174.862 58.3a.921.921 0 0 1 -1.211-.036 1.9 1.9 0 0 1 -.159-.129c-.989-.806-1.183-.8-2.125.076a.834.834 0 0 1 -.081.087.8.8 0 0 1 -1.13-.034l-.147-.1v2.417a2.961 2.961 0 0 0 2.416-.419 3.84 3.84 0 0 0 2.437.494z" fill="#198cca" transform="translate(0 -.016)"/><path d="m174.862 63.373a.922.922 0 0 1 -1.211-.035 1.9 1.9 0 0 1 -.159-.129c-.989-.807-1.183-.8-2.125.075a.845.845 0 0 1 -.081.088.8.8 0 0 1 -1.13-.035l-.147-.1v2.413a2.957 2.957 0 0 0 2.416-.418 3.846 3.846 0 0 0 2.437.493z" fill="#198cca" transform="translate(0 -.018)"/></g></svg>