<svg height="70" viewBox="0 0 70 70" width="70" xmlns="http://www.w3.org/2000/svg"><path d="m59 24h8v7h-8z" fill="#f1553f"/><path d="m3 24h8v7h-8z" fill="#f1553f"/><path d="m9.029.088s11.4 4.891 8.648 8.936c-5.579.744-13.922.1-17.486 0 .609-2.784 8.838-8.936 8.838-8.936z" fill="#f1553f" transform="translate(26 4)"/><g fill="#546285"><path d="m70 32.667v-2.334h-1.167v-6.766l-4.666-1.167v-2.567h-2.334v2.567l-4.667 1.167v2.1h-9.333v-2.334h-2.333v2.333h-2.333v-7.466l2.333-1.167v-.7a12.709 12.709 0 0 0 -5.133-10.266l-4.2-3.15v-2.917h-2.334v2.917l-4.2 3.15a12.709 12.709 0 0 0 -5.133 10.266v.7l2.333 1.167v7.467h-2.333v-2.334h-2.333v2.333h-9.334v-2.1l-4.666-1.166v-2.567h-2.334v2.567l-4.666 1.167v6.766h-1.167v2.333h1.167v35h-1.167v2.334h70v-2.333h-1.167v-35zm-7-8.167 3.5.933v4.9h-7v-4.9zm-5.833 5.833h-3.5v-2.333h3.5zm-5.834-2.333v2.333h-3.5v-2.333zm-23.1-11.667-1.4-.7a7.87 7.87 0 0 1 .234-1.633h15.75a7.907 7.907 0 0 1 .233 1.633l-1.283.7zm2.8-8.4 3.967-3.033 3.967 2.917a9.551 9.551 0 0 1 3.033 3.733h-14a10.091 10.091 0 0 1 3.033-3.617zm-1.866 10.734h11.666v7h-2.333v-2.334h-7v2.333h-2.333zm4.666 9.333v-2.333h2.333v2.333h9.334v2.333h-21v-2.333zm-11.666 2.333h-3.5v-2.333h3.5zm-5.834-2.333v2.333h-3.5v-2.333zm-12.833-2.567 3.5-.933 3.5.933v4.9h-7zm0 42.234v-15.167h63v15.167zm63-17.5h-63v-17.5h63zm0 0"/><path d="m211.667 245.833a5.833 5.833 0 1 0 -11.667 0v7h11.667zm-5.833-3.5a3.437 3.437 0 0 1 3.5 3.5h-7a3.437 3.437 0 0 1 3.499-3.5zm-3.5 8.167v-2.333h7v2.333zm0 0" transform="translate(-170.833 -205)"/><path d="m208 400h9.333v2.333h-9.333zm0 0" transform="translate(-177.667 -341.667)"/><path d="m200 432h11.667v2.333h-11.667zm0 0" transform="translate(-170.833 -369)"/><path d="m143 243.5a3.5 3.5 0 0 0 -7 0v9.333h7zm-2.333 7h-2.333v-7a1.167 1.167 0 1 1 2.333 0zm0 0" transform="translate(-116.167 -205)"/><path d="m40 240h2.333v12.833h-2.333zm0 0" transform="translate(-34.167 -205)"/><path d="m79 243.5a3.5 3.5 0 0 0 -7 0v9.333h7zm-2.333 7h-2.334v-7a1.167 1.167 0 1 1 2.333 0zm0 0" transform="translate(-61.5 -205)"/><path d="m303 243.5a3.5 3.5 0 0 0 -7 0v9.333h7zm-2.333 7h-2.333v-7a1.167 1.167 0 1 1 2.333 0zm0 0" transform="translate(-252.833 -205)"/><path d="m424 240h2.333v12.833h-2.333zm0 0" transform="translate(-362.167 -205)"/><path d="m367 243.5a3.5 3.5 0 0 0 -7 0v9.333h7zm-2.333 7h-2.333v-7a1.167 1.167 0 1 1 2.333 0zm0 0" transform="translate(-307.5 -205)"/><path d="m424 376h2.333v10.5h-2.333zm0 0" transform="translate(-362.167 -321.167)"/><path d="m363.5 376a3.437 3.437 0 0 0 -3.5 3.5v7h7v-7a3.437 3.437 0 0 0 -3.5-3.5zm1.167 8.167h-2.333v-4.667a1.167 1.167 0 1 1 2.333 0zm0 0" transform="translate(-307.5 -321.167)"/><path d="m299.5 376a3.437 3.437 0 0 0 -3.5 3.5v7h7v-7a3.437 3.437 0 0 0 -3.5-3.5zm1.167 8.167h-2.333v-4.667a1.167 1.167 0 1 1 2.333 0zm0 0" transform="translate(-252.833 -321.167)"/><path d="m40 376h2.333v10.5h-2.333zm0 0" transform="translate(-34.167 -321.167)"/><path d="m75.5 376a3.437 3.437 0 0 0 -3.5 3.5v7h7v-7a3.437 3.437 0 0 0 -3.5-3.5zm1.167 8.167h-2.334v-4.667a1.167 1.167 0 1 1 2.333 0zm0 0" transform="translate(-61.5 -321.167)"/><path d="m139.5 376a3.437 3.437 0 0 0 -3.5 3.5v7h7v-7a3.437 3.437 0 0 0 -3.5-3.5zm1.167 8.167h-2.333v-4.667a1.167 1.167 0 1 1 2.333 0zm0 0" transform="translate(-116.167 -321.167)"/></g></svg>