<svg height="70" viewBox="0 0 70 70" width="70" xmlns="http://www.w3.org/2000/svg"><g transform="translate(-16 -16)"><path d="m9 0 9 18h-18z" fill="#f1553f" transform="translate(42 24)"/><g fill="#546285"><path d="m84.775 83.667-1.108-19.867v-20.485l1.5-1.5-2.813-4.215-5.687-12.515v-4.418h-2.334v4.419l-5.687 12.514-2.815 4.215 1.5 1.5v7.2l-1.852-1.852h-1.646v-2.33h-2.333v2.333h-2.333v-5.351l2.669-2.669-2.815-4.215-6.854-14.86v-5.571h-2.334v5.571l-6.854 14.846-2.815 4.229 2.669 2.669v5.352l-2.333-1.75v-1.75h-2.333v1.779l-3.5 2.8v-6.417l1.5-1.5-2.813-4.229-5.687-12.515v-4.418h-2.334v4.419l-5.687 12.514-2.815 4.215 1.5 1.5v20.485l-1.106 19.867h-1.225v2.333h70v-2.333zm-63.087-44.932 4.812-10.587 4.813 10.588 1.852 2.785-.146.146h-13.038l-.146-.146zm-1.021 23.932v-18.667h11.666v18.667h-4.666v10.5h-2.334v-10.5zm-1.094 21 1.035-18.667h2.392v10.5h7v-10.5h2.392l1.035 18.667zm22.152 0h-5.965l-.583-10.5h7.131zm1.108-19.867-.394 7.029h-7.379l-.393-7.029v-1.133h8.167v1.133zm0-3.471h-8.166v-4.662h8.167zm0-7h-8.166v-.612l4.7-3.748 3.471 2.61zm9.333 30.333h-2.333v-10.5a1.167 1.167 0 0 1 2.333 0zm2.333 0v-10.5a3.5 3.5 0 0 0 -7 0v10.5h-3.426l1.035-18.662h11.8l1.035 18.667zm-9.333-21v-18.662h11.667v18.667zm12.352-21h-13.037l-1.312-1.312 1.852-2.785 5.979-12.946 5.935 12.881.044.088 1.852 2.785zm8.706 42h-5.964l-.583-10.5h7.131zm1.109-19.862-.394 7.029h-7.379l-.393-7.029v-3.467h8.167zm0-5.8h-8.166v-7h5.352l2.815 2.815zm3.354-19.265 4.813-10.587 4.812 10.588 1.852 2.785-.146.146h-13.037l-.146-.146zm10.646 5.265v18.667h-11.666v-18.667zm-12.76 39.667 1.035-18.667h11.8l1.035 18.667z"/><path d="m47.5 54.5h2.333v5.833h-2.333z"/><path d="m52.167 54.5h2.333v5.833h-2.333z"/><path d="m49.833 46.333h2.333v5.833h-2.333z"/><path d="m23 46.333h2.333v5.833h-2.333z"/><path d="m27.667 46.333h2.333v5.833h-2.333z"/><path d="m25.333 77.833h2.333v3.5h-2.333z"/><path d="m25.333 54.5h2.333v5.833h-2.333z"/><path d="m74.333 46.333h2.333v5.833h-2.333z"/><path d="m74.333 54.5h2.333v5.833h-2.333z"/><path d="m72 68.5h2.333v9.333h-2.333z"/><path d="m76.667 68.5h2.333v9.333h-2.333z"/><path d="m61.5 62.667h2.333v3.5h-2.333z"/><path d="m37 65h3.5v2.333h-3.5z"/></g></g></svg>