<svg height="70" viewBox="0 0 57.72 70" width="57.72" xmlns="http://www.w3.org/2000/svg"><path d="m9.5 0a9.5 9.5 0 1 1 -9.5 9.5 9.5 9.5 0 0 1 9.5-9.5z" fill="#fdb436" transform="translate(20)"/><path d="m20 17h13v5h-13z" fill="#fff"/><g transform="translate(0 7)"><path d="m55.26 12.28v-1.23h-2.45v1.23h-1.57l.28-.84a1.224 1.224 0 0 0 -.78-1.55 1.28 1.28 0 0 0 -.39-.07h-8.31l-2.2-1.1a1.3 1.3 0 0 0 -.55-.12h-6.86l.36-.36a1.225 1.225 0 0 0 .36-.87v-6.14a1.221 1.221 0 0 0 -1.22-1.23h-4.91a1.229 1.229 0 0 0 -1.23 1.23v6.14a1.243 1.243 0 0 0 .36.87l.36.36h-6.86a1.331 1.331 0 0 0 -.55.12l-2.2 1.1h-9.53a1.242 1.242 0 0 0 -1.23 1.23 1.172 1.172 0 0 0 .13.55l.34.68h-1.7v-1.23h-2.45v1.23h-2.46v2.46h7.84l2.11 4.23a1.232 1.232 0 0 0 1.1.68h9.83v11.05a1.225 1.225 0 0 0 .36.87l.87.87v18.82h-2.46a1.229 1.229 0 0 0 -1.23 1.23v10.51h22.11v-10.51a1.229 1.229 0 0 0 -1.23-1.23h-2.46v-4.09l.36.36a1.235 1.235 0 0 0 .87.37 1.278 1.278 0 0 0 .47-.1 1.229 1.229 0 0 0 .76-1.13v-27.02h8.6a1.216 1.216 0 0 0 1.16-.84l1.36-4.07h7.3v-2.46zm-27.01-9.82h2.45v4.4l-1.23 1.23-1.22-1.23zm-7.37 14.73h-9.06l-1.99-3.97v-.94h7.36a1.172 1.172 0 0 0 .55-.13l.49-.24 2.65 4.4zm-.29-6.14h11.34v3.69h-9.13zm17.48 42.67.01 6.82h-17.2v-6.82zm-13.5-2.46v-16.37l9.82 9.83v6.54zm12.28-7.56-13.52-13.51v-13h2.46v12.28h2.46v-12.28h3.68v19.65a1.229 1.229 0 0 0 1.23 1.23h3.69zm0-8.09h-2.46v-24.56h2.46zm10.16-18.42h-7.72v-6l1.92.96a1.172 1.172 0 0 0 .55.13h6.89z" fill="#546285"/><path d="m34.39 11.05h2.46v24.56h-2.46z" fill="#fdb436"/><path d="m30.7 2.46v4.4l-1.23 1.23-1.22-1.23v-4.4z" fill="#fff"/><path d="m23.334 56h12.281v2.456h-12.281z" fill="#546285"/></g></svg>