<svg height="70.01" viewBox="0 0 70 70.01" width="70" xmlns="http://www.w3.org/2000/svg"><path d="m68.89 67.66v-.76c0-3.65.02-7.3-.01-10.95a5.818 5.818 0 0 0 -4.7-5.65c-.36-.07-.71-.11-1.14-.18v-.8c0-4.28-.06-8.57.02-12.85a7.147 7.147 0 0 0 -5.78-7.21c-1.57-.3-3.12-.69-4.75-1.06v-2.11l-5.84-2.91c0-1.12.01-2.26 0-3.4a11.689 11.689 0 0 0 -9.14-11.37c-.45-.1-.89-.18-1.32-.27v-3.51h2.24v-2.37h-2.32v-2.26h-2.34v2.3h-2.27v2.38h2.23v3.47c-.2.04-.37.07-.53.1a11.58 11.58 0 0 0 -9.37 8.01 13.7 13.7 0 0 0 -.56 4.97v1.94l-5.87 2.93v2.08c-.33.09-.6.17-.89.23-1.35.3-2.7.59-4.05.9a6.968 6.968 0 0 0 -5.55 6.95v13.83a1.2 1.2 0 0 1 -.27.08 5.954 5.954 0 0 0 -5.58 6.14c.08 3.3.01 6.62.01 9.92v1.42l-1.11.09v2.27h70v-2.27zm-11.26-35.84a4.192 4.192 0 0 1 2.82 3.12h-7.88l-.01-4.32c1.72.4 3.42.73 5.07 1.2zm3.02 5.57v12.74h-11.59v-7.46l-2.37-2.23v-3.05zm-22.12-2.04a4.794 4.794 0 0 0 -7.05.01v.01a4.965 4.965 0 0 0 -4.29-1.54c.39-.45.65-.79.96-1.09a8.2 8.2 0 0 1 5.85-2.4 15.078 15.078 0 0 1 4.13.27 8.4 8.4 0 0 1 4.64 3.21 4.956 4.956 0 0 0 -4.24 1.53zm4.54 1.09c1.27.68 1.34 1.86 1.23 3.18h-4.55a2.909 2.909 0 0 1 .74-2.86 2.258 2.258 0 0 1 2.58-.32zm-5.78 3.18h-4.58a10.174 10.174 0 0 1 .01-1.46 2.3 2.3 0 0 1 4.56-.02 10.444 10.444 0 0 1 .01 1.48zm-9.14-3.43a2.289 2.289 0 0 1 2.14 2.11c.04.41.01.82.01 1.31h-4.64a10.794 10.794 0 0 1 .1-1.61 2.239 2.239 0 0 1 2.39-1.81zm16.85 5.85 1.64 1.76v9.83h-3.45v-1.06a8.187 8.187 0 0 0 -16.22-1.63c-.15.86-.15 1.74-.24 2.7h-3.36v-9.98l1.67-1.62zm-13.32 5.77a.01.01 0 0 1 -.01.01v-.01h.01a5.626 5.626 0 0 1 6.66-.02 5.053 5.053 0 0 0 -3.33 1.59 5.009 5.009 0 0 0 -3.33-1.57zm2.12 5.83h-4.61a12.891 12.891 0 0 1 .01-1.39 2.312 2.312 0 0 1 4.59-.03 13.453 13.453 0 0 1 .01 1.42zm2.47-1.65a2.259 2.259 0 0 1 2.41-1.79 2.315 2.315 0 0 1 2.13 2.13c.04.41.01.82.01 1.31h-4.64a11.409 11.409 0 0 1 .09-1.65zm-12.62 4.06q9.42-.03 18.83-.02c1.46 0 2.92-.02 4.38.02a5.625 5.625 0 0 1 4.02 1.79c.12.12.2.26.36.46h-32.5a5.3 5.3 0 0 1 2.83-1.97 7.724 7.724 0 0 1 2.08-.28zm20.64-36.53c.08 1.23.01 2.46.01 3.75h-4.55c0-1.34-.1-2.65.03-3.94a2.16 2.16 0 0 1 2.29-1.83 2.227 2.227 0 0 1 2.22 2.02zm-9.67-9a9.135 9.135 0 0 1 8.42 4.54 13.255 13.255 0 0 0 -2.44.32 13.468 13.468 0 0 0 -2.19 1.16c-2.51-1.94-4.5-1.94-6.82.02a12.508 12.508 0 0 0 -2.16-1.17 13.505 13.505 0 0 0 -2.45-.34 9.045 9.045 0 0 1 7.64-4.53zm2.71 9.5v3.25h-4.61c-.01-.26-.04-.49-.04-.73 0-.94-.03-1.9.02-2.84a2.291 2.291 0 0 1 2.21-2.2 2.319 2.319 0 0 1 2.39 2.01 4.361 4.361 0 0 1 .03.51zm-11.62-.45a2.3 2.3 0 0 1 4.57 0c.08 1.21.02 2.42.02 3.68h-4.61c0-1.27-.06-2.47.02-3.68zm-5.83 7.97c1.17-.58 2.36-1.19 3.56-1.77a1.91 1.91 0 0 1 .71-.1h21.75a1.668 1.668 0 0 1 .7.12c1.18.57 2.35 1.16 3.54 1.75v7.43h-4.06c-.09-.2-.18-.39-.27-.58a10.521 10.521 0 0 0 -9.88-6.4 19.112 19.112 0 0 0 -4.07.23 10.345 10.345 0 0 0 -7.71 6.27c-.07.16-.14.31-.21.47h-4.06zm-7.25 4.2c1.56-.43 3.17-.73 4.8-1.1v4.32l-7.94-.01a4.421 4.421 0 0 1 3.14-3.21zm-3.27 5.66h13.94v3.03l-2.35 2.23v7.47h-11.59zm5.77 27.71v2.53h-11.6v-9.2h12.26c-.85 2.15-.66 4.41-.66 6.67zm-11.62-9.14v-.05a3.442 3.442 0 0 1 3.51-3.38c2.75-.02 5.5-.01 8.24-.01h5.66v1.32l-3.57 2.12zm23.27 11.65h-9.29c.05-2.28-.09-4.57.1-6.88h9.19zm13.99.01h-11.57v-6.88h11.57zm11.72-.01h-9.28v-6.86h9.16a4.812 4.812 0 0 1 .12.76zm13.97.01h-11.59l.01-.01c0-1.57-.03-3.07 0-4.58a10.023 10.023 0 0 0 -.77-4.62h12.35zm-13.81-11.66-3.58-2.14v-1.25a2.5 2.5 0 0 1 .29-.05c4.57 0 9.14-.02 13.71.01h.03a3.4 3.4 0 0 1 3.38 3.43z" fill="#546285"/><path d="m43.04 15.06a13.255 13.255 0 0 0 -2.44.32 13.468 13.468 0 0 0 -2.19 1.16c-2.51-1.94-4.5-1.94-6.82.02a12.508 12.508 0 0 0 -2.16-1.17 13.505 13.505 0 0 0 -2.45-.34 9.368 9.368 0 0 1 16.06.01z" fill="#24b768"/><path d="m38.34 47.79a5.053 5.053 0 0 0 -3.33 1.59 5.009 5.009 0 0 0 -3.33-1.57 5.626 5.626 0 0 1 6.66-.02z" fill="#24b768"/><path d="m42.77 33.82a4.956 4.956 0 0 0 -4.24 1.53 4.794 4.794 0 0 0 -7.05.01v.01a4.965 4.965 0 0 0 -4.29-1.54c.39-.45.65-.79.96-1.09a8.2 8.2 0 0 1 5.85-2.4 15.078 15.078 0 0 1 4.13.27 8.4 8.4 0 0 1 4.64 3.21z" fill="#24b768"/><g fill="#546285"><path d="m11.676 39.685h2.267v8.122h-2.267z"/><path d="m18.613 47.835h-2.263v-8.123h2.263z"/><path d="m53.651 47.836h-2.261v-8.121h2.261z"/><path d="m56.055 39.69h2.274v8.123h-2.274z"/><path d="m8.091 65.345h-2.243v-4.627h2.243z"/><path d="m12.774 65.357h-2.265v-4.624h2.265z"/><path d="m59.494 65.357h-2.267v-4.624h2.267z"/><path d="m61.9 60.716h2.247v4.6h-2.247z"/><path d="m33.8 65.357h-2.267v-2.289h2.267z"/><path d="m36.208 63.044h2.26v2.285h-2.26z"/><path d="m49 63.068v2.262h-2.283v-2.262z"/><path d="m21 65.333v-2.268h2.287v2.268z"/></g></svg>