<svg width="68" height="18" viewBox="0 0 68 18" fill="none" xmlns="http://www.w3.org/2000/svg">
<path d="M28.194 11.0597V10.565C25.221 9.68346 22.7804 9.99243 22.7914 12.2848C22.8041 14.936 28.194 14.7257 28.194 11.0597ZM55.967 10.8405C56.2055 12.5973 58.1197 13.6611 59.5818 13.6611C60.9151 13.6611 61.7567 13.4046 62.6336 12.7616C63.3632 12.2267 64.3419 12.2063 65.0795 12.7298C66.2924 13.5908 66.2792 15.4285 65.0454 16.259C63.6945 17.1688 61.7312 18 59.0664 18C54.4707 18 50.7341 13.9621 50.7341 8.99802C50.7341 4.03596 54.4707 0 59.0664 0C63.1829 0 66.7292 3.31371 67.3133 7.70895C67.3186 7.75377 67.3239 7.81569 67.33 7.88769C67.38 8.66682 67.1133 9.41121 66.5801 9.97983C66.0459 10.5499 65.2839 10.8405 64.5093 10.8405H55.967ZM62.2097 7.4916C62.2097 6.79464 61.7174 4.21263 58.988 4.21263C57.3831 4.21263 55.9632 5.75793 55.9632 7.4916H62.2097ZM25.7635 0C27.8257 0 29.6223 0.55683 31.1036 1.65519C33.5879 3.49668 33.5508 6.37299 33.5369 7.45578C33.536 7.52292 33.5351 7.58304 33.5351 7.63479V15.1988C33.5351 16.664 32.3614 17.8561 30.9185 17.8561H30.8233C30.1248 17.8561 29.4679 17.5796 28.9734 17.0774C28.7079 16.808 28.5062 16.4884 28.3766 16.1395C27.6344 16.8608 26.1371 18 23.5257 18C19.8839 18 17.5306 15.7435 17.5306 12.2517C17.5306 9.33093 19.8694 7.22016 23.4889 6.87411C25.5581 6.67683 27.3502 7.0821 28.2069 7.33041L28.2067 7.1271C28.2067 4.03038 24.6071 4.38714 21.8951 5.02398C18.7414 5.76711 17.7954 1.65798 20.5014 0.8001C21.6762 0.42768 23.336 0 25.7635 0ZM3.03402 0H8.0547C12.8731 0 16.8575 3.83607 16.9364 8.55153C16.9759 10.9046 16.085 13.1237 14.4281 14.8C12.7705 16.4767 10.5558 17.4 8.19205 17.4H3.03402C1.54635 17.4 0.335938 16.1961 0.335938 14.7159V2.68407C0.335938 1.20393 1.54635 0 3.03402 0ZM5.59229 13.3391H7.02154C10.072 13.3391 11.6816 11.262 11.6816 8.70003C11.6816 6.13782 10.1018 4.06107 7.02154 4.06107H5.59229V13.3391ZM42.4333 10.843L45.6233 1.78263C46 0.71289 46.99 0 48.099 0C50.0193 0 51.2931 2.04111 50.4893 3.82986L44.8251 16.4297C44.3947 17.3868 43.4609 18 42.4333 18C41.4055 18 40.4715 17.3868 40.0412 16.4297L34.3773 3.82986C33.5732 2.04111 34.847 0 36.7675 0C37.8763 0 38.8662 0.71289 39.2429 1.78263L42.4333 10.843Z" fill="#546285"/>
</svg>
