<svg width="104" height="18" viewBox="0 0 104 18" fill="none" xmlns="http://www.w3.org/2000/svg">
<path d="M47.5684 0.000699997L43.6733 1.3342V4.1386H41.78V6.6434H43.6733V13.4244C43.6733 16.6298 44.7895 17.9993 47.4029 17.9993C48.5592 17.9993 49.3417 17.5982 49.5864 17.2202V14.305C49.2225 14.5123 48.8271 14.5454 48.4498 14.5454C47.7184 14.5454 47.5684 14.0486 47.5684 13.2998V6.6506H49.5851V4.1393H47.5684V0.000699997ZM73.9055 0.000699997L70.0111 1.3342V4.1386H68.1164V6.6434H70.0111V13.4244C70.0111 16.6298 71.126 17.9993 73.7393 17.9993C74.8963 17.9993 75.6781 17.5982 75.9229 17.2202V14.305C75.5604 14.5123 75.1642 14.5454 74.7869 14.5454C74.0548 14.5454 73.9055 14.0486 73.9055 13.2998V6.6506H75.9215V4.1393H73.9055V0.000699997ZM81.1819 5.7701V4.1393H77.1128V17.7271H80.907V10.8864V10.8569C80.907 8.6623 82.93 6.8839 85.4235 6.8839C85.8302 6.8839 86.2347 6.9343 86.6298 7.0322V3.8138C86.5222 3.8138 86.415 3.8066 86.3063 3.8066C84.4207 3.7948 82.5966 4.4946 81.1805 5.773L81.1819 5.7701ZM90.39 9.2585C90.9519 7.8775 92.2268 6.7025 94.7735 6.7025C97.3192 6.7025 99.0489 7.8926 99.2144 9.2585H90.39ZM103.331 10.9037C103.331 7.6298 101.14 3.8066 95.0102 3.8066C88.8805 3.8066 86.7233 7.6298 86.7233 10.9037C86.7233 14.1782 88.8941 18 95.0277 18C99.456 18 101.82 16.0049 102.791 13.6627H99.1463C98.2795 14.5051 97.1508 15.1049 95.0588 15.1049C91.8431 15.1049 90.7718 13.6937 90.2507 12.1464H103.231C103.301 11.736 103.336 11.3206 103.336 10.9037H103.331ZM64.1343 13.8154C63.4689 14.4922 61.2313 15.2482 59.3521 15.2482C55.7662 15.2482 55.1547 14.4202 55.1547 13.3999C55.1547 12.379 55.7662 11.5524 59.3493 11.5524C61.2285 11.5524 63.4653 12.3012 64.1308 12.978L64.1343 13.8154ZM67.594 13.4827V10.6164C67.594 8.0604 66.4019 6.107 64.149 4.9673C62.6274 4.1969 60.615 3.8066 58.1684 3.8066C54.5194 3.8066 52.3274 4.7088 51.0029 5.4648C50.9846 5.4763 52.596 8.298 52.596 8.298C52.596 8.298 54.4893 7.0164 58.1684 7.0164C60.1073 7.0164 61.7046 7.3037 62.7823 7.8494C63.8819 8.4053 64.4105 9.1836 64.4793 10.3543C63.0425 9.445 60.9213 8.8373 58.6628 8.8373C53.1107 8.8373 51.0421 11.2968 51.0421 13.4179C51.0421 15.5563 51.9607 17.9986 58.6628 17.9986C61.0778 17.9986 63.0523 17.2102 64.4828 16.1971C65.0262 17.2872 65.815 17.9971 67.0702 17.9971C67.7141 17.9954 68.344 17.8037 68.8849 17.4449V14.31C68.8849 14.31 67.5975 14.7485 67.5975 13.482L67.594 13.4827ZM36.7762 17.7293H40.8446V0L36.7713 1.404L36.7748 17.7293H36.7762ZM9.26803 14.9249C6.77458 14.9249 4.75229 13.1465 4.75229 10.9519C4.75229 8.7581 6.77175 6.9768 9.26452 6.9768C11.7581 6.9768 13.7817 8.7552 13.7817 10.9498C13.7817 13.1436 11.7594 14.922 9.26452 14.922L9.26803 14.9249ZM13.7859 6.0394C12.4333 4.6656 10.5134 3.8059 8.38383 3.8059C4.28395 3.8059 0.960938 6.984 0.960938 10.903C0.960938 14.8219 4.28395 18 8.38315 18C10.5709 18 12.5364 17.0942 13.8946 15.655V17.6623H17.714V0L13.7859 1.332V6.0394ZM22.614 9.2578C23.1764 7.8768 24.4512 6.7018 26.9972 6.7018C29.5433 6.7018 31.2725 7.8919 31.438 9.2578H22.614ZM27.2343 3.8095C21.1036 3.8066 18.9474 7.6298 18.9474 10.9037C18.9474 14.1782 21.1183 18 27.2511 18C31.6799 18 34.0429 16.0049 35.0141 13.6627H31.3699C30.5039 14.5051 29.375 15.1049 27.2827 15.1049C24.0669 15.1049 22.9955 13.6937 22.4752 12.1464H35.4502C35.5203 11.736 35.5554 11.3206 35.5554 10.9037C35.5554 7.6298 33.3635 3.8066 27.2343 3.8066V3.8095Z" fill="#546285"/>
</svg>
