<svg width="66" height="18" viewBox="0 0 66 18" fill="none" xmlns="http://www.w3.org/2000/svg">
<path d="M17.1673 9.00307C17.1673 3.91567 14.4285 0 7.45545 0H0V18H7.45442C14.4274 18 17.1683 14.0833 17.1683 9.00205L17.1673 9.00307ZM12.0953 9.00307C12.0953 12.5551 10.1185 13.8754 7.3776 13.8754H4.84158V4.12462H7.3776C10.1185 4.12462 12.0953 5.44998 12.0953 9.00307ZM18.3247 18H32.4203V13.903H23.1693V10.816H31.2916V6.92591H23.1693V4.10106H32.1878V0H18.3247V18ZM48.8194 6.25299C48.8194 1.71253 45.9515 0 41.494 0H33.7846V18H38.6251V12.5029H41.493C45.9505 12.5029 48.8194 10.7904 48.8194 6.25299ZM43.8027 6.25299C43.8027 8.01468 42.9833 8.74189 41.0096 8.74189H38.6251V3.76101H41.0096C42.9822 3.76101 43.8027 4.48822 43.8027 6.25299ZM49.352 4.20143H54.9607V18H59.8023V4.20143H65.4151V0H49.352V4.20143Z" fill="#546285"/>
</svg>
