<svg height="70" viewBox="0 0 70.005 70" width="70.005" xmlns="http://www.w3.org/2000/svg"><path d="m35 2.464-10.747 12.847h21.5z" fill="#fdb436"/><g fill="#546285"><path d="m67.78 68.06c-.5-1-.99-2-1.51-2.99a3.23 3.23 0 0 0 -2.52-1.8c-1.91-.28-3.82-.54-5.72-.83a1.625 1.625 0 0 1 -.83-.26 3.929 3.929 0 0 0 -2.92-.96c-.89.04-1.78.01-2.7.01v-2.09c.95-.4 1.1-.63 1.05-1.61a6.72 6.72 0 0 0 -.77-2.88 2.614 2.614 0 0 1 -.32-1.37 3.132 3.132 0 0 0 -.67-2.04 10.629 10.629 0 0 1 -.8-1.1 5.355 5.355 0 0 1 -.6-1.44 3.429 3.429 0 0 1 .73-2.82 7 7 0 0 0 1.06-6.17 16.957 16.957 0 0 0 -.66-1.72l-3.12-7.44a6.61 6.61 0 0 0 -6.47-4.31c-4.09 0-8.17-.02-12.26.01a6.235 6.235 0 0 0 -5.45 2.92 27.29 27.29 0 0 0 -1.58 3.21l-2.59 6.54a4.955 4.955 0 0 0 -.65 2.47 7.441 7.441 0 0 0 1.42 4.62 3.412 3.412 0 0 1 -.1 4.36c-.2.25-.39.51-.58.76a3.711 3.711 0 0 0 -.76 2.29 2.773 2.773 0 0 1 -.26 1.1 8.009 8.009 0 0 0 -.83 3.36 1.123 1.123 0 0 0 .74 1.12c.11.06.24.1.3.13v2.11h-3.22a2.978 2.978 0 0 0 -2.09.75 2.019 2.019 0 0 1 -1.17.47q-2.8.405-5.59.8a3.346 3.346 0 0 0 -2.65 1.93c-.48.96-.97 1.92-1.45 2.88-.46.93-.39 1.26.41 1.93l64.72-.01c.8-.66.87-1 .41-1.93zm-55.95-.3h-6.94c.28-.61.6-1.2.94-1.78a1.278 1.278 0 0 1 .77-.49c1.71-.28 3.43-.51 5.23-.76zm4.4 0h-2.12c0-1.13-.03-2.24.01-3.35a.986.986 0 0 1 .93-.94 11.534 11.534 0 0 1 1.18-.01zm27.61-33.85c.01-1.47 0-2.96 0-4.55a4.023 4.023 0 0 1 1.52 1.93q1.3 3.075 2.59 6.17c.34.8.69 1.59 1 2.4a4.7 4.7 0 0 1 -.5 4.62 5.867 5.867 0 0 0 -.61 6.37 4.535 4.535 0 0 1 -.5-.12c-.81-.31-1.63-.61-2.42-.96a5.279 5.279 0 0 1 -3.28-4.88v-.07a6.818 6.818 0 0 1 .85-4.26c1.6-3.66 1.32-2.78 1.35-6.65zm-15.42-4.17c0-.88.41-1.27 1.32-1.27h5.3c1.74 0 3.49-.01 5.23 0 .94 0 1.32.38 1.32 1.33.01 2.07.04 4.15-.01 6.22a5.2 5.2 0 0 1 -.37 1.78c-.48 1.27-1.06 2.52-1.6 3.77a3.308 3.308 0 0 1 -3.33 2.17c-.89 0-1.79.02-2.68 0a3.234 3.234 0 0 1 -3.14-2.04c-.6-1.35-1.19-2.71-1.75-4.08a4.1 4.1 0 0 1 -.28-1.39c-.03-2.16-.02-4.32-.01-6.49zm-7.34 10 2.71-6.51c.75-1.31.93-2.92 2.39-3.88v.55c0 2.07.01 4.14 0 6.22a5.906 5.906 0 0 0 .5 2.45c.53 1.19 1.04 2.38 1.54 3.58a1.984 1.984 0 0 1 .16.72 20.025 20.025 0 0 1 0 2.05 5.249 5.249 0 0 1 -3.25 4.83c-.77.35-1.57.64-2.36.95-.16.06-.33.1-.51.15a1.114 1.114 0 0 1 0-.19 5.665 5.665 0 0 0 -.65-6.12 4.826 4.826 0 0 1 -.82-2 5.455 5.455 0 0 1 .29-2.8zm-.45 28.01h-2.08v-4.27h2.08zm4.45.01h-2.14v-4.21c.06-.04.1-.08.14-.08 1.54-.13 2.09.14 2.01 1.88-.04.79-.01 1.58-.01 2.41zm17.65.02h-15.43v-4.27h15.43zm4.32-.02h-2.1c0-1.14-.03-2.25.02-3.35a1.007 1.007 0 0 1 1-.95c.34-.03.68-.01 1.08-.01zm2.23-6.57h-28.53v-2.1h24.14v-2.18h-25.17a7.723 7.723 0 0 1 .22-.77 5.224 5.224 0 0 1 2.94-3.08c.86-.37 1.74-.71 2.61-1.05a7.583 7.583 0 0 0 5.12-6.61.83.83 0 0 1 .06-.21 7.648 7.648 0 0 0 4.31.77c1.49 0 2.99.09 4.37-.79.09.51.14.95.25 1.39a7.4 7.4 0 0 0 4.24 5.15c1.06.49 2.16.87 3.24 1.33a5.246 5.246 0 0 1 3.13 3.5 1.2 1.2 0 0 1 .03.2.425.425 0 0 1 -.02.11h-3.05v2.2h2.11zm2.21 6.56h-2.1v-4.24h2.1zm4.42-.01h-2.11v-4.28c.15-.01.3-.01.45-.01.24 0 .48.01.71.02a1.038 1.038 0 0 1 .95 1.08c.02 1.04 0 2.09 0 3.19zm2.29.04v-3.04c.72.1 1.41.19 2.11.29 1 .14 1.99.3 2.99.42a1.254 1.254 0 0 1 1.05.77c.24.51.5 1.01.77 1.56z"/><path d="m.911 56.896h14.226v2.128h-14.226z"/><path d="m54.873 56.913h14.267v2.12h-14.267z"/><path d="m59.255 52.541h9.859v2.117h-9.859z"/><path d="m24.49 15.311h17.11v-2.211h-15.254l8.654-10.255 12.4 14.69h-3.539v2.2h5.4l1.829 2.18h-7.225v2.178h9.079l15.368 18.2 1.688-1.412-33.42-39.633c-.235-.279-.458-.571-.712-.833a1.083 1.083 0 0 0 -1.69-.015c-.13.128-.243.273-.361.413l-33.817 40.058 1.713 1.422z"/><path d="m39.431 17.548h2.158v2.122h-2.158z"/><path d="m35.05 21.931h2.12v2.129h-2.12z"/><path d="m39.458 21.934h2.115v2.123h-2.115z"/><path d="m54.881 43.802h2.114v2.123h-2.114z"/><path d="m66.984 43.781h2.148v2.138h-2.148z"/><path d="m54.861 48.153h2.132v2.14h-2.132z"/><path d="m59.263 48.154h2.158v2.116h-2.158z"/><path d="m66.987 48.169h2.129v2.138h-2.129z"/><path d="m54.876 52.545h2.127v2.132h-2.127z"/><path d="m33.917 38.271h2.206c0-1.792 0-3.5 0-5.2 0-.977-.389-1.352-1.389-1.352-1.192-.01-2.384 0-3.577 0-.175 0-.349.03-.513.046v2.186h3.275z"/></g></svg>