<svg height="70" viewBox="0 0 70.003 70" width="70.003" xmlns="http://www.w3.org/2000/svg"><g transform="translate(.004)"><path d="m68.8 51.293v-.56c0-2.48.01-4.959-.02-7.439a3.27 3.27 0 0 1 .46-1.88 4.6 4.6 0 0 0 .73-3.04c-.05-.53-.01-1.07-.01-1.6-.01-.19-.04-.37-.06-.62h-4.6v-.77c0-2.95-.01-5.889.01-8.829a3.634 3.634 0 0 1 .25-1.27 6.009 6.009 0 0 0 .38-3.43 5.7 5.7 0 0 0 -3.969-4.529 3.285 3.285 0 0 1 -2.5-3.49c-.01-1.32 0-2.63 0-3.939 0-.17.02-.33.04-.58h2.23v-2.368h-2.31v-2.27h-2.331v2.31h-2.28v2.37h2.24c.02.1.04.2.05.3 0 1.46.01 2.92 0 4.379a3.156 3.156 0 0 1 -2.35 3.22 4.439 4.439 0 0 0 -.72.27 5.916 5.916 0 0 0 -2.99 7.809 2.545 2.545 0 0 1 .22.98c.02 3.11.01 6.219.01 9.339a3.469 3.469 0 0 1 -.06.45h-5.756a7.389 7.389 0 0 0 -2.3-6.449c0-2.43.01-4.839-.01-7.249a5.708 5.708 0 0 1 .37-2.12 6.218 6.218 0 0 0 -3.509-8.009c-.45-.18-.91-.33-1.36-.52a3.623 3.623 0 0 1 -2.41-3.04c-.13-1.32-.03-2.66-.03-4.079h2.23v-2.37h-2.31v-2.27h-2.335v2.32h-2.26v2.37h2.27c0 1.29.06 2.49-.01 3.669a3.72 3.72 0 0 1 -2.27 3.31c-.46.22-.97.34-1.42.57a10.386 10.386 0 0 0 -1.92 1.15 6.135 6.135 0 0 0 -1.7 6.969 5.012 5.012 0 0 1 .35 1.91c-.03 2.21-.01 4.429-.01 6.639v.75a6.1 6.1 0 0 0 -1.93 2.95c-.28 1.14-.38 2.32-.56 3.509h-5.633v-.76q-.015-4.409 0-8.829a6.178 6.178 0 0 1 .22-1.2 13.162 13.162 0 0 0 .48-1.97 5.774 5.774 0 0 0 -4.119-6.069 3.248 3.248 0 0 1 -2.41-3.33c-.01-1.34 0-2.68 0-4.009 0-.19.03-.38.05-.65h2.24v-2.34h-2.3v-2.29h-2.368v2.32h-2.261v2.37h2.28c0 1.63.02 3.16 0 4.689a3.138 3.138 0 0 1 -2.36 3.21q-.36.12-.72.27a5.913 5.913 0 0 0 -2.97 7.819 2.706 2.706 0 0 1 .22 1.05c.02 3.04.01 6.079.01 9.119 0 .19-.02.38-.03.66h-4.629c0 .69.04 1.3-.01 1.9a5.351 5.351 0 0 0 .83 3.524 2.5 2.5 0 0 1 .35 1.46c-.01 2.55-.01 5.109-.01 7.659 0 .19-.03.38-.04.58l-1.12.07c0 .63.05 1.23-.01 1.83a5.745 5.745 0 0 0 .83 3.619 2.361 2.361 0 0 1 .33 1.16c.03 3.04.01 6.079.01 9.119a5.107 5.107 0 0 1 -.05.55l-1.08.07v2.27l69.83.013v-2.28l-1.1-.08v-.61c0-2.72.03-5.449-.02-8.169a4.784 4.784 0 0 1 .63-2.64 2.834 2.834 0 0 0 .52-1.19c.07-1.2.02-2.41.02-3.649zm-13.658-31.656a14.991 14.991 0 0 0 2.02-.97 8.105 8.105 0 0 0 1.13-.98.8.8 0 0 1 .19.13 5.965 5.965 0 0 0 2.72 1.74 3.41 3.41 0 0 1 2.46 3.549 10.766 10.766 0 0 1 -.29 1.37h-9.75a2.452 2.452 0 0 1 -.27-.02 2.952 2.952 0 0 1 -.2-.45 3.389 3.389 0 0 1 1.99-4.369zm7.739 7.263v9.219h-9.209v-9.219zm-13.888 15.834a3.442 3.442 0 0 1 .19-.83 1.264 1.264 0 0 1 .13-.26 4.294 4.294 0 0 0 .8-3.08h17.417a1.487 1.487 0 0 1 -.17 1.28 6.538 6.538 0 0 0 -.95 4.019c.08 2.23.02 4.469.02 6.709v.71h-17.387a3.051 3.051 0 0 1 -.05-.52c-.01-2.679-.01-5.348 0-8.028zm-18.367-28.156q.27-.12.54-.21a7.14 7.14 0 0 0 3.739-2.46c.1.03.16.02.19.05a7.394 7.394 0 0 0 3.6 2.35 3.9 3.9 0 0 1 2.52 2.14 3.849 3.849 0 0 1 -.03 3.33h-12.329c-.02-.04-.04-.09-.06-.13a3.811 3.811 0 0 1 1.83-5.07zm10.159 7.659v6c-.86-.23-1.69-.4-2.48-.68a3.031 3.031 0 0 1 -1.98-2.17c-.09-.27-.13-.56-.2-.87h-2.25c-.06.29-.11.55-.18.8a3.074 3.074 0 0 1 -2.13 2.29c-.75.25-1.53.41-2.35.62v-5.99zm-13.919 16.277c0-.89-.01-1.71 0-2.53a11.472 11.472 0 0 1 .12-2.03 4.438 4.438 0 0 1 3.22-3.519c.25-.08.51-.15.77-.21a6.278 6.278 0 0 0 4.039-2.29c.2.23.34.43.5.6a5.842 5.842 0 0 0 2.78 1.51c.45.11.9.21 1.34.34a4.619 4.619 0 0 1 3.5 4.549c.01.92.01 1.85.01 2.77v.78h4.555a1.336 1.336 0 0 1 -.07 1.23 7.349 7.349 0 0 0 -1.02 4.669c.07 2.11.02 4.229.02 6.339v.56h-3.46v-2.36a5.82 5.82 0 0 0 -4-5.6 4.717 4.717 0 0 1 -1.9-1.04 3.94 3.94 0 0 1 -1.11-2.59h-2.3c-.03.16-.05.29-.07.43a3.666 3.666 0 0 1 -2.65 3.08 5.763 5.763 0 0 0 -3.919 3.609 7.457 7.457 0 0 0 -.38 1.99c-.06.8-.01 1.6-.01 2.47h-3.47v-1.02c0-2.53-.01-5.059.01-7.589a3.107 3.107 0 0 0 -.4-1.74 5.274 5.274 0 0 1 -.51-1.04c-.15-.4-.23-.82-.38-1.37zm-18.347-18.867a10.969 10.969 0 0 0 1.72-.76 15.187 15.187 0 0 0 1.54-1.24 6.918 6.918 0 0 0 .65.7 6.222 6.222 0 0 0 2.27 1.24 3.755 3.755 0 0 1 .58.25 3.4 3.4 0 0 1 1.4 4.609h-9.92a3.1 3.1 0 0 1 -.21-.45 3.381 3.381 0 0 1 1.97-4.349zm7.8 7.259v9.2h-9.2v-9.2zm3.42 11.638c.03.06.09.13.09.18a4.213 4.213 0 0 0 .77 2.75 3.153 3.153 0 0 1 .42 1.73c-.02 2.41-.01 4.819-.01 7.219v.86h-17.45v-.67c0-2.72-.01-5.439.01-8.169a2.718 2.718 0 0 0 -.33-1.39 8.187 8.187 0 0 1 -.55-1.11 14.434 14.434 0 0 1 -.41-1.4zm4.767 28.446v.63h-20.917c-.01-.21-.02-.39-.03-.59 0-3.16-.01-6.319.01-9.479a2.459 2.459 0 0 0 -.3-1.25c-.21-.39-.38-.79-.59-1.17a1.727 1.727 0 0 1 -.23-1.38h20.788c.04.04.07.06.07.07a4.9 4.9 0 0 0 .88 3.01 2.722 2.722 0 0 1 .32 1.4c-.02 2.92-.001 5.84-.001 8.759zm13.968.64h-6.919c-.01-.21-.04-.44-.04-.67v-7.139a3.314 3.314 0 0 1 .02-.44 1.183 1.183 0 0 1 1.16-1.01 1.154 1.154 0 0 1 1.11 1.05c.04.39.01.78.01 1.25h2.37c0-.36-.02-.71 0-1.06a.127.127 0 0 1 -.01-.06 1.184 1.184 0 0 1 1.16-1.18h.01a1.168 1.168 0 0 1 1.13 1.19c.01 2.67 0 5.339 0 8.069zm5.649-12.738a7.269 7.269 0 0 0 -1.01 4.439c.08 2.48.02 4.959.02 7.439v.85h-2.3v-.82c0-2.43.02-4.859 0-7.289 0-.14-.01-.29-.02-.43a3.439 3.439 0 0 0 -3.8-3.04 11.238 11.238 0 0 0 -2.17.71 3.4 3.4 0 0 0 -2.83-.69 3.472 3.472 0 0 0 -2.85 3.47c-.02 2.29-.01 4.569-.01 6.859v1.22h-2.3v-.79c0-3.06-.01-6.129.01-9.189a2.822 2.822 0 0 0 -.33-1.39 9.927 9.927 0 0 1 -.58-1.18c-.15-.39-.23-.81-.38-1.34h3.569c.02-.29.05-.5.05-.71 0-1.36-.01-2.72 0-4.079a3.383 3.383 0 0 1 2.35-3.34 6.747 6.747 0 0 0 3.4-2.26 1.1 1.1 0 0 1 .21.14 6.532 6.532 0 0 0 3.048 2.028 3.455 3.455 0 0 1 2.6 3.6v4.569h3.4a1.291 1.291 0 0 1 -.076 1.223zm23.257.108a6.717 6.717 0 0 0 -.97 4.079c.08 2.63.02 5.259.02 7.879 0 .22-.01.43-.03.69h-20.857c-.02-.21-.05-.4-.05-.59 0-2.96.01-5.929 0-8.9a2.524 2.524 0 0 1 .31-1.32c.15-.25.26-.53.4-.78a2.81 2.81 0 0 0 .46-1.87 3.4 3.4 0 0 1 .03-.45h20.847a1.479 1.479 0 0 1 -.16 1.262z" fill="#546285"/><path d="m41.188 19.779h-12.328c-.02-.04-.04-.09-.06-.13a3.811 3.811 0 0 1 1.83-5.069q.27-.12.54-.21a7.14 7.14 0 0 0 3.739-2.46c.1.03.16.02.19.05a7.394 7.394 0 0 0 3.6 2.35 3.9 3.9 0 0 1 2.52 2.14 3.849 3.849 0 0 1 -.031 3.329z" fill="#198cca" transform="translate(-.004 -.002)"/><g fill="#546285"><path d="m35.009 31.34c1.37.692 2.727 1.337 4.044 2.055a3.314 3.314 0 0 1 1.782 2.978c.022.677 0 1.356 0 2.095h-2.354c0-.561-.022-1.135.005-1.706a1.415 1.415 0 0 0 -.924-1.489c-.862-.394-1.691-.839-2.562-1.273-.933.467-1.864.93-2.792 1.4a1.211 1.211 0 0 0 -.693 1.184c.006.606 0 1.213 0 1.882h-2.347a9.415 9.415 0 0 1 .25-3.335 3.341 3.341 0 0 1 1.627-1.793c1.299-.665 2.6-1.312 3.964-1.998z" transform="translate(-.004 -.004)"/><path d="m12.886 65.356h-6.974c-.016-.258-.042-.492-.042-.725 0-1.675-.007-3.35 0-5.024a3.508 3.508 0 0 1 3.423-3.59h.087a3.482 3.482 0 0 1 3.5 3.464v.06c.02 1.91.006 3.824.006 5.815zm-2.361-2.362c0-1.183.014-2.294 0-3.4a1.153 1.153 0 0 0 -1.1-1.208 1.152 1.152 0 0 0 -1.182 1.114v.078c-.023.8 0 1.6 0 2.4v1.007z" transform="translate(-.001 -.008)"/><path d="m15.187 65.329v-1.5c0-1.432-.012-2.864 0-4.3a3.511 3.511 0 0 1 3.494-3.529h.006a3.507 3.507 0 0 1 3.508 3.5v.02c.018 1.914 0 3.827 0 5.8zm4.658-2.349c0-1.151.009-2.214 0-3.278a1.2 1.2 0 0 0 -1.068-1.319h-.07a1.177 1.177 0 0 0 -1.163 1.192.978.978 0 0 0 .006.108c-.014.943-.007 1.888 0 2.832a2.951 2.951 0 0 0 .076.467z" transform="translate(-.002 -.008)"/><path d="m54.756 65.377h-6.6a2.248 2.248 0 0 1 -.317-.049c-.012-.208-.032-.4-.032-.583 0-1.748-.024-3.5 0-5.243a3.5 3.5 0 0 1 6.931-.726 2.943 2.943 0 0 1 .077.648q.012 2.694.007 5.388a4.656 4.656 0 0 1 -.066.565zm-2.3-2.394c0-1.23.032-2.412-.014-3.589a1.132 1.132 0 0 0 -2.253.022c-.04 1.178-.012 2.357-.012 3.568z" transform="translate(-.007 -.008)"/><path d="m64.128 65.356h-6.928a1.234 1.234 0 0 1 -.072-.281c0-1.894-.027-3.787.007-5.68a3.491 3.491 0 0 1 6.5-1.657 3.255 3.255 0 0 1 .471 1.432c.052 2.03.022 4.069.022 6.186zm-4.636-2.382h2.285c0-1.2.027-2.361-.01-3.518a1.134 1.134 0 0 0 -2.267.044c-.028 1.137-.008 2.274-.008 3.474z" transform="translate(-.008 -.008)"/><path d="m16.351 49.007h-8.074a1.278 1.278 0 0 1 -.073-.286c0-1.312-.037-2.624 0-3.933a4.079 4.079 0 0 1 3.751-3.951 4.12 4.12 0 0 1 4.371 3.442.86.86 0 0 1 .02.144c.005 1.5.005 3.002.005 4.584zm-2.331-2.366v-1.436a3.605 3.605 0 0 0 -.02-.505 1.743 1.743 0 0 0 -1.7-1.5 1.682 1.682 0 0 0 -1.692 1.415 17.185 17.185 0 0 0 -.016 2.03z" transform="translate(-.001 -.006)"/><path d="m53.657 48.983c0-1.559-.093-3.068.023-4.56a4.068 4.068 0 0 1 8.081.01c.114 1.494.022 3 .022 4.555zm5.785-2.319c0-.7.04-1.309-.01-1.908a1.713 1.713 0 0 0 -1.646-1.556 1.666 1.666 0 0 0 -1.735 1.358 15.61 15.61 0 0 0 -.019 2.108h3.41z" transform="translate(-.008 -.006)"/><path d="m35.005 46.524c.6.3 1.172.563 1.716.877a3.361 3.361 0 0 1 1.779 2.98c.027 1.067 0 2.136 0 3.265h-6.968c-.012-.221-.034-.454-.035-.687 0-.851-.018-1.7 0-2.553a3.378 3.378 0 0 1 1.827-3.028c.533-.295 1.084-.551 1.681-.854zm-.018 2.676c-1.095.527-1.278.9-1.04 2.1h2.135c.179-1.311.028-1.6-1.095-2.1z" transform="translate(-.004 -.007)"/><path d="m10.576 29.177h2.26v4.623h-2.26z" transform="translate(-.002 -.004)"/><path d="m59.433 33.823h-2.256v-4.617h2.256z" transform="translate(-.008 -.004)"/></g></g></svg>