<svg xmlns="http://www.w3.org/2000/svg" width="70" height="70" viewBox="0 0 70 70"><defs><style>.a{fill:#fdb436;}.b{fill:#546285;}</style></defs><g transform="translate(-425 -2248)"><path class="a" d="M6268-2020v-8h22v-13h22v13h22v8Z" transform="translate(-5841 4299)"/><path class="b" d="M84.833,47.5V42.148L86,40.981V37H82.5V32.61l1.167-2.333v-2.61h-21V25.333H57.548l.846-1.692A1.156,1.156,0,0,1,59.444,23h.89V20.667h-.89a3.5,3.5,0,0,0-3.135,1.94l-1.356,2.727H52.167V22.417l4.2-3.15-1.4-1.867-2.8,2.1V16H49.833v3.5l-2.8-2.1-1.4,1.867,4.2,3.15v2.917H47.048l-1.371-2.727a3.481,3.481,0,0,0-3.135-1.94h-.875V23h.89a1.189,1.189,0,0,1,1.05.642l.846,1.692H39.333v2.333h-21v2.61L19.5,32.61V37H16v3.981l1.167,1.167V51H16v2.333h1.167V83.667H16V86H86V83.667H84.833V53.333H86V51H84.833ZM62.667,30H81.2l-1.035,2.056V37h-17.5Zm-21-2.333H60.333V30H41.667Zm0,4.667H60.333V37H41.667ZM39.333,30v7h-17.5V32.056L20.8,30Zm-17.5,53.667H19.5V53.333h2.333Zm0-32.667H19.5V48.667h2.333Zm7,0H27.667v2.333h1.167V83.667H24.167V53.333h1.167V51H24.167V48.667h4.667ZM33.5,83.667H31.167V53.333H33.5ZM33.5,51H31.167V48.667H33.5Zm7,0H39.333v2.333H40.5V83.667H35.833V53.333H37V51H35.833V48.667H40.5Zm4.667,32.667H42.833V53.333h2.333Zm0-32.667H42.833V48.667h2.333ZM54.5,51H53.333v2.333H54.5V83.667h-7V53.333h1.167V51H47.5V48.667h7Zm4.667,32.667H56.833V53.333h2.333Zm0-32.667H56.833V48.667h2.333Zm7,0H65v2.333h1.167V83.667H61.5V53.333h1.167V51H61.5V48.667h4.667Zm4.667,32.667H68.5V53.333h2.333Zm0-32.667H68.5V48.667h2.333Zm7,0H76.667v2.333h1.167V83.667H73.167V53.333h1.167V51H73.167V48.667h4.667ZM82.5,83.667H80.167V53.333H82.5ZM82.5,51H80.167V48.667H82.5Zm1.167-10.981L82.5,41.185v5.148h-63V41.185l-1.167-1.167v-.685H83.667Z" transform="translate(409 2232)"/></g></svg>