<svg xmlns="http://www.w3.org/2000/svg" width="127.75" height="70" viewBox="0 0 127.75 70">
  <g id="givebutter_original" transform="translate(16912.5 23847.699)">
    <rect id="Rectangle_4781" data-name="Rectangle 4781" width="127.75" height="70" transform="translate(-16912.5 -23847.699)" fill="#ffbf02" opacity="0"/>
    <g id="RAIZ8E.tif_1_" transform="translate(-16911.406 -23822.748)">
      <g id="Group_18895" data-name="Group 18895" transform="translate(-0.094 0.05)">
        <path id="Path_79546" data-name="Path 79546" d="M137.394,7.839a20.6,20.6,0,0,1-1.821,1.184,4.028,4.028,0,0,0-2.549,3.824c-.091,1.275,0,2.549,0,3.733,0,1.457-.728,2.367-1.912,2.367s-1.912-.91-1.912-2.367V7.657c0-1.457.637-2.276,1.73-2.367,1.184-.091,1.912.637,2.094,1.912a12.9,12.9,0,0,1,2-1.821c.728-.455,1.548-.091,2.458.91A9.364,9.364,0,0,0,137.394,7.839Z" transform="translate(-11.485 -0.51)" fill="#ffbf02"/>
        <path id="Path_79547" data-name="Path 79547" d="M12.92,11.616H10.462A1.631,1.631,0,0,1,8.641,9.977c0-1,.728-1.639,1.912-1.73h4.006a1.891,1.891,0,0,1,2.094,2v4.188a2.389,2.389,0,0,1-1.093,2.185c-3.369,2.276-8.194,2.731-11.654.546A8.886,8.886,0,0,1,.174,7.428,8.83,8.83,0,0,1,7.821.691a10.194,10.194,0,0,1,6.919,1.366c1.093.728,1.457,1.821.819,2.731-.637,1-1.73,1.184-2.913.364C9.1,2.876,4.908,4.332,4.089,8.247c-.455,2.276,0,4.37,2,5.736,2,1.457,4.1,1.275,6.191.273.273-.091.455-.546.546-.91A4.9,4.9,0,0,0,12.92,11.616Z" transform="translate(0.094 -0.098)" fill="#ffbf02"/>
        <path id="Path_79548" data-name="Path 79548" d="M62.842,6.833a5.191,5.191,0,0,1,6.373-1.639c2.731,1.093,3.824,3.278,3.915,6.1.091,2.913-.728,5.372-3.551,6.737-2.276,1.093-4.37.637-6.555-1.184a.089.089,0,0,0-.091.091,1.883,1.883,0,0,1-2.185,1.548c-1-.182-1.548-.91-1.548-2.185V2.1a1.876,1.876,0,0,1,3.551-1,2.309,2.309,0,0,1,.182,1.093C62.842,3.646,62.842,5.1,62.842,6.833Zm-.091,4.825A3.382,3.382,0,0,0,65.664,15.3a3.17,3.17,0,0,0,3.46-2.913,3.67,3.67,0,0,0-2.367-4.37C64.663,7.47,62.751,9.109,62.751,11.658Z" transform="translate(-5.216 -0.05)" fill="#ffbf02"/>
        <path id="Path_79549" data-name="Path 79549" d="M46.2,13.485a2.95,2.95,0,0,0,3.46,2.549,7.509,7.509,0,0,0,2.367-.91,1.627,1.627,0,0,1,2.094.364,1.494,1.494,0,0,1-.364,2.094c-1.912,1.73-5.372,2-7.921.728A6.883,6.883,0,0,1,42.2,11.573a6.79,6.79,0,0,1,4.734-6.1,6.478,6.478,0,0,1,8.376,5.736c.091,1.457-.637,2.185-2.094,2.185H46.3C46.386,13.394,46.386,13.394,46.2,13.485Zm5.554-2.458C51.576,9.3,50.483,8.113,48.845,8.2a2.8,2.8,0,0,0-2.64,2.822Z" transform="translate(-3.692 -0.51)" fill="#ffbf02"/>
        <path id="Path_79550" data-name="Path 79550" d="M116.417,13.386c.182,1.912,2.185,3.1,4.461,2.367a10.869,10.869,0,0,0,1.457-.728,1.454,1.454,0,0,1,2.094.364,1.494,1.494,0,0,1-.364,2.094,7.082,7.082,0,0,1-7.284,1,6.327,6.327,0,0,1-4.188-5.463c-.455-3.642,1.457-6.737,4.734-7.648a6.352,6.352,0,0,1,8.285,5.918,1.747,1.747,0,0,1-2,2C121.243,13.386,118.876,13.386,116.417,13.386Zm5.554-2.367C121.7,9.289,120.7,8.2,119.24,8.2a2.833,2.833,0,0,0-2.822,2.822Z" transform="translate(-9.992 -0.503)" fill="#ffbf02"/>
        <path id="Path_79551" data-name="Path 79551" d="M84.96,17.317a15.073,15.073,0,0,1-2.913,1.548,4.285,4.285,0,0,1-5.554-4.188c-.091-2.549-.091-5.007,0-7.557A1.794,1.794,0,0,1,78.405,5.3a1.867,1.867,0,0,1,1.912,1.912v6.373a2.114,2.114,0,0,0,2.185,2,2.224,2.224,0,0,0,2.367-2,4.433,4.433,0,0,0,.091-1.093V7.3a1.821,1.821,0,0,1,2-2,1.852,1.852,0,0,1,1.821,2.094v9.2c0,1.366-.546,2.094-1.548,2.276A1.927,1.927,0,0,1,84.96,17.317Z" transform="translate(-6.759 -0.519)" fill="#ffbf02"/>
        <path id="Path_79552" data-name="Path 79552" d="M33.954,14.308c.91-2.458,1.821-4.734,2.64-7.1.182-.364.273-.728.455-1.093a1.751,1.751,0,0,1,2.185-.728,1.835,1.835,0,0,1,1.184,2,1.688,1.688,0,0,1-.182.637c-1.366,3.187-2.731,6.282-4.188,9.469a3.222,3.222,0,0,1-1.457,1.457c-1.184.546-2.367-.091-3-1.457-1.093-2.367-2.094-4.734-3.1-7.1a12.644,12.644,0,0,0-.91-2.367,1.786,1.786,0,0,1,.91-2.549,1.829,1.829,0,0,1,2.549,1.184c.91,2.276,1.73,4.643,2.549,6.919A1.371,1.371,0,0,1,33.954,14.308Z" transform="translate(-2.367 -0.515)" fill="#ffbf02"/>
        <path id="Path_79553" data-name="Path 79553" d="M103.638,5.051c.182-2.731.637-3.551,1.912-3.551s1.73.728,2,3.551h1.457a1.557,1.557,0,0,1,1.73,1.639,1.712,1.712,0,0,1-1.73,1.639h-1.457v6.009a.888.888,0,0,0,1,.91h.728a1.557,1.557,0,0,1,1.457,1.275,1.342,1.342,0,0,1-.91,1.639,5.444,5.444,0,0,1-4.461,0c-1.366-.637-1.639-1.912-1.639-3.278V8.419c-1-.182-1.821-.637-1.73-1.821C102.09,5.6,102.728,5.233,103.638,5.051Z" transform="translate(-9.049 -0.179)" fill="#ffbf02"/>
        <path id="Path_79554" data-name="Path 79554" d="M93.33,8.419C92.055,8.055,91.6,7.6,91.6,6.69c0-.819.546-1.366,1.821-1.73V3.321A1.846,1.846,0,0,1,95.333,1.5a1.985,1.985,0,0,1,1.912,1.912v1.73H98.7a1.71,1.71,0,0,1,1.912,1.639,1.681,1.681,0,0,1-1.821,1.639H97.427c0,.182-.091.364-.091.546v5.1c0,1,.364,1.366,1.366,1.366,1.093,0,1.73.455,1.821,1.366a1.481,1.481,0,0,1-1.366,1.73,9.305,9.305,0,0,1-3.187.091c-1.548-.273-2.367-1.457-2.458-3.278-.091-1.912,0-3.824,0-5.736A2.893,2.893,0,0,1,93.33,8.419Z" transform="translate(-8.118 -0.179)" fill="#ffbf02"/>
        <path id="Path_79555" data-name="Path 79555" d="M21.2,12.028V7.294A1.918,1.918,0,0,1,23.112,5.2a1.89,1.89,0,0,1,1.912,2v9.56a1.821,1.821,0,0,1-2,2A1.9,1.9,0,0,1,21.2,16.672Z" transform="translate(-1.813 -0.511)" fill="#ffbf02"/>
        <path id="Path_79556" data-name="Path 79556" d="M25.188,1.829c0,1.093-.91,1.821-2.185,1.821a1.822,1.822,0,0,1-2-1.821A1.823,1.823,0,0,1,23.185.1C24.46.1,25.279.828,25.188,1.829Z" transform="translate(-1.795 -0.053)" fill="#ffbf02"/>
      </g>
    </g>
  </g>
</svg>
