<svg height="48" viewBox="0 0 204 48" width="204" xmlns="http://www.w3.org/2000/svg"><path d="m0 0h204v48h-204z" fill="#fff"/><path d="m163.7 7.4a.552.552 0 0 0 -.286-.449 4.5 4.5 0 0 0 -2.014-.311 6.066 6.066 0 0 0 -5.643 3.251v-2.486a.392.392 0 0 0 -.395-.39h-3.722a.392.392 0 0 0 -.395.39v16.756a.392.392 0 0 0 .395.39h3.9a.393.393 0 0 0 .4-.39v-7.537c0-3.366 2.376-5.039 5.465-5.039a6.4 6.4 0 0 1 1.8.275.39.39 0 0 0 .5-.378zm-24.917 13.039a4.523 4.523 0 0 1 -4.725-4.664 4.725 4.725 0 0 1 9.449 0 4.522 4.522 0 0 1 -4.724 4.664zm0-13.853c-5.47 0-9.556 3.718-9.556 9.189s4.085 9.189 9.556 9.189 9.555-3.718 9.555-9.189-4.085-9.189-9.555-9.189zm-21.692 13.853a4.523 4.523 0 0 1 -4.725-4.664 4.725 4.725 0 0 1 9.449 0 4.522 4.522 0 0 1 -4.724 4.664zm0-13.853c-5.47 0-9.556 3.718-9.556 9.189s4.085 9.189 9.556 9.189 9.555-3.718 9.555-9.189-4.085-9.189-9.555-9.189zm-21.662 13.9a4.475 4.475 0 0 1 -4.653-4.7 4.654 4.654 0 1 1 9.307 0 4.475 4.475 0 0 1 -4.653 4.7zm8.806-20.486h-3.9a.392.392 0 0 0 -.394.39v9.15a7.114 7.114 0 0 0 -5.968-2.982c-4.333 0-8.028 3.3-8.028 9.225s3.7 9.222 8.1 9.222a6.991 6.991 0 0 0 5.9-2.91v2.066a.392.392 0 0 0 .395.39h3.9a.392.392 0 0 0 .395-.39v-23.769a.392.392 0 0 0 -.4-.392zm-20.871 19.243c0 4-2.949 5.717-7.673 5.717-3.263 0-6.07-.868-7.676-2.662a.4.4 0 0 1 -.01-.506l2.255-2.892a.392.392 0 0 1 .592-.022 7.3 7.3 0 0 0 5.3 1.94c1.315 0 2.38-.349 2.38-1.332 0-.948-.959-1.157-3.943-1.789-2.629-.527-5.9-1.718-5.9-5.542 0-3.542 2.842-5.577 7.5-5.577a9.618 9.618 0 0 1 6.811 2.352.392.392 0 0 1 .037.528l-2.137 2.742a.388.388 0 0 1 -.56.06 7.106 7.106 0 0 0 -4.505-1.5c-1.456 0-2.274.457-2.274 1.228 0 .877.96 1.088 4.122 1.753 3.088.659 5.681 1.82 5.681 5.502zm-18.029.01c0 4-2.949 5.717-7.673 5.717-3.263 0-6.07-.868-7.676-2.662a.4.4 0 0 1 -.01-.505l2.254-2.89a.393.393 0 0 1 .592-.022 7.3 7.3 0 0 0 5.3 1.941c1.315 0 2.38-.35 2.38-1.333 0-.948-.959-1.157-3.943-1.789-2.629-.526-5.9-1.718-5.9-5.542 0-3.542 2.842-5.576 7.5-5.576a9.622 9.622 0 0 1 6.813 2.348.392.392 0 0 1 .037.528l-2.139 2.742a.388.388 0 0 1 -.559.061 7.108 7.108 0 0 0 -4.511-1.506c-1.456 0-2.274.458-2.274 1.229 0 .877.961 1.088 4.122 1.753 3.094.666 5.688 1.824 5.688 5.506zm-23.367-1.788a3.77 3.77 0 0 1 -4.084 3.612c-1.634 0-2.523-.737-2.523-1.859 0-.982.747-1.719 2.2-1.93l4.4-.525v.7zm-3.09-10.837c-3.72 0-6.523 1.229-7.775 3.659a.394.394 0 0 0 .13.5l2.842 2a.37.37 0 0 0 .537-.105c.789-1.4 2.558-1.882 4.266-1.882 2.1 0 3.089.735 3.089 1.753v.28c0 .422-.248.633-.923.7l-4.867.421c-3.268.314-5.682 2.314-5.682 5.505 0 3.227 2.486 5.471 6 5.471a6.3 6.3 0 0 0 5.472-2.73v2a.392.392 0 0 0 .395.39h3.9a.392.392 0 0 0 .395-.39v-10.453c0-4.875-2.593-7.119-7.778-7.119zm-11.599-6.239v23.769a.392.392 0 0 1 -.395.391h-3.934a.392.392 0 0 1 -.395-.391v-23.776a.384.384 0 0 1 .386-.382h3.943a.392.392 0 0 1 .395.39zm-17.796 20.075a4.475 4.475 0 0 1 -4.653-4.7 4.475 4.475 0 0 1 4.653-4.7 4.41 4.41 0 0 1 4.618 4.7 4.429 4.429 0 0 1 -4.618 4.7zm8.806-13.464h-3.895a.4.4 0 0 0 -.4.395v2.057a6.721 6.721 0 0 0 -5.794-2.876c-4.4 0-8.2 3.262-8.2 9.119 0 5.821 3.622 9.01 8.346 9.01a6.772 6.772 0 0 0 5.719-2.7v1.122c0 2.525-1.244 4.524-5.222 4.524a7.283 7.283 0 0 1 -5.013-1.888.39.39 0 0 0 -.593.082l-1.766 2.923c-.228.378-.2.59-.052.714a11.042 11.042 0 0 0 7.602 2.518c7.46 0 9.662-4.1 9.662-8.627v-15.987a.392.392 0 0 0 -.394-.386z" fill="#0caa41" fill-rule="evenodd" transform="translate(20 8)"/></svg>