<svg height="24" viewBox="0 0 24 24" width="24" xmlns="http://www.w3.org/2000/svg"><path d="m0 0h24v24h-24z" fill="none"/><path d="m22.162 5.656a8.384 8.384 0 0 1 -2.4.658 4.2 4.2 0 0 0 1.838-2.314 8.358 8.358 0 0 1 -2.656 1.015 4.182 4.182 0 0 0 -7.126 3.814 11.874 11.874 0 0 1 -8.618-4.37 4.188 4.188 0 0 0 1.294 5.584 4.168 4.168 0 0 1 -1.894-.523v.052a4.185 4.185 0 0 0 3.354 4.1 4.21 4.21 0 0 1 -1.889.072 4.185 4.185 0 0 0 3.905 2.906 8.394 8.394 0 0 1 -6.191 1.732 11.83 11.83 0 0 0 6.41 1.88 11.819 11.819 0 0 0 11.9-11.9c0-.18 0-.362-.013-.54a8.5 8.5 0 0 0 2.087-2.165z" fill="#546285"/></svg>