<svg height="24" viewBox="0 0 24 24" width="24" xmlns="http://www.w3.org/2000/svg"><path d="m0 0h24v24h-24z" fill="none"/><path d="m12 2c2.717 0 3.056.01 4.122.06a7.367 7.367 0 0 1 2.428.465 4.876 4.876 0 0 1 1.772 1.153 4.908 4.908 0 0 1 1.153 1.772 7.387 7.387 0 0 1 .465 2.428c.047 1.066.06 1.405.06 4.122s-.01 3.056-.06 4.122a7.393 7.393 0 0 1 -.465 2.428 5.106 5.106 0 0 1 -2.925 2.925 7.387 7.387 0 0 1 -2.428.465c-1.066.047-1.4.06-4.122.06s-3.056-.01-4.122-.06a7.393 7.393 0 0 1 -2.428-.465 5.106 5.106 0 0 1 -2.925-2.925 7.361 7.361 0 0 1 -.465-2.428c-.047-1.066-.06-1.405-.06-4.122s.01-3.056.06-4.122a7.361 7.361 0 0 1 .465-2.428 4.88 4.88 0 0 1 1.153-1.772 4.9 4.9 0 0 1 1.772-1.153 7.361 7.361 0 0 1 2.428-.465c1.066-.047 1.405-.06 4.122-.06zm0 5a5 5 0 1 0 5 5 5 5 0 0 0 -5-5zm6.5-.25a1.25 1.25 0 1 0 -1.25 1.25 1.25 1.25 0 0 0 1.25-1.25zm-6.5 2.25a3 3 0 1 1 -3 3 3 3 0 0 1 3-3z" fill="#546285"/></svg>