<svg height="24" viewBox="0 0 24 24" width="24" xmlns="http://www.w3.org/2000/svg"><path d="m0 0h24v24h-24z" fill="none"/><path d="m12 2a10 10 0 0 0 -3.162 19.488c.5.087.687-.213.687-.476 0-.237-.013-1.024-.013-1.862-2.512.463-3.162-.612-3.362-1.175a3.643 3.643 0 0 0 -1.025-1.413c-.35-.187-.85-.65-.013-.662a2 2 0 0 1 1.538 1.025 2.138 2.138 0 0 0 2.912.825 2.1 2.1 0 0 1 .638-1.337c-2.225-.25-4.55-1.113-4.55-4.938a3.892 3.892 0 0 1 1.025-2.688 3.593 3.593 0 0 1 .1-2.65s.837-.262 2.75 1.026a9.428 9.428 0 0 1 5 0c1.912-1.3 2.75-1.024 2.75-1.024a3.593 3.593 0 0 1 .1 2.65 3.87 3.87 0 0 1 1.025 2.686c0 3.838-2.337 4.688-4.562 4.938a2.368 2.368 0 0 1 .675 1.85c0 1.337-.013 2.412-.013 2.75 0 .262.188.574.688.474a10.005 10.005 0 0 0 -3.188-19.487z" fill="#546285"/></svg>