<svg width="62" height="22" viewBox="0 0 62 22" fill="none" xmlns="http://www.w3.org/2000/svg">
<path d="M6.77406 14.5253V7.50152C6.72697 6.82617 6.88133 6.15202 7.21761 5.56446C7.36796 5.3524 7.57007 5.18238 7.80474 5.07057C8.03942 4.95876 8.29885 4.90889 8.55826 4.92573C8.89596 4.92269 9.22655 5.02268 9.506 5.21232C9.823 5.44019 10.0829 5.7384 10.2652 6.08361C10.6123 5.70206 11.0398 5.40248 11.5169 5.20649C12.0294 5.01039 12.5748 4.9148 13.1234 4.92491C13.825 4.91116 14.5211 5.05151 15.1626 5.33607C15.7639 5.61857 16.2884 6.04163 16.6918 6.56954C17.1531 6.0439 17.7144 5.61529 18.343 5.30864C18.9578 5.04141 19.6231 4.91021 20.2934 4.92405C20.8479 4.89252 21.4026 4.98386 21.9178 5.19148C22.433 5.39911 22.896 5.71793 23.2737 6.12518C24.0358 7.08343 24.415 8.29049 24.3377 9.51243V14.5236C24.3853 15.1921 24.2308 15.8596 23.8941 16.4391C23.7401 16.6495 23.5353 16.8173 23.2989 16.9272C23.0624 17.037 22.802 17.0851 22.5419 17.067C22.2839 17.086 22.0254 17.0389 21.7908 16.93C21.5562 16.8211 21.3532 16.6541 21.2012 16.4449C20.8712 15.861 20.721 15.1926 20.7693 14.5236V10.5732C20.817 9.87938 20.6812 9.18522 20.3756 8.56054C20.2474 8.35169 20.0646 8.18185 19.8469 8.06928C19.6293 7.95671 19.385 7.90571 19.1405 7.9218C18.8785 7.90129 18.6157 7.94824 18.3771 8.05817C18.1385 8.16811 17.932 8.33733 17.7774 8.54974C17.4443 9.1539 17.2942 9.84198 17.3455 10.53V14.5236C17.393 15.1921 17.2385 15.8595 16.9019 16.4391C16.7357 16.6357 16.5287 16.7936 16.2952 16.902C16.0617 17.0104 15.8075 17.0665 15.5501 17.0665C15.2927 17.0665 15.0383 17.0104 14.8049 16.902C14.5714 16.7936 14.3644 16.6357 14.1982 16.4391C13.8616 15.8596 13.707 15.1921 13.7547 14.5236V10.5732C13.8032 9.87808 13.6695 9.18235 13.3668 8.55476C13.2405 8.34819 13.0601 8.18001 12.8452 8.06847C12.6303 7.95692 12.389 7.90622 12.1474 7.9218C11.8855 7.90129 11.6227 7.94824 11.384 8.05817C11.1454 8.16811 10.939 8.33733 10.7843 8.54974C10.4512 9.15388 10.3011 9.84198 10.3524 10.53V14.5236C10.4 15.1921 10.2454 15.8595 9.90884 16.4391C9.74331 16.6357 9.53683 16.7937 9.30382 16.9021C9.07081 17.0105 8.81688 17.0667 8.55988 17.0667C8.30288 17.0667 8.04901 17.0105 7.816 16.9021C7.58298 16.7937 7.3765 16.6357 7.21097 16.4391C6.87888 15.8586 6.7268 15.1924 6.77406 14.5253Z" fill="#546285"/>
<path d="M34.4243 15.4573C34.0672 15.9756 33.5875 16.3976 33.028 16.6858C32.4517 16.9649 31.8176 17.1041 31.1774 17.092C30.4733 17.0969 29.7771 16.9426 29.1411 16.6406C28.505 16.3385 27.9455 15.8965 27.5044 15.3477C26.4866 14.1395 25.9519 12.5974 26.0034 11.0185C25.9588 9.40038 26.5381 7.82713 27.6215 6.62445C28.1088 6.05689 28.7144 5.60287 29.3959 5.29435C30.0774 4.98583 30.8181 4.83027 31.5661 4.83858C32.1186 4.82841 32.6673 4.93158 33.1784 5.14175C33.6613 5.35446 34.088 5.67702 34.4243 6.08371C34.5964 5.75994 34.8408 5.48023 35.1386 5.26636C35.3904 5.07899 35.6945 4.97499 36.0083 4.96897C36.2687 4.94961 36.5297 4.99656 36.7671 5.10535C37.0044 5.21414 37.2103 5.38125 37.3655 5.59113C37.6987 6.17003 37.8512 6.83534 37.8033 7.50157V14.5254C37.823 15.5374 37.7582 16.5493 37.6097 17.5505C37.5128 18.1875 37.2928 18.7994 36.9619 19.3522C36.4473 20.202 35.6938 20.8814 34.7956 21.3058C33.7683 21.7718 32.6489 21.999 31.5213 21.9703C30.2229 22.0199 28.9305 21.7719 27.7427 21.2452C26.7676 20.7617 26.28 20.1526 26.28 19.4178C26.2739 19.2153 26.3095 19.0137 26.3849 18.8256C26.4602 18.6375 26.5735 18.467 26.7177 18.3247C26.8626 18.1816 27.0349 18.0695 27.2244 17.9951C27.4139 17.9208 27.6165 17.8856 27.82 17.8919C28.3529 17.981 28.8723 18.1373 29.3658 18.3571C30.094 18.6498 30.8694 18.8074 31.6542 18.8222C32.0323 18.8453 32.411 18.7889 32.766 18.6565C33.121 18.5242 33.4443 18.3189 33.715 18.0539C34.2343 17.4526 34.4968 16.6714 34.4459 15.8785C34.4459 15.8353 34.4423 15.7666 34.4351 15.6725C34.4279 15.5784 34.4243 15.5072 34.4243 15.4573ZM29.7047 11.0201C29.6693 11.7818 29.9004 12.532 30.3584 13.1416C30.5555 13.3998 30.8108 13.6079 31.1035 13.7489C31.3962 13.8899 31.7181 13.9599 32.0429 13.9531C32.3697 13.9588 32.6933 13.8878 32.9877 13.7459C33.2821 13.6039 33.5392 13.395 33.7382 13.1357C34.2011 12.5304 34.4364 11.7815 34.4027 11.0201C34.4356 10.2755 34.1998 9.54381 33.7382 8.95851C33.5359 8.70446 33.2776 8.50047 32.9835 8.36246C32.6895 8.22445 32.3676 8.15613 32.0429 8.16276C31.7195 8.15505 31.3988 8.22299 31.1064 8.36114C30.8139 8.4993 30.5578 8.70385 30.3584 8.95851C29.9031 9.5466 29.6711 10.2771 29.7038 11.0201H29.7047Z" fill="#546285"/>
<path d="M40.1851 12.1561V7.50462C40.1368 6.83764 40.2914 6.1716 40.6286 5.59414C40.7835 5.3853 40.9885 5.21886 41.2247 5.11013C41.4609 5.0014 41.7206 4.95391 41.98 4.97203C42.237 4.95436 42.4942 5.00218 42.7277 5.11099C42.9611 5.2198 43.1632 5.386 43.3149 5.59414C43.6482 6.173 43.8006 6.83839 43.7526 7.50462V11.4443C43.6929 12.1313 43.8436 12.8201 44.1846 13.4195C44.559 13.7904 45.0646 13.9985 45.5916 13.9985C46.1186 13.9985 46.6243 13.7904 46.9987 13.4195C47.3398 12.8202 47.4904 12.1313 47.4306 11.4443V7.50462C47.3826 6.83839 47.5351 6.17298 47.8684 5.59414C48.0237 5.38426 48.2296 5.21714 48.4669 5.10835C48.7043 4.99956 48.9653 4.95267 49.2256 4.97203C49.4813 4.95387 49.7374 5.00096 49.9699 5.10891C50.2023 5.21686 50.4035 5.38212 50.5546 5.58917C50.8852 6.17076 51.0355 6.83746 50.9866 7.50462V12.1561C51.0339 12.8517 50.9351 13.5496 50.6967 14.2048C50.4582 14.8599 50.0853 15.458 49.6019 15.9604C48.438 16.8149 47.0318 17.2756 45.5879 17.2756C44.144 17.2756 42.7378 16.8149 41.5739 15.9604C41.0887 15.459 40.7142 14.8612 40.4747 14.2059C40.2352 13.5505 40.136 12.8522 40.1834 12.1561H40.1851Z" fill="#546285"/>
<path d="M53.4312 14.5247V7.50084C53.383 6.8346 53.5355 6.16922 53.8689 5.5904C54.0224 5.38127 54.2264 5.21449 54.4619 5.10568C54.6974 4.99687 54.9566 4.94963 55.2153 4.96829C55.5571 4.96228 55.8928 5.05826 56.1797 5.24404C56.4901 5.46098 56.7446 5.74851 56.9223 6.08298C57.2565 5.71951 57.6546 5.4205 58.0968 5.20084C58.4864 5.00819 58.9147 4.90654 59.3494 4.9035C59.5862 4.90015 59.8213 4.94385 60.041 5.03212C60.2607 5.12038 60.4607 5.25141 60.6294 5.41762C60.7996 5.57135 60.9355 5.75928 61.0281 5.96911C61.1207 6.17895 61.1679 6.40597 61.1668 6.63533C61.1668 7.33527 60.5092 7.91978 59.194 8.3888C58.7211 8.55493 58.3665 8.69337 58.13 8.80412C57.7677 8.94176 57.455 9.18476 57.2321 9.50182C57.0503 9.94156 56.9744 10.4178 57.0103 10.8923V14.5288C57.0579 15.1973 56.9034 15.8647 56.5668 16.4442C56.4127 16.6546 56.2079 16.8225 55.9715 16.9323C55.735 17.0421 55.4746 17.0902 55.2145 17.0722C54.9552 17.0906 54.6955 17.0426 54.4599 16.9327C54.2243 16.8228 54.0206 16.6547 53.8681 16.4442C53.5353 15.8633 53.383 15.1966 53.4303 14.5288L53.4312 14.5247Z" fill="#546285"/>
<path d="M4.15833 14.5274C4.20669 15.1964 4.05642 15.8648 3.72639 16.4487C3.5762 16.657 3.3753 16.8235 3.14271 16.9324C2.91012 17.0413 2.65358 17.0889 2.39741 17.0708C2.13745 17.0888 1.87716 17.0406 1.64085 16.9308C1.40454 16.821 1.19989 16.6531 1.04596 16.4429C0.709278 15.8634 0.554731 15.196 0.602409 14.5274V7.50365C0.554397 6.83742 0.706832 6.17207 1.04013 5.59321C1.19542 5.38333 1.40133 5.21617 1.63867 5.10738C1.876 4.99859 2.13704 4.9517 2.39741 4.97105C2.65358 4.95297 2.91012 5.00063 3.14271 5.10951C3.3753 5.21839 3.5762 5.3849 3.72639 5.59321C4.05568 6.17347 4.20598 6.83817 4.15833 7.50365V14.5274Z" fill="#546285"/>
<path d="M0.336256 2.02448C0.333135 1.75707 0.385714 1.49194 0.490681 1.24597C0.595648 0.999999 0.750711 0.778594 0.945945 0.595826C1.13723 0.403365 1.36535 0.251406 1.61667 0.149079C1.86799 0.0467528 2.13735 -0.00387479 2.40867 0.000231174C2.67664 -0.00371903 2.94257 0.0470794 3.19022 0.149485C3.43788 0.25189 3.66206 0.403781 3.84899 0.595826C4.03813 0.782417 4.18842 1.00461 4.29117 1.24962C4.39393 1.49463 4.44708 1.75758 4.44762 2.02327C4.44816 2.28895 4.39607 2.55214 4.29432 2.79757C4.19256 3.043 4.04314 3.26583 3.85477 3.45319C3.66553 3.64281 3.43984 3.79209 3.19129 3.89203C2.94273 3.99196 2.6765 4.04044 2.40867 4.03459C2.13661 4.04153 1.86593 3.99365 1.61277 3.89375C1.35961 3.79386 1.12917 3.64404 0.935146 3.45319C0.741584 3.2697 0.588367 3.04786 0.485256 2.80188C0.382146 2.5559 0.331397 2.29115 0.336256 2.02448Z" fill="#546285"/>
</svg>
