<svg xmlns="http://www.w3.org/2000/svg" width="70" height="70" viewBox="0 0 70 70"><defs><style>.a{fill:#546285;}.b{fill:#fdb436;}</style></defs><path class="a" d="M51.333,35.7l-2.45,2.45a3.359,3.359,0,0,0-1.05,2.45v9.567h7V40.6a3.178,3.178,0,0,0-1.05-2.45ZM52.5,47.833H50.166V40.6a1.059,1.059,0,0,1,.35-.817l.817-.817.817.817a1.059,1.059,0,0,1,.35.817Z"/><path class="a" d="M51.333,52.033l-2.45,2.45a3.359,3.359,0,0,0-1.05,2.45V66.5h7V56.933a3.178,3.178,0,0,0-1.05-2.45ZM52.5,64.166H50.166V56.933a1.059,1.059,0,0,1,.35-.817l.817-.817.817.817a1.059,1.059,0,0,1,.35.817Z"/><rect class="a" width="2.333" height="4.667" transform="translate(14 24.5)"/><rect class="a" width="2.333" height="4.667" transform="translate(53.667 24.5)"/><path class="a" d="M70,26.83V24.5H68.83V22.63a2.256,2.256,0,0,0-.7-1.63L66.5,19.37V17.5H64.17v1.87L62.53,21a2.338,2.338,0,0,0-.7,1.63V24.5H60.67v2.33h1.16v3.5H59.5v-7h1.17V21H60.2a5.718,5.718,0,0,0,.47-1.87v-.46a4.877,4.877,0,0,0-2.57-4.2L56,13.3V10.5H53.67v2.8l-2.1,1.05A4.849,4.849,0,0,0,49,18.55v.47a3.376,3.376,0,0,0,.47,1.86H49v2.34h1.17v7H49v-7H46.67v2.33H44.33V22.87a5.916,5.916,0,0,0,3.5-5.37v-.7a10.579,10.579,0,0,0-4.66-8.75v.12h-.12c-.12-.12-.23-.12-.35-.24L36.17,3.97V0H33.83V3.97L27.3,7.93c-.12.12-.23.12-.35.24h-.12v.11a10.593,10.593,0,0,0-4.66,8.75v.7a5.872,5.872,0,0,0,3.5,5.37v2.57H23.33V23.33H21v7H19.83v-7H21V21h-.47A3.813,3.813,0,0,0,21,19.02v-.47a4.849,4.849,0,0,0-2.57-4.2l-2.1-1.05V10.5H14v2.8l-2.1,1.05a4.756,4.756,0,0,0-2.57,4.2v.47A3.912,3.912,0,0,0,9.8,21H9.33v2.33H10.5v7H8.17v-3.5H9.33V24.5H8.17V22.63A2.338,2.338,0,0,0,7.47,21L5.83,19.37V17.5H3.5v1.87L1.87,21a2.256,2.256,0,0,0-.7,1.63V24.5H0v2.33H1.17V67.67H0V70H70V67.67H68.83V26.83ZM51.33,18.67a2.194,2.194,0,0,1,1.29-2.1l2.21-1.05,2.22,1.05a2.185,2.185,0,0,1,1.28,2.1v.46a3.4,3.4,0,0,1-.23,1.05l-.47.82h-5.6l-.46-.93a2.183,2.183,0,0,1-.24-.94Zm5.84,4.66v7H52.5v-7ZM35,6.07l3.62,2.1H31.5ZM24.5,17.62v-.7a8,8,0,0,1,3.15-6.42h14.7a8.175,8.175,0,0,1,3.15,6.42v.7a3.364,3.364,0,0,1-2.45,3.26H26.95A3.255,3.255,0,0,1,24.5,17.62ZM42,23.33v2.34H28V23.33ZM11.67,18.55a2.185,2.185,0,0,1,1.28-2.1l2.22-1.05,2.21,1.05a2.194,2.194,0,0,1,1.29,2.1v.47a3.207,3.207,0,0,1-.24,1.05l-.46.93h-5.6l-.47-.93a3.468,3.468,0,0,1-.23-1.05Zm5.83,4.78v7H12.83v-7Zm-14-.7,1.17-1.16,1.16,1.16V24.5H3.5Zm0,4.2H5.83v3.5H3.5ZM43.17,67.67H26.83V44.22a5.972,5.972,0,0,1,3.04-5.14L35,36.28l5.13,2.8a5.959,5.959,0,0,1,3.04,5.14Zm23.33,0h-21V44.22a7.94,7.94,0,0,0-4.32-7.12L35,33.72,28.82,37.1a8.068,8.068,0,0,0-4.32,7.12V67.67H3.5v-35H23.33V28H46.67v4.67H66.5Zm0-37.34H64.17v-3.5H66.5Zm0-5.83H64.17V22.63l1.16-1.16,1.17,1.16Z"/><path class="b" d="M38.62,8.17H31.5L35,6.07Z"/><path class="b" d="M45.5,16.92v.7a3.364,3.364,0,0,1-2.45,3.26H26.95a3.255,3.255,0,0,1-2.45-3.26v-.7a8,8,0,0,1,3.15-6.42h14.7A8.175,8.175,0,0,1,45.5,16.92Z"/><path class="a" d="M63.117,38.15l-2.45-2.45-2.45,2.45a3.359,3.359,0,0,0-1.05,2.45v9.567h7V40.6A3.359,3.359,0,0,0,63.117,38.15Zm-1.283,9.683H59.5V40.6a1.059,1.059,0,0,1,.35-.817l.817-.817.817.817a1.059,1.059,0,0,1,.35.817Z"/><path class="a" d="M60.667,52.033l-2.45,2.45a3.359,3.359,0,0,0-1.05,2.45V66.5h7V56.933a3.178,3.178,0,0,0-1.05-2.45Zm1.167,12.133H59.5V56.933a1.059,1.059,0,0,1,.35-.817l.817-.817.817.817a1.059,1.059,0,0,1,.35.817Z"/><path class="a" d="M9.333,35.7l-2.45,2.45a3.359,3.359,0,0,0-1.05,2.45v9.567h7V40.6a3.178,3.178,0,0,0-1.05-2.45ZM10.5,47.833H8.166V40.6a1.059,1.059,0,0,1,.35-.817l.817-.817.817.817a1.059,1.059,0,0,1,.35.817Z"/><path class="a" d="M9.333,52.033l-2.45,2.45a3.359,3.359,0,0,0-1.05,2.45V66.5h7V56.933a3.178,3.178,0,0,0-1.05-2.45ZM10.5,64.166H8.166V56.933a1.059,1.059,0,0,1,.35-.817l.817-.817.817.817a1.059,1.059,0,0,1,.35.817Z"/><path class="a" d="M18.667,35.7l-2.45,2.45a3.359,3.359,0,0,0-1.05,2.45v9.567h7V40.6a3.178,3.178,0,0,0-1.05-2.45Zm1.167,12.133H17.5V40.6a1.059,1.059,0,0,1,.35-.817l.817-.817.817.817a1.059,1.059,0,0,1,.35.817Z"/><path class="a" d="M18.667,52.033l-2.45,2.45a3.359,3.359,0,0,0-1.05,2.45V66.5h7V56.933a3.178,3.178,0,0,0-1.05-2.45Zm1.167,12.133H17.5V56.933a1.059,1.059,0,0,1,.35-.817l.817-.817.817.817a1.059,1.059,0,0,1,.35.817Z"/></svg>