<svg width="139" height="26" viewBox="0 0 139 26" fill="none" xmlns="http://www.w3.org/2000/svg">
<path fill-rule="evenodd" clip-rule="evenodd" d="M50.6903 9.41445C50.6866 9.36696 50.693 9.31923 50.7091 9.2744C50.7253 9.22958 50.7507 9.18868 50.7838 9.15442C50.8169 9.12016 50.8569 9.09332 50.9011 9.07565C50.9454 9.05799 50.9928 9.04992 51.0404 9.05197C51.3704 9.05197 51.8675 9.41445 52.1492 10.1383C52.0482 10.1383 51.8967 10.1697 51.7957 10.1697C51.1908 10.1686 50.6903 9.87457 50.6903 9.41445ZM14.3657 9.41445C14.362 9.36676 14.3685 9.31883 14.3847 9.27384C14.401 9.22885 14.4266 9.18785 14.46 9.15355C14.4933 9.11925 14.5336 9.09245 14.5781 9.07494C14.6226 9.05742 14.6703 9.04959 14.7181 9.05197C15.0391 9.05197 15.5171 9.41445 15.7943 10.1383C14.8629 10.1383 14.3624 9.9318 14.3624 9.41445H14.3657ZM21.3718 5.67067C21.3718 1.79446 22.1013 1.19967 22.328 1.19967C22.7309 1.19967 22.7769 1.46003 22.7769 2.94587C22.7326 4.58567 22.2464 6.18309 21.3696 7.56949L21.3718 5.67067ZM46.8747 9.49525C46.3471 10.2765 46.0729 11.2012 46.0891 12.1437C46.0891 14.3276 47.2922 16.4082 49.6309 16.4082C51.8922 16.4082 53.4757 14.5599 53.4757 11.9821C53.4914 11.593 53.4662 11.2033 53.4005 10.8195C53.8815 10.5827 54.3293 10.2839 54.7326 9.93068C54.9253 9.74128 55.1704 9.6142 55.4362 9.56595C55.6607 9.56595 55.7606 9.74888 55.7606 10.0855V15.185C55.7606 16.0155 56.0142 16.4071 56.6404 16.4071C56.9086 16.39 57.1659 16.2946 57.3804 16.1326C57.5949 15.9706 57.757 15.7492 57.8468 15.4959C58.6784 13.7003 59.8814 11.311 60.4078 10.402C60.5346 10.1933 60.6322 10.0339 60.7085 10.0339C60.8095 10.0339 60.8611 10.1136 60.8611 10.4492V14.5117C60.8611 15.6541 61.365 16.4094 62.4659 16.4094C63.6241 16.4094 64.1987 15.2613 65.2109 13.4915C65.2526 13.412 65.2764 13.3243 65.2805 13.2345C65.2797 13.1839 65.2686 13.1339 65.2479 13.0877C65.2272 13.0415 65.1973 12.9999 65.16 12.9656C65.1228 12.9313 65.0789 12.9049 65.0312 12.888C64.9834 12.8712 64.9327 12.8642 64.8821 12.8676C64.6577 12.8676 64.5286 13.1032 63.7767 13.9595C63.6241 14.1222 63.4771 14.3478 63.1976 14.3478C63.0978 14.3478 63.0214 14.2221 63.0214 14.0639V9.51321C63.0214 8.29109 62.4929 7.79731 61.815 7.79731C61.5032 7.8057 61.1998 7.90006 60.9382 8.06996C60.6766 8.23987 60.467 8.47873 60.3326 8.76019C59.5274 10.0824 58.7899 11.4447 58.1229 12.8418C58.069 12.954 57.9972 13.1055 57.9478 13.1055C57.8984 13.1055 57.8726 13.0247 57.8726 12.8418V9.51321C57.8726 8.55369 57.6212 7.79731 56.6382 7.79731C55.6068 7.79731 55.0805 8.52676 54.3275 9.07105C53.9456 9.37403 53.5339 9.63725 53.0986 9.85661C52.5936 8.53125 51.6655 7.85903 50.8867 7.87923C50.7078 7.87239 50.5294 7.90299 50.3629 7.96907C50.1965 8.03515 50.0457 8.13526 49.9202 8.26298C49.7947 8.3907 49.6973 8.54322 49.6341 8.71078C49.571 8.87833 49.5435 9.05723 49.5535 9.23602C49.5467 9.60903 49.6569 9.9748 49.8686 10.282C50.0804 10.5891 50.383 10.8222 50.7341 10.9486C51.1281 11.0959 51.5486 11.1589 51.9685 11.1337C52.102 11.141 52.2359 11.1312 52.3669 11.1045C52.4038 11.4072 52.4136 11.7125 52.3961 12.0169C52.4315 12.3218 52.4052 12.6307 52.3188 12.9252C52.2325 13.2198 52.0878 13.4939 51.8934 13.7315C51.699 13.969 51.4588 14.165 51.1872 14.3079C50.9156 14.4508 50.618 14.5377 50.3121 14.5633C48.9015 14.5633 48.0755 13.1594 48.0755 11.5489C48.0362 10.4936 48.3625 9.45696 48.9991 8.6143C49.2314 8.35281 49.4042 8.19346 49.4042 7.9533C49.4042 7.8321 49.2314 7.8018 49.0788 7.8018C48.1151 7.86553 47.1789 8.15006 46.3428 8.63337C45.2538 9.26346 44.2409 10.0166 43.3239 10.8778C42.875 9.83529 42.3195 8.92515 42.0423 8.22039C41.9425 7.93422 41.8695 7.60316 41.6686 7.60316C41.4902 7.60316 41.4128 7.78496 41.2904 8.14296C40.3714 10.2411 39.2339 12.2366 37.8968 14.0964C37.8474 14.1705 37.7745 14.2535 37.7498 14.2535C37.6948 14.2535 37.6667 14.2277 37.6667 14.0695V9.51321C37.6667 8.29109 37.1898 7.79731 36.5445 7.79731C36.2319 7.80223 35.927 7.89517 35.6647 8.06548C35.4025 8.23579 35.1936 8.47657 35.062 8.76019C34.2349 10.0631 33.2249 11.9608 32.7491 12.8945C32.6728 13.055 32.5965 13.1044 32.5707 13.1044C32.5448 13.1044 32.5258 13.0011 32.5258 12.8406V9.51321C32.5258 8.29109 32.0466 7.79731 31.3923 7.79731C31.0746 7.79429 30.7629 7.8837 30.4951 8.05466C30.2273 8.22561 30.015 8.47074 29.884 8.76019C28.8314 10.6085 27.0784 13.4422 26.7418 13.9068C26.7061 13.9719 26.6538 14.0265 26.5903 14.065C26.5409 14.065 26.5117 14.0145 26.5117 13.8854V9.50872C26.5117 8.2866 26.0347 7.79282 25.3895 7.79282C24.4838 7.79282 23.9833 8.6547 23.6534 9.19786C23.2045 9.952 22.5985 10.9676 22.1226 11.9058C21.9497 12.3381 21.7112 12.7413 21.4156 13.101C21.3674 13.101 21.3674 12.8653 21.3674 12.4277V8.94872C22.9824 7.16473 23.8927 4.85379 23.9283 2.4476C23.9283 1.04031 23.3279 0.264848 22.4009 0.264848C20.6637 0.264848 19.335 3.07044 19.335 6.399V9.10247C18.5769 9.58606 17.7299 9.91341 16.8436 10.0653C16.3678 8.61205 15.3611 7.85791 14.5599 7.87811C14.3811 7.8716 14.2029 7.90244 14.0367 7.96865C13.8705 8.03486 13.7199 8.135 13.5945 8.26267C13.4692 8.39033 13.3718 8.54273 13.3087 8.71012C13.2455 8.87752 13.218 9.05625 13.2278 9.23489C13.2278 10.6108 14.5352 11.1831 15.6877 11.1831H16.0132C16.0547 11.459 16.0712 11.7381 16.0625 12.0169C16.0981 12.3216 16.072 12.6303 15.9859 12.9247C15.8998 13.219 15.7555 13.4931 15.5614 13.7307C15.3673 13.9682 15.1275 14.1643 14.8562 14.3073C14.5848 14.4503 14.2875 14.5374 13.9819 14.5633C12.5757 14.5633 11.7453 13.1594 11.7453 11.5489C11.7048 10.4929 12.0325 9.45552 12.6723 8.6143C12.8681 8.43751 13.0087 8.20801 13.0774 7.9533C13.0774 7.8321 12.9001 7.8018 12.7475 7.8018C11.7935 7.8018 9.68599 9.13277 7.17105 11.7296C6.90707 9.70992 6.74937 7.67774 6.69859 5.64149C6.71895 4.086 6.89414 2.5364 7.22155 1.01562C7.26389 0.784581 7.29125 0.551043 7.30348 0.316471C7.30348 0.106613 7.19125 0 6.92528 0C4.8873 0 0.414062 3.35549 0.414062 8.37302C0.414062 11.9316 1.67321 13.6475 3.85484 15.8583C2.45661 18.0061 1.63494 20.4777 1.46897 23.035C1.46897 24.7184 1.8494 26 3.05244 26C5.56625 26 7.44825 20.5953 7.44825 16.5889C7.44825 15.3937 7.40224 14.1963 7.30348 12.9978C8.11173 12.0609 9.01975 11.2149 10.0114 10.475C9.85566 11.0153 9.77152 11.5737 9.76118 12.1359C9.76118 14.3198 10.9698 16.4004 13.303 16.4004C15.4924 16.4004 17.1477 14.5521 17.1477 11.9743C17.1477 11.6376 17.1219 11.3526 17.0995 11.0417C17.8885 10.9154 18.6471 10.6429 19.3361 10.2382V15.4633C19.3235 15.5843 19.337 15.7066 19.3757 15.8219C19.4145 15.9372 19.4775 16.0429 19.5606 16.1317C19.6437 16.2206 19.7449 16.2906 19.8574 16.3369C19.9699 16.3832 20.091 16.4049 20.2126 16.4004C20.7939 16.4004 21.0947 15.9818 21.5177 15.0245C21.8735 14.239 22.8251 12.4434 23.402 11.3795C23.8576 10.5445 24.109 10.0036 24.311 10.0036C24.3581 10.0036 24.412 10.1304 24.412 10.4435V14.891C24.412 16.0873 25.0146 16.4015 25.5342 16.4015C25.7764 16.3876 26.0107 16.3105 26.2138 16.178C26.417 16.0455 26.582 15.8622 26.6924 15.6462C27.9998 13.7205 29.3857 11.4356 29.9323 10.4435C30.0344 10.2662 30.1567 10.1316 30.26 10.1316C30.3632 10.1316 30.4092 10.1877 30.4092 10.521V15.1783C30.4092 16.0087 30.6606 16.4004 31.2913 16.4004C31.5555 16.3824 31.8084 16.2861 32.0176 16.1238C32.2269 15.9615 32.3831 15.7405 32.4663 15.4891C33.3012 13.6935 34.529 11.3279 35.0587 10.3953C35.181 10.1866 35.3078 10.0036 35.383 10.0036C35.4874 10.0036 35.5109 10.1304 35.5109 10.4705V14.8898C35.5109 16.0862 36.1136 16.4004 36.6455 16.4004C37.3424 16.4004 37.8003 15.8774 38.2514 15.2781C39.0751 14.1559 40.2827 12.1617 41.0121 10.8812C41.2991 11.3486 41.5519 11.8362 41.7685 12.3401C41.1005 13.0244 40.6758 13.9092 40.5599 14.8584C40.5425 15.0477 40.5636 15.2385 40.6218 15.4194C40.6799 15.6003 40.774 15.7676 40.8984 15.9112C41.0228 16.0549 41.1749 16.172 41.3456 16.2555C41.5164 16.3389 41.7022 16.3871 41.892 16.397C42.544 16.3213 43.1404 15.9929 43.5531 15.4825C43.9658 14.972 44.1619 14.3201 44.0994 13.6666C44.0755 13.0165 43.9412 12.3751 43.7021 11.77C44.5728 10.7803 45.6579 10.0022 46.8747 9.49525ZM5.4877 15.1592C5.69948 16.4143 5.8262 17.6824 5.86701 18.9546C5.86701 21.446 5.06574 24.3593 3.68202 24.3357C3.14783 24.3357 2.69894 23.7836 2.672 22.8263C2.72935 20.0299 3.7165 17.3322 5.4776 15.1592H5.4877ZM42.1692 13.3872C42.3093 13.7627 42.3852 14.1592 42.3936 14.5599C42.3936 14.9763 42.2421 15.3937 41.9638 15.3937C41.7663 15.3937 41.5643 15.1592 41.5643 14.7945C41.6463 14.2825 41.8542 13.799 42.1692 13.3872ZM6.39447 0.988691C6.39447 1.14693 6.04208 1.87301 5.59207 3.17481C4.96855 4.9711 4.65324 6.85989 4.65949 8.76131C4.7519 10.4561 4.95508 12.1431 5.26774 13.8114L4.4631 14.9336C2.98 13.0801 2.23669 10.7427 2.37686 8.37302C2.37686 3.95477 4.96361 0.888812 6.29346 0.888812C6.37314 0.888812 6.39559 0.911257 6.39559 0.987569L6.39447 0.988691Z" fill="#546285"/>
<path fill-rule="evenodd" clip-rule="evenodd" d="M124.368 9.41445C124.364 9.36696 124.371 9.31923 124.387 9.2744C124.403 9.22958 124.428 9.18868 124.462 9.15442C124.495 9.12016 124.535 9.09332 124.579 9.07565C124.623 9.05799 124.671 9.04992 124.718 9.05197C125.042 9.05197 125.545 9.41445 125.821 10.1383C125.724 10.1383 125.573 10.1697 125.468 10.1697C124.87 10.1686 124.368 9.87457 124.368 9.41445ZM88.0367 9.41445C88.033 9.36676 88.0394 9.31883 88.0557 9.27384C88.0719 9.22885 88.0976 9.18785 88.1309 9.15355C88.1643 9.11925 88.2045 9.09245 88.2491 9.07494C88.2936 9.05742 88.3413 9.04959 88.3891 9.05197C88.7156 9.05197 89.1982 9.41445 89.4687 10.1383C88.5383 10.1383 88.0356 9.9318 88.0356 9.41445H88.0367ZM95.0473 5.67067C95.0473 1.79446 95.7723 1.19967 96.0012 1.19967C96.4019 1.19967 96.4501 1.46003 96.4501 2.94587C96.4053 4.58542 95.9195 6.1826 95.0439 7.56949L95.0473 5.67067ZM79.171 15.1592C79.3784 16.4149 79.5047 17.6827 79.5492 18.9546C79.5492 21.446 78.7468 24.3593 77.3609 24.3357C76.8345 24.3357 76.3823 23.7836 76.3564 22.8263C76.415 20.0285 77.4055 17.3303 79.171 15.1592ZM115.852 13.3872C115.993 13.7626 116.069 14.1591 116.077 14.5599C116.077 14.9763 115.927 15.3937 115.65 15.3937C115.452 15.3937 115.245 15.1592 115.245 14.7945C115.327 14.2822 115.535 13.7984 115.851 13.3872H115.852ZM80.0699 0.988691C80.0699 1.14693 79.722 1.87301 79.2664 3.17481C78.646 4.9718 78.3319 6.86024 78.3372 8.76131C78.4319 10.456 78.6355 12.1428 78.9466 13.8114L78.1397 14.9336C76.6591 13.0809 75.9157 10.7463 76.0523 8.37862C76.0523 3.96038 78.6447 0.894424 79.9745 0.894424C80.0475 0.894424 80.0699 0.916868 80.0699 0.99318V0.988691ZM75.8806 13.9842C76.3809 14.6522 76.9349 15.2783 77.537 15.8561C76.1348 18.0015 75.3124 20.4738 75.15 23.0317C75.15 24.715 75.5294 25.9966 76.7358 25.9966C79.2451 25.9966 81.1282 20.5919 81.1282 16.5855C81.1282 15.3904 81.0788 14.1929 80.9789 12.9944C81.7884 12.0563 82.6988 11.2102 83.6936 10.4716C83.5352 11.0115 83.4491 11.57 83.4378 12.1325C83.4378 14.3164 84.6453 16.397 86.984 16.397C89.1679 16.397 90.8255 14.5487 90.8255 11.9709C90.8255 11.6342 90.8019 11.3492 90.7749 11.0383C91.5647 10.9133 92.3238 10.6407 93.0127 10.2348V15.4599C93.0001 15.5807 93.0136 15.7028 93.0522 15.818C93.0908 15.9332 93.1536 16.0387 93.2365 16.1275C93.3193 16.2163 93.4202 16.2863 93.5325 16.3328C93.6447 16.3793 93.7655 16.4012 93.8869 16.397C94.4727 16.397 94.7735 15.9784 95.1988 15.0211C95.5489 14.2356 96.5062 12.44 97.0853 11.3761C97.5342 10.5412 97.7878 10.0003 97.9932 10.0003C98.0403 10.0003 98.0874 10.1271 98.0874 10.4402V14.8876C98.0874 16.0839 98.689 16.3981 99.2175 16.3981C99.46 16.3838 99.6946 16.3066 99.8982 16.1742C100.102 16.0418 100.268 15.8587 100.379 15.6429C101.682 13.7171 103.066 11.4322 103.617 10.4402C103.718 10.2629 103.841 10.1282 103.942 10.1282C104.043 10.1282 104.096 10.1843 104.096 10.5176V15.1749C104.096 16.0054 104.344 16.397 104.971 16.397C105.236 16.3787 105.49 16.2825 105.701 16.1203C105.911 15.9582 106.069 15.7374 106.154 15.4858C106.983 13.6902 108.213 11.3245 108.735 10.3919C108.863 10.1832 108.989 10.0003 109.072 10.0003C109.17 10.0003 109.198 10.1271 109.198 10.4671V14.8865C109.198 16.0828 109.796 16.397 110.32 16.397C111.028 16.397 111.481 15.8741 111.93 15.2748C112.758 14.1525 113.968 12.1583 114.695 10.8778C114.981 11.3459 115.234 11.8334 115.452 12.3368C114.782 13.0198 114.358 13.9054 114.245 14.8551C114.225 15.0452 114.244 15.2375 114.301 15.4201C114.358 15.6027 114.451 15.7718 114.575 15.9172C114.699 16.0625 114.852 16.181 115.024 16.2655C115.195 16.3499 115.382 16.3985 115.573 16.4082C116.225 16.3325 116.821 16.0042 117.234 15.4937C117.647 14.9832 117.843 14.3313 117.78 13.6778C117.756 13.0274 117.621 12.3859 117.38 11.7812C118.249 10.7903 119.331 10.0088 120.545 9.49525C120.022 10.2784 119.75 11.2023 119.766 12.1437C119.766 14.3276 120.973 16.4082 123.31 16.4082C125.571 16.4082 127.15 14.5599 127.15 11.9821C127.166 11.5932 127.143 11.2036 127.079 10.8195C127.56 10.5812 128.008 10.2825 128.413 9.93068C128.604 9.74226 128.847 9.61525 129.111 9.56595C129.335 9.56595 129.447 9.74888 129.447 10.0855V15.1861C129.447 16.0166 129.695 16.4082 130.323 16.4082C130.591 16.3908 130.848 16.2952 131.063 16.1333C131.277 15.9714 131.44 15.7502 131.53 15.497C132.354 13.7014 133.562 11.3122 134.088 10.4031C134.213 10.1944 134.312 10.035 134.392 10.035C134.494 10.035 134.543 10.1147 134.543 10.4503V14.5117C134.543 15.6541 135.042 16.4094 136.149 16.4094C137.309 16.4094 137.885 15.2613 138.892 13.4915C138.933 13.4118 138.958 13.3242 138.963 13.2345C138.961 13.1839 138.95 13.134 138.929 13.0879C138.908 13.0418 138.877 13.0004 138.84 12.9662C138.803 12.932 138.759 12.9056 138.711 12.8887C138.663 12.8717 138.613 12.8645 138.562 12.8676C138.338 12.8676 138.21 13.1032 137.458 13.9595C137.309 14.1222 137.156 14.3478 136.881 14.3478C136.778 14.3478 136.706 14.2221 136.706 14.0639V9.51321C136.706 8.29109 136.172 7.79731 135.494 7.79731C135.183 7.80631 134.88 7.90096 134.619 8.07083C134.358 8.2407 134.149 8.47922 134.015 8.76019C133.209 10.0816 132.473 11.4439 131.808 12.8418C131.753 12.954 131.68 13.1055 131.628 13.1055C131.575 13.1055 131.555 13.0247 131.555 12.8418V9.51321C131.555 8.55369 131.303 7.79731 130.32 7.79731C129.288 7.79731 128.763 8.52676 128.01 9.07105C127.626 9.37424 127.212 9.63746 126.775 9.85661C126.277 8.53125 125.344 7.85903 124.57 7.87923C124.391 7.87236 124.213 7.90296 124.047 7.96906C123.88 8.03517 123.73 8.13531 123.604 8.26307C123.479 8.39083 123.382 8.54338 123.319 8.71094C123.256 8.87849 123.229 9.05734 123.239 9.23602C123.232 9.60839 123.341 9.97373 123.552 10.2808C123.762 10.588 124.064 10.8214 124.414 10.9486C124.808 11.0953 125.229 11.1583 125.648 11.1337C125.782 11.1403 125.916 11.1305 126.048 11.1045C126.081 11.4075 126.088 11.7127 126.072 12.0169C126.107 12.3221 126.08 12.6313 125.994 12.926C125.907 13.2208 125.762 13.4951 125.567 13.7327C125.372 13.9702 125.131 14.1662 124.859 14.3088C124.587 14.4515 124.289 14.5381 123.983 14.5633C122.577 14.5633 121.751 13.1594 121.751 11.5489C121.711 10.4933 122.038 9.45647 122.676 8.6143C122.9 8.35281 123.082 8.19346 123.082 7.9533C123.082 7.8321 122.905 7.8018 122.754 7.8018C121.79 7.8667 120.853 8.15113 120.016 8.63337C118.929 9.26335 117.918 10.0165 117.003 10.8778C116.554 9.83529 115.999 8.92515 115.72 8.22039C115.617 7.93422 115.548 7.60316 115.34 7.60316C115.166 7.60316 115.089 7.78496 114.966 8.14296C114.048 10.2403 112.912 12.2357 111.578 14.0964C111.527 14.1705 111.452 14.2535 111.425 14.2535C111.378 14.2535 111.35 14.2277 111.35 14.0695V9.51321C111.35 8.29109 110.876 7.79731 110.217 7.79731C109.904 7.80317 109.6 7.89652 109.339 8.06675C109.077 8.23697 108.868 8.47723 108.736 8.76019C107.906 10.0631 106.904 11.9608 106.427 12.8945C106.353 13.055 106.279 13.1044 106.255 13.1044C106.232 13.1044 106.2 13.0011 106.2 12.8406V9.51321C106.2 8.29109 105.727 7.79731 105.078 7.79731C104.76 7.79343 104.448 7.8825 104.18 8.05355C103.912 8.22461 103.7 8.47021 103.57 8.76019C102.511 10.6085 100.755 13.4422 100.427 13.9068C100.395 13.974 100.342 14.0294 100.276 14.065C100.231 14.065 100.202 14.0145 100.202 13.8854V9.50872C100.202 8.2866 99.7259 7.79282 99.0705 7.79282C98.1638 7.79282 97.6644 8.6547 97.3356 9.19786C96.8867 9.952 96.284 10.9676 95.8048 11.9058C95.6336 12.338 95.3966 12.7412 95.1023 13.101C95.0518 13.101 95.0518 12.8653 95.0518 12.4277V8.94872C96.6692 7.16617 97.5798 4.85431 97.6127 2.4476C97.6127 1.04031 97.0112 0.264848 96.0786 0.264848C94.3482 0.264848 93.0172 3.07044 93.0172 6.399V9.10247C92.259 9.58589 91.412 9.91324 90.5258 10.0653C90.0522 8.61205 89.0456 7.85791 88.2477 7.87811C88.0686 7.87111 87.8901 7.90159 87.7236 7.9676C87.557 8.03361 87.4061 8.13369 87.2805 8.26143C87.1548 8.38916 87.0573 8.54174 86.9941 8.70938C86.9308 8.87701 86.9033 9.05601 86.9133 9.23489C86.9133 10.6108 88.2162 11.1831 89.3744 11.1831H89.7032C89.7422 11.4592 89.7576 11.7382 89.7492 12.0169C89.7849 12.3219 89.7589 12.6309 89.6726 12.9255C89.5864 13.2202 89.4417 13.4945 89.2473 13.7321C89.0528 13.9697 88.8126 14.1657 88.5408 14.3085C88.269 14.4513 87.9712 14.538 87.6652 14.5633C86.2579 14.5633 85.4331 13.1594 85.4331 11.5489C85.3942 10.4934 85.7209 9.45686 86.3578 8.6143C86.5523 8.43678 86.692 8.20747 86.7607 7.9533C86.7607 7.8321 86.5834 7.8018 86.4341 7.8018C85.478 7.8018 83.3693 9.13277 80.8544 11.7296C80.5905 9.71024 80.4321 7.67848 80.3797 5.64261C80.3969 4.08692 80.5698 2.53686 80.8959 1.01562C80.9369 0.78451 80.9628 0.550961 80.9733 0.316471C80.9733 0.106613 80.8712 0 80.5996 0C78.5639 0 74.0906 3.35549 74.0906 8.37302C74.0271 10.0466 74.4363 11.7042 75.2712 13.156C75.0377 13.1165 74.801 13.0996 74.5642 13.1055C73.8789 13.1313 73.1988 13.236 72.5375 13.4175V12.8956C72.5881 11.7946 72.3436 10.7001 71.8293 9.72531C71.7757 9.67478 71.7044 9.64737 71.6307 9.649C71.37 9.67367 71.1194 9.76233 70.9012 9.90711C70.596 10.0642 70.2952 10.2213 70.2952 10.3223C70.295 10.4055 70.3213 10.4865 70.3704 10.5535C70.8294 11.1318 71.1164 11.8275 71.1986 12.5612C70.803 12.137 70.3204 11.8032 69.7839 11.5826C69.2474 11.362 68.6697 11.2598 68.09 11.283C66.5795 11.283 66.125 11.9821 66.125 12.6891C66.125 14.0358 67.8589 14.7159 70.0528 14.7159C70.4923 14.7034 70.9289 14.6417 71.3546 14.5319C71.3546 14.9482 71.4051 15.3174 71.4051 15.6272C71.4051 16.0693 71.4781 16.4127 71.7575 16.4127C72.1828 16.4127 72.4309 15.525 72.4847 14.2535C73.2206 14.0306 73.9813 13.8998 74.7494 13.8641C75.1293 13.8706 75.5076 13.913 75.8795 13.9909L75.8806 13.9842ZM70.9315 13.7238C70.5569 13.7674 70.1796 13.7846 69.8026 13.7755C68.8195 13.7755 68.0956 13.3838 68.0956 12.8171C68.0956 12.4535 68.2696 12.2425 68.769 12.2425C69.5748 12.2425 70.2279 12.8171 70.9282 13.7238H70.9315Z" fill="#546285"/>
</svg>
