<svg xmlns="http://www.w3.org/2000/svg" width="70.002" height="70" viewBox="0 0 70.002 70"><defs><style>.a{fill:#f1553f;stroke:rgba(0,0,0,0);stroke-miterlimit:10;}.b{fill:#546285;}</style></defs><g transform="translate(-16.001 -16)"><ellipse class="a" cx="4" cy="17" rx="4" ry="17" transform="translate(62.002 34)"/><ellipse class="a" cx="4" cy="17" rx="4" ry="17" transform="translate(32.002 34)"/><path class="b" d="M85.655,80.505,69.641,64.491a39.806,39.806,0,0,0,0-26.986l6.416-6.416,6.632-1.106a1.167,1.167,0,0,0,.951-.922l2.333-11.666A1.167,1.167,0,0,0,84.6,16.023L72.931,18.356a1.167,1.167,0,0,0-.922.951L70.9,25.939l-4.622,4.631A42.93,42.93,0,0,0,51.537,16.13c-.016-.008-.036,0-.052-.013a.684.684,0,0,0-.1-.024,1.141,1.141,0,0,0-.768,0c-.034.012-.069.01-.1.024s-.036,0-.052.013a42.93,42.93,0,0,0-14.745,14.44l-4.631-4.631-1.106-6.632a1.167,1.167,0,0,0-.922-.951L17.391,16.023A1.167,1.167,0,0,0,16.024,17.4l2.333,11.666a1.167,1.167,0,0,0,.951.922l6.632,1.106,6.416,6.416a39.806,39.806,0,0,0,0,26.986L16.342,80.505a1.167,1.167,0,0,0,0,1.65l3.5,3.5a1.167,1.167,0,0,0,1.65,0L35.725,71.422A42.931,42.931,0,0,0,50.461,85.866a1.167,1.167,0,0,0,1.076,0,42.93,42.93,0,0,0,14.745-14.44L80.514,85.658a1.167,1.167,0,0,0,1.65,0l3.5-3.5a1.167,1.167,0,0,0,0-1.65Zm-7.141-3.842-1.85,1.85L73.648,75.5l1.85-1.85ZM65.86,67.384A34.321,34.321,0,0,1,62.9,55.835a5.8,5.8,0,0,0,6.446.043A35.854,35.854,0,0,1,65.86,67.384ZM69.35,46.122a5.8,5.8,0,0,0-6.447.043A34.3,34.3,0,0,1,65.865,34.6,35.885,35.885,0,0,1,69.35,46.122ZM69.665,51a3.5,3.5,0,1,1-3.5-3.5A3.5,3.5,0,0,1,69.665,51Zm4.518-30.513,9.16-1.832-1.832,9.16-5.614.933-.5-.5,4.425-4.425-1.65-1.647L73.748,26.6l-.5-.5ZM72,28.149,73.848,30l-5.156,5.156c-.381-.86-.789-1.688-1.213-2.486ZM51,56.831a5.749,5.749,0,0,0,2.567-.624A42.637,42.637,0,0,1,51,62.514a42.524,42.524,0,0,1-2.574-6.308A5.763,5.763,0,0,0,51,56.831ZM47.5,51A3.5,3.5,0,1,1,51,54.5,3.5,3.5,0,0,1,47.5,51ZM51,45.165a5.749,5.749,0,0,0-2.567.624A42.637,42.637,0,0,1,51,39.482a42.527,42.527,0,0,1,2.574,6.308A5.763,5.763,0,0,0,51,45.165Zm0-11.514c-.7,0-2.333-2.605-2.333-7.659A12.981,12.981,0,0,1,51,19.118a12.981,12.981,0,0,1,2.333,6.874c0,5.057-1.633,7.659-2.333,7.659ZM32.648,55.874a5.8,5.8,0,0,0,6.447-.043,34.3,34.3,0,0,1-2.962,11.563A35.885,35.885,0,0,1,32.648,55.874ZM32.333,51a3.5,3.5,0,1,1,3.5,3.5A3.5,3.5,0,0,1,32.333,51Zm3.5-5.833a5.789,5.789,0,0,0-3.184.957,35.859,35.859,0,0,1,3.488-11.51,34.32,34.32,0,0,1,2.957,11.549A5.8,5.8,0,0,0,35.833,45.165ZM18.655,18.654l9.16,1.832.933,5.614-.5.5-4.423-4.425-1.65,1.65L26.6,28.249l-.5.5-5.614-.933ZM28.15,30,30,28.149l4.519,4.521c-.425.8-.832,1.626-1.213,2.486ZM25.333,78.514l-1.85-1.85L26.5,73.647l1.85,1.85ZM20.667,83.18l-1.85-1.85,3.017-3.017,1.85,1.85ZM30,73.847,28.15,72l5.156-5.156c.381.86.789,1.688,1.213,2.486Zm21,8.9A12.581,12.581,0,0,1,48.666,76C48.666,71.051,50.3,68.5,51,68.5S53.332,71.051,53.332,76A12.59,12.59,0,0,1,51,82.749ZM54.6,81A13,13,0,0,0,55.665,76c0-4.89-1.6-9.84-4.666-9.84s-4.666,4.95-4.666,9.84a13.009,13.009,0,0,0,1.074,5.006,40.916,40.916,0,0,1-9.95-11.187C40.1,65.489,41.666,58.538,41.666,51s-1.563-14.479-4.2-18.815a41.062,41.062,0,0,1,9.892-11.147,13.328,13.328,0,0,0-1.025,4.956c0,4.745,1.466,9.532,4.269,9.951a1.063,1.063,0,0,0-.609.467c-.2.338-4.826,8.331-4.826,14.588s4.629,14.25,4.826,14.583a1.167,1.167,0,0,0,2.014,0c.2-.332,4.826-8.325,4.826-14.583S52.2,36.748,52.006,36.415a1.063,1.063,0,0,0-.609-.467c2.8-.419,4.269-5.207,4.269-9.951a13.345,13.345,0,0,0-1.028-4.97,40.919,40.919,0,0,1,9.9,11.15C61.9,36.508,60.332,43.458,60.332,51s1.563,14.479,4.2,18.815A41.1,41.1,0,0,1,54.6,81Zm14.1-14.158L73.848,72,72,73.847l-4.519-4.521C67.9,68.529,68.31,67.7,68.692,66.841ZM81.331,83.18l-3.017-3.017,1.85-1.85,3.017,3.017Z"/></g></svg>