<svg height="70" viewBox="0 0 70 70" width="70" xmlns="http://www.w3.org/2000/svg"><g transform="translate(.01)"><path d="m66.568 67.68v-12.14l2.032.46.537-2.28-2.586-.66v-.73c0-3.78.01-7.55-.02-11.32a4.014 4.014 0 0 1 .517-2.08c.4-.71.726-1.46 1.1-2.24l-15.508-6v-3.87h2.23v-2.37h-2.308v-2.27h-2.328v2.33h-2.258v2.35h2.238v3.87l-11.558 4.83c0-.65.03-1.19 0-1.72a2.983 2.983 0 0 1 .388-1.67c.438-.78.806-1.6 1.233-2.46l-3.939-1.56v-.65c0-3.28.02-6.57-.01-9.85a3.923 3.923 0 0 1 .477-2.01c.4-.72.736-1.46 1.114-2.23l-13.15-6.01v-2.78h2.238v-2.34h-2.3v-2.28h-2.365v2.32h-2.248v2.35h2.238v2.73l-13.161 6.02c.468.94.905 1.78 1.293 2.64a3.2 3.2 0 0 1 .279 1.18c.02 3.43.01 6.86.01 10.29 0 .21-.03.42-.04.65l-3.9 1.52a20.6 20.6 0 0 0 1.074 2.15c.716 1.13.527 2.33.5 3.53l-5.781 2.33v6.1l-2.616 1.01c.448 1.34.875 2.6 1.273 3.87a3.951 3.951 0 0 1 .179 1.07v17.89l-1.094.09v2.26h69.642v-2.32zm-15.14-33.78 2.586 4.56h-5.172zm-12.728 7.78v-.77h25.431v11.6l-18.124-4.34 1.084-3.37zm.517-3.76c2.566-1.08 5.123-2.15 7.689-3.22a9.035 9.035 0 0 1 1.681-.58l-2.457 4.33h-7.43l-.07-.16a3.618 3.618 0 0 1 .583-.37zm-2.278-6.97a2.176 2.176 0 0 1 -.04.25 1.352 1.352 0 0 1 -.149.26h-7.893l-2.526-4.46.06-.12zm-14.547-11.09v3.81l-9.271 3.58v-9.69h20.839v9.69l-9.221-3.56v-3.83zm1.154 7.03 2.6 4.58h-5.197zm12.712 7.01v6.88c-.826-.3-1.611-.58-2.407-.88-3.223-1.2-6.436-2.38-9.649-3.6a1.78 1.78 0 0 0 -1.323.02q-5.685 2.115-11.36 4.22c-.219.08-.448.14-.706.22l-.013-6.86zm-9.688-23.06 8.157 3.72-.308.56h-5.552l-2.367-4.17zm-3.024-.3 2.606 4.58h-5.193zm-3.024.3.09.09-2.378 4.17h-5.581l-.279-.54zm.169 16.04.09.09-2.547 4.49h-7.869l-.279-.49zm-15.678 12.43 3.387-1.36v3.74l-3.387 1.26zm13.927 28.35c-.01-.2-.03-.36-.03-.53 0-2.55-.01-5.1.01-7.66a4.614 4.614 0 0 1 9-1.4 3.472 3.472 0 0 1 .229 1.14c.02 2.79.02 5.59.02 8.45zm24.3-.01h-12.711v-.8c0-2.43.01-4.87 0-7.3a6.971 6.971 0 0 0 -13.668-2.01 7.791 7.791 0 0 0 -.288 2.09c-.03 2.38-.01 4.77-.01 7.15v.86h-12.694v-17.39h39.372zm.368-19.84h-40.126l-.517-1.56c.776-.29 1.512-.58 2.258-.85q8.848-3.285 17.687-6.56a1.567 1.567 0 0 1 1.184-.04q9.729 3.615 19.457 7.21c.179.07.348.16.577.26zm13.61 19.86h-3.363a1.161 1.161 0 0 1 -.08-.32c-.01-2.38-.02-4.76 0-7.15a1.856 1.856 0 0 1 .139-.77 1.718 1.718 0 0 1 2.258-.89 1.632 1.632 0 0 1 1.044 1.54c.011 2.5.002 5.01.002 7.59zm6.943 0h-4.586v-.81c0-2.24.01-4.47 0-6.71a4.079 4.079 0 0 0 -8.107-.69 5.894 5.894 0 0 0 -.05.94v7.25h-5.74v-17.11l18.482 4.42zm.439-29.19h-7.84l-2.566-4.5.09-.1 10.6 4.1z" fill="#546285"/><path d="m65.173 37.98-.288.5h-7.839l-2.566-4.5.09-.1z" fill="#f1553f" transform="translate(-.287)"/><path d="m54.273 38.46h-5.173l2.586-4.56z" fill="#f1553f" transform="translate(-.258)"/><path d="m48.787 34.12-2.457 4.33h-7.43l-.07-.16a3.618 3.618 0 0 1 .587-.37c2.566-1.08 5.123-2.15 7.689-3.22a9.035 9.035 0 0 1 1.681-.58z" fill="#f1553f" transform="translate(-.204)"/><path d="m34.866 14.56-.308.56h-5.55l-2.368-4.17.07-.11z" fill="#f1553f" transform="translate(-.14)"/><path d="m26.263 15.12h-5.193l2.586-4.58z" fill="#f1553f" transform="translate(-.111)"/><path d="m20.676 10.93-2.376 4.17h-5.582l-.278-.54 8.147-3.72z" fill="#f1553f" transform="translate(-.065)"/><g fill="#546285"><path d="m14.243 64.188h-8.067c-.016-.271-.042-.507-.042-.743 0-2.284-.02-4.569.011-6.853a3.9 3.9 0 0 1 2.319-3.664 3.841 3.841 0 0 1 4.234.44 3.731 3.731 0 0 1 1.581 2.986c.043 2.5.017 5.006.017 7.509a2.569 2.569 0 0 1 -.053.325zm-2.319-2.366c0-1.838.038-3.631-.016-5.421a1.662 1.662 0 0 0 -1.669-1.518 1.744 1.744 0 0 0 -1.731 1.466 2.664 2.664 0 0 0 -.023.436v4.515c0 .163.029.326.048.519z" transform="translate(-.032)"/><path d="m41.086 64.185h-8.086v-2.5c0-1.725-.018-3.45.012-5.175a4.066 4.066 0 0 1 7.447-2.2 3.645 3.645 0 0 1 .688 2.041c.018 2.526.01 5.053.008 7.58a1.122 1.122 0 0 1 -.069.254zm-2.3-2.359c0-1.842.027-3.635-.014-5.427a1.529 1.529 0 0 0 -1.037-1.38 1.706 1.706 0 0 0 -2.241.912 1.725 1.725 0 0 0 -.135.714c-.032 1.336-.008 2.674-.009 4.011v1.171z" transform="translate(-.174)"/><path d="m59.9 43.2h2.271v5.833h-2.271z" transform="translate(-.315)"/><path d="m57.493 47.845h-2.253v-4.624h2.253z" transform="translate(-.291)"/><path d="m15.506 23.283v-3.42h2.272v3.42z" transform="translate(-.082)"/><path d="m29.531 23.279v-3.43h2.279v3.43z" transform="translate(-.155)"/></g></g></svg>