<svg height="70" viewBox="0 0 70 70" width="70" xmlns="http://www.w3.org/2000/svg"><g fill="#546285"><path d="m5.833 31.5h2.333v5.833h-2.333z"/><path d="m10.5 31.5h2.333v5.833h-2.333z"/><path d="m15.167 31.5h2.333v5.833h-2.333z"/><path d="m70 29.65v-3.98h-1.57l-1.04-2.34h.28v-2.33h-1.32l-2.07-4.67h1.05v-2.33h-2.1l-3.73-8.42v-5.58h-2.33v5.58l-3.74 8.42h-2.1v2.33h1.05l-2.07 4.67h-1.31v2.33h.28l-1.04 2.34h-1.57v3.98l.68.68h-8.62l-2.56-3.85v-6.65h-2.34v6.65l-2.56 3.85h-8.62l.68-.68v-3.98h-1.57l-1.04-2.34h.28v-2.33h-1.31l-2.07-4.67h1.05v-2.33h-2.1l-3.74-8.42v-5.58h-2.33v5.58l-3.73 8.42h-2.1v2.33h1.05l-2.07 4.67h-1.32v2.33h.28l-1.03 2.34h-1.58v3.98l1.17 1.16v36.86h-1.17v2.33h70v-2.33h-1.17v-36.86zm-51.83-6.32 1.04 2.34h-4.04v-2.34zm-6.5-14.62 2.34 5.29h-4.7zm-3.38 7.62h6.78l2.06 4.67h-2.65l-2.81-2.81-2.82 2.81h-2.65zm4.55 6.32v3.02h-2.34v-3.02l1.17-1.17zm-7.67.68h3v2.34h-4.04zm5.33 44.34v-3.5a1.166 1.166 0 0 1 2.33-.07v.07l.01 3.5zm4.67 0v-3.5a3.5 3.5 0 1 0 -7 0v3.5h-4.67v-9.34h16.33l.01 9.34zm-3.5-23.34a5.84 5.84 0 0 0 -5.84 5.84v5.83h-2.33v-14h16.33v14h-2.33v-5.83a5.838 5.838 0 0 0 -5.83-5.84zm1.16 5.84v-3.3a3.493 3.493 0 0 1 2.34 3.3zm2.34 2.33v3.5h-2.34v-3.5zm-7-2.33a3.471 3.471 0 0 1 2.33-3.3v3.3zm2.33 2.33v3.5h-2.33v-3.5zm10.5-23.81-1.17 1.16v9.82h-16.33v-9.82l-1.17-1.16v-.69h18.67zm14 .24 7.16 10.74h-14.31zm-10.5 38.74h-2.33v-9.34h2.33zm0-11.67h-2.33v-14h2.33zm-2.33-16.33v-7h7.54l-4.67 7zm14 28h-2.34v-3.5a1.171 1.171 0 0 1 2.34-.07zm7 0h-4.67v-3.5a3.5 3.5 0 0 0 -7 0v3.5h-4.67v-9.34h16.34zm-9.34-15.17v3.5h-2.33v-3.5zm-2.33-2.33a3.484 3.484 0 0 1 2.33-3.3v3.3zm7 2.33v3.5h-2.33v-3.5zm-2.33-2.33v-3.3a3.484 3.484 0 0 1 2.33 3.3zm7 5.83h-2.34v-5.83a5.83 5.83 0 1 0 -11.66 0v5.83h-2.34v-14h16.34zm4.66 11.67h-2.33v-9.34h2.33zm0-11.67h-2.33v-14h2.33zm0-16.33h-2.87l-4.67-7h7.54zm17-16.34 1.04 2.34h-4.04v-2.34zm-6.5-14.62 2.35 5.29h-4.71zm-3.38 7.62h6.78l2.07 4.67h-2.65l-2.82-2.81-2.81 2.81h-2.66zm4.55 6.32v3.02h-2.33v-3.02l1.16-1.17zm-7.67.68h3v2.34h-4.04zm7.67 44.34h-2.33v-3.5a1.166 1.166 0 0 1 2.33-.07zm7 0h-4.67v-3.5a3.5 3.5 0 0 0 -7 0v3.5h-4.66v-9.34h16.33zm-9.33-15.17v3.5h-2.34v-3.5zm-2.34-2.33a3.493 3.493 0 0 1 2.34-3.3v3.3zm7 2.33v3.5h-2.33v-3.5zm-2.33-2.33v-3.3a3.484 3.484 0 0 1 2.33 3.3zm7 5.83h-2.33v-5.83a5.835 5.835 0 1 0 -11.67 0v5.83h-2.33v-14h16.33zm1.17-27.32-1.17 1.17v9.82h-16.33v-9.82l-1.17-1.16v-.69h18.67z"/></g><path d="m63.8 21h-2.65l-2.82-2.81-2.81 2.81h-2.66l2.09-4.67h6.78z" fill="#f1553f"/><path d="m17.13 21h-2.65l-2.81-2.81-2.82 2.81h-2.65l2.09-4.67h6.78z" fill="#f1553f"/><path d="m42.16 39.67h-14.31l7.15-10.74z" fill="#f1553f"/><path d="m61.833 31.5h2.333v5.833h-2.333z" fill="#546285"/><path d="m57.167 31.5h2.333v5.833h-2.333z" fill="#546285"/><path d="m52.5 31.5h2.333v5.833h-2.333z" fill="#546285"/></svg>