<svg width="32" height="32" viewBox="0 0 32 32" fill="none" xmlns="http://www.w3.org/2000/svg">
<g id="promote 1" clip-path="url(#clip0_1401_2729)">
<g id="Group">
<g id="Group_2">
<path id="Vector" d="M28.6667 0H3.33331C1.49331 0.0021875 0.0021875 1.49331 0 3.33331V14H1.33331V3.33331C1.33331 2.22875 2.22875 1.33331 3.33331 1.33331H28.6666C29.7712 1.33331 30.6666 2.22875 30.6666 3.33331V28.6666C30.6666 29.7712 29.7712 30.6666 28.6666 30.6666H14V32H28.6667C30.5068 31.9978 31.9978 30.5067 32 28.6667V3.33331C31.9978 1.49331 30.5067 0.0021875 28.6667 0Z" fill="#198CCA"/>
</g>
</g>
<g id="Group_3">
<g id="Group_4">
<path id="Vector_2" d="M29.3308 5.33301H2.66406V6.66632H29.3308V5.33301Z" fill="#198CCA"/>
</g>
</g>
<g id="Group_5">
<g id="Group_6">
<path id="Vector_3" d="M4.66925 2.66699H3.33594V4.0003H4.66925V2.66699Z" fill="#198CCA"/>
</g>
</g>
<g id="Group_7">
<g id="Group_8">
<path id="Vector_4" d="M7.33331 2.66699H6V4.0003H7.33331V2.66699Z" fill="#198CCA"/>
</g>
</g>
<g id="Group_9">
<g id="Group_10">
<path id="Vector_5" d="M28.6692 2.66699H27.3359V4.0003H28.6692V2.66699Z" fill="#198CCA"/>
</g>
</g>
<g id="Group_11">
<g id="Group_12">
<path id="Vector_6" d="M4.66925 16.667H3.33594V20.667H4.66925V16.667Z" fill="#198CCA"/>
</g>
</g>
<g id="Group_13">
<g id="Group_14">
<path id="Vector_7" d="M23.2992 13.1222C23.1828 12.7729 22.8053 12.584 22.456 12.7004L14.456 15.3671C14.1836 15.4577 13.9999 15.7127 14 15.9997V23.9997C13.9999 24.2868 14.1836 24.5417 14.456 24.6324L22.456 27.2991C22.5239 27.3216 22.5951 27.3331 22.6667 27.3331C23.0349 27.3331 23.3334 27.0346 23.3334 26.6664V13.333C23.3334 13.2614 23.3218 13.1902 23.2992 13.1222ZM22 25.7417L15.3333 23.519V16.4804L22 14.2577V25.7417Z" fill="#198CCA"/>
</g>
</g>
<g id="Group_15">
<g id="Group_16">
<path id="Vector_8" d="M26 10.667H23.3333C22.5969 10.667 22 11.2639 22 12.0003V28.0003C22 28.7367 22.5969 29.3336 23.3333 29.3336H26C26.3682 29.3336 26.6667 29.0351 26.6667 28.6669V11.3336C26.6667 10.9654 26.3682 10.667 26 10.667ZM25.3333 28.0003H23.3333V12.0003H25.3333V28.0003Z" fill="#198CCA"/>
</g>
</g>
<g id="Group_17">
<g id="Group_18">
<path id="Vector_9" d="M14 12.667H4.66669C3.93031 12.667 3.33337 13.2639 3.33337 14.0003V16.0003H1.33337C0.596937 16.0003 0 16.5972 0 17.3336V22.6669C0 23.4034 0.596938 24.0003 1.33331 24.0003H3.33331V26.0003C3.33331 26.7367 3.93025 27.3336 4.66663 27.3336H6.66663V28.6669C6.66663 29.0351 6.96513 29.3336 7.33331 29.3336H11.3333C11.7015 29.3336 12 29.0351 12 28.6669V27.3336H14C14.7364 27.3336 15.3333 26.7367 15.3333 26.0003V14.0003C15.3333 13.2639 14.7364 12.667 14 12.667ZM14 26.0003H11.3333C10.9651 26.0003 10.6666 26.2988 10.6666 26.667V28.0003H8V26.667C8 26.2988 7.7015 26.0003 7.33331 26.0003H4.66669V23.3336C4.66669 22.9654 4.36819 22.6669 4 22.6669H1.33331V17.3336H4C4.36819 17.3336 4.66669 17.0351 4.66669 16.6669V14.0003H14V26.0003Z" fill="#198CCA"/>
</g>
</g>
<g id="Group_19">
<g id="Group_20">
<path id="Vector_10" d="M10.6641 28.667V30.667H7.99738V28.667H6.66406V31.3337C6.66406 31.7019 6.96256 32.0004 7.33075 32.0004H11.3307C11.6989 32.0004 11.9974 31.7019 11.9974 31.3337V28.667H10.6641Z" fill="#198CCA"/>
</g>
</g>
<g id="Group_21">
<g id="Group_22">
<path id="Vector_11" d="M12 15.333H6.66669C6.2985 15.333 6 15.6315 6 15.9997V18.6664H7.33331V16.6664H11.3333V18.6664H12.6666V15.9997C12.6667 15.6315 12.3682 15.333 12 15.333Z" fill="#198CCA"/>
</g>
</g>
<g id="Group_23">
<g id="Group_24">
<path id="Vector_12" d="M12.6667 20H6V21.3333H12.6667V20Z" fill="#198CCA"/>
</g>
</g>
<g id="Group_25">
<g id="Group_26">
<path id="Vector_13" d="M12.6667 22.667H6V24.0003H12.6667V22.667Z" fill="#198CCA"/>
</g>
</g>
</g>
<defs>
<clipPath id="clip0_1401_2729">
<rect width="32" height="32" fill="white"/>
</clipPath>
</defs>
</svg>
