<svg height="70" viewBox="0 0 45.16 70" width="45.16" xmlns="http://www.w3.org/2000/svg"><path d="m43.29 28.85-2.69-1.34c-.58-15.33-8.44-27.51-18.02-27.51s-17.43 12.18-18.02 27.51l-2.69 1.34a3.38 3.38 0 0 0 -1.87 3.03v8.5a3.38 3.38 0 0 0 1.87 3.03l2.83 1.41c1.25 14.22 8.79 25.18 17.88 25.18s16.63-10.96 17.88-25.18l2.83-1.41a3.362 3.362 0 0 0 1.87-3.03v-8.5a3.351 3.351 0 0 0 -1.87-3.03zm-10.55-20.23c3 4.32 5.04 10.51 5.53 17.51a28.821 28.821 0 0 0 -5.53-9.74zm-4.51-4.57a14.291 14.291 0 0 1 2.25 1.85v8.36a13.924 13.924 0 0 0 -2.25-1.49zm-9.04-1.16a9.436 9.436 0 0 1 6.78 0v8.93a11.207 11.207 0 0 0 -6.78 0zm-4.51 3.01a14.761 14.761 0 0 1 2.25-1.85v8.71a14.679 14.679 0 0 0 -2.25 1.5zm7.9 7.65c6.74 0 12.51 7.27 14.78 17.48-3.39-7.24-8.81-11.84-14.78-11.84s-11.38 4.61-14.78 11.85c2.27-10.22 8.03-17.49 14.78-17.49zm-10.16-4.92v7.76a28.821 28.821 0 0 0 -5.53 9.74c.49-7 2.53-13.19 5.53-17.5zm-7.9 32.02c0 .52.01 1.05.02 1.57l-1.66-.83a1.126 1.126 0 0 1 -.62-1.01v-8.5a1.126 1.126 0 0 1 .62-1.01l1.66-.83a48.588 48.588 0 0 0 .31 4.98 47.932 47.932 0 0 0 -.33 5.63zm18.06 27.09c-8.32 0-15.15-11.08-15.76-25.08 1.64-12.31 8.23-21.21 15.76-21.21s14.12 8.9 15.76 21.22c-.61 14-7.44 25.07-15.76 25.07zm20.32-27.36a1.126 1.126 0 0 1 -.62 1.01l-1.66.83c.01-.52.02-1.05.02-1.57a48.059 48.059 0 0 0 -.33-5.63 48.588 48.588 0 0 0 .31-4.98l1.66.83a1.126 1.126 0 0 1 .62 1.01z" fill="#546285"/><path d="m30.48 5.9v8.36a13.924 13.924 0 0 0 -2.25-1.49v-8.72a14.291 14.291 0 0 1 2.25 1.85z" fill="#24b768"/><path d="m16.93 4.05v8.71a14.679 14.679 0 0 0 -2.25 1.5v-8.36a14.761 14.761 0 0 1 2.25-1.85z" fill="#24b768"/><path d="m22.58 23.03-5.96 7.45 5.96 7.46 5.96-7.46zm-3.07 7.45 3.07-3.83 3.07 3.83-3.07 3.84z" fill="#546285"/><path d="m25.65 30.48-3.07 3.84-3.07-3.84 3.07-3.83z" fill="#24b768"/><g fill="#546285"><path d="m21.45 29.35h2.26v2.26h-2.26z"/><path d="m24.7 55.323a3.485 3.485 0 0 0 -2.115.708 3.51 3.51 0 0 0 -4.915.687c-.041.055-.08.11-.118.167l-2.065 3.1 2.445 2.445a6.581 6.581 0 0 0 9.306 0l2.445-2.445-2.065-3.1a3.5 3.5 0 0 0 -2.918-1.562zm.942 5.508a4.428 4.428 0 0 1 -6.113 0l-1.136-1.136 1.039-1.559a1.289 1.289 0 0 1 1.8-.293 1.367 1.367 0 0 1 .125.1l1.23 1.23 1.23-1.23a1.287 1.287 0 0 1 1.819.064 1.4 1.4 0 0 1 .1.127l1.039 1.558z"/><path d="m34.339 36.129h-5.326l-4.078 2.719-1.244 7.489.992 3.972-2.1 1.4-2.1-1.4.992-3.972-1.248-7.489-4.078-2.719h-5.326l-3.115 3.115 2.818 7.047h5.28l3.243-.777.122.729-1.266 5.057 4.675 3.119 4.675-3.117-1.266-5.06.122-.729 2.968.742 5.555.034 2.818-7.047zm-18.874 2.258 2.7 1.8.077.461h-4.427l-2.877-1.438.82-.82zm.2 5.645h-3.61l-.872-2.178 2.1 1.049h5.331l.063.377zm14.03-5.645h3.705l.82.82-2.877 1.438h-4.418l.075-.461zm-.2 5.645-3.009-.752.063-.377h5.331l2.1-1.049-.872 2.178z"/><path d="m30.484 49.677h2.258v2.258h-2.258z"/><path d="m12.42 49.677h2.258v2.258h-2.258z"/></g></svg>