<svg height="70" viewBox="0 0 70 70" width="70" xmlns="http://www.w3.org/2000/svg"><path d="m25 37h20v3h-20z" fill="#24b768"/><g fill="#546285"><path d="m227.387 368a3.387 3.387 0 1 0 3.387 3.387 3.392 3.392 0 0 0 -3.387-3.387zm0 4.516a1.129 1.129 0 1 1 1.129-1.129 1.131 1.131 0 0 1 -1.129 1.129zm0 0" transform="translate(-192.387 -316.065)"/><path d="m68.871 46.988a4.478 4.478 0 0 0 -2.308-7.328 14.682 14.682 0 0 0 -7.853-12.023v-.9l-5.528-7.737a4.491 4.491 0 0 0 -.117-8.676v-4.679h-2.258v4.677a4.491 4.491 0 0 0 -.118 8.678l-4.589 6.423a14.763 14.763 0 0 0 -4.324-3.431v-.9l-5.528-7.738a4.491 4.491 0 0 0 -.117-8.676v-4.678h-2.26v4.676a4.491 4.491 0 0 0 -.117 8.676l-5.528 7.738v.9a14.763 14.763 0 0 0 -4.326 3.433l-4.589-6.423a4.491 4.491 0 0 0 -.117-8.676v-4.679h-2.258v4.677a4.491 4.491 0 0 0 -.118 8.678l-5.528 7.738v.9a14.684 14.684 0 0 0 -7.853 12.022 4.478 4.478 0 0 0 -2.308 7.328v20.754h-1.129v2.258h70v-2.258h-1.129zm-30.484 20.754h-6.774v-4.516h6.774zm-9.032-6.774v6.774h-4.516v-14.742a13.135 13.135 0 0 0 9-4.681l1.161-1.394 1.163 1.4a13.129 13.129 0 0 0 9 4.681v14.74h-4.518v-6.779zm-20.483-18.068h9.193v2.258h-9.193a4.053 4.053 0 0 0 0-2.258zm12.58-6.774a2.258 2.258 0 1 1 -2.258 2.258 2.26 2.26 0 0 1 2.258-2.255zm4.356 1.129h18.385a4.053 4.053 0 0 0 0 2.258h-18.386a4.053 4.053 0 0 0 0-2.258zm22.741-1.129a2.258 2.258 0 1 1 -2.258 2.258 2.26 2.26 0 0 1 2.258-2.255zm12.58 9.032h-9.193v-2.258h9.193a4.053 4.053 0 0 0 0 2.258zm-36.29-3.384h20.322v8.97a10.885 10.885 0 0 1 -7.261-3.869l-2.9-3.475-2.9 3.479a10.889 10.889 0 0 1 -7.263 3.868zm-6.774 5.645v20.323h-10.165v-20.323zm2.258-4.677a4.053 4.053 0 0 0 2.258 0v25h-2.258zm27.1 0a4.053 4.053 0 0 0 2.258 0v25h-2.262zm4.516 4.677h10.161v20.323h-10.164zm12.419.969a4.053 4.053 0 0 0 2.258 0v19.354h-2.261zm3.387-4.356a2.258 2.258 0 1 1 -2.258-2.258 2.26 2.26 0 0 1 2.255 2.258zm-3.436-4.341a4.482 4.482 0 0 0 -1.778.954h-10.095a4.457 4.457 0 0 0 .629-2.258 4.514 4.514 0 0 0 -3.437-4.372 14.514 14.514 0 0 0 -1.351-5.231 12.385 12.385 0 0 1 16.029 10.907zm-12.373-13.723a14.673 14.673 0 0 0 -3.826.524l3.826-5.355 3.825 5.355a14.556 14.556 0 0 0 -3.825-.524zm-2.258-11.29a2.258 2.258 0 1 1 2.258 2.258 2.26 2.26 0 0 1 -2.258-2.259zm-16.936-5.646a2.258 2.258 0 1 1 2.258 2.258 2.26 2.26 0 0 1 -2.258-2.258zm2.258 6.459 3.825 5.355a14.247 14.247 0 0 0 -7.651 0zm0 7.089a12.427 12.427 0 0 1 12.371 11.465 4.482 4.482 0 0 0 -1.779.955h-21.184a4.482 4.482 0 0 0 -1.778-.954 12.427 12.427 0 0 1 12.37-11.466zm-19.194-7.9a2.258 2.258 0 1 1 2.258 2.258 2.26 2.26 0 0 1 -2.257-2.261zm2.258 6.459 3.826 5.356a14.237 14.237 0 0 0 -7.652 0zm0 7.089a12.353 12.353 0 0 1 3.658.559 14.537 14.537 0 0 0 -1.351 5.231 4.514 4.514 0 0 0 -3.437 4.372 4.467 4.467 0 0 0 .628 2.258h-10.09a4.482 4.482 0 0 0 -1.778-.954 12.427 12.427 0 0 1 12.371-11.468zm-13.548 13.546a2.258 2.258 0 1 1 -2.258 2.258 2.26 2.26 0 0 1 2.258-2.258zm-1.129 6.614a4.445 4.445 0 0 0 1.129.16 4.445 4.445 0 0 0 1.129-.16v19.354h-2.258zm0 0"/><path d="m384 352h2.258v2.258h-2.258zm0 0" transform="translate(-329.806 -302.323)"/><path d="m384 384h2.258v2.258h-2.258zm0 0" transform="translate(-329.806 -329.807)"/><path d="m96 352h2.258v2.258h-2.258zm0 0" transform="translate(-82.451 -302.323)"/><path d="m96 384h2.258v2.258h-2.258zm0 0" transform="translate(-82.451 -329.807)"/></g><path d="m51 42h11v4h-11z" fill="#24b768"/><path d="m8 42h11v4h-11z" fill="#24b768"/></svg>