<svg height="70" viewBox="0 0 70 70" width="70" xmlns="http://www.w3.org/2000/svg"><path d="m12.833 63h2.333v2.333h-2.333z" fill="#546285"/><path d="m18.667 63h2.333v2.333h-2.333z" fill="#546285"/><path d="m24.5 63h2.333v2.333h-2.333z" fill="#546285"/><path d="m30.333 63h2.333v2.333h-2.333z" fill="#546285"/><path d="m52.5 26.833h2.333v3.5h-2.333z" fill="#546285"/><path d="m52.5 32.667h2.333v4.667h-2.333z" fill="#546285"/><path d="m70 20.18v-6.18h-2.33v-8.17a3.513 3.513 0 0 0 -2.34-3.3v-2.53h-2.33v2.54a3.484 3.484 0 0 0 -2.33 3.3v2.33h-2.34v-3.5h-2.33v3.5h-3.5v-3.5h-2.33v3.5h-3.5v-3.5h-2.34v3.5h-2.33v-2.34a3.5 3.5 0 0 0 -2.33-3.3v-2.53h-2.34v2.54a3.5 3.5 0 0 0 -2.33 3.29v8.17h-2.33v7.48l2.33 2.33v3.27l-4.67 1.17v12l4.67 3.5v7.58h-2.33v-3.5h-2.34v3.5h-4.66v-3.5h-2.34v3.5h-4.66v-3.5h-2.34v3.5h-5.83v-2.33h1.17v-2.33h-1.17a4.665 4.665 0 0 0 -3.5-4.52v-2.48h-2.33v2.48a4.665 4.665 0 0 0 -3.5 4.52h-1.17v2.33h1.17v7h-1.17v2.33h1.62l2.33 4.67h.72v2.06l-1.17 2.33v2.61h66.5v-2.33h-4.67v-4.67h.72l2.78-5.56v-8.44h1.17v-2.33h-1.17a4.591 4.591 0 0 0 -1.16-3.08v-19.91zm-64.17 24.15a2.356 2.356 0 0 1 2.34 2.34h-4.67a2.347 2.347 0 0 1 2.33-2.34zm-2.33 11.67v-7h4.67v7zm.72 2.33h3.22l-1.17 2.34h-.89zm30.78 9.34h-29.03l1.03-2.06v-2.61h.72l2.33-4.67h24.95zm0-11.67h-24.5v-2.33h24.5zm0-15.17-2.33-1.75v-4.08h2.33zm0-8.16h-2.33v-2.6l2.33-.58zm28-26.84a1.166 1.166 0 0 1 2.33 0v2.34h-2.33zm-25.67 0a1.171 1.171 0 0 1 2.34 0v2.34h-2.34zm0 4.67h28v3.5h-4.66v3.5h-4.67v-3.5h-9.33v3.5h-4.67v-3.5h-4.67zm25.66 57.17h-25.66v-9.34h7.45l2.34 4.67h.71v2.33h2.34v-2.33h.71l2.33-4.67h6.73l2.33 4.67h.72zm-3.49-18.67v7h-5.83v-7h1.16v-2.33h-1.16a4.677 4.677 0 0 0 -3.5-4.52v-2.48h-2.34v2.48a4.677 4.677 0 0 0 -3.5 4.52h-1.16v2.33h1.16v7h-7v-31.5h28v17.65a4.653 4.653 0 0 0 -5.68 3.35 4.578 4.578 0 0 0 -.15 1.17h-1.17v2.33zm-12.83 7v-7h4.66v7zm3.95 2.33-1.17 2.34h-.89l-1.16-2.34zm-3.95-11.66a2.33 2.33 0 1 1 4.66 0zm17.95 14h-.89l-1.17-2.34h3.23zm1.88-4.67h-4.67v-7h4.67zm-4.67-9.33a2.335 2.335 0 1 1 4.67 0zm4.04-24.5h-29.22l-1.65-1.65v-4.19h4.67v3.5h9.33v-3.5h4.67v3.5h9.33v-3.5h4.67v3.15z" fill="#546285"/><path d="m65.33 5.83v2.34h-2.33v-2.34a1.166 1.166 0 0 1 2.33 0z" fill="#f1553f"/><path d="m39.67 5.83v2.34h-2.34v-2.34a1.171 1.171 0 0 1 2.34 0z" fill="#f1553f"/><path d="m67.67 16.33v3.15l-1.8 2.69h-29.22l-1.65-1.65v-4.19h4.67v3.5h9.33v-3.5h4.67v3.5h9.33v-3.5z" fill="#f1553f"/><g fill="#546285"><path d="m57.167 26.833h2.333v3.5h-2.333z"/><path d="m57.167 32.667h2.333v4.667h-2.333z"/><path d="m43.167 26.833h2.333v2.333h-2.333z"/><path d="m43.167 32.667h2.333v2.333h-2.333z"/><path d="m10.5 25.667h15.167v-2.333h-15.167a1.167 1.167 0 0 1 0-2.334h2.333v-2.333h-2.333a3.5 3.5 0 0 0 0 7z"/><path d="m3.5 35h2.333v-2.333h-2.333a1.167 1.167 0 0 1 -.069-2.333h15.236v-2.334h-15.167a3.5 3.5 0 0 0 0 7z"/><path d="m21 28h2.333v2.333h-2.333z"/><path d="m16.333 11.667h12.833v-2.333h-12.833a1.167 1.167 0 0 1 0-2.333h2.333v-2.334h-2.333a3.5 3.5 0 0 0 0 7z"/></g></svg>