<svg width="900" height="520" viewBox="0 0 900 520" fill="none" xmlns="http://www.w3.org/2000/svg">
<g clip-path="url(#clip0_911_1916)">
<mask id="mask0_911_1916" style="mask-type:luminance" maskUnits="userSpaceOnUse" x="0" y="0" width="900" height="520">
<path d="M900 0H0V519.477H900V0Z" fill="white"/>
</mask>
<g mask="url(#mask0_911_1916)">
<path opacity="0.8" d="M449.999 870.071C682.589 870.071 871.139 681.52 871.139 448.931C871.139 216.342 682.589 27.791 449.999 27.791C217.41 27.791 28.8594 216.342 28.8594 448.931C28.8594 681.52 217.41 870.071 449.999 870.071Z" fill="url(#paint0_linear_911_1916)"/>
<path d="M450.001 764.252C624.148 764.252 765.322 623.078 765.322 448.931C765.322 274.784 624.148 133.61 450.001 133.61C275.854 133.61 134.68 274.784 134.68 448.931C134.68 623.078 275.854 764.252 450.001 764.252Z" fill="url(#paint1_linear_911_1916)"/>
<path d="M450.001 125.059C628.584 125.059 773.872 270.347 773.872 448.931C773.872 627.515 628.584 772.802 450.001 772.802C271.418 772.802 126.129 627.514 126.129 448.931C126.129 270.348 271.417 125.059 450.001 125.059ZM450.001 764.251C623.869 764.251 765.322 622.799 765.322 448.93C765.322 275.061 623.869 133.61 450.001 133.61C276.133 133.61 134.68 275.059 134.68 448.931C134.68 622.803 276.129 764.251 450.001 764.251Z" fill="url(#paint2_linear_911_1916)"/>
<g filter="url(#filter0_d_911_1916)">
<path d="M450.001 666.983C570.428 666.983 668.053 569.358 668.053 448.931C668.053 328.504 570.428 230.879 450.001 230.879C329.574 230.879 231.949 328.504 231.949 448.931C231.949 569.358 329.574 666.983 450.001 666.983Z" fill="url(#paint3_linear_911_1916)"/>
</g>
<path opacity="0.2" d="M450.004 627.436C548.589 627.436 628.508 547.517 628.508 448.932C628.508 350.347 548.589 270.428 450.004 270.428C351.419 270.428 271.5 350.347 271.5 448.932C271.5 547.517 351.419 627.436 450.004 627.436Z" fill="url(#paint4_linear_911_1916)"/>
<path opacity="0.1" d="M450.001 585.748C525.563 585.748 586.818 524.493 586.818 448.931C586.818 373.369 525.563 312.114 450.001 312.114C374.439 312.114 313.184 373.369 313.184 448.931C313.184 524.493 374.439 585.748 450.001 585.748Z" fill="url(#paint5_linear_911_1916)"/>
<path d="M450.26 434.123V419.448H446.426V421.271C445.89 420.579 445.197 420.024 444.405 419.652C443.612 419.279 442.743 419.101 441.868 419.131C440.89 419.12 439.92 419.304 439.014 419.67C438.108 420.037 437.283 420.58 436.589 421.268C435.855 421.978 435.28 422.835 434.901 423.783C434.522 424.731 434.347 425.748 434.389 426.768C434.353 427.795 434.533 428.818 434.917 429.771C435.301 430.723 435.881 431.585 436.62 432.299C437.312 432.98 438.132 433.516 439.033 433.878C439.934 434.239 440.897 434.418 441.868 434.404C442.743 434.418 443.609 434.229 444.4 433.853C445.19 433.477 445.883 432.924 446.425 432.236V434.121L450.26 434.123ZM446.426 426.77C446.583 430.415 441.869 431.955 439.544 429.63C439.155 429.265 438.847 428.821 438.641 428.328C438.436 427.835 438.336 427.304 438.35 426.77C438.333 426.241 438.431 425.714 438.638 425.226C438.844 424.738 439.153 424.3 439.544 423.942C440.312 423.205 441.339 422.799 442.404 422.811C443.44 422.791 444.444 423.174 445.204 423.879C445.61 424.239 445.931 424.686 446.143 425.186C446.354 425.687 446.451 426.228 446.426 426.77ZM468.046 434.123V411.466H464.246V421.396C463.739 420.651 463.046 420.05 462.236 419.653C461.426 419.256 460.527 419.077 459.627 419.133C458.677 419.123 457.736 419.308 456.86 419.675C455.985 420.043 455.194 420.586 454.536 421.27C453.825 421.999 453.272 422.866 452.909 423.817C452.547 424.769 452.384 425.784 452.431 426.801C452.387 427.818 452.552 428.833 452.914 429.784C453.275 430.735 453.827 431.602 454.536 432.332C455.195 433.013 455.987 433.551 456.863 433.913C457.739 434.275 458.679 434.453 459.627 434.437C460.529 434.484 461.428 434.298 462.237 433.896C463.046 433.494 463.738 432.891 464.246 432.143V434.123H468.046ZM460.253 422.779C461.272 422.777 462.253 423.172 462.987 423.879C463.381 424.241 463.692 424.685 463.898 425.178C464.104 425.672 464.2 426.205 464.181 426.739C464.203 427.281 464.111 427.821 463.91 428.324C463.71 428.828 463.406 429.283 463.018 429.661C462.653 430.019 462.221 430.301 461.746 430.49C461.271 430.679 460.764 430.771 460.253 430.761C459.742 430.771 459.234 430.679 458.759 430.49C458.285 430.301 457.852 430.019 457.488 429.661C457.121 429.271 456.834 428.812 456.646 428.31C456.457 427.809 456.369 427.275 456.388 426.739C456.364 426.221 456.448 425.704 456.632 425.219C456.817 424.734 457.099 424.293 457.462 423.921C457.824 423.55 458.259 423.257 458.739 423.061C459.219 422.864 459.734 422.769 460.253 422.779ZM485.267 426.738C485.305 425.724 485.135 424.713 484.767 423.767C484.4 422.821 483.842 421.961 483.13 421.238C482.436 420.542 481.606 419.997 480.693 419.634C479.779 419.272 478.801 419.102 477.819 419.133C476.824 419.108 475.834 419.281 474.907 419.643C473.98 420.004 473.134 420.546 472.419 421.238C471.685 421.948 471.11 422.805 470.731 423.753C470.352 424.701 470.177 425.718 470.219 426.738C470.18 427.767 470.356 428.793 470.735 429.75C471.113 430.708 471.687 431.576 472.419 432.3C473.132 432.997 473.977 433.544 474.904 433.911C475.831 434.278 476.822 434.457 477.819 434.437C480.741 434.437 483.413 433.274 484.669 430.886L481.747 429.315C481.357 429.928 480.81 430.425 480.164 430.756C479.518 431.088 478.795 431.241 478.07 431.2C475.902 431.2 474.27 429.974 474.016 428.058H485.203C485.234 427.587 485.267 427.147 485.267 426.738ZM473.986 425.45C474.119 424.54 474.591 423.713 475.308 423.136C476.024 422.559 476.933 422.274 477.851 422.339C478.746 422.287 479.627 422.581 480.311 423.16C480.996 423.739 481.431 424.559 481.528 425.45H473.986ZM494.663 434.123L500.854 419.448H496.737L492.966 429.221L489.195 419.448H485.11L491.269 434.123H494.663ZM516.663 434.123V419.448H512.829V421.271C512.293 420.578 511.6 420.023 510.807 419.651C510.013 419.279 509.143 419.101 508.268 419.131C507.29 419.12 506.32 419.304 505.414 419.67C504.508 420.037 503.683 420.58 502.989 421.268C502.255 421.978 501.68 422.835 501.301 423.783C500.922 424.731 500.747 425.748 500.789 426.768C500.753 427.795 500.933 428.818 501.317 429.771C501.701 430.723 502.281 431.585 503.02 432.299C503.712 432.98 504.532 433.516 505.433 433.878C506.334 434.239 507.297 434.418 508.268 434.404C509.143 434.418 510.009 434.229 510.8 433.853C511.59 433.477 512.283 432.924 512.825 432.236V434.121L516.663 434.123ZM512.829 426.77C512.986 430.415 508.272 431.955 505.947 429.63C505.558 429.265 505.25 428.821 505.044 428.328C504.839 427.835 504.739 427.304 504.753 426.77C504.736 426.241 504.834 425.714 505.041 425.226C505.247 424.738 505.556 424.3 505.947 423.942C506.715 423.205 507.742 422.799 508.807 422.811C509.843 422.791 510.847 423.174 511.607 423.879C512.014 424.239 512.335 424.686 512.547 425.186C512.759 425.686 512.857 426.228 512.832 426.77H512.829Z" fill="white"/>
<path d="M424.478 442.591C425.575 442.591 426.464 441.702 426.464 440.605C426.464 439.508 425.575 438.619 424.478 438.619C423.381 438.619 422.492 439.508 422.492 440.605C422.492 441.702 423.381 442.591 424.478 442.591Z" fill="white"/>
<path d="M416.184 440.639C416.184 441.796 416.424 442.94 416.889 443.999C417.354 445.059 418.033 446.01 418.884 446.794L421.346 444.504C420.549 443.838 419.976 442.942 419.707 441.939C419.437 440.936 419.483 439.874 419.838 438.898C420.194 437.922 420.841 437.079 421.693 436.484C422.545 435.89 423.559 435.572 424.598 435.574C424.885 435.577 425.171 435.606 425.453 435.66L425.485 435.56L426.228 432.418C425.692 432.3 425.146 432.237 424.598 432.23C422.367 432.23 420.228 433.116 418.65 434.693C417.072 436.269 416.185 438.408 416.184 440.639Z" fill="white"/>
<path d="M384.646 442.591C385.743 442.591 386.632 441.702 386.632 440.605C386.632 439.508 385.743 438.619 384.646 438.619C383.549 438.619 382.66 439.508 382.66 440.605C382.66 441.702 383.549 442.591 384.646 442.591Z" fill="white"/>
<path d="M392.939 440.639C392.939 438.408 392.052 436.267 390.474 434.69C388.896 433.112 386.756 432.225 384.525 432.225C383.976 432.232 383.43 432.295 382.895 432.413L383.638 435.555L383.669 435.655C383.95 435.601 384.237 435.572 384.524 435.569C385.562 435.567 386.577 435.885 387.428 436.479C388.28 437.074 388.927 437.917 389.283 438.893C389.638 439.869 389.684 440.931 389.415 441.934C389.145 442.937 388.573 443.833 387.776 444.499L390.238 446.789C391.088 446.006 391.767 445.055 392.232 443.997C392.697 442.938 392.937 441.795 392.939 440.639Z" fill="white"/>
<path d="M395.85 435.14C395.082 435.596 394.348 436.109 393.656 436.674C394.163 437.844 394.439 439.1 394.469 440.374C395.369 439.44 396.391 438.633 397.508 437.974C400.215 436.398 403.372 435.777 406.474 436.21C409.575 436.642 412.442 438.104 414.614 440.36C414.646 439.085 414.924 437.829 415.431 436.66C412.708 434.448 409.376 433.118 405.878 432.847C402.38 432.575 398.882 433.375 395.85 435.14Z" fill="white"/>
<path d="M404.545 408.01C405.641 408.01 406.531 407.121 406.531 406.024C406.531 404.927 405.641 404.038 404.545 404.038C403.448 404.038 402.559 404.927 402.559 406.024C402.559 407.121 403.448 408.01 404.545 408.01Z" fill="white"/>
<path d="M406.767 410.487C406.097 410.797 405.368 410.954 404.631 410.949H404.461C403.348 410.958 402.264 410.595 401.382 409.916C400.501 409.237 399.872 408.283 399.596 407.205L396.477 408.462C397.011 410.161 398.075 411.644 399.512 412.695C400.949 413.747 402.685 414.311 404.466 414.307H404.625C406.405 414.311 408.141 413.747 409.578 412.695C411.015 411.644 412.079 410.161 412.614 408.462L409.495 407.205C409.308 407.919 408.967 408.583 408.496 409.15C408.025 409.717 407.434 410.174 406.767 410.487Z" fill="white"/>
<path d="M408.709 419.024C408.709 417.529 408.95 416.043 409.423 414.624C409.23 414.731 409.041 414.841 408.841 414.935C407.858 415.397 406.806 415.692 405.727 415.81C404.975 419.752 405.624 423.832 407.56 427.346C409.497 430.861 412.6 433.588 416.334 435.058C417.024 434.042 417.894 433.161 418.901 432.458C415.972 431.633 413.391 429.875 411.552 427.45C409.713 425.026 408.714 422.067 408.709 419.024Z" fill="white"/>
<path d="M400.225 414.933C400.068 414.859 399.925 414.77 399.768 414.689C400.354 416.481 400.569 418.373 400.403 420.251C400.237 422.13 399.692 423.954 398.801 425.616C397.91 427.277 396.691 428.741 395.219 429.919C393.747 431.097 392.051 431.964 390.234 432.468C391.241 433.171 392.11 434.052 392.799 435.068C396.541 433.605 399.653 430.879 401.597 427.362C403.54 423.846 404.193 419.761 403.441 415.814C402.327 415.706 401.239 415.408 400.225 414.933Z" fill="white"/>
<path d="M326.691 265.453L322.156 260.918L322.912 260.162L327.447 264.697L326.691 265.453ZM317.621 256.383L313.086 251.848L313.842 251.092L318.377 255.627L317.621 256.383ZM308.551 247.313L304.016 242.778L304.772 242.022L309.307 246.557L308.551 247.313ZM299.481 238.243L294.946 233.708L295.702 232.952L300.237 237.487L299.481 238.243ZM290.411 229.173L285.876 224.638L286.632 223.882L291.167 228.417L290.411 229.173ZM281.341 220.103L276.806 215.568L277.562 214.812L282.097 219.347L281.341 220.103ZM272.271 211.033L267.736 206.498L268.492 205.742L273.027 210.277L272.271 211.033ZM263.201 201.963L258.667 197.43L259.423 196.674L263.958 201.209L263.201 201.963ZM254.131 192.893L249.597 188.36L250.353 187.604L254.888 192.139L254.131 192.893ZM245.063 183.83L240.523 179.29L241.279 178.534L245.823 183.07L245.063 183.83ZM235.993 174.76L231.458 170.225L232.214 169.469L236.749 174.004L235.993 174.76ZM226.923 165.69L222.388 161.155L223.144 160.399L227.679 164.93L226.923 165.69ZM217.853 156.62L213.323 152.081L214.074 151.33L218.609 155.865L217.853 156.62ZM208.783 147.55L204.248 143.015L205.004 142.259L209.539 146.794L208.783 147.55ZM199.713 138.48L195.178 133.945L195.934 133.189L200.469 137.724L199.713 138.48ZM190.643 129.41L186.108 124.875L186.864 124.119L191.399 128.654L190.643 129.41ZM181.573 120.34L177.039 115.802L177.795 115.046L182.33 119.581L181.573 120.34ZM172.503 111.27L167.969 106.73L168.723 105.976L173.26 110.511L172.503 111.27Z" fill="url(#paint6_linear_911_1916)"/>
<path d="M235.689 383.195H229.276V382.126H235.689V383.195ZM222.862 383.195H216.449V382.126H222.862V383.195ZM210.035 383.195H203.623V382.126H210.036L210.035 383.195ZM197.208 383.195H190.795V382.126H197.208V383.195ZM184.381 383.195H177.968V382.126H184.381V383.195ZM171.554 383.195H165.141V382.126H171.554V383.195ZM158.727 383.195H152.314V382.126H158.727V383.195ZM145.9 383.195H139.487V382.126H145.9V383.195ZM133.073 383.195H126.66V382.126H133.073V383.195ZM120.246 383.195H113.833V382.126H120.246V383.195ZM107.423 383.195H101.009V382.126H107.423V383.195ZM94.5957 383.195H88.1827V382.126H94.5957V383.195ZM81.7687 383.195H75.3557V382.126H81.7687V383.195ZM68.9427 383.195H62.5287V382.126H68.9427V383.195ZM56.1157 383.195H49.7027V382.126H56.1157V383.195ZM43.2887 383.195H36.8757V382.126H43.2887V383.195ZM30.4627 383.195H24.0497V382.126H30.4627V383.195ZM17.6357 383.195H11.2227V382.126H17.6357V383.195Z" fill="url(#paint7_linear_911_1916)"/>
<path d="M882.907 383.195H876.494V382.126H882.907V383.195ZM870.08 383.195H863.667V382.126H870.08V383.195ZM857.253 383.195H850.841V382.126H857.254L857.253 383.195ZM844.426 383.195H838.013V382.126H844.426V383.195ZM831.599 383.195H825.186V382.126H831.599V383.195ZM818.772 383.195H812.359V382.126H818.772V383.195ZM805.945 383.195H799.532V382.126H805.945V383.195ZM793.118 383.195H786.705V382.126H793.118V383.195ZM780.291 383.195H773.878V382.126H780.291V383.195ZM767.464 383.195H761.051V382.126H767.464V383.195ZM754.641 383.195H748.227V382.126H754.641V383.195ZM741.814 383.195H735.401V382.126H741.814V383.195ZM728.987 383.195H722.574V382.126H728.987V383.195ZM716.161 383.195H709.747V382.126H716.161V383.195ZM703.334 383.195H696.921V382.126H703.334V383.195ZM690.507 383.195H684.094V382.126H690.507V383.195ZM677.681 383.195H671.268V382.126H677.681V383.195ZM664.854 383.195H658.441V382.126H664.854V383.195Z" fill="url(#paint8_linear_911_1916)"/>
<path d="M573.842 265.453L573.086 264.697L577.621 260.162L578.377 260.918L573.842 265.453ZM582.912 256.383L582.156 255.627L586.691 251.092L587.447 251.848L582.912 256.383ZM591.982 247.313L591.226 246.557L595.761 242.022L596.517 242.778L591.982 247.313ZM601.052 238.243L600.296 237.487L604.831 232.952L605.587 233.708L601.052 238.243ZM610.122 229.173L609.366 228.417L613.901 223.882L614.657 224.638L610.122 229.173ZM619.192 220.103L618.436 219.347L622.971 214.812L623.727 215.568L619.192 220.103ZM628.262 211.033L627.506 210.277L632.041 205.742L632.797 206.498L628.262 211.033ZM637.332 201.963L636.576 201.207L641.111 196.672L641.867 197.428L637.332 201.963ZM646.402 192.893L645.646 192.137L650.181 187.602L650.932 188.36L646.402 192.893ZM655.472 183.823L654.716 183.067L659.249 178.53L660.005 179.286L655.472 183.823ZM664.542 174.753L663.786 173.997L668.321 169.462L669.077 170.218L664.542 174.753ZM673.612 165.683L672.856 164.927L677.391 160.392L678.147 161.148L673.612 165.683ZM682.682 156.613L681.926 155.857L686.458 151.33L687.214 152.086L682.682 156.613ZM691.752 147.543L690.996 146.787L695.531 142.252L696.287 143.008L691.752 147.543ZM700.822 138.473L700.066 137.717L704.601 133.182L705.357 133.938L700.822 138.473ZM709.892 129.403L709.136 128.647L713.671 124.112L714.427 124.868L709.892 129.403ZM718.962 120.333L718.206 119.577L722.741 115.042L723.497 115.798L718.962 120.333ZM728.032 111.263L727.276 110.507L731.811 105.972L732.567 106.728L728.032 111.263Z" fill="url(#paint9_linear_911_1916)"/>
<path d="M449.999 2.138C434.742 2.13883 419.494 2.90881 404.314 4.445C389.423 5.95903 374.617 8.21853 359.952 11.215C345.558 14.16 331.152 17.864 317.135 22.224C303.275 26.535 289.468 31.59 276.088 37.248C168.971 82.6349 83.7033 167.902 38.3164 275.02C32.6584 288.4 27.6034 302.207 23.2924 316.068C18.9324 330.085 15.2284 344.491 12.2834 358.885C9.28689 373.55 7.02739 388.356 5.51336 403.247C2.43754 433.626 2.43754 464.237 5.51336 494.616C7.02738 509.507 9.28688 524.313 12.2834 538.978C15.2284 553.372 18.9324 567.778 23.2924 581.795C27.6034 595.655 32.6584 609.466 38.3164 622.843C83.7035 729.96 168.971 815.227 276.088 860.614C289.465 866.272 303.275 871.327 317.136 875.638C331.153 879.998 345.559 883.702 359.953 886.647C374.618 889.643 389.424 891.903 404.315 893.417C434.694 896.493 465.306 896.493 495.684 893.417C510.576 891.903 525.381 889.643 540.046 886.647C554.44 883.702 568.846 879.998 582.863 875.638C596.723 871.327 610.534 866.272 623.911 860.614C731.028 815.227 816.295 729.96 861.682 622.843C867.34 609.466 872.395 595.656 876.706 581.795C881.066 567.778 884.77 553.372 887.715 538.978C890.712 524.313 892.971 509.507 894.485 494.616C897.561 464.237 897.561 433.626 894.485 403.247C892.971 388.356 890.712 373.55 887.715 358.885C884.77 344.491 881.066 330.085 876.706 316.068C872.395 302.207 867.34 288.397 861.682 275.02C816.295 167.903 731.028 82.6356 623.911 37.248C610.534 31.59 596.724 26.535 582.863 22.224C568.846 17.864 554.44 14.16 540.046 11.215C525.381 8.21852 510.576 5.95902 495.684 4.445C480.504 2.90881 465.257 2.13883 449.999 2.138ZM449.999 0C697.937 0 898.93 200.993 898.93 448.931C898.93 696.869 697.937 897.862 449.999 897.862C202.061 897.862 1.06836 696.869 1.06836 448.931C1.06836 200.993 202.061 0 449.999 0Z" fill="url(#paint10_linear_911_1916)"/>
<path d="M258.67 223.397C274.018 223.397 286.461 210.954 286.461 195.606C286.461 180.257 274.018 167.815 258.67 167.815C243.321 167.815 230.879 180.257 230.879 195.606C230.879 210.954 243.321 223.397 258.67 223.397Z" fill="white"/>
<path d="M258.669 195.606H247.98V206.295H258.669V195.606Z" fill="#FDB436"/>
<path d="M258.668 195.606H269.357V206.295C266.522 206.295 263.803 205.169 261.799 203.164C259.794 201.16 258.668 198.441 258.668 195.606Z" fill="#F1553F"/>
<path d="M253.325 184.917H253.324C250.373 184.917 247.98 187.31 247.98 190.261V190.262C247.98 193.213 250.373 195.606 253.324 195.606H253.325C256.277 195.606 258.669 193.213 258.669 190.262V190.261C258.669 187.31 256.277 184.917 253.325 184.917Z" fill="#F1553F"/>
<path d="M258.668 184.917H269.357C269.357 187.752 268.231 190.471 266.226 192.475C264.222 194.48 261.503 195.606 258.668 195.606V184.917Z" fill="#198CCA"/>
<path d="M224.349 155.093L222.429 151.757H221.385V155.093H220.017V146.753H222.897C223.537 146.753 224.077 146.865 224.517 147.089C224.965 147.313 225.297 147.613 225.513 147.989C225.737 148.365 225.849 148.785 225.849 149.249C225.849 149.793 225.689 150.289 225.369 150.737C225.057 151.177 224.573 151.477 223.917 151.637L225.981 155.093H224.349ZM221.385 150.665H222.897C223.409 150.665 223.793 150.537 224.049 150.281C224.313 150.025 224.445 149.681 224.445 149.249C224.445 148.817 224.317 148.481 224.061 148.241C223.805 147.993 223.417 147.869 222.897 147.869H221.385V150.665ZM228.967 147.857V150.305H231.847V151.421H228.967V153.977H232.207V155.093H227.599V146.741H232.207V147.857H228.967ZM236.64 155.177C236.08 155.177 235.576 155.081 235.128 154.889C234.68 154.689 234.328 154.409 234.072 154.049C233.816 153.689 233.688 153.269 233.688 152.789H235.152C235.184 153.149 235.324 153.445 235.572 153.677C235.828 153.909 236.184 154.025 236.64 154.025C237.112 154.025 237.48 153.913 237.744 153.689C238.008 153.457 238.14 153.161 238.14 152.801C238.14 152.521 238.056 152.293 237.888 152.117C237.728 151.941 237.524 151.805 237.276 151.709C237.036 151.613 236.7 151.509 236.268 151.397C235.724 151.253 235.28 151.109 234.936 150.965C234.6 150.813 234.312 150.581 234.072 150.269C233.832 149.957 233.712 149.541 233.712 149.021C233.712 148.541 233.832 148.121 234.072 147.761C234.312 147.401 234.648 147.125 235.08 146.933C235.512 146.741 236.012 146.645 236.58 146.645C237.388 146.645 238.048 146.849 238.56 147.257C239.08 147.657 239.368 148.209 239.424 148.913H237.912C237.888 148.609 237.744 148.349 237.48 148.133C237.216 147.917 236.868 147.809 236.436 147.809C236.044 147.809 235.724 147.909 235.476 148.109C235.228 148.309 235.104 148.597 235.104 148.973C235.104 149.229 235.18 149.441 235.332 149.609C235.492 149.769 235.692 149.897 235.932 149.993C236.172 150.089 236.5 150.193 236.916 150.305C237.468 150.457 237.916 150.609 238.26 150.761C238.612 150.913 238.908 151.149 239.148 151.469C239.396 151.781 239.52 152.201 239.52 152.729C239.52 153.153 239.404 153.553 239.172 153.929C238.948 154.305 238.616 154.609 238.176 154.841C237.744 155.065 237.232 155.177 236.64 155.177ZM244.938 155.177C244.162 155.177 243.446 154.997 242.79 154.637C242.142 154.269 241.626 153.761 241.242 153.113C240.866 152.457 240.678 151.721 240.678 150.905C240.678 150.089 240.866 149.357 241.242 148.709C241.626 148.061 242.142 147.557 242.79 147.197C243.446 146.829 244.162 146.645 244.938 146.645C245.722 146.645 246.438 146.829 247.086 147.197C247.742 147.557 248.258 148.061 248.634 148.709C249.01 149.357 249.198 150.089 249.198 150.905C249.198 151.721 249.01 152.457 248.634 153.113C248.258 153.761 247.742 154.269 247.086 154.637C246.438 154.997 245.722 155.177 244.938 155.177ZM244.938 153.989C245.49 153.989 245.982 153.865 246.414 153.617C246.846 153.361 247.182 153.001 247.422 152.537C247.67 152.065 247.794 151.521 247.794 150.905C247.794 150.289 247.67 149.749 247.422 149.285C247.182 148.821 246.846 148.465 246.414 148.217C245.982 147.969 245.49 147.845 244.938 147.845C244.386 147.845 243.894 147.969 243.462 148.217C243.03 148.465 242.69 148.821 242.442 149.285C242.202 149.749 242.082 150.289 242.082 150.905C242.082 151.521 242.202 152.065 242.442 152.537C242.69 153.001 243.03 153.361 243.462 153.617C243.894 153.865 244.386 153.989 244.938 153.989ZM251.901 146.753V152.069C251.901 152.701 252.065 153.177 252.393 153.497C252.729 153.817 253.193 153.977 253.785 153.977C254.385 153.977 254.849 153.817 255.177 153.497C255.513 153.177 255.681 152.701 255.681 152.069V146.753H257.049V152.045C257.049 152.725 256.901 153.301 256.605 153.773C256.309 154.245 255.913 154.597 255.417 154.829C254.921 155.061 254.373 155.177 253.773 155.177C253.173 155.177 252.625 155.061 252.129 154.829C251.641 154.597 251.253 154.245 250.965 153.773C250.677 153.301 250.533 152.725 250.533 152.045V146.753H251.901ZM263.162 155.093L261.242 151.757H260.198V155.093H258.83V146.753H261.71C262.35 146.753 262.89 146.865 263.33 147.089C263.778 147.313 264.11 147.613 264.326 147.989C264.55 148.365 264.662 148.785 264.662 149.249C264.662 149.793 264.502 150.289 264.182 150.737C263.87 151.177 263.386 151.477 262.73 151.637L264.794 155.093H263.162ZM260.198 150.665H261.71C262.222 150.665 262.606 150.537 262.862 150.281C263.126 150.025 263.258 149.681 263.258 149.249C263.258 148.817 263.13 148.481 262.874 148.241C262.618 147.993 262.23 147.869 261.71 147.869H260.198V150.665ZM265.956 150.905C265.956 150.089 266.144 149.357 266.52 148.709C266.904 148.061 267.42 147.557 268.068 147.197C268.724 146.829 269.44 146.645 270.216 146.645C271.104 146.645 271.892 146.865 272.58 147.305C273.276 147.737 273.78 148.353 274.092 149.153H272.448C272.232 148.713 271.932 148.385 271.548 148.169C271.164 147.953 270.72 147.845 270.216 147.845C269.664 147.845 269.172 147.969 268.74 148.217C268.308 148.465 267.968 148.821 267.72 149.285C267.48 149.749 267.36 150.289 267.36 150.905C267.36 151.521 267.48 152.061 267.72 152.525C267.968 152.989 268.308 153.349 268.74 153.605C269.172 153.853 269.664 153.977 270.216 153.977C270.72 153.977 271.164 153.869 271.548 153.653C271.932 153.437 272.232 153.109 272.448 152.669H274.092C273.78 153.469 273.276 154.085 272.58 154.517C271.892 154.949 271.104 155.165 270.216 155.165C269.432 155.165 268.716 154.985 268.068 154.625C267.42 154.257 266.904 153.749 266.52 153.101C266.144 152.453 265.956 151.721 265.956 150.905ZM277.061 147.857V150.305H279.941V151.421H277.061V153.977H280.301V155.093H275.693V146.741H280.301V147.857H277.061ZM284.734 155.177C284.174 155.177 283.67 155.081 283.222 154.889C282.774 154.689 282.422 154.409 282.166 154.049C281.91 153.689 281.782 153.269 281.782 152.789H283.246C283.278 153.149 283.418 153.445 283.666 153.677C283.922 153.909 284.278 154.025 284.734 154.025C285.206 154.025 285.574 153.913 285.838 153.689C286.102 153.457 286.234 153.161 286.234 152.801C286.234 152.521 286.15 152.293 285.982 152.117C285.822 151.941 285.618 151.805 285.37 151.709C285.13 151.613 284.794 151.509 284.362 151.397C283.818 151.253 283.374 151.109 283.03 150.965C282.694 150.813 282.406 150.581 282.166 150.269C281.926 149.957 281.806 149.541 281.806 149.021C281.806 148.541 281.926 148.121 282.166 147.761C282.406 147.401 282.742 147.125 283.174 146.933C283.606 146.741 284.106 146.645 284.674 146.645C285.482 146.645 286.142 146.849 286.654 147.257C287.174 147.657 287.462 148.209 287.518 148.913H286.006C285.982 148.609 285.838 148.349 285.574 148.133C285.31 147.917 284.962 147.809 284.53 147.809C284.138 147.809 283.818 147.909 283.57 148.109C283.322 148.309 283.198 148.597 283.198 148.973C283.198 149.229 283.274 149.441 283.426 149.609C283.586 149.769 283.786 149.897 284.026 149.993C284.266 150.089 284.594 150.193 285.01 150.305C285.562 150.457 286.01 150.609 286.354 150.761C286.706 150.913 287.002 151.149 287.242 151.469C287.49 151.781 287.614 152.201 287.614 152.729C287.614 153.153 287.498 153.553 287.266 153.929C287.042 154.305 286.71 154.609 286.27 154.841C285.838 155.065 285.326 155.177 284.734 155.177Z" fill="white"/>
<path d="M645.604 223.397C660.952 223.397 673.395 210.954 673.395 195.606C673.395 180.257 660.952 167.815 645.604 167.815C630.255 167.815 617.812 180.257 617.812 195.606C617.812 210.954 630.255 223.397 645.604 223.397Z" fill="white"/>
<path d="M603.971 132.734C603.971 131.918 604.159 131.186 604.535 130.538C604.919 129.89 605.435 129.386 606.083 129.026C606.739 128.658 607.455 128.474 608.231 128.474C609.119 128.474 609.907 128.694 610.595 129.134C611.291 129.566 611.795 130.182 612.107 130.982H610.463C610.247 130.542 609.947 130.214 609.563 129.998C609.179 129.782 608.735 129.674 608.231 129.674C607.679 129.674 607.187 129.798 606.755 130.046C606.323 130.294 605.983 130.65 605.735 131.114C605.495 131.578 605.375 132.118 605.375 132.734C605.375 133.35 605.495 133.89 605.735 134.354C605.983 134.818 606.323 135.178 606.755 135.434C607.187 135.682 607.679 135.806 608.231 135.806C608.735 135.806 609.179 135.698 609.563 135.482C609.947 135.266 610.247 134.938 610.463 134.498H612.107C611.795 135.298 611.291 135.914 610.595 136.346C609.907 136.778 609.119 136.994 608.231 136.994C607.447 136.994 606.731 136.814 606.083 136.454C605.435 136.086 604.919 135.578 604.535 134.93C604.159 134.282 603.971 133.55 603.971 132.734ZM617.513 137.006C616.737 137.006 616.021 136.826 615.365 136.466C614.717 136.098 614.201 135.59 613.817 134.942C613.441 134.286 613.253 133.55 613.253 132.734C613.253 131.918 613.441 131.186 613.817 130.538C614.201 129.89 614.717 129.386 615.365 129.026C616.021 128.658 616.737 128.474 617.513 128.474C618.297 128.474 619.013 128.658 619.661 129.026C620.317 129.386 620.833 129.89 621.209 130.538C621.585 131.186 621.773 131.918 621.773 132.734C621.773 133.55 621.585 134.286 621.209 134.942C620.833 135.59 620.317 136.098 619.661 136.466C619.013 136.826 618.297 137.006 617.513 137.006ZM617.513 135.818C618.065 135.818 618.557 135.694 618.989 135.446C619.421 135.19 619.757 134.83 619.997 134.366C620.245 133.894 620.369 133.35 620.369 132.734C620.369 132.118 620.245 131.578 619.997 131.114C619.757 130.65 619.421 130.294 618.989 130.046C618.557 129.798 618.065 129.674 617.513 129.674C616.961 129.674 616.469 129.798 616.037 130.046C615.605 130.294 615.265 130.65 615.017 131.114C614.777 131.578 614.657 132.118 614.657 132.734C614.657 133.35 614.777 133.894 615.017 134.366C615.265 134.83 615.605 135.19 616.037 135.446C616.469 135.694 616.961 135.818 617.513 135.818ZM631.903 128.582V136.922H630.535V131.21L627.991 136.922H627.043L624.487 131.21V136.922H623.119V128.582H624.595L627.523 135.122L630.439 128.582H631.903ZM642.485 128.582V136.922H641.117V131.21L638.573 136.922H637.625L635.069 131.21V136.922H633.701V128.582H635.177L638.105 135.122L641.021 128.582H642.485ZM645.639 128.582V133.898C645.639 134.53 645.803 135.006 646.131 135.326C646.467 135.646 646.931 135.806 647.523 135.806C648.123 135.806 648.587 135.646 648.915 135.326C649.251 135.006 649.419 134.53 649.419 133.898V128.582H650.787V133.874C650.787 134.554 650.639 135.13 650.343 135.602C650.047 136.074 649.651 136.426 649.155 136.658C648.659 136.89 648.111 137.006 647.511 137.006C646.911 137.006 646.363 136.89 645.867 136.658C645.379 136.426 644.991 136.074 644.703 135.602C644.415 135.13 644.271 134.554 644.271 133.874V128.582H645.639ZM659.42 136.922H658.052L653.936 130.694V136.922H652.568V128.57H653.936L658.052 134.786V128.57H659.42V136.922ZM662.584 128.582V136.922H661.216V128.582H662.584ZM669.768 128.582V129.698H667.548V136.922H666.18V129.698H663.948V128.582H669.768ZM677.334 128.582L674.574 133.898V136.922H673.206V133.898L670.434 128.582H671.958L673.89 132.674L675.822 128.582H677.334Z" fill="white"/>
<path d="M622.285 154.006C621.725 154.006 621.221 153.91 620.773 153.718C620.325 153.518 619.973 153.238 619.717 152.878C619.461 152.518 619.333 152.098 619.333 151.618H620.797C620.829 151.978 620.969 152.274 621.217 152.506C621.473 152.738 621.829 152.854 622.285 152.854C622.757 152.854 623.125 152.742 623.389 152.518C623.653 152.286 623.785 151.99 623.785 151.63C623.785 151.35 623.701 151.122 623.533 150.946C623.373 150.77 623.169 150.634 622.921 150.538C622.681 150.442 622.345 150.338 621.913 150.226C621.369 150.082 620.925 149.938 620.581 149.794C620.245 149.642 619.957 149.41 619.717 149.098C619.477 148.786 619.357 148.37 619.357 147.85C619.357 147.37 619.477 146.95 619.717 146.59C619.957 146.23 620.293 145.954 620.725 145.762C621.157 145.57 621.657 145.474 622.225 145.474C623.033 145.474 623.693 145.678 624.205 146.086C624.725 146.486 625.013 147.038 625.069 147.742H623.557C623.533 147.438 623.389 147.178 623.125 146.962C622.861 146.746 622.513 146.638 622.081 146.638C621.689 146.638 621.369 146.738 621.121 146.938C620.873 147.138 620.749 147.426 620.749 147.802C620.749 148.058 620.825 148.27 620.977 148.438C621.137 148.598 621.337 148.726 621.577 148.822C621.817 148.918 622.145 149.022 622.561 149.134C623.113 149.286 623.561 149.438 623.905 149.59C624.257 149.742 624.553 149.978 624.793 150.298C625.041 150.61 625.165 151.03 625.165 151.558C625.165 151.982 625.049 152.382 624.817 152.758C624.593 153.134 624.261 153.438 623.821 153.67C623.389 153.894 622.877 154.006 622.285 154.006ZM632.611 148.066C632.611 148.49 632.511 148.89 632.311 149.266C632.111 149.642 631.791 149.95 631.351 150.19C630.911 150.422 630.347 150.538 629.659 150.538H628.147V153.922H626.779V145.582H629.659C630.299 145.582 630.839 145.694 631.279 145.918C631.727 146.134 632.059 146.43 632.275 146.806C632.499 147.182 632.611 147.602 632.611 148.066ZM629.659 149.422C630.179 149.422 630.567 149.306 630.823 149.074C631.079 148.834 631.207 148.498 631.207 148.066C631.207 147.154 630.691 146.698 629.659 146.698H628.147V149.422H629.659ZM638.944 152.218H635.452L634.852 153.922H633.424L636.412 145.57H637.996L640.984 153.922H639.544L638.944 152.218ZM638.56 151.102L637.204 147.226L635.836 151.102H638.56ZM641.827 149.734C641.827 148.918 642.015 148.186 642.391 147.538C642.775 146.89 643.291 146.386 643.939 146.026C644.595 145.658 645.311 145.474 646.087 145.474C646.975 145.474 647.763 145.694 648.451 146.134C649.147 146.566 649.651 147.182 649.963 147.982H648.319C648.103 147.542 647.803 147.214 647.419 146.998C647.035 146.782 646.591 146.674 646.087 146.674C645.535 146.674 645.043 146.798 644.611 147.046C644.179 147.294 643.839 147.65 643.591 148.114C643.351 148.578 643.231 149.118 643.231 149.734C643.231 150.35 643.351 150.89 643.591 151.354C643.839 151.818 644.179 152.178 644.611 152.434C645.043 152.682 645.535 152.806 646.087 152.806C646.591 152.806 647.035 152.698 647.419 152.482C647.803 152.266 648.103 151.938 648.319 151.498H649.963C649.651 152.298 649.147 152.914 648.451 153.346C647.763 153.778 646.975 153.994 646.087 153.994C645.303 153.994 644.587 153.814 643.939 153.454C643.291 153.086 642.775 152.578 642.391 151.93C642.015 151.282 641.827 150.55 641.827 149.734ZM652.932 146.686V149.134H655.812V150.25H652.932V152.806H656.172V153.922H651.564V145.57H656.172V146.686H652.932ZM660.605 154.006C660.045 154.006 659.541 153.91 659.093 153.718C658.645 153.518 658.293 153.238 658.037 152.878C657.781 152.518 657.653 152.098 657.653 151.618H659.117C659.149 151.978 659.289 152.274 659.537 152.506C659.793 152.738 660.149 152.854 660.605 152.854C661.077 152.854 661.445 152.742 661.709 152.518C661.973 152.286 662.105 151.99 662.105 151.63C662.105 151.35 662.021 151.122 661.853 150.946C661.693 150.77 661.489 150.634 661.241 150.538C661.001 150.442 660.665 150.338 660.233 150.226C659.689 150.082 659.245 149.938 658.901 149.794C658.565 149.642 658.277 149.41 658.037 149.098C657.797 148.786 657.677 148.37 657.677 147.85C657.677 147.37 657.797 146.95 658.037 146.59C658.277 146.23 658.613 145.954 659.045 145.762C659.477 145.57 659.977 145.474 660.545 145.474C661.353 145.474 662.013 145.678 662.525 146.086C663.045 146.486 663.333 147.038 663.389 147.742H661.877C661.853 147.438 661.709 147.178 661.445 146.962C661.181 146.746 660.833 146.638 660.401 146.638C660.009 146.638 659.689 146.738 659.441 146.938C659.193 147.138 659.069 147.426 659.069 147.802C659.069 148.058 659.145 148.27 659.297 148.438C659.457 148.598 659.657 148.726 659.897 148.822C660.137 148.918 660.465 149.022 660.881 149.134C661.433 149.286 661.881 149.438 662.225 149.59C662.577 149.742 662.873 149.978 663.113 150.298C663.361 150.61 663.485 151.03 663.485 151.558C663.485 151.982 663.369 152.382 663.137 152.758C662.913 153.134 662.581 153.438 662.141 153.67C661.709 153.894 661.197 154.006 660.605 154.006Z" fill="white"/>
<path d="M629.686 198.524C629.027 198.524 628.847 198.2 628.859 197.637V195.444H630.021V194.27H628.859V192.64L627.397 193.103H627.386V194.266H626.367V195.44H627.386V197.609C627.386 199.131 627.974 199.862 629.472 199.862H630.227V198.52L629.686 198.524Z" fill="#1A284D"/>
<path d="M634.262 194.148C633.902 194.154 633.55 194.244 633.232 194.411C632.911 194.549 632.657 194.808 632.525 195.131V191.224L631.062 191.687V199.864H632.525V196.88C632.513 196.702 632.541 196.524 632.605 196.358C632.669 196.193 632.768 196.042 632.895 195.918C633.023 195.794 633.176 195.699 633.343 195.64C633.511 195.58 633.689 195.558 633.866 195.574C634.028 195.573 634.187 195.605 634.335 195.668C634.484 195.731 634.617 195.824 634.728 195.941C634.839 196.057 634.925 196.196 634.981 196.347C635.037 196.498 635.061 196.659 635.052 196.82V199.865H636.517V196.748C636.517 195.109 635.7 194.148 634.262 194.148Z" fill="#1A284D"/>
<path d="M643.024 197.049C643.038 196.662 642.974 196.276 642.833 195.915C642.693 195.554 642.481 195.225 642.209 194.949C641.944 194.685 641.627 194.477 641.279 194.339C640.931 194.202 640.558 194.137 640.184 194.149C639.804 194.139 639.426 194.205 639.073 194.342C638.719 194.479 638.396 194.686 638.123 194.949C637.843 195.221 637.623 195.548 637.479 195.91C637.334 196.272 637.268 196.66 637.284 197.049C637.269 197.442 637.336 197.833 637.48 198.198C637.625 198.563 637.843 198.894 638.123 199.17C638.395 199.436 638.717 199.645 639.071 199.785C639.425 199.925 639.803 199.993 640.184 199.985C640.701 200.021 641.219 199.914 641.68 199.675C642.141 199.436 642.527 199.074 642.796 198.63L641.682 198.03C641.533 198.264 641.325 198.453 641.079 198.579C640.833 198.706 640.558 198.764 640.282 198.749C639.92 198.783 639.559 198.677 639.272 198.454C638.985 198.232 638.793 197.908 638.736 197.549H643.002C643.012 197.373 643.024 197.206 643.024 197.049ZM638.724 196.558C638.774 196.211 638.954 195.896 639.227 195.675C639.501 195.455 639.847 195.347 640.198 195.371C640.539 195.352 640.874 195.464 641.135 195.685C641.395 195.906 641.561 196.219 641.598 196.558H638.724Z" fill="#1A284D"/>
<path d="M649.708 194.148C649.348 194.154 648.995 194.244 648.677 194.411C648.356 194.549 648.102 194.808 647.97 195.131V191.224L646.508 191.687V199.864H647.97V196.88C647.959 196.702 647.986 196.524 648.05 196.358C648.114 196.193 648.213 196.042 648.341 195.918C648.468 195.794 648.621 195.699 648.789 195.64C648.956 195.58 649.135 195.558 649.312 195.574C649.473 195.573 649.632 195.605 649.781 195.668C649.929 195.731 650.063 195.824 650.174 195.941C650.285 196.057 650.371 196.196 650.427 196.347C650.482 196.498 650.507 196.659 650.498 196.82V199.865H651.96V196.748C651.962 195.109 651.146 194.148 649.708 194.148Z" fill="#1A284D"/>
<path d="M656.49 194.27V197.254C656.512 197.422 656.497 197.594 656.446 197.756C656.394 197.918 656.308 198.067 656.192 198.192C656.076 198.317 655.934 198.414 655.777 198.478C655.619 198.541 655.449 198.569 655.279 198.56C654.692 198.56 654.213 198.16 654.213 197.314V194.27H652.739V197.578C652.696 197.886 652.722 198.2 652.814 198.498C652.907 198.795 653.063 199.069 653.273 199.299C653.483 199.529 653.742 199.709 654.029 199.828C654.317 199.947 654.628 200.001 654.939 199.987C655.254 199.984 655.563 199.899 655.835 199.739C656.106 199.579 656.331 199.35 656.486 199.076V199.867H657.948V194.267L656.49 194.27Z" fill="#1A284D"/>
<path d="M664.044 194.965C663.793 194.703 663.49 194.495 663.156 194.354C662.821 194.214 662.462 194.144 662.099 194.148C661.757 194.125 661.415 194.192 661.108 194.344C660.8 194.495 660.539 194.725 660.349 195.011V191.224L658.887 191.687V199.864H660.349V199.109C660.539 199.394 660.8 199.626 661.107 199.779C661.414 199.933 661.756 200.003 662.099 199.984C662.46 199.99 662.818 199.922 663.152 199.785C663.486 199.647 663.788 199.443 664.04 199.184C664.557 198.603 664.843 197.852 664.843 197.074C664.843 196.296 664.557 195.545 664.04 194.965H664.044ZM661.863 198.585C661.663 198.586 661.465 198.547 661.281 198.47C661.097 198.393 660.93 198.279 660.791 198.136C660.652 197.993 660.544 197.822 660.473 197.636C660.401 197.449 660.369 197.25 660.377 197.051C660.367 196.848 660.401 196.645 660.478 196.456C660.554 196.268 660.671 196.098 660.82 195.96C661.1 195.69 661.474 195.54 661.863 195.541C662.257 195.555 662.63 195.722 662.904 196.005C663.178 196.289 663.331 196.668 663.331 197.063C663.331 197.457 663.178 197.836 662.904 198.12C662.63 198.404 662.257 198.57 661.863 198.585Z" fill="#1A284D"/>
<path d="M725.493 317.388C725.541 316.644 725.825 316.064 726.345 315.648C726.873 315.232 727.545 315.024 728.361 315.024C728.921 315.024 729.405 315.124 729.813 315.324C730.221 315.524 730.529 315.796 730.737 316.14C730.945 316.484 731.049 316.872 731.049 317.304C731.049 317.8 730.917 318.224 730.653 318.576C730.389 318.928 730.073 319.164 729.705 319.284V319.332C730.177 319.476 730.545 319.74 730.809 320.124C731.073 320.5 731.205 320.984 731.205 321.576C731.205 322.048 731.097 322.468 730.881 322.836C730.665 323.204 730.345 323.496 729.921 323.712C729.497 323.92 728.989 324.024 728.397 324.024C727.533 324.024 726.821 323.804 726.261 323.364C725.709 322.916 725.413 322.276 725.373 321.444H726.693C726.725 321.868 726.889 322.216 727.185 322.488C727.481 322.752 727.881 322.884 728.385 322.884C728.873 322.884 729.249 322.752 729.513 322.488C729.777 322.216 729.909 321.868 729.909 321.444C729.909 320.884 729.729 320.488 729.369 320.256C729.017 320.016 728.473 319.896 727.737 319.896H727.425V318.768H727.749C728.397 318.76 728.889 318.652 729.225 318.444C729.569 318.236 729.741 317.908 729.741 317.46C729.741 317.076 729.617 316.772 729.369 316.548C729.121 316.316 728.769 316.2 728.313 316.2C727.865 316.2 727.517 316.316 727.269 316.548C727.021 316.772 726.873 317.052 726.825 317.388H725.493ZM738.282 316.404H734.262V318.792C734.43 318.568 734.678 318.38 735.006 318.228C735.342 318.076 735.698 318 736.074 318C736.746 318 737.29 318.144 737.706 318.432C738.13 318.72 738.43 319.084 738.606 319.524C738.79 319.964 738.882 320.428 738.882 320.916C738.882 321.508 738.766 322.036 738.534 322.5C738.31 322.956 737.97 323.316 737.514 323.58C737.066 323.844 736.514 323.976 735.858 323.976C734.986 323.976 734.286 323.76 733.758 323.328C733.23 322.896 732.914 322.324 732.81 321.612H734.142C734.23 321.988 734.426 322.288 734.73 322.512C735.034 322.728 735.414 322.836 735.87 322.836C736.438 322.836 736.862 322.664 737.142 322.32C737.43 321.976 737.574 321.52 737.574 320.952C737.574 320.376 737.43 319.936 737.142 319.632C736.854 319.32 736.43 319.164 735.87 319.164C735.478 319.164 735.146 319.264 734.874 319.464C734.61 319.656 734.418 319.92 734.298 320.256H733.002V315.204H738.282V316.404ZM746.93 320.22H744.506V322.704H743.234V320.22H740.81V319.068H743.234V316.584H744.506V319.068H746.93V320.22ZM753.538 322.872H756.358V323.976H752.17V315.636H753.538V322.872ZM761.306 324.06C760.53 324.06 759.814 323.88 759.158 323.52C758.51 323.152 757.994 322.644 757.61 321.996C757.234 321.34 757.046 320.604 757.046 319.788C757.046 318.972 757.234 318.24 757.61 317.592C757.994 316.944 758.51 316.44 759.158 316.08C759.814 315.712 760.53 315.528 761.306 315.528C762.09 315.528 762.806 315.712 763.454 316.08C764.11 316.44 764.626 316.944 765.002 317.592C765.378 318.24 765.566 318.972 765.566 319.788C765.566 320.604 765.378 321.34 765.002 321.996C764.626 322.644 764.11 323.152 763.454 323.52C762.806 323.88 762.09 324.06 761.306 324.06ZM761.306 322.872C761.858 322.872 762.35 322.748 762.782 322.5C763.214 322.244 763.55 321.884 763.79 321.42C764.038 320.948 764.162 320.404 764.162 319.788C764.162 319.172 764.038 318.632 763.79 318.168C763.55 317.704 763.214 317.348 762.782 317.1C762.35 316.852 761.858 316.728 761.306 316.728C760.754 316.728 760.262 316.852 759.83 317.1C759.398 317.348 759.058 317.704 758.81 318.168C758.57 318.632 758.45 319.172 758.45 319.788C758.45 320.404 758.57 320.948 758.81 321.42C759.058 321.884 759.398 322.244 759.83 322.5C760.262 322.748 760.754 322.872 761.306 322.872ZM766.456 319.788C766.456 318.972 766.644 318.24 767.02 317.592C767.404 316.944 767.92 316.44 768.568 316.08C769.224 315.712 769.94 315.528 770.716 315.528C771.604 315.528 772.392 315.748 773.08 316.188C773.776 316.62 774.28 317.236 774.592 318.036H772.948C772.732 317.596 772.432 317.268 772.048 317.052C771.664 316.836 771.22 316.728 770.716 316.728C770.164 316.728 769.672 316.852 769.24 317.1C768.808 317.348 768.468 317.704 768.22 318.168C767.98 318.632 767.86 319.172 767.86 319.788C767.86 320.404 767.98 320.944 768.22 321.408C768.468 321.872 768.808 322.232 769.24 322.488C769.672 322.736 770.164 322.86 770.716 322.86C771.22 322.86 771.664 322.752 772.048 322.536C772.432 322.32 772.732 321.992 772.948 321.552H774.592C774.28 322.352 773.776 322.968 773.08 323.4C772.392 323.832 771.604 324.048 770.716 324.048C769.932 324.048 769.216 323.868 768.568 323.508C767.92 323.14 767.404 322.632 767.02 321.984C766.644 321.336 766.456 320.604 766.456 319.788ZM781.221 322.272H777.729L777.129 323.976H775.701L778.689 315.624H780.273L783.261 323.976H781.821L781.221 322.272ZM780.837 321.156L779.481 317.28L778.113 321.156H780.837ZM785.928 322.872H788.748V323.976H784.56V315.636H785.928V322.872Z" fill="white"/>
<path d="M716.882 336.788C716.882 335.972 717.07 335.24 717.446 334.592C717.83 333.944 718.346 333.44 718.994 333.08C719.65 332.712 720.366 332.528 721.142 332.528C722.03 332.528 722.818 332.748 723.506 333.188C724.202 333.62 724.706 334.236 725.018 335.036H723.374C723.158 334.596 722.858 334.268 722.474 334.052C722.09 333.836 721.646 333.728 721.142 333.728C720.59 333.728 720.098 333.852 719.666 334.1C719.234 334.348 718.894 334.704 718.646 335.168C718.406 335.632 718.286 336.172 718.286 336.788C718.286 337.404 718.406 337.944 718.646 338.408C718.894 338.872 719.234 339.232 719.666 339.488C720.098 339.736 720.59 339.86 721.142 339.86C721.646 339.86 722.09 339.752 722.474 339.536C722.858 339.32 723.158 338.992 723.374 338.552H725.018C724.706 339.352 724.202 339.968 723.506 340.4C722.818 340.832 722.03 341.048 721.142 341.048C720.358 341.048 719.642 340.868 718.994 340.508C718.346 340.14 717.83 339.632 717.446 338.984C717.07 338.336 716.882 337.604 716.882 336.788ZM730.423 341.06C729.647 341.06 728.931 340.88 728.275 340.52C727.627 340.152 727.111 339.644 726.727 338.996C726.351 338.34 726.163 337.604 726.163 336.788C726.163 335.972 726.351 335.24 726.727 334.592C727.111 333.944 727.627 333.44 728.275 333.08C728.931 332.712 729.647 332.528 730.423 332.528C731.207 332.528 731.923 332.712 732.571 333.08C733.227 333.44 733.743 333.944 734.119 334.592C734.495 335.24 734.683 335.972 734.683 336.788C734.683 337.604 734.495 338.34 734.119 338.996C733.743 339.644 733.227 340.152 732.571 340.52C731.923 340.88 731.207 341.06 730.423 341.06ZM730.423 339.872C730.975 339.872 731.467 339.748 731.899 339.5C732.331 339.244 732.667 338.884 732.907 338.42C733.155 337.948 733.279 337.404 733.279 336.788C733.279 336.172 733.155 335.632 732.907 335.168C732.667 334.704 732.331 334.348 731.899 334.1C731.467 333.852 730.975 333.728 730.423 333.728C729.871 333.728 729.379 333.852 728.947 334.1C728.515 334.348 728.175 334.704 727.927 335.168C727.687 335.632 727.567 336.172 727.567 336.788C727.567 337.404 727.687 337.948 727.927 338.42C728.175 338.884 728.515 339.244 728.947 339.5C729.379 339.748 729.871 339.872 730.423 339.872ZM744.813 332.636V340.976H743.445V335.264L740.901 340.976H739.953L737.397 335.264V340.976H736.029V332.636H737.505L740.433 339.176L743.349 332.636H744.813ZM755.395 332.636V340.976H754.027V335.264L751.483 340.976H750.535L747.979 335.264V340.976H746.611V332.636H748.087L751.015 339.176L753.931 332.636H755.395ZM758.549 332.636V337.952C758.549 338.584 758.713 339.06 759.041 339.38C759.377 339.7 759.841 339.86 760.433 339.86C761.033 339.86 761.497 339.7 761.825 339.38C762.161 339.06 762.329 338.584 762.329 337.952V332.636H763.697V337.928C763.697 338.608 763.549 339.184 763.253 339.656C762.957 340.128 762.561 340.48 762.065 340.712C761.569 340.944 761.021 341.06 760.421 341.06C759.821 341.06 759.273 340.944 758.777 340.712C758.289 340.48 757.901 340.128 757.613 339.656C757.325 339.184 757.181 338.608 757.181 337.928V332.636H758.549ZM772.33 340.976H770.962L766.846 334.748V340.976H765.478V332.624H766.846L770.962 338.84V332.624H772.33V340.976ZM775.495 332.636V340.976H774.127V332.636H775.495ZM782.679 332.636V333.752H780.459V340.976H779.091V333.752H776.859V332.636H782.679ZM785.432 332.636V340.976H784.064V332.636H785.432ZM788.596 333.74V336.188H791.476V337.304H788.596V339.86H791.836V340.976H787.228V332.624H791.836V333.74H788.596ZM796.269 341.06C795.709 341.06 795.205 340.964 794.757 340.772C794.309 340.572 793.957 340.292 793.701 339.932C793.445 339.572 793.317 339.152 793.317 338.672H794.781C794.813 339.032 794.953 339.328 795.201 339.56C795.457 339.792 795.813 339.908 796.269 339.908C796.741 339.908 797.109 339.796 797.373 339.572C797.637 339.34 797.769 339.044 797.769 338.684C797.769 338.404 797.685 338.176 797.517 338C797.357 337.824 797.153 337.688 796.905 337.592C796.665 337.496 796.329 337.392 795.897 337.28C795.353 337.136 794.909 336.992 794.565 336.848C794.229 336.696 793.941 336.464 793.701 336.152C793.461 335.84 793.341 335.424 793.341 334.904C793.341 334.424 793.461 334.004 793.701 333.644C793.941 333.284 794.277 333.008 794.709 332.816C795.141 332.624 795.641 332.528 796.209 332.528C797.017 332.528 797.677 332.732 798.189 333.14C798.709 333.54 798.997 334.092 799.053 334.796H797.541C797.517 334.492 797.373 334.232 797.109 334.016C796.845 333.8 796.497 333.692 796.065 333.692C795.673 333.692 795.353 333.792 795.105 333.992C794.857 334.192 794.733 334.48 794.733 334.856C794.733 335.112 794.809 335.324 794.961 335.492C795.121 335.652 795.321 335.78 795.561 335.876C795.801 335.972 796.129 336.076 796.545 336.188C797.097 336.34 797.545 336.492 797.889 336.644C798.241 336.796 798.537 337.032 798.777 337.352C799.025 337.664 799.149 338.084 799.149 338.612C799.149 339.036 799.033 339.436 798.801 339.812C798.577 340.188 798.245 340.492 797.805 340.724C797.373 340.948 796.861 341.06 796.269 341.06Z" fill="white"/>
<path d="M764.248 410.451C779.597 410.451 792.039 398.009 792.039 382.66C792.039 367.312 779.597 354.869 764.248 354.869C748.899 354.869 736.457 367.312 736.457 382.66C736.457 398.009 748.899 410.451 764.248 410.451Z" fill="white"/>
<mask id="mask1_911_1916" style="mask-type:luminance" maskUnits="userSpaceOnUse" x="745" y="363" width="39" height="39">
<path d="M764.248 401.9C774.874 401.9 783.488 393.286 783.488 382.66C783.488 372.034 774.874 363.42 764.248 363.42C753.622 363.42 745.008 372.034 745.008 382.66C745.008 393.286 753.622 401.9 764.248 401.9Z" fill="white"/>
</mask>
<g mask="url(#mask1_911_1916)">
<path d="M795.779 363.42H732.715V401.9H795.779V363.42Z" fill="white"/>
<path d="M741.781 363.42L758.968 374.539V363.42H741.781Z" fill="#012169"/>
<path d="M741.609 401.9H759.019V390.611L741.609 401.9Z" fill="#012169"/>
<path d="M769.73 363.42V374.539L786.917 363.42H769.73Z" fill="#012169"/>
<path d="M769.676 401.9H787.084L769.676 390.611V401.9Z" fill="#012169"/>
<path d="M761.007 363.42V378.384H732.695V386.931H761.007V401.9H767.888V386.931H795.795V378.384H767.888V363.42H761.007Z" fill="#C8102E"/>
<path d="M732.695 363.42V365.76L748 375.631H752.785L734.041 363.42H732.695Z" fill="#C8102E"/>
<path d="M753.217 389.782L734.473 401.9H739.41L758.001 389.72L753.217 389.782Z" fill="#C8102E"/>
<path d="M789.128 363.42L770.828 375.337H775.613L794.091 363.42H789.128Z" fill="#C8102E"/>
<path d="M789.42 401.9H794.354L775.613 389.783L770.828 389.721L789.42 401.9Z" fill="#C8102E"/>
</g>
<path d="M826.243 399.762C835.688 399.762 843.345 392.105 843.345 382.66C843.345 373.215 835.688 365.558 826.243 365.558C816.797 365.558 809.141 373.215 809.141 382.66C809.141 392.105 816.797 399.762 826.243 399.762Z" fill="white"/>
<mask id="mask2_911_1916" style="mask-type:luminance" maskUnits="userSpaceOnUse" x="815" y="371" width="22" height="23">
<path d="M826.244 393.349C832.147 393.349 836.933 388.564 836.933 382.66C836.933 376.757 832.147 371.971 826.244 371.971C820.34 371.971 815.555 376.757 815.555 382.66C815.555 388.564 820.34 393.349 826.244 393.349Z" fill="white"/>
</mask>
<g mask="url(#mask2_911_1916)">
<path d="M842.28 371.97H810.211V393.349H842.28V371.97Z" fill="#21468B"/>
<path d="M842.28 371.97H810.211V386.223H842.28V371.97Z" fill="white"/>
<path d="M842.28 371.97H810.211V379.096H842.28V371.97Z" fill="#AE1C28"/>
</g>
<path d="M873.276 395.487C880.36 395.487 886.103 389.744 886.103 382.66C886.103 375.576 880.36 369.833 873.276 369.833C866.192 369.833 860.449 375.576 860.449 382.66C860.449 389.744 866.192 395.487 873.276 395.487Z" fill="white"/>
<mask id="mask3_911_1916" style="mask-type:luminance" maskUnits="userSpaceOnUse" x="864" y="374" width="18" height="18">
<path d="M873.278 391.211C878 391.211 881.829 387.382 881.829 382.66C881.829 377.937 878 374.109 873.278 374.109C868.555 374.109 864.727 377.937 864.727 382.66C864.727 387.382 868.555 391.211 873.278 391.211Z" fill="white"/>
</mask>
<g mask="url(#mask3_911_1916)">
<path d="M890.38 376.247H864.727V378.385H890.38V376.247Z" fill="#D80027"/>
<path d="M890.38 380.523H864.727V382.661H890.38V380.523Z" fill="#D80027"/>
<path d="M890.38 384.798H864.727V386.936H890.38V384.798Z" fill="#D80027"/>
<path d="M890.38 389.074H864.727V391.212H890.38V389.074Z" fill="#D80027"/>
<path d="M877.554 374.109H864.727V383.318H877.554V374.109Z" fill="#2E52B2"/>
<path d="M869.727 377.881L869.52 378.516H868.852L869.393 378.909L869.186 379.544L869.727 379.151L870.267 379.544L870.06 378.909L870.601 378.516H869.933L869.727 377.881Z" fill="#F0F0F0"/>
<path d="M869.933 380.81L869.727 380.175L869.52 380.81H868.852L869.393 381.203L869.186 381.838L869.727 381.445L870.267 381.838L870.06 381.203L870.601 380.81H869.933Z" fill="#F0F0F0"/>
<path d="M867.109 380.81L866.903 380.175L866.696 380.81H866.027L866.568 381.203L866.361 381.838L866.902 381.445L867.442 381.838L867.235 381.203L867.776 380.81H867.109Z" fill="#F0F0F0"/>
<path d="M866.903 377.881L866.696 378.516H866.027L866.568 378.909L866.361 379.544L866.902 379.151L867.442 379.544L867.235 378.909L867.776 378.516H867.108L866.903 377.881Z" fill="#F0F0F0"/>
<path d="M869.727 375.588L869.52 376.224H868.852L869.393 376.617L869.186 377.252L869.727 376.859L870.267 377.252L870.06 376.617L870.601 376.224H869.933L869.727 375.588Z" fill="#F0F0F0"/>
<path d="M866.903 375.588L866.696 376.224H866.027L866.568 376.617L866.361 377.252L866.902 376.859L867.442 377.252L867.235 376.617L867.776 376.224H867.108L866.903 375.588Z" fill="#F0F0F0"/>
<path d="M872.551 377.881L872.344 378.516H871.676L872.217 378.909L872.011 379.544L872.552 379.151L873.092 379.544L872.885 378.909L873.426 378.516H872.758L872.551 377.881Z" fill="#F0F0F0"/>
<path d="M872.757 380.81L872.551 380.175L872.344 380.81H871.676L872.217 381.203L872.011 381.838L872.552 381.445L873.092 381.838L872.885 381.203L873.426 380.81H872.757Z" fill="#F0F0F0"/>
<path d="M875.581 380.81L875.375 380.175L875.168 380.81H874.5L875.041 381.203L874.835 381.838L875.376 381.445L875.916 381.838L875.709 381.203L876.25 380.81H875.581Z" fill="#F0F0F0"/>
<path d="M875.375 377.881L875.168 378.516H874.5L875.041 378.909L874.835 379.544L875.376 379.151L875.916 379.544L875.709 378.909L876.25 378.516H875.582L875.375 377.881Z" fill="#F0F0F0"/>
<path d="M872.551 375.588L872.344 376.224H871.676L872.217 376.617L872.011 377.252L872.552 376.859L873.092 377.252L872.885 376.617L873.426 376.224H872.758L872.551 375.588Z" fill="#F0F0F0"/>
<path d="M875.375 375.588L875.168 376.224H874.5L875.041 376.617L874.835 377.252L875.376 376.859L875.916 377.252L875.709 376.617L876.25 376.224H875.582L875.375 375.588Z" fill="#F0F0F0"/>
</g>
<path d="M140.021 410.451C155.37 410.451 167.812 398.009 167.812 382.66C167.812 367.312 155.37 354.869 140.021 354.869C124.673 354.869 112.23 367.312 112.23 382.66C112.23 398.009 124.673 410.451 140.021 410.451Z" fill="white"/>
<path d="M117.42 334.911V337.359H120.3V338.475H117.42V341.031H120.66V342.147H116.052V333.795H120.66V334.911H117.42ZM129.533 333.807L126.401 342.147H124.817L121.673 333.807H123.137L125.609 340.743L128.093 333.807H129.533ZM132.045 334.911V337.359H134.925V338.475H132.045V341.031H135.285V342.147H130.677V333.795H135.285V334.911H132.045ZM143.822 342.147H142.454L138.338 335.919V342.147H136.97V333.795H138.338L142.454 340.011V333.795H143.822V342.147ZM151.007 333.807V334.923H148.787V342.147H147.419V334.923H145.187V333.807H151.007ZM155.14 342.231C154.58 342.231 154.076 342.135 153.628 341.943C153.18 341.743 152.828 341.463 152.572 341.103C152.316 340.743 152.188 340.323 152.188 339.843H153.652C153.684 340.203 153.824 340.499 154.072 340.731C154.328 340.963 154.684 341.079 155.14 341.079C155.612 341.079 155.98 340.967 156.244 340.743C156.508 340.511 156.64 340.215 156.64 339.855C156.64 339.575 156.556 339.347 156.388 339.171C156.228 338.995 156.024 338.859 155.776 338.763C155.536 338.667 155.2 338.563 154.768 338.451C154.224 338.307 153.78 338.163 153.436 338.019C153.1 337.867 152.812 337.635 152.572 337.323C152.332 337.011 152.212 336.595 152.212 336.075C152.212 335.595 152.332 335.175 152.572 334.815C152.812 334.455 153.148 334.179 153.58 333.987C154.012 333.795 154.512 333.699 155.08 333.699C155.888 333.699 156.548 333.903 157.06 334.311C157.58 334.711 157.868 335.263 157.924 335.967H156.412C156.388 335.663 156.244 335.403 155.98 335.187C155.716 334.971 155.368 334.863 154.936 334.863C154.544 334.863 154.224 334.963 153.976 335.163C153.728 335.363 153.604 335.651 153.604 336.027C153.604 336.283 153.68 336.495 153.832 336.663C153.992 336.823 154.192 336.951 154.432 337.047C154.672 337.143 155 337.247 155.416 337.359C155.968 337.511 156.416 337.663 156.76 337.815C157.112 337.967 157.408 338.203 157.648 338.523C157.896 338.835 158.02 339.255 158.02 339.783C158.02 340.207 157.904 340.607 157.672 340.983C157.448 341.359 157.116 341.663 156.676 341.895C156.244 342.119 155.732 342.231 155.14 342.231Z" fill="white"/>
<path d="M144.3 382.66L134.68 373.04L125.06 382.66L134.68 392.28L144.3 382.66Z" fill="#007AD6"/>
<path d="M155.405 382.66L145.785 373.04L136.165 382.66L145.785 392.28L155.405 382.66Z" fill="#007AD6"/>
<path d="M136.164 382.66L140.231 378.593L144.298 382.66L140.231 386.727L136.164 382.66Z" fill="white"/>
</g>
</g>
<defs>
<filter id="filter0_d_911_1916" x="181.949" y="230.879" width="536.105" height="553.104" filterUnits="userSpaceOnUse" color-interpolation-filters="sRGB">
<feFlood flood-opacity="0" result="BackgroundImageFix"/>
<feColorMatrix in="SourceAlpha" type="matrix" values="0 0 0 0 0 0 0 0 0 0 0 0 0 0 0 0 0 0 127 0" result="hardAlpha"/>
<feOffset dy="67"/>
<feGaussianBlur stdDeviation="25"/>
<feColorMatrix type="matrix" values="0 0 0 0 0.0392157 0 0 0 0 0.0823529 0 0 0 0 0.207843 0 0 0 1 0"/>
<feBlend mode="normal" in2="BackgroundImageFix" result="effect1_dropShadow_911_1916"/>
<feBlend mode="normal" in="SourceGraphic" in2="effect1_dropShadow_911_1916" result="shape"/>
</filter>
<linearGradient id="paint0_linear_911_1916" x1="214.161" y1="102.754" x2="887.985" y2="518.84" gradientUnits="userSpaceOnUse">
<stop stop-color="#0E2974"/>
<stop offset="1" stop-color="#0B183D" stop-opacity="0"/>
</linearGradient>
<linearGradient id="paint1_linear_911_1916" x1="238.105" y1="220.638" x2="757.123" y2="517.04" gradientUnits="userSpaceOnUse">
<stop stop-color="#0C1643"/>
<stop offset="1" stop-color="#071029" stop-opacity="0"/>
</linearGradient>
<linearGradient id="paint2_linear_911_1916" x1="253.734" y1="193.72" x2="637.846" y2="709.971" gradientUnits="userSpaceOnUse">
<stop stop-color="#234DC3"/>
<stop offset="1" stop-color="#0D1D4A" stop-opacity="0.502"/>
</linearGradient>
<linearGradient id="paint3_linear_911_1916" x1="450.001" y1="230.879" x2="450.001" y2="580.198" gradientUnits="userSpaceOnUse">
<stop stop-color="#2779F1"/>
<stop offset="1" stop-color="#1960CA" stop-opacity="0.702"/>
</linearGradient>
<linearGradient id="paint4_linear_911_1916" x1="450.004" y1="270.428" x2="450.004" y2="492.844" gradientUnits="userSpaceOnUse">
<stop stop-color="#000F25"/>
<stop offset="1" stop-color="#000F25" stop-opacity="0"/>
</linearGradient>
<linearGradient id="paint5_linear_911_1916" x1="450.001" y1="312.114" x2="450.001" y2="482.588" gradientUnits="userSpaceOnUse">
<stop stop-color="#000F25"/>
<stop offset="1" stop-color="#000F25" stop-opacity="0"/>
</linearGradient>
<linearGradient id="paint6_linear_911_1916" x1="327.447" y1="264.656" x2="184.874" y2="121.604" gradientUnits="userSpaceOnUse">
<stop stop-color="#2A4283"/>
<stop offset="0.735" stop-color="#2A4283" stop-opacity="0.612"/>
<stop offset="1" stop-color="#2A4283" stop-opacity="0"/>
</linearGradient>
<linearGradient id="paint7_linear_911_1916" x1="235.689" y1="382.126" x2="34.5671" y2="382.126" gradientUnits="userSpaceOnUse">
<stop stop-color="#2A4283"/>
<stop offset="0.735" stop-color="#2A4283" stop-opacity="0.612"/>
<stop offset="1" stop-color="#2A4283" stop-opacity="0"/>
</linearGradient>
<linearGradient id="paint8_linear_911_1916" x1="658.441" y1="382.126" x2="860.012" y2="382.126" gradientUnits="userSpaceOnUse">
<stop stop-color="#2A4283"/>
<stop offset="0.735" stop-color="#2A4283" stop-opacity="0.612"/>
<stop offset="1" stop-color="#2A4283" stop-opacity="0"/>
</linearGradient>
<linearGradient id="paint9_linear_911_1916" x1="573.086" y1="264.337" x2="712.153" y2="124.95" gradientUnits="userSpaceOnUse">
<stop stop-color="#2A4283"/>
<stop offset="0.735" stop-color="#2A4283" stop-opacity="0.612"/>
<stop offset="1" stop-color="#2A4283" stop-opacity="0"/>
</linearGradient>
<linearGradient id="paint10_linear_911_1916" x1="449.999" y1="-1.33792e-05" x2="898.93" y2="573.734" gradientUnits="userSpaceOnUse">
<stop stop-color="#102458"/>
<stop offset="1" stop-color="#0A1536" stop-opacity="0"/>
</linearGradient>
<clipPath id="clip0_911_1916">
<rect width="900" height="519.477" fill="white"/>
</clipPath>
</defs>
</svg>
