<svg width="65" height="34" viewBox="0 0 65 34" fill="none" xmlns="http://www.w3.org/2000/svg">
<path d="M43.9463 12.9442C43.5377 12.6403 42.8984 12.4562 42.2757 12.4667C41.602 12.4742 40.9553 12.6927 40.5062 13.049V8.79004H38.3984V22.6823H40.5062V15.4323C40.5062 14.9278 40.9299 14.3709 41.7173 14.3364C42.0646 14.323 42.5511 14.4727 42.7966 14.8394C43.0586 15.2302 43.0421 15.7466 43.0421 16.314V22.6838H45.1469V16.2332C45.1469 14.332 44.8984 13.6538 43.9463 12.9457" fill="#546285"/>
<path d="M26.791 17.7196C26.791 19.0804 26.7475 19.4636 26.7371 19.5819C26.6652 20.3349 26.3434 21.1343 25.4646 21.1343C24.5859 21.1343 24.2296 20.281 24.1922 19.5444C24.1922 19.54 24.1383 19.0804 24.1383 17.7196C24.1383 16.3588 24.1922 15.7915 24.1922 15.787C24.2026 15.0205 24.6008 14.2525 25.4646 14.2525C26.3284 14.2525 26.7266 15.0205 26.7356 15.7795C26.7356 15.7915 26.7895 16.3588 26.7895 17.7196M28.8299 16.0819C28.532 13.1118 26.8449 12.4756 25.4616 12.4756C23.5005 12.4756 22.3044 13.7226 22.0904 16.0789C22.0739 16.2675 22.0425 16.6133 22.032 17.7211C22.0245 18.5295 22.0769 19.1941 22.0859 19.3603C22.2221 21.5594 23.4826 22.9142 25.4616 22.9142C27.4407 22.9142 28.6981 21.5355 28.8359 19.3588C28.8449 19.2031 28.8898 18.5295 28.8898 17.7196C28.8898 17.3543 28.8568 16.3603 28.8299 16.0804V16.0819Z" fill="#546285"/>
<path d="M48.6797 16.4716C48.6947 16.012 48.6947 15.9147 48.7037 15.7815C48.7636 14.9492 49.1348 14.262 49.9881 14.2545C51.0001 14.2471 51.2366 15.2381 51.2725 15.786C51.292 16.0734 51.313 16.2665 51.3115 16.4716H48.6797ZM51.2815 19.2531C51.2815 19.2531 51.286 19.4072 51.2636 19.5974C51.2052 20.0884 51.0106 21.1348 49.9836 21.1348C49.1094 21.1348 48.7755 20.3399 48.7172 19.5495C48.7037 19.3234 48.6633 19.0749 48.6663 18.2201H53.3654C53.3654 18.2201 53.3728 17.521 53.3609 17.1004C53.3549 16.9357 53.3459 16.6602 53.3055 16.0794C53.2411 15.1887 52.9073 14.2141 52.3998 13.5869C51.8085 12.8578 50.9731 12.4746 49.9836 12.4746C48.0854 12.4746 46.8998 13.7081 46.6648 16.0794C46.6453 16.2905 46.6094 16.5854 46.6094 17.7201C46.6094 18.5285 46.6543 19.2036 46.6633 19.3593C46.792 21.5225 48.0704 22.9132 49.9836 22.9132C51.8968 22.9132 53.1737 21.5584 53.3055 19.2516H51.2815V19.2531Z" fill="#546285"/>
<path d="M15.3982 1.7021H49.6512L62.7485 17.0254L49.6542 32.1392H15.3967L2.2485 16.973L15.3982 1.7021ZM50.4805 0H14.5704L0 16.9192L14.5719 33.7305H50.479L65 16.9745L50.4805 0Z" fill="#546285"/>
<path d="M15.8401 10.6803H16.8372C17.9225 10.6803 18.5093 11.2551 18.5363 12.2821C18.5378 12.3584 18.5482 12.4437 18.5482 12.6039C18.5482 12.7895 18.5452 12.8554 18.5363 12.9273C18.4764 13.5366 18.2084 14.6024 16.9389 14.6024H15.8401V10.6788M20.8327 21.827L20.6156 18.4153C20.5213 16.8898 20.1246 15.9916 19.3357 15.5306C19.906 15.1877 20.6425 14.3389 20.6366 12.568C20.6261 9.87188 18.9509 8.92578 16.9794 8.90332H13.7578V22.6863H15.8387V16.3824H16.9973C17.6665 16.3824 18.4225 16.9677 18.5363 18.6114L18.7533 21.8389C18.7698 22.2955 18.8566 22.6877 18.8566 22.6877H20.9375C20.9375 22.6877 20.8476 22.309 20.8327 21.8285V21.827Z" fill="#546285"/>
<path d="M35.0047 19.1582C34.9972 19.3124 34.9867 19.4486 34.9793 19.5459C34.9194 20.3169 34.6484 21.1358 33.7068 21.1358C32.8296 21.1358 32.4822 20.2465 32.4179 19.5938C32.379 19.1986 32.3879 18.8903 32.3805 17.7211C32.3715 16.3603 32.4149 16.01 32.4343 15.7885C32.5092 14.9292 32.843 14.2615 33.7068 14.254C34.596 14.248 34.9688 15.022 34.9793 15.781C34.9793 15.7885 34.9972 15.9726 35.0122 16.3753H37.096C37.09 16.2376 37.084 16.1208 37.0781 16.0519C36.84 13.1732 35.087 12.4756 33.7023 12.4756C31.7412 12.4756 30.5466 13.7226 30.3311 16.0789C30.3146 16.2675 30.2846 16.6133 30.2742 17.7211C30.2667 18.5295 30.3191 19.1941 30.3296 19.3603C30.4643 21.5594 31.7263 22.9082 33.7038 22.9142C35.7532 22.9217 36.8819 21.6717 37.0796 19.3588C37.087 19.2735 37.0975 19.2166 37.0915 19.1582H35.0062" fill="#546285"/>
</svg>
