<svg height="70" viewBox="0 0 70 70" width="70" xmlns="http://www.w3.org/2000/svg"><path d="m68.5 20.04 1.5-1.22c-.2-.3-.33-.5-.47-.7-1.67-2.35-3.31-4.72-5.01-7.05a2.982 2.982 0 0 1 -.68-2.14c.05-.64.01-1.29.01-1.94h-2.34c0 .84-.03 1.64 0 2.43a1.887 1.887 0 0 1 -.37 1.21c-1.8 2.5-3.57 5.02-5.35 7.53-.14.19-.26.4-.37.57.38.82 1.53 1.07 1.45 2.18h-8.08v-6.9h-2.33v2.23h-2.22v-3.38l1.05-.08v-2.32h-1.48c-.13-.29-.24-.52-.34-.77-.8-1.87-1.58-3.76-2.4-5.62a3.942 3.942 0 0 1 -.36-1.76c.03-.77.01-1.54.01-2.31h-2.32a3.5 3.5 0 0 0 -.02.56 9.3 9.3 0 0 1 -1.09 5.25c-.73 1.5-1.33 3.08-2.01 4.68h-1.48v2.3l1.06.07v3.39h-2.26v-2.26h-2.33v11.6h-2.29v-2.25h-2.36v2.24h-2.29v-2.25h-2.32l-.01 13.95h-2.86l-2.86-2.87v-5.68l2.54-1.31c-.09-.28-.14-.46-.2-.65q-3.405-10.26-6.77-20.54a4.7 4.7 0 0 1 -.21-1.28c-.03-1.44-.01-2.87-.01-4.31 0-.21-.03-.42-.04-.64h-2.27c-.01.25-.03.44-.03.63 0 1.46.01 2.92-.01 4.38a3.984 3.984 0 0 1 -.17 1.14q-3.255 9.855-6.5 19.71c-.17.5-.33 1.01-.5 1.56l2.54 1.31v5.99l-3.65 3.66c.36.73.76 1.48 1.1 2.26a2.6 2.6 0 0 1 .25 1.03v25.32c0 .21-.02.43-.03.66l-1.08.07v2.28h69.35v-2.28l-1.09-.08zm-19.66 3.34h7.99v6.36l-3.4-3.42-4.59 4.62zm7.28 9.24h-5.38l2.7-2.7zm-7.28 2.43h7.98v2.21h-7.98zm-9.39-28.36.16-.03 1.61 3.77h-3.36zm-2.16 6.16h4.5v3.4h-4.5zm-4.62 5.87h13.77v6.87h-5.71v-4.58h-2.32v4.58h-5.74zm0 9.34h13.77v9.21h-13.77zm-9.28-.01h6.83v9.21h-6.83zm-14-18.27h.15l5.42 16.4a3.327 3.327 0 0 1 -1.99.64c-2.34-.04-4.67-.04-7.01 0a3.222 3.222 0 0 1 -1.98-.65zm-3.32 23.99v-4.54h6.82v4.54zm5.11 5.84h-3.43l1.34-3.39h.76zm-8.32-.77 2.63-2.64h1.07l-1.35 3.43h-1.94zm12.34 28.79h-11.46v-25.56h11.46zm.49-28.02h-1.97l-1.34-3.41h1.15l2.57 2.59zm11.06 28.01h-9.14v-15.04h9.14zm-7.77-17.52 3.21-3.92 3.22 3.92zm22.8 17.55-5.65-.01v-13.9h5.65zm-4.81-16.38 2.57-4.53a5.753 5.753 0 0 1 .36.5c.56.94 1.13 1.86 1.66 2.82a7.149 7.149 0 0 1 .4 1.21zm2.56-9.23c-.17.27-.29.44-.39.63-1.71 3.01-3.41 6.04-5.13 9.05a2.459 2.459 0 0 0 -.27 1.25v14.65h-4.6v-.74q0-7.62.01-15.25a1.8 1.8 0 0 0 -.43-1.25c-2.02-2.41-4.01-4.85-6.02-7.28-.15-.19-.32-.35-.53-.59l-4.55 5.5c-.02-.3-.04-.48-.04-.66 0-1.72.05-3.45-.02-5.18a4.1 4.1 0 0 1 .76-2.46h30.4v1.72l-6.67 4.81zm16.13 25.6h-2.21v-4.58h-2.32v4.56h-2.29v-4.57h-2.35v4.57h-2.25v-6.86h11.42zm.01-9.36h-11.46v-6.87h11.46zm.51-9.3h-12.48l-.43-.7 6.69-4.83 6.57 4.75zm5.29 18.66-3.37.01v-9.86l3.37 1.35zm4.6 0h-2.19v-10.07l-5.81-2.37c0-1.53-.01-3.06.01-4.59a1.593 1.593 0 0 1 .21-.6c.4-.83.82-1.66 1.25-2.55l-8.4-6.06v-1.67h14.93zm.02-30.38h-6.83v-5.73h6.83zm0-8.17h-6.81v-8.06h6.81zm-7.71-10.51 4.3-6.07 4.29 6.07z" fill="#546285"/><path d="m14.96 26.18a3.327 3.327 0 0 1 -1.99.64c-2.34-.04-4.67-.04-7.01 0a3.222 3.222 0 0 1 -1.98-.65l5.41-16.39h.15z" fill="#f1553f"/><g fill="#546285"><path d="m31.415 45.487h-2.254v-2.287h2.255z"/><path d="m12.926 44.375v3.425h-2.266v-3.425z"/><path d="m8.271 53.666h-2.239v-3.452h2.239z"/><path d="m10.668 56.035h2.226v3.436h-2.226z"/><path d="m61.555 43.18h2.245v2.288h-2.245z"/><path d="m23.318 58.333h-2.258v-2.292h2.255z"/><path d="m24.474 64.173h-2.256v-2.288h2.254z"/><path d="m37.21 30.353v3.447h-2.269v-3.447z"/><path d="m41.889 30.335h2.244v3.454h-2.244z"/><path d="m51.073 56h-2.241v-2.284h2.241z"/><path d="m63.807 26.8h-2.261v-3.455h2.261z"/></g></svg>