<svg xmlns="http://www.w3.org/2000/svg" width="70.003" height="70" viewBox="0 0 70.003 70"><defs><style>.a{fill:#f1553f;}.b{fill:#546285;}</style></defs><g transform="translate(0.002)"><circle class="a" cx="4" cy="4" r="4" transform="translate(31 8)"/><path class="b" d="M67.67,56.47v-2.8A5.6,5.6,0,0,0,70,49V47.48a5.49,5.49,0,0,0-1.75-4.08l-1.98-1.98a5.579,5.579,0,0,1-1.52-2.69l-.58-2.33a3.49,3.49,0,0,0,.11-4.9,4.039,4.039,0,0,0-1.4-.93V26.83h2.34V24.5H62.88V22.17H60.55V24.5H58.33v2.33h2.34v3.74a3.334,3.334,0,0,0-2.2,4.17,2.772,2.772,0,0,0,.1.26,3.778,3.778,0,0,0,.93,1.4l-.58,2.33a5.66,5.66,0,0,1-1.52,2.69L55.42,43.4a5.921,5.921,0,0,0-1.75,4.08V49A5.742,5.742,0,0,0,56,53.67v2.8l1.17,1.16v4.2h-3.5v3.5h-3.5V62.07l1.16-.82V59.5a5.605,5.605,0,0,0,2.34-4.67V53.32a5.512,5.512,0,0,0-1.75-4.09l-1.99-1.98a5.566,5.566,0,0,1-1.51-2.68l-.59-2.34a3.481,3.481,0,0,0,.12-4.9,4.233,4.233,0,0,0-1.4-.93V32.67h2.33V30.33H46.55V28H44.22v2.33H42v2.34h2.33v3.5h-1.4L38.5,20.88V17.03a4.684,4.684,0,0,0,2.33-4.08V12.6a4.86,4.86,0,0,0-2.56-4.2l-2.1-.93V4.67H38.5V2.33H36.17V0H33.83V2.33H31.5V4.67h2.33v2.8l-2.1,1.05a4.727,4.727,0,0,0-2.56,4.2v.35a4.843,4.843,0,0,0,2.33,4.08V21L27.07,36.17H24.5V38.5h2.33L25.67,58.8l-2.34,1.17V62.3l1.17,1.17v1.86H22.17v-7.7l1.16-1.16v-2.8A5.605,5.605,0,0,0,25.67,49V47.48a5.49,5.49,0,0,0-1.75-4.08l-1.99-1.98a5.643,5.643,0,0,1-1.51-2.69l-.59-2.33a3.481,3.481,0,0,0,.12-4.9,4.233,4.233,0,0,0-1.4-.93V26.83h2.33V24.5H18.55V22.17H16.22V24.5H14v2.33h2.33v3.74a3.321,3.321,0,0,0-2.19,4.17c.03.09.06.17.09.26a3.685,3.685,0,0,0,.94,1.4l-.59,2.1-1.86-1.87a5.5,5.5,0,0,1-1.52-2.68l-.58-2.33a3.49,3.49,0,0,0,.11-4.9,4.064,4.064,0,0,0-1.4-.94V22.17h2.34V19.83H9.33V17.5H7v2.33H4.78v2.34H7V25.9a3.329,3.329,0,0,0-2.19,4.17,1.985,1.985,0,0,0,.09.26,3.7,3.7,0,0,0,.93,1.4l-.58,2.34a5.5,5.5,0,0,1-1.52,2.68L1.75,38.73A5.338,5.338,0,0,0,0,42.82v1.51A5.756,5.756,0,0,0,2.33,49v2.8L3.5,52.97V70H5.83V54.83h5.84v1.64l1.16,1.16V70h2.34V59.5h4.66V70h2.34V67.67H24.5V70h2.33V64.17h14V70h2.34V65.33h4.66V70h2.34V67.67h3.5V70h2.9a2.224,2.224,0,0,0,2-1.28l.46-1.05h2.1l.47,1.05a2.2,2.2,0,0,0,2,1.28h1.13a2.2,2.2,0,0,0,2-1.28l.47-1.05h.47V70H70V61.83H66.5v-4.2ZM16.33,33.76a1.1,1.1,0,0,1,1.03-1.09.33.33,0,0,1,.14,0,1.165,1.165,0,1,1-1.17,1.16Zm-.11,10.81,1.28-4.44,1.28,4.44a10.12,10.12,0,0,1-.23,6.18l-.7,1.75h-.7l-.7-1.75A8.666,8.666,0,0,1,16.22,44.57ZM8.1,28h.07a1.166,1.166,0,1,1-.07,0ZM5.25,38.38a7.814,7.814,0,0,0,2.1-3.85l.58-1.86H8.4l.47,1.86a.858.858,0,0,0,.23.59,8.732,8.732,0,0,1-4.55,3.85Zm-2.92,4.2a2.1,2.1,0,0,1,.12-.7,10.79,10.79,0,0,0,7.93-4.43c.24.23.47.58.7.82l.24.23c-1.29,1.52-4.55,5.13-8.99,5.6Zm3.5,9.92v-.47L4.67,50.87v-.82a3.788,3.788,0,0,0,1.16.12H9.45A8.426,8.426,0,0,0,10.5,52.5Zm5.14-9.22a6.129,6.129,0,0,0-1.64,4.2v.35H5.83a3.108,3.108,0,0,1-2.68-1.4c4.78-.81,8.28-4.31,9.8-6.18a2.913,2.913,0,0,1,.47.58c-.12.24-.35.35-.47.47Zm.7,5.72V47.48a3.149,3.149,0,0,1,1.05-2.45l1.4-1.4-.12.35a12.441,12.441,0,0,0,.35,7.7l.35.82A3.609,3.609,0,0,1,11.67,49ZM21,55.53,19.83,56.7v.47H15.17V56.7L14,55.53v-.81a4.154,4.154,0,0,0,1.17.11h4.66A4.154,4.154,0,0,0,21,54.72Zm-.58-3.15.35-.81a12.448,12.448,0,0,0,.35-7.7L21,43.63l1.28,1.29a3.289,3.289,0,0,1,1.05,2.45V49A3.388,3.388,0,0,1,20.42,52.38ZM45.5,38.5a1.171,1.171,0,0,1,1.17,1.17v.07a1.1,1.1,0,0,1-1.03,1.09.33.33,0,0,1-.14,0,1.165,1.165,0,1,1,0-2.33Zm-5.13-2.33h-4.2v-14h.23ZM33.83,19.83V17.5h2.34v2.33Zm-1.05-9.21L35,9.57l2.22,1.05a2.2,2.2,0,0,1,1.28,2.1v.35a2.22,2.22,0,0,1-1.28,2.1h-4.2l-.12-.12a2.185,2.185,0,0,1-1.28-2.1v-.23H31.5A2.2,2.2,0,0,1,32.78,10.62Zm.82,11.55h.23v14H29.52ZM29.17,38.5H42.23A4.26,4.26,0,0,0,42,39.67H40.37a2.185,2.185,0,0,0-2.1,1.28L37.8,42h-.93l-.47-1.05a2.185,2.185,0,0,0-2.1-1.28H32.2a2.185,2.185,0,0,0-2.1,1.28L29.63,42h-.7Zm-.47,5.83h.82a2.2,2.2,0,0,0,2.1-1.28L32.08,42h2.1l.47,1.05a2.185,2.185,0,0,0,2.1,1.28h.93a2.185,2.185,0,0,0,2.1-1.28L40.25,42h2.57c.11.12.23.12.23.23l-.58,2.34-.35,1.05H39.2a2.185,2.185,0,0,0-2.1,1.28l-.47.93H35.7l-.47-1.05a2.2,2.2,0,0,0-2.1-1.28h-2.1a2.22,2.22,0,0,0-2.1,1.28l-.35.7Zm-.23,5.84a2.166,2.166,0,0,0,1.98-1.29l.47-1.05h2.1l.46,1.05a2.213,2.213,0,0,0,2.1,1.29h.94a2.213,2.213,0,0,0,2.1-1.29l.46-1.05h1.17l-1.28,1.29a5.9,5.9,0,0,0-1.75,4.08v.47H35.58l-.46-1.05a2.213,2.213,0,0,0-2.1-1.29h-2.1a2.194,2.194,0,0,0-2.1,1.29l-.35,1.05h-.12ZM28.23,56h.24a2.22,2.22,0,0,0,2.1-1.28l.46-1.05h2.1l.47,1.05A2.2,2.2,0,0,0,35.7,56h1.75a8.3,8.3,0,0,0,1.05,2.33H28Zm-2.1,5.83-.46-.46,1.4-.7h12.6v.58l.81.58Zm21.7-1.05V63H43.17V60.78l-.24-.11h5.14Zm.13-2.45H43.17a3.426,3.426,0,0,1-3.5-3.37V53.32a3.135,3.135,0,0,1,1.05-2.45l1.98-1.99a7.814,7.814,0,0,0,2.1-3.85l.47-1.86h.46l.47,1.86a8.376,8.376,0,0,0,2.1,3.85l1.98,1.99a3.289,3.289,0,0,1,1.05,2.45v1.51A3.426,3.426,0,0,1,47.96,58.33ZM60.67,33.76a1.093,1.093,0,0,1,1.02-1.09.33.33,0,0,1,.14,0,1.165,1.165,0,1,1-1.16,1.16ZM57.05,44.92l1.28-1.29,8.05,8.05a3.387,3.387,0,0,1-1.86.82l-7.94-7A2.033,2.033,0,0,1,57.05,44.92ZM59.5,57.17V56.7l-1.17-1.17v-.81a4.188,4.188,0,0,0,1.17.11h4.67a4.118,4.118,0,0,0,1.16-.11v.81L64.17,56.7v.47Zm4.67,2.33v2.33H59.5V59.5ZM56,49.13V48.07l5.02,4.43H59.5A3.439,3.439,0,0,1,56,49.13ZM67.67,64.17v1.16H67.2a2.194,2.194,0,0,0-2.1,1.29l-.47,1.05H63.7l-.47-1.05a2.194,2.194,0,0,0-2.1-1.29h-2.1a2.213,2.213,0,0,0-2.1,1.29l-.46,1.05H56v-3.5ZM59.85,41.88a7.932,7.932,0,0,0,1.17-2.68l.46-1.87h.59l.46,1.87a8.376,8.376,0,0,0,2.1,3.85l1.99,1.98a3.4,3.4,0,0,1,1.05,2.45V49a.9.9,0,0,1-.12.58Z"/><rect class="b" width="3.267" height="2.333" transform="translate(42.353 50.497) rotate(-45)"/><rect class="b" width="3.267" height="2.333" transform="translate(45.853 52.83) rotate(-45)"/><rect class="b" width="3.267" height="2.333" transform="translate(47.019 56.33) rotate(-45)"/><rect class="b" width="3.267" height="2.333" transform="translate(42.353 56.33) rotate(-45)"/><rect class="b" width="3.267" height="2.333" transform="translate(40.019 53.997) rotate(-45)"/><rect class="a" width="14" height="5.83" transform="translate(26.83 64.17)"/></g></svg>