<svg height="69.99" viewBox="0 0 70 69.99" width="70" xmlns="http://www.w3.org/2000/svg"><path d="m68.89 67.64v-28.7l-4.7-2.37v-5.06l-1.12-.08v-3.1l1.12-.88a5.847 5.847 0 0 0 -1.06-4.03 5.979 5.979 0 0 0 -4.7-2.49v-3.45h2.24v-2.37h-2.32v-2.27h-2.38v2.33h-2.24v2.35h2.25v3.38c-3.99.75-6.07 3.08-5.75 6.56l1.05.87v3.11l-1.14.1v4.59h-2.28c-.04-.2-.07-.36-.11-.53-.28-1.03-.56-2.06-.82-3.09a4.729 4.729 0 0 1 -.22-1.12c-.02-3.87 0-7.74-.02-11.61a11.669 11.669 0 0 0 -9.13-11.37c-.45-.1-.9-.18-1.32-.26v-3.52h2.24v-2.37h-2.33v-2.26h-2.34v2.3h-2.27v2.38h2.24v3.48c-.38.07-.71.11-1.04.18a11.7 11.7 0 0 0 -9.43 11.66q-.015 5.73-.01 11.46a1.9 1.9 0 0 1 -.03.58c-.4 1.34-.83 2.68-1.26 4.08h-2.19v-4.6l-1.12-.07v-3.16l1.1-.87a5.839 5.839 0 0 0 -1.03-3.95 6.027 6.027 0 0 0 -4.73-2.54v-3.46h2.24v-2.35h-2.3v-2.26h-2.38v2.31h-2.27v2.35h2.25v3.4c-3.83.55-6.12 3.13-5.72 6.59l1.05.92v3.02l-1.12.08v5.06l-4.72 2.38v28.68l-1.07.08v2.26h70v-2.27zm-63.15-.01h-2.2v-27.25l2.2-1.1zm11.66.03h-9.2v-33.75h9.2zm-8.06-36.24v-2.2h6.89v2.2zm7.66-4.61c-2.7 0-5.35.01-8-.02a2.207 2.207 0 0 1 -.77-.3 3.339 3.339 0 0 1 3.06-3.12 19.41 19.41 0 0 1 3.05 0 3.413 3.413 0 0 1 3.07 3.08zm27.31-7.04c.05 1.41.02 2.82.02 4.23v4.49a13.572 13.572 0 0 0 -4.64-3.14c0-1.92-.04-3.81.02-5.7a2.3 2.3 0 0 1 4.6.12zm-9.5-9.27c3.45-.05 7.05 2 8.17 4.65-2.41 0-2.56.05-4.47 1.45a1.66 1.66 0 0 0 -.14-.13 4.884 4.884 0 0 0 -6.91.17 4.876 4.876 0 0 0 -4.46-1.44c.79-1.93 3.81-4.65 7.81-4.7zm-2.14 9.35a2.335 2.335 0 0 1 2.32-2.35h.14a2.328 2.328 0 0 1 2.19 2.46c.01 1.36 0 2.72 0 4.08a3.379 3.379 0 0 1 -.05.51h-4.55c-.01-.15-.04-.36-.04-.57 0-1.33-.01-2.67 0-4.01 0-.04-.01-.08-.01-.12zm-6.99 0v-.12a2.3 2.3 0 0 1 2.35-2.23h.03a2.3 2.3 0 0 1 2.24 2.36c.03 1.82.01 3.64.01 5.48a16.653 16.653 0 0 0 -4.63 2.95c0-2.82-.02-5.62 0-8.44zm-2.37 47.81h-3.44v-23.25h6.88v1.99l-3.44 1.92zm15.16-.19a.619.619 0 0 1 -.07.19h-6.82a3.176 3.176 0 0 1 -.06-.43c-.01-2.96-.02-5.93 0-8.89a3.476 3.476 0 0 1 6.07-2.3 3.144 3.144 0 0 1 .88 2.11c.02 3.1 0 6.21 0 9.32zm5.82.22h-3.44v-9.31a5.843 5.843 0 0 0 -5.82-5.87h-.09a5.826 5.826 0 0 0 -5.79 5.88c-.01 2.72 0 5.45 0 8.17v1.1h-3.42v-17.98l9.27-5.15 9.29 5.16zm-3.5-29.12v6.46l-5.79-3.2-5.79 3.2v-6.46zm-11.42-2.46a5.69 5.69 0 0 1 5.46-4.6 5.758 5.758 0 0 1 5.81 4.6zm20.74 31.52h-3.4v-19.29l-3.5-1.97v-1.97h6.9zm0-25.68h-6.92c0-1.61.01-3.14 0-4.68a8.186 8.186 0 0 0 -6.27-7.9 7.986 7.986 0 0 0 -1.69-.22 8.184 8.184 0 0 0 -8.41 7.97c-.02 1.36 0 2.72 0 4.08v.75h-6.94v-3.41h4.63c0-.47-.01-.87 0-1.27a10.264 10.264 0 0 1 5.2-8.98 10.472 10.472 0 0 1 15.67 7.59c.11.84.12 1.69.18 2.6h4.55zm5.79-18.61q1.275-.045 2.55 0a3.45 3.45 0 0 1 3.34 3.11l-.39.36c-2.72 0-5.37.01-8.02-.02a2.2 2.2 0 0 1 -.78-.31 3.424 3.424 0 0 1 3.3-3.14zm4.73 5.9v2.19h-6.9v-2.19zm1.18 38.4h-9.22v-33.73h9.22zm4.67.01h-2.22v-28.38l2.22 1.12z" fill="#546285"/><path d="m42.98 15.15c-2.41 0-2.56.05-4.47 1.45a1.66 1.66 0 0 0 -.14-.13 4.884 4.884 0 0 0 -6.91.17 4.876 4.876 0 0 0 -4.46-1.44c.79-1.93 3.81-4.65 7.81-4.7 3.45-.05 7.05 2 8.17 4.65z" fill="#f1553f"/><path d="m40.64 36.11h-11.27a5.69 5.69 0 0 1 5.46-4.6 5.758 5.758 0 0 1 5.81 4.6z" fill="#f1553f"/><path d="m61.79 26.45-.39.36c-2.72 0-5.37.01-8.02-.02a2.2 2.2 0 0 1 -.78-.31 3.424 3.424 0 0 1 3.3-3.14q1.275-.045 2.55 0a3.45 3.45 0 0 1 3.34 3.11z" fill="#f1553f"/><path d="m17.41 26.45-.41.36c-2.7 0-5.35.01-8-.02a2.207 2.207 0 0 1 -.77-.3 3.339 3.339 0 0 1 3.06-3.12 19.41 19.41 0 0 1 3.05 0 3.413 3.413 0 0 1 3.07 3.08z" fill="#f1553f"/><g fill="#546285"><path d="m13.967 47.889v12.77h-2.293v-12.77z"/><path d="m11.676 36.183h2.263v9.291h-2.263z"/><path d="m56.058 47.869h2.279v12.842h-2.279z"/><path d="m56.059 36.181h2.268v9.3h-2.268z"/><path d="m36.135 50.171h-2.27v-2.288h2.27z"/></g></svg>