<svg height="70.008" viewBox="0 0 69.99 70.008" width="69.99" xmlns="http://www.w3.org/2000/svg"><g transform="translate(0 .008)"><path d="m68.89 67.65v-11.04l-4.72-3.54v-2.83h-2.31v2.86l-3.01 2.25c-.07-.27-.1-.46-.15-.65a3.427 3.427 0 0 1 .74-3.43 32.212 32.212 0 0 0 1.85-2.75l-1.75-.8v-.81c0-3.82.02-7.63 0-11.45a66.237 66.237 0 0 0 -.42-9.96c-.52-3.32-.86-6.65-1.28-9.98-.2-1.59-.39-3.18-.57-4.72 1.46-1.87 1.45-3.79.02-5.16a3.526 3.526 0 0 0 -4.67-.18c-1.6 1.31-1.66 3.12-.17 5.4-.13.99-.25 2-.38 3.02-.46 3.73-.94 7.47-1.4 11.21-.23 1.51-.39 3.03-.47 4.56-.07 3.94-.02 7.88-.02 11.82v2.26l-2.31-.99v-.62c0-3.46.03-6.9-.01-10.36a74.877 74.877 0 0 0 -.28-9.82c-.53-3.71-.95-7.43-1.42-11.14-.19-1.56-.38-3.13-.57-4.65 1.47-1.94 1.46-3.85-.01-5.21a3.512 3.512 0 0 0 -4.72-.07c-1.53 1.34-1.57 3.18-.08 5.31l-2.14 17.12h-7.25l-2.15-17.15c1.47-1.89 1.46-3.81.03-5.18a3.512 3.512 0 0 0 -4.66-.18q-2.43 1.98-.18 5.4-.2 1.53-.39 3.09c-.45 3.66-.92 7.33-1.37 10.99a43.989 43.989 0 0 0 -.53 5.95c.04 3.87.01 7.74.01 11.6v4.93l-2.27.97c-.01-.27-.03-.45-.03-.64v-9.04a51.086 51.086 0 0 0 -.06-5.25c-.42-4.04-.99-8.06-1.49-12.08-.25-1.98-.49-3.95-.73-5.89 1.47-1.94 1.45-3.85-.01-5.21a3.523 3.523 0 0 0 -4.72-.07c-.08.07-.15.15-.22.22a3.589 3.589 0 0 0 .13 5.08q-.1.84-.21 1.71c-.52 4.14-1.05 8.29-1.54 12.44a53.7 53.7 0 0 0 -.5 5.51c-.07 4.01-.02 8.02-.02 12.03v5.2l-1.73.78c.15.24.27.44.4.64.71 1.08 1.44 2.15 2.14 3.23a1.289 1.289 0 0 1 .24.65c-.07.75-.19 1.49-.31 2.35l-3.09-2.3v-2.84h-2.33v2.86l-4.71 3.55v11.01l-1.09.08v2.26h69.99v-2.28zm-59.43 0h-5.9v-9.89l3.43-2.57 3.84 2.87zm45.4-60.6v-.01a1.151 1.151 0 0 1 .05 2.3 1.186 1.186 0 0 1 -1.19-1.12 1.159 1.159 0 0 1 1.14-1.17zm.95 11.59h-1.93l.87-6.98c.33.47.88 4.22 1.06 6.98zm-2.24 2.45h2.58l.87 6.88h-4.31zm-.98 9.33h4.55v16.3l-4.55-1.95zm-9.39-28.04a1.17 1.17 0 0 1 1.13 1.17 1.145 1.145 0 0 1 -2.29-.01 1.174 1.174 0 0 1 1.16-1.16zm.97 11.57h-1.96l.86-6.88h.23zm-2.27 2.46h2.57l.87 6.89h-4.31zm-1.01 9.35h4.56v15.94l-4.56-1.94zm-9.34-.02h6.89v3.5c-.16-.06-.33-.11-.49-.18-.46-.23-.91-.47-1.37-.68a3.516 3.516 0 0 0 -3.16.01l-1.87.92zm6.93 6.23v6.74l-3.47-1.46-3.45 1.46v-6.74c.97-.48 1.96-1.01 2.98-1.45a1.325 1.325 0 0 1 .96 0c1 .44 1.97.95 2.98 1.45zm-11.61-29.59a1.173 1.173 0 0 1 1.12 1.19 1.18 1.18 0 0 1 -1.21 1.1 1.146 1.146 0 0 1 .09-2.29zm.95 11.59h-1.96l.86-6.9h.24zm-2.27 2.44h2.58l.86 6.9h-4.3zm-.98 9.36h4.58v13.98l-4.58 1.96zm-9.41-18.72a1.157 1.157 0 0 1 1.15 1.15 1.187 1.187 0 0 1 -1.18 1.14 1.145 1.145 0 0 1 .03-2.29zm.99 11.59h-1.97l.87-6.9h.23zm-2.28 2.45h2.58l.86 6.89h-4.29zm-1.01 9.34h4.57v14.34l-4.57 1.96zm8.26 37.22h-4.6l2.04-15.25 4.56-.76zm15.02-.01h-2.22v-6.41a2.157 2.157 0 0 1 2.22.03zm2.43.01v-7.33a4.2 4.2 0 0 0 -.72-.74 4.527 4.527 0 0 0 -6.37.66v7.4h-3.26l3.2-21.32 3.59-1.8 3.59 1.8 3.2 21.33zm10.34.01-2.01-16.02 4.57.76 2.03 15.26zm7 0-2.32-17.31-9.41-1.58c.34 3.2.77 6.31 1.16 9.42.39 3.13.77 6.27 1.17 9.45h-2.3l-3.44-22.89-5.75-2.87-5.76 2.87-3.44 22.9h-2.3l2.36-18.87-9.44 1.56-2.31 17.3h-2.25c.15-1.07.29-2.12.44-3.17q.825-5.805 1.67-11.61a1.5 1.5 0 0 0 -.28-1.16c-.49-.66-.92-1.36-1.44-2.14l22.75-9.74 22.74 9.74c-.51.77-.94 1.47-1.43 2.13a1.575 1.575 0 0 0 -.28 1.23q.915 6.3 1.82 12.62c.1.69.18 1.39.28 2.12zm10.58 0h-5.93c-.46-3.19-.91-6.38-1.37-9.59l3.84-2.88 3.46 2.58z" fill="#546285"/><g fill="#fdb436"><path d="m44.17 13.95h-1.96l.86-6.88h.23z"/><path d="m45.34 23.3h-4.31l.87-6.89h2.57z"/><path d="m45.45 25.76v15.94l-4.56-1.94v-14z"/><path d="m29.15 25.77v13.98l-4.58 1.96v-15.94z"/><path d="m27.82 13.97h-1.96l.86-6.9h.24z"/><path d="m28.99 23.31h-4.3l.86-6.9h2.58z"/></g><path d="m64.168 63.029h-2.268v-3.453h2.267z" fill="#546285"/><path d="m8.12 63.024h-2.264v-3.454h2.264z" fill="#546285"/></g></svg>