<svg height="70" viewBox="0 0 70 70" width="70" xmlns="http://www.w3.org/2000/svg"><g transform="translate(643.97 -6272.5)"><g fill="#f1553f"><path d="m-639.97 6316.5h20v4h-20z"/><path d="m-610.97 6277.5h4v9h-4z"/><path d="m-597.97 6316.5h20v4h-20z"/></g><path d="m-575.089 6340.155s-.01-12.169 0-17.934a4.57 4.57 0 0 0 -.367-1.833q-2.656-6.316-5.27-12.651a2.847 2.847 0 0 1 -.193-.983c-.026-.893-.009-1.787-.009-2.719h-2.383v2.271h-7.189c-1.056-1.8-.987-3.778-.921-5.777h-2.39v2.245h-4.636v-8.082h-2.369v2.236h-2.294v-7.521c-.782-.745-1.556-1.482-2.333-2.221v-9.472c-.759-.717-1.553-1.466-2.371-2.241v-2.973h-2.3v3.074l-2.35 2.237v9.413l-2.354 2.2v7.521h-2.3v-2.242h-2.369v8.08h-4.635v-2.241h-2.361c.072 2 .15 3.951-.916 5.745h-7.223v-2.239h-2.35c0 .955.016 1.853-.009 2.75a2.6 2.6 0 0 1 -.182.914q-2.663 6.433-5.354 12.853a3.706 3.706 0 0 0 -.292 1.481c.009 5.838-.025 18.108-.025 18.108h-1.137v2.345h70v-2.345zm-27.973-40.768h2.223v3.39h-2.223zm9.6 5.846c.369 1.106.741 2.226 1.131 3.4h-8.969l-2.03-3.4zm-16.6-26.415 1.118-1.017 1.108 1.152v7.49h-2.226zm-2.333 11.664 1.681-1.625h3.6l1.618 1.729v10.814l-.1.046c-.272-.444-.55-.883-.814-1.331a10.655 10.655 0 0 1 -1.3-2.339 10.086 10.086 0 0 1 -.063-2.61c0-.529 0-1.058 0-1.649h-2.361c0 .826-.056 1.624.013 2.411a4.926 4.926 0 0 1 -.975 3.539c-.46.613-.805 1.309-1.3 1.938zm-4.659 8.929h2.214v3.367h-2.214zm-7.385 5.8h9.875c-.709 1.186-1.375 2.3-2.044 3.422h-8.967c.39-1.16.763-2.283 1.139-3.417zm-13.751 34.918h-2.21v-17.4h2.217zm5.824.021h-3.364v-17.417h3.364zm.4-19.849h-7.859c.481-1.161.942-2.274 1.41-3.406h7.578c-.391 1.189-.755 2.29-1.127 3.411zm-5.432-5.838c.8-1.928 1.589-3.821 2.393-5.755h6.891c-.645 1.948-1.271 3.84-1.9 5.755zm16.717 2.43v3.393h-8.773l1.124-3.393zm-5.837 23.245h-3.363v-17.4h3.363zm5.838 0h-3.37v-17.4h3.37zm-6.836-25.663c.385-1.169.748-2.27 1.122-3.4h8.32c-.7 1.169-1.364 2.281-2.036 3.4zm12.679 25.7h-3.386v-3.393h3.386zm9.352-.033h-6.891v-9.885q1.6-1.207 3.42-2.571l3.471 2.6zm5.8.02h-3.39v-3.387h3.39zm0-5.843h-3.389v-5.186l-5.871-4.417-5.86 4.4v5.2h-3.422v-11.55h18.541zm-4.671-16.234v2.2h-9.219v-2.2zm-8.254-2.465c1.215-1.948 2.4-3.853 3.657-5.869 1.243 1.988 2.431 3.891 3.667 5.869zm12.979 4.675h-2.3a15.756 15.756 0 0 1 .01-1.71 5.463 5.463 0 0 0 -1.062-3.805c-1.5-2.213-2.844-4.528-4.282-6.782a2.582 2.582 0 0 1 -.507-1.767 8.972 8.972 0 0 0 .006-1.032h-2.37a10.352 10.352 0 0 0 .007 1.139 2.312 2.312 0 0 1 -.45 1.564c-1.7 2.691-3.376 5.4-5.073 8.094a1.993 1.993 0 0 0 -.324 1.163c.026 1.021.009 2.042.009 3.125h-2.305s.046-1.947-.013-2.909a4.157 4.157 0 0 1 .7-2.523c2.745-4.5 5.438-9.041 8.148-13.566.137-.228.277-.455.452-.743a4.238 4.238 0 0 1 .314.4q4.409 7.345 8.809 14.7a1.3 1.3 0 0 1 .222.6c.019 1.331.01 2.665.01 4.05zm-.2-9.229h8.32c.372 1.126.735 2.225 1.121 3.389h-7.41c-.652-1.089-1.319-2.199-2.032-3.391zm2.595 5.85h7.668c.357 1.073.73 2.189 1.127 3.376h-8.794zm3.4 23.228h-3.366v-17.4h3.366zm5.838 0h-3.374v-17.4h3.372zm-1.788-31.418h6.9l2.395 5.751h-7.378c-.638-1.9-1.265-3.777-1.921-5.753zm2.727 8.178h7.574l1.415 3.4h-7.862zm4.878 23.268h-3.367v-17.4h3.367zm4.667 0h-2.2v-17.4h2.2z" fill="#546285"/></g></svg>