<svg height="70" viewBox="0 0 70 70" width="70" xmlns="http://www.w3.org/2000/svg"><g transform="translate(-1 -2.197)"><path d="m49 14.197h10v9.05h-10z" fill="#f1553f"/><path d="m13 14.197h10v9.05h-10z" fill="#f1553f"/><path d="m71 31.062v-2.237a5.626 5.626 0 0 1 -5.645-5.593v-13.425c0-2.576-.868-3.866-2.068-5.65l-1.319-1.957-1.319 1.96c-1.2 1.784-2.068 3.074-2.068 5.65v2.237h-9.033v-2.24c0-2.576-.868-3.866-2.068-5.65l-1.319-1.957-1.319 1.96c-1.2 1.784-2.068 3.074-2.068 5.65v12.303a6.774 6.774 0 0 1 -13.548 0v-12.306c0-2.576-.868-3.866-2.068-5.65l-1.319-1.957-1.319 1.957c-1.2 1.784-2.068 3.074-2.068 5.65v2.237h-9.033v-2.237c0-2.576-.868-3.866-2.068-5.65l-1.319-1.957-1.318 1.957c-1.2 1.784-2.068 3.074-2.068 5.65v13.424a5.626 5.626 0 0 1 -5.646 5.594v2.237a7.912 7.912 0 0 0 5.645-2.362v15.658h-5.645v13.424h11.29v7.7h-11.29v6.718h70v-6.715h-11.29v-7.7h11.29v-13.427h-5.645v-15.658a7.912 7.912 0 0 0 5.645 2.362zm-7.987-22.373h-2.092a6.141 6.141 0 0 1 1.047-2.443 6.121 6.121 0 0 1 1.045 2.443zm-34.913 56.796v-7.7h15.8v7.7zm-18.068-12.178v2.237h-5.273l5.274-5.973v1.5h2.257v-1.5l5.274 5.973h-5.274v-2.237zm12.42-26.116a6.781 6.781 0 0 0 -9.032 0v-3.96h9.032zm0-6.2h-9.033v-2.234h9.032zm-9.033 11.19a4.516 4.516 0 0 1 9.032 0v12.177h-9.032zm9.033 14.419h3.016l-6.4 7.25-6.4-7.25h9.79zm20.323 0h.662l-7.437 7.363-7.436-7.363h14.21zm-14.675 2.7 6.3 6.245h-6.3zm15.8 6.245h-6.3l6.3-6.245zm-18.061-5.972v5.971h-5.274zm20.323 0 5.274 5.971h-5.275zm.371-2.978h12.805l-6.4 7.25zm13.177 2.977v5.973h-5.274zm2.258 0 5.274 5.973h-5.274zm-3.387-5.214h-9.033v-12.177a4.516 4.516 0 0 1 9.032 0v12.177zm0-23.364h-2.258v2.237h2.258v3.96a6.781 6.781 0 0 0 -9.032 0v-3.96h4.516v-2.237h-4.517v-2.237h9.032zm0-6.712v2.237h-9.033v-2.237zm-11.374-5.593h-2.092a6.141 6.141 0 0 1 1.047-2.443 6.121 6.121 0 0 1 1.045 2.443zm-2.175 2.237h2.258v33.432h-2.258zm-2.258 17.086v16.346h-3.387v-13.958a9.056 9.056 0 0 0 3.387-2.388zm-5.645 2.972v13.374h-2.258v-13.373a8.3 8.3 0 0 0 2.258 0zm-4.516-.584v13.958h-3.387v-16.346a9.056 9.056 0 0 0 3.387 2.388zm-5.645-8.29v22.248h-2.258v-33.432h2.258v11.187zm-.084-13.421h-2.092a6.141 6.141 0 0 1 1.047-2.443 6.121 6.121 0 0 1 1.045 2.443zm-4.433 5.593v2.237h-9.032v-2.237zm-11.373-5.593h-2.091a6.121 6.121 0 0 1 1.045-2.443 6.121 6.121 0 0 1 1.046 2.443zm-2.178 14.542v-12.305h2.258v33.432h-2.258zm-2.255 23.369h3.016l-6.4 7.25v-7.25zm7.9 11.187h11.29v7.7h-11.287zm54.197 12.173h-65.484v-2.238h65.484zm-11.29-4.475h-11.291v-7.7h11.29zm11.29-18.885v7.25l-6.4-7.25zm-5.642-2.242h-2.261v-33.432h2.261z" fill="#546285"/></g></svg>