<svg height="70" viewBox="0 0 64.396 70" width="64.396" xmlns="http://www.w3.org/2000/svg"><g transform="translate(7.755 7.75)"><path d="m264.7 668.3 2.818 2 5.76 4.136a.718.718 0 0 0 .088.054 1.094 1.094 0 0 0 .166.078c.025.01.05.019.076.026a1.1 1.1 0 0 0 .294.046h.028a1.1 1.1 0 0 0 .294-.046c.024-.007.047-.015.071-.025s.059-.022.088-.035l.038-.018a.77.77 0 0 0 .073-.043.737.737 0 0 0 .066-.043l5.707-4.136c.017-.012.032-.024.045-.035s.031-.025.049-.041l2.195-2.006a1.1 1.1 0 0 0 -.691-1.906 1.086 1.086 0 0 0 -.79.286l-.019.018-1.264 1.155-1.814-2.527a1.1 1.1 0 0 0 -1.708-.093l-2.379 2.649-2.38-2.649a1.1 1.1 0 0 0 -1.55-.083 1.1 1.1 0 0 0 -.157.175l-1.9 2.643-1.937-1.378a1.1 1.1 0 0 0 -1.527.275 1.105 1.105 0 0 0 .26 1.523zm4.989.861 1.1-1.53 1.983 2.208.019 1.55zm5.278.722 2.023-2.252 1.1 1.534-3.1 2.25z" fill="#546285" transform="translate(-249.449 -616.773)"/><path d="m56.632 17.071a1.034 1.034 0 0 0 .008-.134 1.1 1.1 0 0 0 -.065-.369 4.9 4.9 0 0 0 -3.759-4.041l.138-19.171a1.1 1.1 0 0 0 -1.1-1.105h-54.827a1.1 1.1 0 0 0 -1.1 1.105l.138 19.171a4.9 4.9 0 0 0 -3.755 4.037 1.057 1.057 0 0 0 -.056.51c-.007.1-.009.187-.009.272a4.933 4.933 0 0 0 4.9 4.948h.022a4.933 4.933 0 0 0 4.933-4.908v-.037c0-.159-.007-.318-.023-.487l-.009-.062v-.03a4.9 4.9 0 0 0 -2.87-3.934l3.989-4.64v17.08h-6.16a1.1 1.1 0 0 0 -1.1 1.1v3.482l-.178 5.083a1.1 1.1 0 0 0 1.06 1.135h2.747v10.53a1.1 1.1 0 0 0 1.1 1.1h4.772c3.609 8.815 11.012 14.508 18.979 14.544h.075c7.963-.036 15.367-5.729 18.976-14.547h4.775a1.1 1.1 0 0 0 1.1-1.1v-10.53h2.707a1.1 1.1 0 0 0 1.1-1.1c0-.017 0-.035 0-.051l-.177-5.069v-3.479a1.1 1.1 0 0 0 -1.1-1.1h-6.163v-17.08l3.989 4.64a4.9 4.9 0 0 0 -2.87 3.934v.025l-.007.052v.017c-.016.159-.023.323-.023.484a4.932 4.932 0 0 0 4.9 4.948h.022a4.933 4.933 0 0 0 4.927-4.908v-.037c.003-.097-.001-.192-.006-.278zm-22.368-21.517.245-.378 4.011 4.664.058 4.321h-4.314zm0 10.8h4.343l.255 18.92h-4.6zm-1.9-11.911-8.125 12.581-7.77-12.579zm-11.111 11.912 1.2 1.946a4.95 4.95 0 0 0 .915 9.488v7.486h-6.382v-18.92zm-4.266-2.194v-4.706l2.913 4.706zm6.373 11.368a2.783 2.783 0 0 1 -1.7-1.628 2.734 2.734 0 0 1 .4-2.675 2.746 2.746 0 0 1 4.356.032 2.739 2.739 0 0 1 .56 1.661 2.748 2.748 0 0 1 -3.617 2.61zm2.206 2.144a4.948 4.948 0 0 0 .45-9.359l1.267-1.959h4.787v18.92h-6.5zm3.134-13.512 3.368-5.21v5.21zm-13.909-8.261v8.261h-4.485l.059-4.32 3.99-4.641zm0 10.451v18.92h-4.768l.255-18.92zm-15.025 10.078a2.776 2.776 0 0 1 .157.92 2.754 2.754 0 0 1 -2.751 2.751 2.754 2.754 0 0 1 -2.752-2.752 2.771 2.771 0 0 1 1.007-2.125 2.75 2.75 0 0 1 1.38-.6 2.754 2.754 0 0 1 1.272.123 2.758 2.758 0 0 1 1.687 1.683zm-1.52-5.856v-.366l-.113-15.762h13.977zm7.13 5.1v-10.031l2.76-3.208-.18 13.236zm2.55 2.195-.1 7.411h-2.45v-7.414zm-9.942 16.01.121-3.459.019-1.1v-1.848h5.057v6.408zm3.766 11.63v-9.435h1.431v.016a30.593 30.593 0 0 0 1.448 9.419zm41.758-9.414a28.334 28.334 0 0 1 -1.822 10.124c-3.167 8.354-9.9 13.78-17.163 13.838h-.112c-7.283-.032-14.04-5.463-17.213-13.836a28.347 28.347 0 0 1 -1.822-10.13v-.017h2.073v7.675a1.1 1.1 0 0 0 1.1 1.1h12.226l-.1 1.7a1.1 1.1 0 0 0 1.025 1.152.648.648 0 0 0 .076 0h5.334a1.1 1.1 0 0 0 1.1-1.1l-.1-1.759h12.226a1.1 1.1 0 0 0 1.1-1.1v-7.668h2.075zm-30.921 4.573h5.713a1.1 1.1 0 0 0 1.1-1.1v-3.5h1.873l-.373 6.585h-11.256v-6.579h1.846v3.5a1.1 1.1 0 0 0 1.097 1.094zm1.1-2.195v-2.4h3.522v2.4zm9.252 7.036.092-1.626c0-.019 0-.039.006-.061l.439-7.748h1.939l.535 9.435zm7.646-4.841h5.715a1.1 1.1 0 0 0 1.1-1.1v-3.5h1.843v6.579h-11.26l-.372-6.579h1.873v3.5a1.1 1.1 0 0 0 1.097 1.1zm1.1-2.195v-2.4h3.515v2.4zm11.83-4.593h-38.139v-6.408h38.133zm0-8.6h-2.457l-.1-7.411h2.551zm0-9.606h-2.58l-.186-13.239 2.759 3.208zm3.626 29.838h-2.885a30.585 30.585 0 0 0 1.444-9.42v-.018h1.431zm3.619-18.04v1.842l.007.377h-.014l.147 4.189h-5.2v-6.408zm-13.986-33.026h13.979l-.115 15.883v.245zm17.626 23.517a2.746 2.746 0 0 1 -.509 1.071 2.751 2.751 0 0 1 -.409.425 2.775 2.775 0 0 1 -1.764.647 2.75 2.75 0 0 1 -.945-.173c-.079-.029-.156-.062-.231-.1a2.789 2.789 0 0 1 -.937-.729 2.8 2.8 0 0 1 -.331-.5 2.7 2.7 0 0 1 -.218-.565 2.747 2.747 0 0 1 -.089-.614c0-.027 0-.053 0-.08a2.77 2.77 0 0 1 .671-1.8 2.737 2.737 0 0 1 3.764-.373 2.814 2.814 0 0 1 .615.666 2.77 2.77 0 0 1 .37.837 2.72 2.72 0 0 1 .084.669 2.779 2.779 0 0 1 -.071.619z" fill="#546285"/><g fill="#fdb436"><path d="m681.863 264.53a2.779 2.779 0 0 1 -.069.614 2.746 2.746 0 0 1 -.509 1.071 2.753 2.753 0 0 1 -.409.425 2.8 2.8 0 0 1 -.492.329 2.69 2.69 0 0 1 -2.218.144c-.079-.029-.156-.062-.231-.1a2.789 2.789 0 0 1 -.937-.729 2.8 2.8 0 0 1 -.331-.5 2.7 2.7 0 0 1 -.218-.565 2.746 2.746 0 0 1 -.089-.614c0-.027 0-.053 0-.08a2.77 2.77 0 0 1 .671-1.8 2.737 2.737 0 0 1 3.763-.373 2.814 2.814 0 0 1 .615.666 2.77 2.77 0 0 1 .37.837 2.72 2.72 0 0 1 .084.675z" transform="translate(-627.392 -247.182)"/><path d="m350.263 211.1a2.753 2.753 0 0 1 -5.321.982 2.734 2.734 0 0 1 .4-2.675 2.746 2.746 0 0 1 4.356.032 2.739 2.739 0 0 1 .56 1.661z" transform="translate(-323.287 -198.18)"/><path d="m23.983 264.565a2.745 2.745 0 1 1 -.157-.92 2.754 2.754 0 0 1 .157.92z" transform="translate(-24.06 -247.217)"/></g></g></svg>