<svg id="UX_UI_designers_" data-name="UX/UI_designers " xmlns="http://www.w3.org/2000/svg" xmlns:xlink="http://www.w3.org/1999/xlink" width="48" height="48" viewBox="0 0 48 48">
  <defs>
    <linearGradient id="linear-gradient" x1="1" y1="0.074" x2="0.098" y2="0.883" gradientUnits="objectBoundingBox">
      <stop offset="0" stop-color="#576ac7"/>
      <stop offset="1" stop-color="#576ac7" stop-opacity="0"/>
    </linearGradient>
    <linearGradient id="linear-gradient-2" y1="0.074" x2="0" y2="0.069" xlink:href="#linear-gradient"/>
    <linearGradient id="linear-gradient-3" x1="0.5" y1="0.97" x2="0" y2="0.069" xlink:href="#linear-gradient"/>
    <linearGradient id="linear-gradient-5" x1="0.5" y1="0" x2="0.5" y2="1" xlink:href="#linear-gradient"/>
  </defs>
  <circle id="Ellipse_1219" data-name="Ellipse 1219" cx="14.4" cy="14.4" r="14.4" transform="translate(0 19.2)" opacity="0.2" fill="url(#linear-gradient)"/>
  <circle id="Ellipse_1220" data-name="Ellipse 1220" cx="14.4" cy="14.4" r="14.4" transform="translate(19.2 19.2)" opacity="0.2" fill="url(#linear-gradient-2)"/>
  <circle id="Ellipse_1221" data-name="Ellipse 1221" cx="14.4" cy="14.4" r="14.4" transform="translate(9.601)" opacity="0.2" fill="url(#linear-gradient-3)"/>
  <path id="Intersection_31" data-name="Intersection 31" d="M0,.5A14.42,14.42,0,0,1,17.183,9.1a14.417,14.417,0,0,1-3.792.5A14.408,14.408,0,0,1,0,.5Z" transform="translate(10.61 19.2)" opacity="0.4" fill="url(#linear-gradient-2)"/>
  <path id="Intersection_30" data-name="Intersection 30" d="M0,10.734A14.36,14.36,0,0,1,4.8,0,14.368,14.368,0,0,1,9.6,10.734,14.365,14.365,0,0,1,4.8,21.467,14.358,14.358,0,0,1,0,10.734Z" transform="translate(19.198 22.867)" opacity="0.4" fill="url(#linear-gradient-5)"/>
  <path id="Intersection_32" data-name="Intersection 32" d="M17139.605-8317.705A14.409,14.409,0,0,1,17153-8326.8a14.4,14.4,0,0,1,3.791.5,14.4,14.4,0,0,1-13.391,9.095A14.436,14.436,0,0,1,17139.605-8317.705Z" transform="translate(-17119.398 8346)" opacity="0.4" fill="url(#linear-gradient-2)"/>
  <path id="Intersection_29" data-name="Intersection 29" d="M0,5.428A14.415,14.415,0,0,1,3.793,0,14.448,14.448,0,0,1,7.585,5.429a14.435,14.435,0,0,1-3.792.5A14.42,14.42,0,0,1,0,5.428Z" transform="translate(20.207 22.866)" fill="#576ac7"/>
</svg>
