<svg width="99" height="14" viewBox="0 0 99 14" fill="none" xmlns="http://www.w3.org/2000/svg">
<path fill-rule="evenodd" clip-rule="evenodd" d="M0 0.599716V2.39886H2.9713L8.75036 13.2482H15.8651L21.6442 2.37159L24.6155 2.34433V0.572455H15.7561V2.34433H18.1004L14.0115 10.0588L9.59541 2.37159L12.812 2.34433V0.545193H0V0.599716ZM57.109 0.599716V2.39886H60.0803L65.8594 13.2482H72.9741L78.7532 2.37159L81.7245 2.34433V0.572455H72.8651V2.34433H75.2094L71.1205 10.0588L66.7044 2.37159L69.9211 2.34433V0.545193H57.109V0.599716ZM42.5251 0.599716V2.39886H45.4964V11.2582H42.3888V13.2482L45.4964 13.2755H60.2711V7.38737H58.3357C58.2267 10.495 55.528 11.2855 54.3831 11.2855C53.3472 11.2855 51.3027 11.2855 51.3027 11.2855V2.42611L54.2195 2.39886V0.599716H42.5251ZM32.5753 0.218082C27.5595 0.218082 23.4706 3.21665 23.4706 6.8967C23.4706 10.5768 27.5595 13.5753 32.5753 13.5753C37.5911 13.5753 41.68 10.5768 41.68 6.8967C41.68 3.21665 37.6184 0.218082 32.5753 0.218082ZM32.439 11.6399C30.6671 11.6399 29.2224 9.51363 29.2224 6.8967C29.2224 4.27977 30.6671 2.15351 32.439 2.15351C34.2109 2.15351 35.6557 4.27977 35.6557 6.8967C35.6557 9.51363 34.2109 11.6399 32.439 11.6399ZM89.6843 0C84.6686 0 80.5796 3.05308 80.5796 6.78766C80.5796 10.5495 84.6686 13.5753 89.6843 13.5753C94.7001 13.5753 98.7891 10.5222 98.7891 6.78766C98.7891 3.05308 94.7274 0 89.6843 0ZM89.548 11.5854C87.7762 11.5854 86.3314 9.43185 86.3314 6.7604C86.3314 4.08896 87.7762 1.93544 89.548 1.93544C91.3199 1.93544 92.7647 4.08896 92.7647 6.7604C92.7647 9.43185 91.3199 11.5854 89.548 11.5854Z" fill="#546285"/>
</svg>
